<svg width="168" height="27" viewBox="0 0 168 27" fill="none" xmlns="http://www.w3.org/2000/svg">
<path d="M113.366 0.178829C114.248 0.0247606 115.634 -0.0307138 117.397 0.0194482C119.282 0.0731933 120.539 0.207556 121.607 0.467324C122.444 0.671556 123.936 1.23045 124.921 1.70878C126.251 2.35371 127.055 2.89651 128.033 3.80837C128.761 4.48376 129.724 5.60173 130.178 6.29146C130.631 6.98119 131.237 8.22987 131.525 9.06829C131.923 10.2346 132.066 11.0318 132.136 12.4721C132.2 13.8301 132.141 14.776 131.923 15.876C131.736 16.8147 131.321 18.0169 130.839 19.0111C130.4 19.9158 129.59 21.1753 128.997 21.8775C128.413 22.5673 127.499 23.4648 126.967 23.8715C126.433 24.2781 125.393 24.9142 124.653 25.2851C123.915 25.6559 122.544 26.1539 121.607 26.3904C120.525 26.6663 119.122 26.8616 117.755 26.9279C116.478 26.9888 114.952 26.9457 113.993 26.8185C113.107 26.7021 111.897 26.4834 111.306 26.3365C110.715 26.1878 109.486 25.7078 108.574 25.2707C107.32 24.6688 106.582 24.1581 105.545 23.1764C104.789 22.4616 103.776 21.2738 103.294 20.5339C102.807 19.7869 102.212 18.5543 101.954 17.7571C101.587 16.6249 101.474 15.8527 101.412 14.0845C101.353 12.4596 101.41 11.4761 101.616 10.5015C101.773 9.76339 102.173 8.59353 102.503 7.90381C102.834 7.21408 103.479 6.14634 103.936 5.53007C104.393 4.9138 105.312 3.96437 105.976 3.42156C106.641 2.87694 107.709 2.16018 108.35 1.83055C108.991 1.50091 110.079 1.04781 110.769 0.823875C111.458 0.599937 112.626 0.309609 113.366 0.178829ZM149.286 0.177079C150.196 0.0265932 151.667 -0.0308048 153.317 0.0157742C155.284 0.0713106 156.328 0.194941 157.616 0.522784C158.559 0.761053 160.037 1.32005 160.931 1.77509C161.986 2.31254 163.003 3.01846 163.874 3.81747C164.605 4.48749 165.598 5.64114 166.078 6.38104C166.572 7.14063 167.151 8.34812 167.409 9.15787C167.735 10.1808 167.892 11.1554 167.962 12.5617C168.034 14.0469 167.982 14.8853 167.749 15.9656C167.581 16.7538 167.09 18.1243 166.66 19.0111C166.232 19.8979 165.451 21.1431 164.927 21.7773C164.404 22.4133 163.493 23.3215 162.901 23.7945C162.31 24.2692 161.262 24.9375 160.572 25.2796C159.883 25.6218 158.512 26.1091 157.527 26.3617C156.337 26.6681 155.013 26.858 153.586 26.9279C152.308 26.9888 150.782 26.9457 149.823 26.8185C148.937 26.7021 147.727 26.4834 147.136 26.3365C146.545 26.1878 145.336 25.7186 144.449 25.2922C143.213 24.6993 142.487 24.1886 141.339 23.1083C140.463 22.2842 139.519 21.1771 139.065 20.4443C138.641 19.7546 138.075 18.5453 137.808 17.7571C137.426 16.6267 137.304 15.8706 137.233 14.1741C137.165 12.5259 137.217 11.6893 137.457 10.5911C137.629 9.80281 138.03 8.59354 138.349 7.90381C138.67 7.21409 139.325 6.13203 139.809 5.49963C140.291 4.86903 141.21 3.91957 141.851 3.39286C142.493 2.86617 143.539 2.1639 144.18 1.83247C144.822 1.50104 145.909 1.04593 146.599 0.820201C147.288 0.596264 148.498 0.306067 149.286 0.177079ZM48.4243 0.105349C49.0155 0.0211496 50.5866 -0.0182641 51.9177 0.0157742C53.2488 0.0498126 54.9006 0.200321 55.5903 0.350806C56.28 0.499501 57.3693 0.811328 58.0088 1.04064C58.6484 1.27175 59.777 1.81812 60.5169 2.25883C61.255 2.69774 62.4249 3.62926 63.1146 4.32973C63.8043 5.02841 64.6303 6.03887 64.9492 6.57453C65.2698 7.1084 65.7409 8.15105 65.9971 8.88914C66.2533 9.62903 66.5436 10.9171 66.6439 11.7555C66.7693 12.8107 66.7639 13.7459 66.6296 14.8011C66.5239 15.6395 66.2856 16.7682 66.0993 17.3092C65.9148 17.8502 65.5814 18.6564 65.3575 19.1007C65.1353 19.545 64.6104 20.3906 64.193 20.9818C63.7756 21.573 62.8386 22.6103 62.1095 23.2857C61.1654 24.1617 60.3234 24.7368 59.1733 25.2903C58.2865 25.7167 57.0772 26.1878 56.486 26.3365C55.8949 26.4834 54.6856 26.7021 53.7988 26.8185C52.8153 26.9493 51.348 26.9886 50.0366 26.9188C48.8542 26.8579 47.2222 26.6465 46.4088 26.4476C45.5955 26.2488 44.4274 25.8816 43.8112 25.629C43.1949 25.3782 42.1666 24.8228 41.527 24.3982C40.8874 23.9737 39.8914 23.1101 39.3163 22.483C38.7412 21.8542 37.9869 20.8564 37.6394 20.2652C37.2936 19.674 36.7633 18.4647 36.4606 17.5779C35.9625 16.1143 35.9125 15.7506 35.9035 13.6366C35.8964 11.9795 35.9822 10.9727 36.2008 10.1432C36.371 9.50363 36.853 8.29971 37.2722 7.47203C37.7272 6.56733 38.4653 5.4978 39.1085 4.79912C39.6997 4.15956 40.6277 3.31033 41.1687 2.91262C41.7097 2.51491 42.799 1.88971 43.5872 1.52246C44.3755 1.15699 45.5453 0.721718 46.1849 0.556899C46.8245 0.392081 47.8331 0.18955 48.4243 0.105349ZM12.5942 0.105349C13.1854 0.0211496 14.7978 -0.0181312 16.1772 0.0176987C18.1228 0.0696522 19.0866 0.187795 20.4768 0.544303C21.4622 0.796905 22.8327 1.2789 23.5224 1.61571C24.2121 1.95251 25.3408 2.66909 26.0305 3.20654C26.7202 3.7422 27.6517 4.65768 28.1014 5.23633C28.5493 5.81677 29.0815 6.57273 29.2821 6.91849C29.4828 7.26425 29.8607 8.12956 30.1223 8.84435C30.3838 9.55916 30.6795 10.849 30.7762 11.7108C30.8945 12.7516 30.8945 13.7602 30.7762 14.7115C30.6777 15.4998 30.468 16.589 30.3103 17.1301C30.1527 17.6711 29.8195 18.5185 29.5705 19.0111C29.3214 19.5038 28.87 20.2688 28.569 20.7131C28.2663 21.1574 27.5729 21.9958 27.0247 22.5763C26.4783 23.1585 25.4661 24.0058 24.7764 24.4626C24.0867 24.9177 22.9975 25.5035 22.3579 25.7615C21.7183 26.0212 20.5091 26.3814 19.6706 26.5641C18.5098 26.8149 17.4438 26.8902 15.1919 26.8759C13.1406 26.8652 11.8382 26.7684 10.9371 26.5624C10.2223 26.3994 9.01299 26.0285 8.24981 25.7364C7.48663 25.4444 6.29707 24.8138 5.60735 24.3337C4.91762 23.8518 3.91079 22.9686 3.36797 22.3702C2.82693 21.7718 2.12104 20.8528 1.80215 20.3261C1.48147 19.7994 1.0228 18.8051 0.780959 18.1154C0.539109 17.4256 0.245318 16.2576 0.130664 15.5177C0.00884528 14.7491 -0.0340343 13.522 0.0286676 12.6513C0.0877887 11.8129 0.259752 10.6448 0.410237 10.0536C0.56073 9.46241 0.997842 8.33376 1.38122 7.54551C1.86313 6.55303 2.48304 5.67874 3.39491 4.70238C4.11867 3.92667 5.23473 2.94855 5.87607 2.52755C6.51743 2.10476 7.52425 1.55834 8.11545 1.31112C8.70665 1.06389 9.71347 0.725259 10.3548 0.558649C10.9962 0.393831 12.003 0.18955 12.5942 0.105349ZM96.8899 2.70845L86.5868 13.144C80.9192 18.8832 76.2833 23.6195 76.2822 23.669C76.2822 23.7174 81.0386 23.7586 97.4219 23.7586V26.4459H70.9076V23.669L91.2377 3.33548H71.8034V0.648224H96.8844L96.8899 2.70845ZM116.681 2.63672C115.794 2.6421 114.584 2.7496 113.993 2.87501C113.402 3.00042 112.354 3.37662 111.664 3.71162C110.867 4.09859 110.014 4.71315 109.326 5.39571C108.567 6.14814 108.013 6.92924 107.483 7.99339C106.974 9.01275 106.632 10.0196 106.447 11.0389C106.265 12.044 106.202 13.1386 106.261 14.2637C106.322 15.4371 106.5 16.4117 106.829 17.3988C107.093 18.187 107.521 19.1939 107.782 19.6382C108.042 20.0825 108.741 20.928 109.334 21.5192C109.975 22.1588 110.881 22.8288 111.575 23.171C112.216 23.4898 113.304 23.8697 113.993 24.0202C114.683 24.1689 115.934 24.2906 116.77 24.2906C117.607 24.2906 118.857 24.1671 119.547 24.0184C120.237 23.8679 121.324 23.4701 121.965 23.1333C122.643 22.775 123.59 22.0477 124.232 21.392C124.968 20.6378 125.543 19.8227 125.971 18.9216C126.324 18.1835 126.738 17.0942 126.892 16.503C127.062 15.8491 127.177 14.6219 127.184 13.3679C127.191 12.0637 127.091 10.8634 126.91 10.0984C126.753 9.43377 126.403 8.42515 126.134 7.85903C125.833 7.22305 125.165 6.34519 124.388 5.56051C123.549 4.71492 122.742 4.10227 121.965 3.72247C121.324 3.41075 120.237 3.03446 119.547 2.88935C118.857 2.74425 117.567 2.62956 116.681 2.63672ZM153.048 2.70128C151.538 2.65112 150.553 2.71026 149.734 2.90195C149.092 3.05065 148.166 3.37667 147.674 3.62747C147.181 3.88008 146.416 4.34943 145.972 4.67368C145.527 4.99615 144.832 5.69487 144.424 6.22515C144.017 6.75365 143.48 7.5903 143.232 8.08296C142.985 8.57563 142.656 9.46243 142.5 10.0536C142.344 10.6448 142.168 11.8541 142.109 12.7409C142.036 13.8444 142.089 14.8334 142.278 15.876C142.464 16.8954 142.804 17.9022 143.311 18.9216C143.851 20.0054 144.386 20.7543 145.167 21.5192C145.832 22.1713 146.735 22.8235 147.46 23.1764C148.12 23.497 149.162 23.8787 149.779 24.0256C150.395 24.1707 151.663 24.2906 152.6 24.2906C153.537 24.2906 154.825 24.167 155.467 24.0147C156.108 23.8643 157.115 23.5024 157.706 23.214C158.297 22.9238 159.254 22.2233 159.831 21.6554C160.408 21.0874 161.146 20.1792 161.472 19.6382C161.798 19.0971 162.239 18.1279 162.452 17.4884C162.665 16.8488 162.923 15.6395 163.021 14.8011C163.149 13.7405 163.145 12.7767 163.007 11.6212C162.9 10.7093 162.604 9.41943 162.351 8.75478C162.099 8.09013 161.594 7.1334 161.232 6.62999C160.87 6.12658 160.169 5.37058 159.677 4.94958C159.184 4.52858 158.419 4.00182 157.975 3.77968C157.53 3.55754 156.724 3.24053 156.183 3.07393C155.585 2.8912 154.356 2.74428 153.048 2.70128ZM15.2815 2.63147C14.2621 2.63685 13.1746 2.7693 12.3255 2.99502C11.5856 3.1903 10.5788 3.56843 10.0861 3.83357C9.59343 4.09873 8.66375 4.84041 8.02063 5.48353C7.37748 6.12489 6.59635 7.13346 6.28283 7.72466C5.96932 8.31586 5.54823 9.44451 5.34579 10.2328C5.08961 11.2235 4.97849 12.2196 4.98207 13.4575C4.98386 14.4428 5.09496 15.7739 5.22753 16.4135C5.3601 17.053 5.73463 18.1423 6.0589 18.832C6.48169 19.7277 7.01192 20.448 7.92021 21.3527C8.74786 22.1785 9.59525 22.8198 10.3548 23.1925C10.9962 23.506 12.123 23.8948 12.8629 24.056C13.8518 24.2692 14.7261 24.3211 16.1772 24.2513C17.6212 24.1814 18.4596 24.0434 19.3123 23.7317C19.9519 23.497 20.9139 23.0241 21.4478 22.682C21.9817 22.338 22.7683 21.6536 23.1964 21.1609C23.6246 20.6683 24.2479 19.7403 24.5829 19.1007C24.9179 18.4611 25.3391 17.4525 25.5182 16.8613C25.7672 16.0408 25.8442 15.1916 25.8442 13.2783C25.8442 11.3542 25.7689 10.5194 25.5163 9.69532C25.3354 9.10412 24.9413 8.13671 24.6403 7.54551C24.3411 6.95432 23.6443 6.02089 23.0925 5.47269C22.4619 4.84387 21.5911 4.22768 20.7456 3.81205C20.0057 3.44837 18.8376 3.03271 18.1479 2.8876C17.4581 2.74429 16.1682 2.62789 15.2815 2.63147ZM51.8281 2.69586C50.3358 2.6457 49.3218 2.70308 48.5139 2.8876C47.8743 3.03272 46.8245 3.40897 46.1849 3.72247C45.445 4.08436 44.5904 4.72211 43.8416 5.47094C43.0283 6.28248 42.4568 7.06898 42.0018 7.99339C41.6399 8.73328 41.2154 9.94254 41.0595 10.6806C40.8535 11.6588 40.7996 12.6083 40.8641 14.1741C40.9268 15.6646 41.0612 16.6266 41.3048 17.3092C41.4965 17.8502 41.8799 18.7388 42.154 19.2799C42.4299 19.8209 43.186 20.7955 43.8363 21.4423C44.5798 22.1803 45.454 22.8324 46.1849 23.1907C46.8245 23.506 47.9531 23.8948 48.693 24.056C49.6819 24.2692 50.5562 24.3211 52.0073 24.2513C53.4512 24.1814 54.2897 24.0434 55.1424 23.7317C55.782 23.497 56.744 23.0241 57.2761 22.682C57.81 22.338 58.5768 21.6895 58.9781 21.2416C59.3811 20.7937 59.9258 20.0682 60.1873 19.6292C60.4489 19.1903 60.8842 18.187 61.1529 17.3988C61.5434 16.2504 61.6582 15.5374 61.7227 13.8158C61.78 12.3324 61.7245 11.2772 61.5435 10.4119C61.4002 9.7222 61.0169 8.59355 60.6908 7.90381C60.2967 7.06779 59.7358 6.28555 59.0085 5.55701C58.4101 4.95507 57.475 4.23835 56.9339 3.96425C56.3929 3.68837 55.5043 3.30865 54.9633 3.11696C54.2718 2.87333 53.3366 2.74781 51.8281 2.69586Z" fill="#FEFEFE"/>
</svg>
