<svg width="144" height="20" viewBox="0 0 144 20" fill="none" xmlns="http://www.w3.org/2000/svg">
<path d="M111.372 2.16899e-05C111.417 -0.00257416 111.731 0.682755 112.071 1.5251C112.411 2.36617 112.735 3.17093 112.79 3.3137C112.847 3.45648 112.955 3.71996 113.035 3.89778C113.113 4.07693 113.726 5.65262 114.398 7.40222C115.071 9.15184 115.676 10.7133 115.745 10.8742C115.814 11.0352 115.928 11.3129 115.999 11.4907C116.069 11.6699 116.182 11.9463 116.248 12.1073C116.315 12.2682 117.01 14.0347 117.794 16.0335C118.577 18.0324 119.243 19.7405 119.274 19.83C119.314 19.9494 119.083 19.9936 118.399 19.9975C117.787 20.0014 117.426 19.9468 117.339 19.8352C117.266 19.7431 116.842 18.7333 116.397 17.5911C115.95 16.4489 115.515 15.3392 115.428 15.125C115.341 14.9108 115.188 14.5422 114.911 13.8776L107.751 13.9568L107.597 14.2813C107.514 14.4604 107.385 14.7525 107.311 14.9303C107.238 15.1094 106.756 16.3217 105.308 20L104.38 19.9962C103.726 19.9936 103.45 19.9442 103.449 19.83C103.447 19.7405 103.769 18.8501 104.165 17.8507C104.56 16.8513 104.934 15.9168 104.996 15.774C105.057 15.6312 105.457 14.6084 105.884 13.5026C106.312 12.3967 106.71 11.3739 106.77 11.2312C106.831 11.0884 107.152 10.2707 107.483 9.41404C107.815 8.5574 108.135 7.7397 108.195 7.59692C108.255 7.45414 108.919 5.76032 109.669 3.83288C110.42 1.90547 111.091 0.255797 111.162 0.166194C111.232 0.0766614 111.327 0.00136148 111.372 2.16899e-05ZM7.83943 0.223232C7.91113 0.0934732 8.03535 0.0116821 8.116 0.0389346C8.19544 0.0676944 8.53598 0.786749 8.87393 1.63677C9.21065 2.48821 9.51794 3.27217 9.55635 3.3786C9.5948 3.48515 9.88542 4.24571 10.2016 5.06593C10.5179 5.88621 10.8302 6.68965 10.8942 6.8506C10.9595 7.01154 11.0683 7.27373 11.1349 7.43467C11.2014 7.59562 11.8673 9.30371 12.6137 11.2312C13.3589 13.1586 14.0323 14.8823 14.1091 15.0601C14.1859 15.2392 14.2948 15.5014 14.3524 15.6442C14.41 15.787 14.8055 16.7942 15.2318 17.8831C15.6582 18.9721 16.0065 19.8923 16.0065 19.9274C16.0064 19.9624 15.5749 19.9923 14.0861 19.9923L13.8811 19.5055C13.7685 19.2382 13.6264 18.902 13.5649 18.7592C13.5048 18.6164 13.1053 17.5937 12.6777 16.4878C12.2501 15.382 11.8314 14.3423 11.5895 13.8815L4.41972 13.9568L3.48499 16.358C2.97032 17.6793 2.50312 18.876 2.44549 19.0188C2.38788 19.1616 2.2611 19.4407 2.1638 19.6393C1.99353 19.9871 1.95378 19.9988 0.994889 19.9962C0.449515 19.9936 0.00136584 19.9481 2.23998e-05 19.8949C-0.00125769 19.8417 0.0524914 19.7392 0.119051 19.6678C0.184346 19.5964 0.532601 18.7787 0.892364 17.8507C1.25341 16.9226 1.59919 16.0465 1.66193 15.9037C1.72467 15.7609 2.44545 13.9218 3.26357 11.8152C4.08167 9.70872 4.7999 7.86956 4.85883 7.72671C4.919 7.58394 5.23903 6.76622 5.57063 5.90959C5.90222 5.05297 6.22618 4.221 6.28893 4.06002C6.35294 3.89908 6.4605 3.63689 6.52836 3.47595C6.59622 3.315 6.88939 2.56998 7.18002 1.82107C7.47065 1.07216 7.76773 0.353027 7.83943 0.223232ZM21.8703 2.16899e-05C21.919 -0.00251673 22.161 0.218083 22.4081 0.488018C22.6552 0.759283 23.1429 1.33042 23.4937 1.75744C23.8445 2.18576 24.1634 2.56479 24.2018 2.59984C24.2417 2.63516 25.3657 3.97973 26.7009 5.5851C28.0363 7.19196 29.2514 8.65214 29.4012 8.82996C29.5523 9.00915 30.2346 9.82684 30.9195 10.6471C31.6032 11.4687 32.2869 12.2877 32.4393 12.4681C32.5904 12.6486 33.0027 13.1444 33.3548 13.5714C33.7068 13.9971 34.1678 14.537 34.379 14.7706C34.5903 15.0042 34.8053 15.1496 34.8565 15.0951C34.9077 15.04 34.9654 11.6365 35.0192 0.0688481H36.8116V19.9274L36.5235 19.9598C36.3084 19.9845 36.0818 19.8015 35.6273 19.233C35.2932 18.8151 33.9245 17.1654 32.5866 15.5663C31.2486 13.9673 30.0592 12.5421 29.9439 12.3993C29.8274 12.2565 29.1936 11.4972 28.5356 10.712C27.8762 9.92673 27.0492 8.9338 26.6984 8.50548C26.3463 8.07715 25.9712 7.62804 25.8662 7.50603C25.7599 7.38532 25.2414 6.76231 24.7127 6.12114C24.1852 5.48006 23.6949 4.97136 23.6244 4.98937C23.5412 5.01143 23.4848 7.65403 23.4323 19.9923H22.5361C21.7014 19.9923 21.6373 19.9728 21.6079 19.7002C21.59 19.5393 21.5784 15.1159 21.5823 9.86832C21.5861 4.62098 21.6309 0.256156 21.6847 0.166194C21.7372 0.0766358 21.8204 0.00261758 21.8703 2.16899e-05ZM45.5817 19.9923H43.7893L43.7675 10.0851C43.756 4.635 43.7944 0.137629 43.8533 0.090903C43.9123 0.0428884 44.3246 0.00395101 45.5817 0.00395101V19.9923ZM59.6792 0.00395101C59.7419 0.00395101 60.0594 0.690564 60.3833 1.52903C60.7085 2.3675 61.0222 3.17093 61.0811 3.3137C61.1413 3.4565 61.542 4.47927 61.9722 5.5851C62.4024 6.69093 62.8159 7.74355 62.8914 7.9214C62.967 8.10052 63.0733 8.3627 63.1284 8.50548C63.1834 8.64829 63.442 9.31932 63.7019 9.99811C63.9618 10.6769 64.2243 11.348 64.2845 11.4907C64.3447 11.6336 64.6852 12.5097 65.0398 13.4377C65.3945 14.3657 65.7428 15.2275 65.8119 15.3521C65.8823 15.4767 65.9387 15.6377 65.9387 15.7091C65.9387 15.7805 66.0488 16.0868 66.1832 16.3905C66.3164 16.6942 66.6697 17.5561 66.9667 18.3049C67.265 19.0539 67.5288 19.7405 67.5557 19.83C67.5902 19.9494 67.3508 19.9923 66.6428 19.9923C66.0091 19.9923 65.6505 19.9365 65.5903 19.83C65.5391 19.7404 65.1333 18.7332 64.6877 17.5911C64.2422 16.4489 63.8286 15.3976 63.7659 15.2548C63.7044 15.112 63.5483 14.7446 63.186 13.8841L56.0265 13.9568L55.8702 14.2813C55.7857 14.4605 55.4452 15.3067 55.1149 16.1633C54.7846 17.02 54.4389 17.8961 54.3467 18.1103C54.2546 18.3244 54.0599 18.8358 53.6477 19.9923H52.6875C51.9193 19.9923 51.7272 19.9533 51.7272 19.7976C51.7272 19.6912 51.7822 19.5003 51.8488 19.3757C51.9166 19.2511 52.64 17.4262 53.4581 15.3197C54.2762 13.2132 54.9957 11.3741 55.0585 11.2312C55.1213 11.0884 55.8395 9.24919 56.655 7.14264C57.4719 5.03608 58.4053 2.64267 58.7318 1.82107C59.057 1.00087 59.3782 0.255893 59.4448 0.166194C59.5114 0.0766544 59.6164 0.00398118 59.6792 0.00395101ZM125.286 0.0857062C125.348 0.0351028 125.776 0.01045 127.074 0.0688481L127.138 19.9923H125.217L125.195 10.0851C125.184 4.5701 125.223 0.136326 125.286 0.0857062ZM143.846 1.62638L134.883 1.75617V9.93321L141.925 10.063V11.8801L138.532 11.9178C136.104 11.945 135.092 12.0008 134.974 12.1125C134.848 12.2319 134.809 12.9431 134.814 15.0925C134.818 17.1679 134.862 17.961 134.979 18.0843C135.105 18.2166 136.073 18.2517 139.473 18.2465C141.856 18.2426 143.86 18.2699 143.925 18.3049C143.99 18.3402 144.029 18.7206 143.974 19.9274L133.027 19.9923V0.00395101H143.91L143.846 1.62638ZM83.6722 0.159729C83.7209 0.0403188 83.9872 0.00265307 85.4634 0.0688481L85.5915 9.93321L95.5139 9.99811L95.5779 0.0688481H97.3703V19.9274H95.5779L95.5139 11.945L85.5915 12.0099L85.4634 19.9274H83.671L83.6376 10.1279C83.6197 4.73937 83.6351 0.254029 83.6722 0.159729ZM59.6421 4.97898C59.5935 4.94782 59.4091 5.25417 59.2312 5.65913C59.0532 6.06408 58.9046 6.44695 58.9021 6.50926C58.8995 6.57287 58.8419 6.72601 58.7753 6.8506C58.7087 6.97524 58.2478 8.11482 57.7511 9.38159C57.2543 10.6484 56.8779 11.7737 56.9125 11.8801C56.9663 12.0437 57.3683 12.0748 59.4731 12.0748C60.8469 12.0748 62.0555 12.045 62.1618 12.0099C62.268 11.9749 62.3538 11.8866 62.3538 11.8152C62.3538 11.7438 61.9786 10.7068 61.519 9.51138C61.0606 8.31602 60.6369 7.22057 60.5767 7.07774C60.5166 6.93497 60.409 6.67278 60.3373 6.49366C60.2669 6.31585 60.1005 5.91347 59.9686 5.60196C59.8368 5.29055 59.6896 5.01027 59.6421 4.97898ZM8.12625 5.06593C7.97133 4.8959 7.93158 4.91926 7.80867 5.26062C7.73056 5.47481 7.23635 6.75976 6.71015 8.11609C6.18395 9.47244 5.69747 10.7133 5.63089 10.8742C5.56304 11.0352 5.43629 11.3155 5.34795 11.4985C5.21479 11.7762 5.21992 11.8515 5.37996 11.9515C5.48623 12.0164 6.7102 12.0722 8.10062 12.0722C10.3949 12.0748 10.637 12.0541 10.7074 11.8477C10.7509 11.7231 10.7163 11.4453 10.6305 11.2312C10.5447 11.017 10.4244 10.725 10.3629 10.5822C10.3002 10.4394 9.81107 9.1843 9.2759 7.79161C8.74077 6.39901 8.2236 5.1725 8.12625 5.06593ZM111.4 4.9971C111.335 4.95817 111.2 5.09058 111.1 5.28914C111.001 5.48772 110.798 5.97189 110.651 6.36387C110.504 6.75587 110.031 7.98372 109.6 9.08955C109.17 10.1954 108.755 11.2182 108.679 11.3609C108.604 11.5037 108.577 11.7231 108.622 11.8477C108.693 12.054 108.937 12.0748 111.23 12.0722C112.62 12.0722 113.836 12.028 113.931 11.9748C114.073 11.8969 114.076 11.7867 113.945 11.3609C113.858 11.0754 113.687 10.6081 113.565 10.3226C113.442 10.037 113.127 9.24919 112.862 8.57037C112.598 7.89157 112.306 7.16213 112.216 6.94794C112.125 6.73379 111.93 6.22239 111.784 5.81224C111.637 5.4021 111.465 5.03476 111.4 4.9971Z" fill="white"/>
</svg>
