<svg width="167" height="32" viewBox="0 0 167 32" fill="none" xmlns="http://www.w3.org/2000/svg">
<path d="M45.5786 31.3766H0V27.4417H45.5786V31.3766ZM161.001 31.3766H54.7598V27.4417H161.001V31.3766ZM38.2745 6.41174C38.9221 6.18549 39.5124 6.13295 40.9879 6.16901C42.7127 6.21328 42.9701 6.26255 44.021 6.74621C44.6522 7.03803 45.3998 7.51506 45.6818 7.80853C45.9655 8.102 46.3114 8.56273 46.7049 9.32508L43.5292 10.8384L43.1193 10.3842C42.8947 10.135 42.452 9.84974 42.1356 9.74809C41.8191 9.64808 41.1928 9.56452 40.742 9.56124C40.1928 9.55797 39.8025 9.65464 39.5599 9.85136C39.3615 10.012 39.1582 10.3481 39.109 10.5957C39.0489 10.8963 39.115 11.1451 39.3074 11.3418C39.4649 11.5041 40.2207 11.8025 40.9879 12.0074C41.7552 12.2107 42.7504 12.4828 43.2013 12.6107C43.6521 12.7386 44.3899 13.1255 44.8408 13.4698C45.3966 13.8928 45.8196 14.406 46.1524 15.0618C46.518 15.7783 46.6574 16.3046 46.6968 17.103C46.7394 17.985 46.677 18.3261 46.3442 18.9982C46.1212 19.4491 45.6916 20.0295 45.3899 20.2902C45.0883 20.5492 44.5096 20.9263 44.103 21.1296C43.6964 21.3329 42.9783 21.5821 42.5045 21.6837C42.0306 21.7838 41.183 21.8675 40.619 21.8691C40.055 21.8691 39.1517 21.7527 38.6106 21.6117C38.0696 21.4707 37.2646 21.1575 36.8203 20.9149C36.3776 20.6723 35.7251 20.1787 35.3694 19.818C35.0152 19.4573 34.6217 18.9589 34.4955 18.7113C34.3693 18.4638 34.2839 18.2293 34.3069 18.1916C34.3302 18.1537 35.0682 17.7847 37.5449 16.6209L38.0105 17.1538C38.2663 17.4472 38.8204 17.8522 39.2402 18.0555C39.6599 18.2588 40.2813 18.4244 40.619 18.4228C40.9568 18.4228 41.5109 18.349 41.8487 18.2588C42.1864 18.1703 42.5373 17.9489 42.6274 17.7686C42.7176 17.5882 42.7931 17.3112 42.7963 17.1538C42.7996 16.9964 42.6701 16.7373 42.5094 16.5799C42.3487 16.4209 41.3683 16.0505 40.3321 15.7554C39.2959 15.4603 38.0778 15.0044 37.6269 14.7421C37.176 14.4797 36.5678 14.0207 36.2743 13.7223C35.9808 13.4223 35.6202 12.9386 35.4742 12.6451C35.3267 12.3516 35.1676 11.7056 35.1217 11.2105C35.0758 10.7154 35.1284 9.93989 35.2398 9.48904C35.353 9.03817 35.6398 8.39872 35.8792 8.06919C36.1185 7.73965 36.5695 7.29697 36.881 7.08548C37.1925 6.87398 37.8204 6.57076 38.2745 6.41174ZM66.7283 0.0701412C67.3136 0.00292104 68.2367 -0.0201218 68.7777 0.0192265C69.3188 0.0585749 70.2041 0.196352 70.7451 0.324234C71.2862 0.452117 72.283 0.825822 72.9585 1.15536C73.8684 1.59802 74.5094 2.07684 75.421 2.99822C76.0997 3.68189 76.8556 4.62953 77.5491 5.96408L76.9343 6.2297C76.5966 6.37561 75.767 6.70184 73.8602 7.41995L73.2044 6.49372C72.8437 5.98383 72.2043 5.305 71.783 4.98693C71.3632 4.66723 70.6255 4.25898 70.1434 4.07863C69.5253 3.84746 68.8843 3.7525 67.958 3.75905C66.9628 3.76561 66.448 3.85575 65.8266 4.13611C65.3757 4.33777 64.7215 4.70342 64.3739 4.9477C64.0247 5.19038 63.4902 5.74113 63.1853 6.16901C62.8787 6.59691 62.4722 7.33471 62.2803 7.80853C62.0295 8.42498 61.9065 9.15952 61.8492 10.3908C61.8 11.4646 61.8458 12.4516 61.9737 13.014C62.0852 13.5091 62.3525 14.2666 62.5672 14.6945C62.782 15.1224 63.2706 15.8143 63.6542 16.2307C64.0379 16.6472 64.7937 17.2146 65.3347 17.49C66.1627 17.913 66.5529 18.0031 67.794 18.0605C69.0187 18.1179 69.422 18.0703 70.1713 17.7801C70.6664 17.5883 71.3797 17.1932 71.7535 16.903C72.1273 16.6128 72.6666 16.0438 72.9535 15.6372C73.2404 15.2306 73.5733 14.7519 73.6913 14.5715C73.9028 14.2502 73.9389 14.2552 75.6866 14.9175C77.2343 15.5045 77.4622 15.6389 77.4262 15.9422C77.4032 16.1357 77.1146 16.7177 76.7835 17.2358C76.4523 17.7538 75.844 18.5162 75.4309 18.9294C75.0177 19.3425 74.2734 19.9377 73.7782 20.2525C73.2831 20.5673 72.4699 20.9822 71.9748 21.1724C71.4796 21.3625 70.6861 21.5969 70.2123 21.6937C69.7385 21.7888 68.8171 21.8675 68.1629 21.8691C67.5087 21.8691 66.5316 21.792 65.9905 21.6969C65.4495 21.6018 64.5264 21.3362 63.9411 21.1067C63.3558 20.8772 62.4148 20.364 61.8508 19.9672C61.2868 19.5688 60.472 18.8195 60.0391 18.3014C59.6079 17.7833 59.0209 16.88 58.7373 16.293C58.4536 15.7061 58.0995 14.7847 57.9503 14.2436C57.8011 13.7026 57.6405 12.4844 57.593 11.5384C57.534 10.3187 57.5881 9.41033 57.7766 8.42335C57.9373 7.57901 58.3012 6.49526 58.6963 5.67716C59.1996 4.63772 59.644 4.02947 60.6211 3.04577C61.4851 2.17519 62.259 1.57673 63.0394 1.17505C63.6706 0.850432 64.5183 0.496325 64.9248 0.388118C65.3315 0.27991 66.143 0.135722 66.7283 0.0701412ZM154.319 6.13955C155.503 6.13136 156.172 6.21329 156.902 6.45593C157.443 6.63628 158.089 6.90855 158.336 7.05938C158.584 7.21023 159.033 7.56108 159.335 7.83815C159.635 8.11521 159.986 8.54467 160.114 8.79224C160.24 9.03964 160.348 9.26089 160.35 9.2841C160.353 9.30705 159.653 9.65627 157.23 10.8006L156.861 10.4515C156.657 10.258 156.252 9.98255 155.959 9.83663C155.666 9.69072 155.075 9.56279 154.647 9.55132C154.219 9.54148 153.703 9.57755 153.5 9.63329C153.296 9.68903 153.021 9.95631 152.885 10.2268C152.683 10.6318 152.675 10.7925 152.844 11.1319C152.957 11.3582 153.232 11.6139 153.459 11.6992C153.683 11.7844 154.497 12.0074 155.262 12.1926C156.028 12.3795 156.951 12.6534 157.312 12.8043C157.672 12.9535 158.263 13.3058 158.623 13.5878C159.025 13.901 159.487 14.5093 159.815 15.1553C160.232 15.9766 160.35 16.4111 160.345 17.1128C160.341 17.6079 160.25 18.3096 160.141 18.6703C160.027 19.0523 159.633 19.6361 159.202 20.0689C158.794 20.4771 158.2 20.933 157.885 21.0838C157.571 21.233 156.869 21.4707 156.328 21.6117C155.787 21.7543 154.902 21.8674 154.36 21.8658C153.819 21.8641 152.916 21.7527 152.352 21.6199C151.788 21.4854 151.05 21.2363 150.713 21.0641C150.375 20.8936 149.767 20.4608 149.36 20.1017C148.953 19.7443 148.46 19.1638 147.901 18.1785L151.168 16.7029L151.903 17.3997C152.357 17.8293 152.906 18.1655 153.336 18.2769C153.719 18.3769 154.364 18.4294 154.77 18.3949C155.177 18.3605 155.711 18.2048 155.959 18.0507C156.275 17.8523 156.41 17.6342 156.407 17.3177C156.407 17.0702 156.351 16.785 156.284 16.6866C156.218 16.5866 155.979 16.4112 155.754 16.2948C155.528 16.1784 154.68 15.911 153.869 15.6995C153.057 15.488 152.024 15.1356 151.573 14.9159C151.122 14.6962 150.458 14.2322 150.096 13.8879C149.735 13.5419 149.301 12.9648 149.132 12.6041C148.963 12.2434 148.789 11.5794 148.744 11.1286C148.694 10.6252 148.765 9.9448 148.929 9.36607C149.088 8.80703 149.412 8.18244 149.729 7.83159C150.022 7.50697 150.521 7.08558 150.836 6.89703C151.15 6.70685 151.704 6.46255 152.065 6.35106C152.426 6.24121 153.441 6.14447 154.319 6.13955ZM88.042 6.13955C88.8995 6.13464 89.9685 6.22973 90.4193 6.35106C90.8702 6.47074 91.4981 6.70033 91.8129 6.86101C92.1277 7.02333 92.7524 7.4216 93.1983 7.74785C93.6459 8.07575 94.2903 8.78077 94.6395 9.32508C94.9871 9.86611 95.4199 10.7892 95.6035 11.3745C95.8281 12.0975 95.9364 12.914 95.9429 13.9157C95.9462 14.842 95.8444 15.7569 95.6674 16.375C95.5133 16.916 95.256 17.6177 95.0953 17.9325C94.9363 18.2473 94.4394 18.913 93.9918 19.4081C93.4918 19.9623 92.7393 20.5444 92.0441 20.9199C91.2014 21.3724 90.5554 21.5805 89.5176 21.7313C88.4109 21.892 87.8535 21.892 86.8124 21.7313C86.0648 21.6165 85.0778 21.3248 84.5171 21.0526C83.9761 20.7919 83.2072 20.2952 82.8071 19.9509C82.4071 19.6082 81.8495 18.9572 81.5675 18.5064C81.2872 18.0555 80.9232 17.3554 80.7609 16.9488C80.5806 16.4947 80.4347 15.5814 80.3823 14.5715C80.3331 13.6452 80.3757 12.5402 80.479 12.0303C80.579 11.5351 80.8791 10.6859 81.1463 10.1448C81.4119 9.6038 81.9841 8.80373 82.4185 8.36763C82.8514 7.93152 83.5366 7.38064 83.9432 7.14456C84.3498 6.90847 85.0876 6.58706 85.5828 6.42967C86.1648 6.24605 87.037 6.14283 88.042 6.13955ZM136.736 6.12979C137.231 6.05929 138.044 6.03464 138.539 6.07727C139.034 6.1199 139.7 6.23131 140.015 6.3264C140.329 6.42313 140.884 6.64952 141.244 6.83315C141.605 7.01678 142.256 7.50522 142.692 7.91837C143.128 8.33151 143.695 9.00045 143.951 9.40706C144.209 9.81365 144.602 10.6974 144.825 11.3745C145.048 12.05 145.274 13.1386 145.425 14.9814H139.851C135.005 14.9814 134.277 15.0143 134.276 15.2273C134.276 15.3634 134.391 15.7504 134.532 16.0881C134.671 16.4258 134.949 16.8768 135.147 17.0883C135.344 17.2998 135.875 17.6587 136.326 17.885C136.95 18.1998 137.4 18.2982 138.211 18.2982C138.944 18.2982 139.482 18.1965 139.933 17.9735C140.293 17.7948 140.81 17.3801 141.572 16.4538L143.212 17.103C144.113 17.4588 144.871 17.8113 144.896 17.8834C144.92 17.9556 144.661 18.4212 144.32 18.9163C143.922 19.4934 143.317 20.0722 142.636 20.5263C142.051 20.9149 141.203 21.3444 140.752 21.4822C140.302 21.6182 139.305 21.7724 138.539 21.8232C137.708 21.8789 136.714 21.8363 136.08 21.715C135.493 21.6051 134.572 21.2706 134.03 20.9722C133.489 20.6738 132.678 20.0296 132.227 19.5394C131.776 19.0476 131.245 18.3196 131.047 17.9212C130.85 17.5211 130.573 16.7521 130.432 16.2111C130.291 15.67 130.178 14.6371 130.179 13.9157C130.181 13.1943 130.281 12.2352 130.402 11.7844C130.524 11.3335 130.799 10.5974 131.015 10.1498C131.23 9.70058 131.776 8.93493 132.227 8.44801C132.678 7.96107 133.342 7.39044 133.703 7.18058C134.063 6.97073 134.69 6.67733 135.096 6.52814C135.503 6.37894 136.241 6.20029 136.736 6.12979ZM21.9695 6.35106C22.3974 6.23138 23.4352 6.15767 24.4386 6.17734C26.0715 6.20849 26.2388 6.24453 27.3897 6.81505C28.0603 7.14788 28.8818 7.70039 29.2146 8.04469C29.5474 8.38901 30.0852 9.11197 30.4098 9.65299C30.7344 10.194 31.118 11.0433 31.2606 11.5384C31.4049 12.0336 31.5672 13.0124 31.7246 14.9798L26.1913 14.9814C20.768 14.9814 20.6579 14.988 20.6579 15.3093C20.6579 15.4897 20.7777 15.8766 20.9219 16.1701C21.0678 16.4635 21.381 16.9127 21.6187 17.1685C21.8564 17.4243 22.2548 17.7374 22.5024 17.8653C22.7499 17.9932 23.3402 18.172 23.814 18.2638C24.4288 18.3835 24.9321 18.3769 25.5765 18.2392C26.3208 18.0801 26.6061 17.9112 27.9538 16.4848L29.5933 17.1341C30.495 17.4915 31.2508 17.8179 31.2738 17.8589C31.2965 17.9001 31.1408 18.2098 30.9278 18.5474C30.7146 18.8851 30.1785 19.5 29.7391 19.9115C29.2981 20.3246 28.6801 20.7838 28.3636 20.933C28.0472 21.0822 27.457 21.3199 27.052 21.4609C26.6471 21.6019 25.6502 21.7608 24.8387 21.8133C23.9845 21.869 22.9827 21.8331 22.4614 21.7265C21.9646 21.6248 21.117 21.3281 20.5759 21.0641C19.9004 20.7362 19.2692 20.236 18.5626 19.4638C17.8527 18.6916 17.3986 18.0112 17.1051 17.2767C16.7788 16.4636 16.6592 15.8225 16.5985 14.5715C16.5542 13.6403 16.6002 12.5418 16.7067 12.0303C16.81 11.5351 17.0771 10.7416 17.3001 10.2678C17.5231 9.79398 18.0937 8.99556 18.5675 8.4906C19.0413 7.98727 19.8332 7.34627 20.33 7.06755C20.8268 6.78719 21.5646 6.46419 21.9695 6.35106ZM126.571 21.5395H122.8L122.801 21.0886C122.803 20.841 122.765 20.3983 122.636 19.5721L121.934 20.2689C121.547 20.6525 120.865 21.1493 120.418 21.3755C119.696 21.7379 119.404 21.7839 117.881 21.774C116.409 21.7642 116.03 21.7035 115.258 21.3526C114.763 21.1264 114.068 20.6887 113.714 20.3805C113.359 20.0706 112.835 19.4491 112.546 18.9982C112.256 18.5474 111.895 17.8096 111.743 17.3587C111.59 16.9078 111.39 15.9848 111.297 15.3093C111.176 14.4273 111.182 13.6632 111.318 12.6041C111.423 11.7926 111.671 10.7204 111.868 10.222C112.064 9.72197 112.476 8.98418 112.782 8.5825C113.087 8.17918 113.678 7.59708 114.094 7.28722C114.509 6.97735 115.291 6.5806 115.832 6.40518C116.597 6.15597 117.143 6.10014 118.291 6.14932C119.46 6.19851 119.931 6.29702 120.557 6.62164C120.993 6.84627 121.583 7.27087 121.869 7.56597C122.155 7.86106 122.446 8.10045 122.513 8.09881C122.58 8.09717 122.636 6.36084 122.636 4.24258V0.389719H126.571V21.5395ZM4.7546 17.7686H14.0998V21.5395H0.655807V0.389719H4.7546V17.7686ZM108.662 6.31007C108.821 6.29711 108.859 6.74181 108.782 10.1448L108.29 10.1876C108.02 10.2105 107.356 10.3105 106.814 10.4089C106.273 10.5072 105.505 10.7844 105.106 11.0221C104.708 11.2614 104.209 11.7139 103.999 12.0303C103.621 12.5959 103.616 12.6632 103.617 21.5395H99.6826V6.45593H103.617V9.07916L104.334 8.30039C104.76 7.83641 105.439 7.34135 106.014 7.07411C106.544 6.82818 107.31 6.5592 107.716 6.47722C108.123 6.39525 108.548 6.31991 108.662 6.31007ZM119.206 9.77771C118.613 9.7564 117.944 9.81696 117.717 9.91204C117.493 10.0071 117.053 10.2826 116.742 10.5253C116.429 10.7695 115.993 11.3647 115.761 11.8663C115.442 12.5582 115.343 13.0354 115.342 13.9157C115.342 14.5944 115.453 15.365 115.615 15.8012C115.784 16.2504 116.204 16.8275 116.689 17.2767C117.142 17.6965 117.73 18.0687 118.052 18.1392C118.363 18.2081 118.878 18.2621 119.193 18.2588C119.508 18.2556 120.062 18.1196 120.422 17.9556C120.783 17.7917 121.303 17.4063 121.578 17.0981C121.854 16.7915 122.215 16.1323 122.38 15.6372C122.6 14.9782 122.66 14.4272 122.606 13.5878C122.549 12.7222 122.413 12.2255 122.05 11.5681C121.777 11.0697 121.295 10.5073 120.927 10.2564C120.416 9.90558 120.067 9.80886 119.206 9.77771ZM88.124 9.73833C87.4256 9.73669 86.9305 9.84156 86.414 10.1039C86.0157 10.3071 85.5255 10.6941 85.3271 10.9646C85.1287 11.2351 84.8466 11.6958 84.7007 11.9893C84.5548 12.2828 84.3892 12.9468 84.3318 13.4649C84.2613 14.1174 84.3105 14.6978 84.4958 15.3503C84.6548 15.9094 84.9811 16.5341 85.2958 16.885C85.5893 17.2096 86.0877 17.6325 86.4025 17.8227C86.8386 18.0867 87.2518 18.1704 88.124 18.1737C89.0798 18.1786 89.3946 18.1047 90.0095 17.7407C90.416 17.4997 90.8586 17.1669 90.9964 17.003C91.1341 16.8374 91.3882 16.4078 91.562 16.0471C91.7342 15.6864 91.9081 14.9486 91.9474 14.4076C91.99 13.7961 91.9179 13.0828 91.7572 12.5221C91.6129 12.0254 91.2849 11.3614 91.0292 11.0466C90.7718 10.7302 90.234 10.3073 89.834 10.1056C89.3257 9.84986 88.8126 9.73833 88.124 9.73833ZM24.1829 9.40882C23.6364 9.40554 23.0757 9.54049 22.5008 9.81374C22.0253 10.04 21.4908 10.4466 21.3121 10.7171C21.1318 10.9892 20.9481 11.3941 20.9038 11.6204L20.8219 12.0303H27.3799C27.3799 11.3909 27.1454 10.9467 26.8471 10.6106C26.5536 10.2794 26.0191 9.87602 25.6584 9.71207C25.2977 9.54812 24.6337 9.4121 24.1829 9.40882ZM137.883 9.41859C137.477 9.42679 136.85 9.53667 136.49 9.66291C136.129 9.78916 135.596 10.1334 135.304 10.4286C135.012 10.7237 134.699 11.204 134.607 11.4974L134.44 12.0303H141.162C141.007 11.4581 140.831 11.0712 140.672 10.8006C140.508 10.5203 140.005 10.1137 139.503 9.85633C138.898 9.54483 138.39 9.40711 137.883 9.41859ZM164.075 0.388118C164.548 0.389757 165.157 0.50121 165.427 0.635646C165.698 0.770079 166.104 1.12095 166.331 1.41442C166.557 1.70787 166.788 2.24237 166.844 2.60307C166.899 2.96375 166.862 3.53595 166.76 3.87369C166.642 4.2639 166.319 4.69845 165.878 5.05914C165.494 5.37392 164.942 5.66904 164.648 5.71495C164.355 5.76249 163.839 5.72975 163.501 5.6445C163.163 5.55925 162.683 5.3379 162.435 5.15264C162.188 4.96738 161.871 4.53934 161.735 4.20159C161.597 3.86385 161.486 3.30969 161.489 2.97196C161.491 2.63422 161.592 2.15383 161.715 1.90627C161.838 1.65869 162.225 1.21441 162.576 0.920961C163.119 0.466845 163.342 0.388118 164.075 0.388118ZM164.239 0.898065C164.035 0.906263 163.722 0.962007 163.542 1.02103C163.361 1.08004 163.099 1.20129 162.958 1.29145C162.817 1.38162 162.578 1.63904 162.424 1.86528C162.269 2.09316 162.147 2.58504 162.147 2.97196C162.148 3.35558 162.258 3.89007 162.394 4.16061C162.533 4.43932 162.889 4.75903 163.214 4.89839C163.529 5.03283 163.991 5.146 164.239 5.14928C164.486 5.15092 164.948 4.98208 165.263 4.77222C165.578 4.56402 165.929 4.21159 166.04 3.99025C166.15 3.76892 166.244 3.32773 166.244 3.01295C166.245 2.69651 166.098 2.19972 165.919 1.90627C165.739 1.61281 165.37 1.26193 165.099 1.1275C164.829 0.991429 164.442 0.888232 164.239 0.898065ZM163.829 1.53578C164.212 1.53578 164.691 1.64563 164.894 1.78171C165.126 1.93746 165.265 2.19663 165.266 2.48026C165.268 2.72782 165.175 3.02283 165.062 3.13431C164.894 3.29661 164.894 3.41799 165.058 3.74913C165.171 3.97538 165.263 4.19848 165.263 4.24274C165.263 4.28698 165.134 4.3246 164.976 4.32296C164.819 4.32296 164.56 4.10162 164.403 3.8311C164.245 3.56224 164.042 3.37872 163.952 3.42298C163.861 3.46728 163.788 3.68861 163.788 3.91484C163.788 4.21482 163.701 4.32472 163.46 4.32472C163.158 4.32472 163.132 4.21481 163.132 2.93113V1.53754L163.829 1.53578ZM164.286 2.17029C164.099 2.11291 163.899 2.10634 163.84 2.15716C163.781 2.2064 163.745 2.38341 163.76 2.54895C163.78 2.75715 163.901 2.83585 164.155 2.80801C164.357 2.78505 164.545 2.65717 164.575 2.52109C164.603 2.38667 164.473 2.22768 164.286 2.17029Z" fill="#FCFAF6"/>
</svg>
