<svg width="232" height="14" viewBox="0 0 232 14" fill="none" xmlns="http://www.w3.org/2000/svg">
<path d="M0.59623 9.10649C1.72572 8.45779 2.21371 8.7533 2.40197 10.1371C2.66688 12.0542 4.24253 13.1353 5.74841 12.4002C6.53627 12.0182 7.37983 11.1534 7.58897 10.3389C7.7284 9.80554 6.91272 8.78211 6.28523 8.31368C5.16975 7.47044 3.75447 7.03802 2.69477 6.1443C1.97669 5.53889 1.16795 4.36407 1.27255 3.56412C1.39803 2.65599 2.33919 1.58208 3.19677 1.11365C5.14187 0.0542023 8.01426 1.02715 8.62079 2.7785C8.77416 3.21813 8.49531 3.81634 8.41866 4.33526C8.04214 4.01094 7.49137 3.76592 7.32406 3.35511C6.65475 1.65417 5.62292 0.919042 4.15187 1.54607C3.48956 1.82717 2.72966 2.54069 2.57629 3.19652C2.45774 3.70103 3.09917 4.62356 3.63599 4.99836C4.82119 5.8416 6.20158 6.38933 7.42166 7.18934C8.49531 7.88126 9.50625 8.96231 8.96943 10.2884C8.55108 11.3191 7.57503 12.3713 6.59204 12.8326C4.18676 13.957 2.00457 12.8686 0.59623 10.1875V9.10649Z" fill="white"/>
<path d="M201.06 4.44317C199.917 7.34773 198.78 10.2594 197.637 13.1639C197.462 13.1711 197.288 13.1783 197.114 13.1928C195.957 10.2666 194.799 7.33333 193.635 4.40715C193.475 4.42156 193.314 4.42876 193.153 4.44317V13.1063C192.959 13.0991 192.764 13.0919 192.568 13.0846V0.990936C193.544 0.472018 193.997 1.04856 194.36 2.02157C195.405 4.81076 196.493 7.58555 197.692 10.6775C198.898 7.55674 199.951 4.73867 201.109 1.96388C201.331 1.43056 201.966 1.07743 202.405 0.645014C202.572 0.753119 202.747 0.868426 202.914 0.976532C202.914 4.74587 202.935 8.51528 202.88 12.2775C202.88 12.5802 202.391 12.8829 202.126 13.1856C201.896 12.854 201.464 12.5225 201.457 12.1838C201.401 9.61801 201.429 7.05943 201.429 4.49365C201.304 4.47924 201.185 4.47204 201.06 4.45764V4.44317Z" fill="white"/>
<path d="M213.957 10.6414C215.198 7.46311 216.216 4.74594 217.339 2.07205C217.583 1.49552 218.217 1.09191 218.671 0.601797C218.844 0.717105 219.019 0.839616 219.193 0.954924C219.193 4.72433 219.214 8.50094 219.158 12.2703C219.158 12.573 218.671 12.8685 218.412 13.1712C218.196 12.8253 217.799 12.4865 217.792 12.1334C217.736 9.4955 217.764 6.85769 217.471 4.10451L213.888 13.164C213.713 13.164 213.532 13.1712 213.358 13.1784C212.187 10.1874 211.015 7.19641 209.844 4.20541C209.704 4.22702 209.572 4.24863 209.433 4.2703V13.0415H208.665C208.665 9.02706 208.659 5.01263 208.673 0.991003C208.833 0.861224 208.993 0.724307 209.154 0.594594C209.628 1.04862 210.304 1.40181 210.541 1.96395C211.677 4.64504 212.696 7.38381 213.957 10.627V10.6414Z" fill="white"/>
<path d="M177.027 7.08104C177.006 2.89368 179.084 0.508031 182.472 0.818008C182.646 0.832413 182.821 0.839616 182.988 0.875629C185.693 1.47384 187.276 4.95495 186.557 8.69548C185.916 12.018 183.859 13.6252 180.904 13.0991C178.505 12.6739 177.041 10.4036 177.027 7.07384V7.08104ZM185.422 7.00901C184.857 5.45226 184.529 3.84502 183.734 2.54049C182.8 0.990937 181.092 1.09904 179.934 2.49007C178.24 4.52973 178.22 9.34411 179.885 11.4343C181.091 12.9478 182.744 13.0558 183.762 11.4198C184.536 10.1729 184.843 8.60898 185.414 7.01621L185.422 7.00901Z" fill="white"/>
<path d="M91.6158 0.832347C93.2196 0.832347 94.6693 0.572854 95.9592 0.918844C96.9425 1.18547 98.044 2.04318 98.5389 2.9585C99.3821 4.50805 98.6711 5.96391 97.263 7.04496C99.3821 8.48641 98.7134 10.6126 98.755 12.5297C98.755 12.7459 98.2806 13.1783 98.1134 13.1351C97.8068 13.0558 97.3958 12.7387 97.3396 12.4504C97.2213 11.8162 97.2907 11.1387 97.2841 10.4756C97.2702 7.86658 96.963 7.54947 94.4744 7.57835C94.07 7.57835 93.6722 7.62877 93.0313 7.67205C93.0313 9.06301 93.0868 10.4252 93.0035 11.7802C92.9751 12.2558 92.5918 12.7026 92.3685 13.1639C92.118 12.7315 91.6509 12.3063 91.6436 11.8666C91.5808 8.27019 91.6086 4.67378 91.6086 0.825144L91.6158 0.832347ZM93.1218 6.86483C94.6971 6.87203 96.3147 7.25397 96.9491 5.59631C97.298 4.68819 97.2841 3.0522 96.7264 2.49721C95.9381 1.70446 94.5022 1.60355 93.1218 1.12785V6.86483Z" fill="white"/>
<path d="M127.988 0.90444C130.944 0.659419 133.789 0.493626 135.72 3.35491C137.156 5.47386 137.184 8.51528 135.783 10.6558C133.873 13.5748 130.979 13.3081 127.988 13.1568V0.90444ZM129.424 12.5153C131.537 12.6306 133.357 12.2703 134.374 10.245C135.56 7.88106 135.462 5.48107 134.012 3.28289C132.924 1.63963 131.307 1.23602 129.432 1.64684V12.5225L129.424 12.5153Z" fill="white"/>
<path d="M24.4374 7.00188C24.4304 11.3694 22.1297 13.7623 18.595 13.092C15.9597 12.5947 14.5374 9.84155 14.8721 5.91355C15.137 2.80725 16.8869 0.86129 19.4734 0.803669C22.6038 0.731577 24.4513 3.03786 24.4374 7.00188ZM23.2312 7.05956C22.6526 5.44512 22.3459 3.88837 21.5859 2.61265C20.5959 0.962193 18.8669 1.04869 17.6747 2.54782C15.9805 4.68112 16.0084 9.43794 17.7166 11.492C18.9157 12.9335 20.4704 13.0632 21.4743 11.492C22.297 10.2019 22.6456 8.59464 23.2312 7.05956Z" fill="white"/>
<path d="M109.012 0.753118C110.294 0.818008 111.786 1.11345 112.462 2.79998C112.63 3.21079 112.309 3.83061 112.219 4.34953C111.856 4.01801 111.48 3.6937 111.138 3.34051C110.518 2.71348 110.023 1.78375 109.291 1.49545C108.105 1.03422 106.962 1.56034 106.453 2.8432C105.951 4.10444 106.885 4.67385 107.771 5.19276C109.033 5.92789 110.392 6.51891 111.535 7.40542C113.655 9.04867 113.327 11.4847 110.943 12.6739C108.447 13.9135 105.303 12.8252 104.717 10.4396C104.598 9.95673 104.982 9.34411 105.128 8.78918C105.484 9.20719 106.049 9.56759 106.167 10.0432C106.69 12.1406 108.154 13.1928 109.821 12.3279C110.51 11.9676 111.333 11.1532 111.41 10.4612C111.486 9.80541 110.81 8.86127 110.211 8.36396C109.318 7.62883 108.203 7.18914 107.192 6.5982C105.888 5.83419 104.641 4.99816 105.059 3.1315C105.401 1.63236 106.844 0.738714 109.012 0.738714V0.753118Z" fill="white"/>
<path d="M78.0908 9.65422V0.904637C78.2448 0.904637 78.3908 0.919043 78.5441 0.919043V13.0128C78.4186 13.0993 78.293 13.1857 78.1681 13.2722C76.0556 10.483 74.5146 7.25423 72.0955 4.42176V13.056C71.9071 13.056 71.7261 13.0488 71.5378 13.0416V0.962258C71.6494 0.868624 71.7604 0.782127 71.8721 0.688427C73.9847 3.55691 75.6089 6.79293 77.6031 9.75512C77.7703 9.71911 77.9309 9.68303 78.0981 9.65422H78.0908Z" fill="white"/>
<path d="M224.992 0.911575H231.385C231.385 1.05576 231.399 1.19988 231.407 1.34406H226.498V6.58366H230.089C230.089 6.72064 230.089 6.86476 230.096 7.00174C228.931 7.07377 227.774 7.15306 226.505 7.23236V12.6161H231.358C231.358 12.7603 231.358 12.8972 231.358 13.0414H224.999V0.904374L224.992 0.911575Z" fill="white"/>
<path d="M59.0442 0.918911H65.4235C65.4235 1.06303 65.4373 1.20721 65.4373 1.35133H60.5224V6.58379H64.0847L64.0986 7.00901C62.9343 7.08831 61.77 7.1604 60.5151 7.2469V12.5802H65.3884C65.3884 12.7388 65.3884 12.8974 65.3884 13.0559H59.0442V0.911708V0.918911Z" fill="white"/>
<path d="M165.56 7.75841C165.56 9.25748 165.608 10.6341 165.525 11.9963C165.497 12.3999 165.092 12.7819 164.862 13.1782C164.605 12.8107 164.124 12.4503 164.124 12.0828C164.067 8.42865 164.089 4.76742 164.089 0.904307C165.755 0.904307 167.365 0.738516 168.927 0.954792C170.426 1.1638 171.43 2.72055 171.353 4.2485C171.269 5.89895 170.391 6.92232 168.858 7.26831C167.847 7.49892 166.808 7.57822 165.567 7.75121L165.56 7.75841ZM165.657 1.56734V6.74939C167.065 6.9656 168.55 7.22502 169.282 5.85567C169.736 5.01244 169.777 3.607 169.429 2.69888C168.774 1.01962 167.17 1.48091 165.657 1.56734Z" fill="white"/>
<path d="M37.7394 0.853954C37.837 1.14946 38.0183 1.4449 38.0183 1.7332C38.0253 4.42869 38.074 7.12425 37.9695 9.81254C37.8788 12.0972 36.589 13.3009 34.4139 13.3801C32.1829 13.4666 30.412 12.1332 30.2726 9.92785C30.1053 7.18187 30.175 4.42149 30.2169 1.66838C30.2169 1.37287 30.7119 1.08457 30.9768 0.796268C31.1929 1.14219 31.5903 1.48098 31.5972 1.8269C31.653 4.27737 31.5972 6.73505 31.6461 9.19272C31.674 10.5909 32.0922 11.8233 33.5493 12.2846C35.5712 12.9333 37.0771 11.7945 37.1608 9.46655C37.2444 7.13146 37.1747 4.79629 37.1956 2.46113C37.1956 1.9206 37.2862 1.38728 37.3351 0.846753C37.4675 0.846753 37.6069 0.846752 37.7394 0.839483V0.853954Z" fill="white"/>
<path d="M53.2299 1.05576C51.9123 4.86838 50.6013 8.68101 49.2559 12.4792C49.1581 12.7603 48.7471 13.1567 48.5588 13.1207C48.2383 13.0486 47.82 12.7387 47.7084 12.4215C46.3696 8.65933 45.0798 4.88279 43.7691 1.07737C44.8427 0.515168 45.2959 0.925981 45.6166 1.9062C46.5929 4.83951 47.6317 7.75848 48.7887 11.0882C50.1275 7.37648 51.3268 4.03949 52.5255 0.702568C52.7555 0.817876 52.9927 0.940386 53.2226 1.05576H53.2299Z" fill="white"/>
<path d="M148.979 1.33706H144.057V6.54785H147.654C147.661 6.69923 147.668 6.85776 147.682 7.00914C146.532 7.08124 145.374 7.15326 144.085 7.23256V12.638H148.923C148.923 12.7893 148.916 12.9335 148.909 13.0848H142.572V0.94065H148.958C148.958 1.07757 148.972 1.20728 148.979 1.34426V1.33706Z" fill="white"/>
<path d="M84.4344 6.76392C84.4344 5.14955 84.3861 3.53511 84.4694 1.93514C84.4905 1.55314 84.9438 1.19274 85.1943 0.825211C85.4454 1.19994 85.8987 1.56754 85.906 1.94954C85.9615 5.35135 85.9549 8.75317 85.906 12.155C85.906 12.5009 85.4943 12.8397 85.2716 13.1856C84.9927 12.8397 84.4905 12.5009 84.4767 12.1406C84.3927 10.3531 84.4416 8.55856 84.4344 6.77119V6.76392Z" fill="white"/>
<path d="M31.0326 0.20354C31.2171 0.220918 31.3835 0.325125 31.4817 0.482327C31.5174 0.539287 31.5639 0.605167 31.6288 0.687501C31.6872 0.76151 31.7714 0.8638 31.8418 0.958557C31.9709 1.13228 32.1824 1.43651 32.1902 1.81421L32.2174 5.5079C32.2165 6.73716 32.2163 7.96081 32.2406 9.18228C32.2537 9.83415 32.358 10.385 32.5852 10.8084C32.8015 11.2112 33.1461 11.534 33.7274 11.7183C34.5989 11.9978 35.2683 11.8681 35.7175 11.5208C36.1762 11.1662 36.5277 10.4924 36.5654 9.44554C36.6488 7.11665 36.5791 4.82722 36.6003 2.4569C36.6007 1.88432 36.7007 1.26708 36.7435 0.792039L36.8055 0.579132C36.904 0.384265 37.1055 0.253891 37.3359 0.253891C37.4711 0.253891 37.5943 0.252306 37.7076 0.246094C37.8705 0.237372 38.0305 0.296512 38.149 0.408714C38.2236 0.479749 38.2664 0.571533 38.2961 0.668141H38.3039C38.3479 0.80129 38.3904 0.874571 38.4704 1.07856C38.5336 1.23999 38.6135 1.47272 38.6136 1.73287L38.6291 5.77505C38.629 7.12776 38.6159 8.48416 38.5633 9.8366C38.5136 11.0856 38.1312 12.1192 37.3901 12.8489C36.7425 13.4859 35.877 13.8377 34.8734 13.9446L34.4359 13.9756C33.1979 14.0234 32.0498 13.6778 31.1836 12.9767C30.4203 12.3587 29.903 11.4836 29.7316 10.429L29.6775 9.96439C29.5084 7.19033 29.5816 4.40239 29.6233 1.65933C29.6257 1.4219 29.7236 1.23318 29.8091 1.10955C29.8967 0.982874 30.0065 0.874505 30.0956 0.792039C30.1837 0.710696 30.2864 0.62618 30.3589 0.563603C30.4407 0.493031 30.496 0.437789 30.537 0.393252L30.6415 0.304178C30.7547 0.22713 30.8936 0.190654 31.0326 0.20354ZM2.91157 0.590696C4.0552 -0.0321646 5.43341 -0.0437288 6.58986 0.323538C7.73421 0.687435 8.79782 1.46908 9.18392 2.5808L9.24973 2.87511C9.28482 3.16698 9.23454 3.44782 9.18782 3.65722C9.15524 3.80306 9.11064 3.96019 9.07938 4.0831C9.04595 4.21499 9.02024 4.32627 9.00584 4.4238C8.97365 4.63744 8.82888 4.81678 8.62641 4.89231C8.42355 4.96783 8.19432 4.92871 8.03012 4.78777C7.95987 4.72724 7.87503 4.66328 7.77075 4.59032C7.67461 4.52306 7.54979 4.43755 7.43778 4.35409C7.22111 4.19279 6.92138 3.94704 6.77177 3.57978V3.57198C6.45796 2.77461 6.0944 2.30558 5.7303 2.0852C5.40328 1.88769 4.98552 1.83813 4.38678 2.093C4.13727 2.19906 3.84229 2.40219 3.59694 2.65051C3.34518 2.90544 3.19743 3.15284 3.15553 3.33198C3.15996 3.31282 3.14741 3.34883 3.18263 3.45971C3.21553 3.56293 3.27705 3.69119 3.36461 3.83141C3.54428 4.11911 3.78745 4.37689 3.97637 4.50898L3.9802 4.51288C4.53738 4.90922 5.14927 5.24246 5.79612 5.58534C6.42981 5.92128 7.10395 6.27263 7.73976 6.68879C8.313 7.05824 8.92211 7.5609 9.30782 8.1911C9.70733 8.84429 9.87134 9.64332 9.52079 10.5103C9.04892 11.6729 7.97018 12.8437 6.84539 13.3716C5.50187 13.9996 4.17011 14.0259 2.97355 13.48C1.79523 12.942 0.81363 11.8802 0.0697128 10.4638C0.0251756 10.379 0.000198237 10.2847 0 10.1889V9.10484C0.000594711 8.89253 0.117819 8.69568 0.301981 8.58988C0.609381 8.41352 0.91559 8.27799 1.21189 8.21819C1.51836 8.15647 1.84697 8.17147 2.14889 8.34599C2.44261 8.51581 2.62558 8.78779 2.74512 9.07002C2.86413 9.35105 2.94256 9.68699 2.99292 10.0573C3.10637 10.8749 3.49055 11.4635 3.94538 11.7725C4.38784 12.0724 4.93035 12.1365 5.48634 11.8654C5.80378 11.7114 6.15519 11.4473 6.4466 11.1298C6.74111 10.8087 6.93922 10.4737 7.01184 10.1928C7.00226 10.2302 7.02426 10.1998 6.97701 10.0728C6.93334 9.95607 6.8514 9.80779 6.73695 9.64299C6.50574 9.31041 6.18644 8.98438 5.92775 8.79123C5.41854 8.40625 4.83361 8.10969 4.19317 7.77678C3.57196 7.45392 2.89809 7.09439 2.31144 6.59979C1.89997 6.25287 1.47706 5.75371 1.16544 5.22918C0.867089 4.72684 0.602707 4.08918 0.681407 3.4868L0.685305 3.48297C0.768829 2.87848 1.10517 2.28238 1.49841 1.79875C1.89746 1.30785 2.40501 0.867434 2.91157 0.590696ZM71.9422 0.0990018C72.1054 0.118429 72.2554 0.202879 72.3525 0.335169C73.427 1.79399 74.3719 3.34236 75.291 4.88067C76.0245 6.10684 76.7421 7.32302 77.4981 8.50471V0.904306C77.4987 0.576158 77.7624 0.30834 78.0908 0.308076C78.184 0.308076 78.2732 0.316204 78.3459 0.319707C78.4232 0.323407 78.484 0.323538 78.5434 0.323538C78.8719 0.323538 79.1401 0.591357 79.1401 0.919835V13.0115C79.1401 13.2071 79.0417 13.3922 78.8804 13.5032C78.8183 13.5459 78.7562 13.5883 78.6948 13.631C78.632 13.6742 78.5679 13.7194 78.5051 13.7626C78.2428 13.9427 77.884 13.8844 77.6917 13.631C76.6166 12.2108 75.6888 10.6751 74.7452 9.17838C74.0917 8.1418 73.4236 7.11989 72.6895 6.13129V13.0579C72.6882 13.385 72.4239 13.6494 72.0968 13.6503C71.8959 13.6503 71.7016 13.642 71.5166 13.6349C71.1974 13.6227 70.9437 13.3617 70.943 13.0425V0.96239C70.943 0.786752 71.0217 0.618515 71.1565 0.50552C71.2166 0.454903 71.2761 0.406402 71.3303 0.362261C71.3864 0.316997 71.4386 0.276755 71.4895 0.23453C71.6151 0.12887 71.7789 0.0796407 71.9422 0.0990018ZM127.94 0.311974C129.404 0.190587 130.944 0.0744865 132.365 0.381622C133.824 0.697083 135.156 1.45461 136.215 3.0222C137.785 5.33913 137.813 8.64076 136.28 10.9827C135.229 12.5876 133.885 13.3309 132.412 13.6387C130.984 13.9373 129.424 13.8251 127.959 13.751C127.644 13.7351 127.395 13.4746 127.394 13.1587V0.904306C127.394 0.594991 127.632 0.337481 127.94 0.311974ZM23.8426 6.99857C23.8491 5.10052 23.4074 3.68458 22.6694 2.76278C22.456 2.49635 22.21 2.26957 21.9377 2.07747C21.99 2.15234 22.0479 2.22503 22.0965 2.30591C22.5105 3.00119 22.7935 3.76275 23.0411 4.52451C23.2968 5.31065 23.5053 6.05866 23.7923 6.85921C23.8397 6.9919 23.8381 7.13773 23.7884 7.26963C23.4974 8.03257 23.2799 8.76572 23.0024 9.56171C22.7348 10.3295 22.4251 11.1074 21.9764 11.8112C21.9364 11.8739 21.8869 11.9304 21.8448 11.9893C22.0465 11.8524 22.2391 11.7029 22.4101 11.5247C23.2858 10.6124 23.839 9.08938 23.8426 6.99857ZM182.525 0.226733L182.521 0.230632L183.113 0.292614L183.117 0.296447C184.697 0.646269 185.899 1.82485 186.598 3.35907C187.299 4.89515 187.52 6.82835 187.14 8.80669C186.802 10.5606 186.076 11.944 184.964 12.8102C183.842 13.6845 182.408 13.9718 180.798 13.6852C177.998 13.188 176.445 10.551 176.431 7.07602C176.422 4.89918 176.957 3.09608 178.022 1.8723C179.105 0.62704 180.67 0.0573061 182.525 0.226733ZM202.155 0.106734C202.336 0.0226156 202.553 0.0321306 202.728 0.145456C202.813 0.200169 202.899 0.2566 202.984 0.311974C203.069 0.367877 203.154 0.425499 203.235 0.478428C203.405 0.587987 203.51 0.776047 203.51 0.977919C203.51 4.74237 203.531 8.51991 203.476 12.2875L203.472 12.2836C203.47 12.5173 203.38 12.707 203.297 12.8334C203.213 12.9621 203.107 13.0727 203.018 13.1587C202.931 13.2436 202.828 13.3324 202.755 13.3986C202.674 13.4725 202.615 13.5284 202.573 13.5768C202.453 13.7146 202.276 13.7884 202.093 13.7781C201.911 13.7678 201.741 13.6766 201.637 13.5264C201.6 13.4733 201.549 13.4096 201.477 13.329C201.415 13.2574 201.325 13.1579 201.249 13.0657C201.114 12.9023 200.871 12.5927 200.862 12.1984L200.827 8.33819C200.827 7.77506 200.826 7.21234 200.827 6.65014C200.517 7.43925 200.211 8.23002 199.902 9.01966C199.332 10.4737 198.762 11.9304 198.191 13.3832C198.104 13.6017 197.895 13.7491 197.66 13.7588C197.485 13.766 197.324 13.7727 197.164 13.7859C196.903 13.8075 196.657 13.654 196.56 13.4103C195.624 11.0435 194.689 8.67301 193.749 6.30553V13.1044C193.749 13.2656 193.683 13.4222 193.568 13.5342C193.451 13.6463 193.292 13.7066 193.13 13.7007C193.033 13.6971 192.937 13.6926 192.84 13.6891C192.742 13.6854 192.643 13.6811 192.546 13.6774C192.226 13.6652 191.973 13.4045 191.973 13.085V0.989482C191.973 0.770166 192.096 0.569815 192.29 0.466798C192.586 0.309001 192.889 0.209883 193.196 0.20354C193.514 0.19713 193.8 0.29116 194.04 0.462965C194.48 0.778162 194.736 1.3243 194.919 1.81421C195.798 4.15982 196.709 6.49247 197.691 9.01966C198.672 6.46472 199.581 4.08462 200.56 1.73677C200.727 1.33719 201.033 1.03554 201.288 0.815299C201.586 0.556996 201.781 0.426952 201.989 0.2229L202.155 0.106734ZM85.1956 0.230632C85.3925 0.231557 85.5769 0.330477 85.6872 0.49389C85.7308 0.559176 85.7897 0.632127 85.865 0.722325C85.9344 0.805254 86.0282 0.916663 86.1088 1.02047C86.2568 1.20979 86.4927 1.53344 86.5 1.93811C86.5562 5.34719 86.5489 8.75693 86.5 12.1636C86.4967 12.5504 86.2747 12.8597 86.1438 13.0309C86.0718 13.1257 85.9879 13.2276 85.9271 13.3019C85.8597 13.3844 85.8088 13.4503 85.7725 13.5071C85.6687 13.6672 85.4943 13.7677 85.304 13.7781C85.113 13.7882 84.928 13.706 84.8084 13.5574C84.7608 13.4984 84.6954 13.4323 84.6108 13.3484C84.5342 13.2718 84.4298 13.1698 84.3399 13.0735C84.1839 12.9072 83.9011 12.5886 83.8826 12.1675L83.8403 10.8123C83.8179 9.45446 83.8456 8.09555 83.8403 6.77403V6.7624C83.8403 5.17268 83.7901 3.52335 83.8754 1.90329L83.9256 1.6206C84.0075 1.35549 84.1694 1.14127 84.2817 1.00111C84.3624 0.900209 84.4568 0.795078 84.5256 0.714594C84.6016 0.625585 84.6604 0.553824 84.704 0.490058L84.8005 0.381622C84.9082 0.285807 85.0476 0.230434 85.1956 0.230632ZM109.116 0.168716C109.764 0.205654 110.52 0.299485 111.218 0.629418C111.963 0.98261 112.618 1.58796 113.014 2.57696L113.092 2.88284C113.131 3.18786 113.067 3.48218 113.014 3.68431C112.976 3.83121 112.926 3.99086 112.891 4.11409C112.852 4.24757 112.822 4.3562 112.805 4.4509C112.768 4.66486 112.616 4.84155 112.41 4.91166C112.205 4.98171 111.978 4.93433 111.818 4.78777C111.473 4.47231 111.069 4.1246 110.711 3.75396C110.384 3.42225 110.046 2.96392 109.801 2.67377C109.516 2.33657 109.291 2.13628 109.073 2.05038C108.619 1.87428 108.208 1.89668 107.873 2.05428C107.534 2.21392 107.214 2.53692 107.006 3.06092C106.91 3.30139 106.897 3.47617 106.912 3.59524C106.928 3.71174 106.977 3.81905 107.063 3.93211C107.261 4.18863 107.605 4.40682 108.07 4.67933L109.982 5.72087C110.632 6.07611 111.29 6.46426 111.899 6.93659C113.084 7.85561 113.663 9.06631 113.518 10.2818C113.373 11.4894 112.533 12.5446 111.21 13.2051C109.813 13.8987 108.233 13.9429 106.916 13.4761C105.599 13.0089 104.491 12.007 104.14 10.58C104.036 10.1546 104.163 9.73444 104.264 9.44554C104.318 9.29402 104.381 9.12935 104.431 9.0003C104.483 8.86127 104.526 8.74253 104.555 8.63634L104.616 8.48535C104.698 8.34731 104.835 8.24733 104.996 8.21046C105.212 8.16143 105.437 8.23557 105.58 8.40401C105.744 8.59537 105.9 8.71814 106.157 8.97704C106.366 9.1873 106.645 9.49259 106.746 9.89858C106.984 10.8558 107.415 11.4907 107.888 11.7996C108.33 12.0878 108.883 12.1431 109.545 11.7996L109.982 11.5131C110.13 11.3973 110.277 11.2649 110.405 11.122C110.674 10.8226 110.801 10.5575 110.819 10.3942C110.833 10.2697 110.772 10.0112 110.559 9.66624C110.459 9.50296 110.337 9.34252 110.211 9.19774L109.832 8.82222C109.432 8.49315 108.971 8.2211 108.465 7.95103C107.978 7.69108 107.409 7.41282 106.893 7.11084C106.25 6.73412 105.513 6.28545 105.011 5.64732C104.477 4.96671 104.23 4.10656 104.477 3.00284C104.906 1.1186 106.704 0.145654 109.011 0.145456C109.047 0.145456 109.081 0.162438 109.116 0.168716ZM164.087 0.308076C165.669 0.308076 167.395 0.14268 169.009 0.366159L169.353 0.431974C171.028 0.862875 172.029 2.63518 171.947 4.27671C171.9 5.20116 171.627 6.00276 171.107 6.62688C170.585 7.25159 169.857 7.6546 168.989 7.85039C168.095 8.05438 167.156 8.14907 166.155 8.27627C166.163 9.5625 166.195 10.8093 166.12 12.0319L166.117 12.0358C166.091 12.4083 165.9 12.7214 165.76 12.9263C165.583 13.1866 165.481 13.2965 165.376 13.4761C165.275 13.6513 165.091 13.7653 164.889 13.7742C164.686 13.783 164.49 13.6848 164.374 13.5187C164.33 13.4573 164.274 13.3858 164.196 13.298C164.125 13.2185 164.025 13.1117 163.941 13.0115C163.793 12.8357 163.533 12.5073 163.53 12.09L163.491 6.57269C163.489 4.71554 163.495 2.83361 163.495 0.904306C163.495 0.576224 163.76 0.308605 164.087 0.308076ZM208.969 0.029289C209.173 -0.0368561 209.404 0.00933254 209.566 0.164816C209.789 0.37845 210 0.516159 210.317 0.780408C210.589 1.00726 210.911 1.31419 211.087 1.73287C212.057 4.02019 212.945 6.35245 213.96 8.98484C214.957 6.41252 215.838 4.10966 216.791 1.84131L216.942 1.55095C217.109 1.28082 217.321 1.05754 217.515 0.873381C217.809 0.593272 218.021 0.430784 218.235 0.19964L218.402 0.0719104C218.587 -0.0225164 218.815 -0.0140582 218.998 0.106734C219.089 0.16713 219.182 0.22964 219.269 0.288714C219.356 0.347987 219.438 0.404684 219.52 0.459067C219.687 0.569154 219.787 0.755166 219.787 0.954659C219.787 4.71957 219.808 8.50451 219.753 12.2797C219.75 12.5124 219.658 12.7 219.574 12.8257C219.489 12.9539 219.383 13.0624 219.296 13.147C219.211 13.2292 219.109 13.3198 219.04 13.3832C218.961 13.4558 218.905 13.5118 218.866 13.5574C218.743 13.7013 218.559 13.776 218.37 13.7626C218.182 13.7487 218.01 13.6475 217.909 13.4877C217.874 13.4306 217.824 13.3652 217.759 13.2825C217.7 13.2079 217.617 13.1035 217.546 13.0076C217.414 12.8304 217.205 12.5238 217.197 12.1442C217.159 10.3346 217.152 8.55552 217.065 6.74688L214.44 13.3832C214.35 13.6098 214.131 13.7588 213.887 13.7588C213.727 13.7588 213.559 13.767 213.384 13.7742C213.13 13.7847 212.895 13.6311 212.803 13.3948C212.217 11.8996 211.634 10.4026 211.049 8.90739C210.708 8.03746 210.367 7.16767 210.027 6.29774V13.0425C210.026 13.37 209.762 13.634 209.434 13.6349H208.667C208.34 13.6349 208.072 13.3705 208.071 13.0425C208.071 9.02964 208.065 5.0123 208.079 0.989482C208.079 0.810739 208.161 0.641246 208.3 0.528779C208.376 0.467062 208.451 0.401974 208.532 0.335169C208.611 0.269156 208.697 0.20149 208.78 0.133825L208.969 0.029289ZM93.8876 0.153187C94.6277 0.131117 95.3837 0.146976 96.1138 0.3429C97.2504 0.65129 98.4861 1.61366 99.0603 2.67377C99.5618 3.59445 99.6101 4.52147 99.3041 5.37627C99.0828 5.99457 98.683 6.54917 98.1815 7.0334C98.9685 7.78233 99.2817 8.65418 99.3781 9.54625C99.4343 10.071 99.4211 10.6007 99.3973 11.0949C99.3729 11.6037 99.3411 12.0642 99.3511 12.5159V12.5314C99.3504 12.7682 99.2354 12.9606 99.1726 13.0541C99.0947 13.1699 98.9969 13.2753 98.9017 13.3638C98.8066 13.452 98.6929 13.5408 98.5726 13.6077C98.5125 13.641 98.4359 13.68 98.348 13.7045C98.2674 13.7269 98.1259 13.754 97.9647 13.7123C97.7057 13.6455 97.448 13.4941 97.2484 13.3251C97.0627 13.1682 96.8229 12.9051 96.7568 12.5624C96.6874 12.1903 96.6735 11.8149 96.6755 11.4705C96.6775 11.092 96.694 10.8222 96.6907 10.4832C96.6874 9.83276 96.6616 9.36195 96.6015 9.01966C96.542 8.68154 96.4588 8.53041 96.3808 8.45052C96.3068 8.37394 96.1707 8.29233 95.8581 8.23755C95.5383 8.18152 95.1002 8.16453 94.4797 8.17174C94.22 8.17174 93.9749 8.19744 93.6279 8.22592C93.6352 9.06777 93.6524 9.92435 93.6359 10.7774L93.5976 11.8151C93.5751 12.1928 93.4158 12.5224 93.2797 12.7676C93.1152 13.0639 93.0108 13.2023 92.9044 13.4219C92.8086 13.6194 92.6123 13.7498 92.3929 13.7588C92.1736 13.767 91.9654 13.6509 91.855 13.4606C91.8095 13.3825 91.7493 13.2972 91.6727 13.1935C91.6026 13.0979 91.5061 12.9738 91.4249 12.8566C91.2716 12.6343 91.0562 12.2892 91.0495 11.877C90.9868 8.27429 91.0145 4.66876 91.0145 0.826928C91.0145 0.584683 91.1619 0.364177 91.3865 0.273252C91.4718 0.238825 91.5617 0.232218 91.6495 0.238363C92.4359 0.236645 93.1211 0.176116 93.8876 0.153187ZM52.7925 0.172549C52.9088 0.231095 53.0284 0.29149 53.1447 0.350631C53.259 0.40878 53.3713 0.465674 53.4817 0.521048C53.5722 0.563868 53.6535 0.62651 53.7136 0.710761C53.8253 0.86717 53.8537 1.06732 53.7909 1.24891C52.4746 5.05829 51.1603 8.87171 49.815 12.6708C49.7218 12.9379 49.5216 13.1883 49.3465 13.3522C49.2533 13.4393 49.1429 13.5291 49.0213 13.5962C48.9242 13.6492 48.7055 13.7535 48.4478 13.7045L48.4286 13.7007C48.1603 13.6404 47.8954 13.496 47.6852 13.329C47.5306 13.206 47.3661 13.0378 47.2478 12.8334L47.1473 12.6204C45.8073 8.85499 44.5154 5.07508 43.2056 1.27217C43.1101 0.994702 43.2327 0.688757 43.4921 0.551974C44.0858 0.241138 44.7049 0.0915347 45.2576 0.389353C45.7657 0.663184 46.0186 1.21864 46.183 1.72131C47 4.17634 47.8564 6.61908 48.7967 9.31001C49.9108 6.21686 50.9403 3.35967 51.9678 0.501687L52.0993 0.288714C52.1568 0.229375 52.2262 0.180742 52.3041 0.149354C52.4621 0.0861828 52.6398 0.0963596 52.7925 0.172549ZM148.957 0.346798C149.284 0.346798 149.552 0.611379 149.553 0.939197C149.553 1.05913 149.562 1.13175 149.572 1.31472H149.564L149.572 1.33798V1.34571C149.571 1.66725 149.317 1.92932 148.995 1.93811C148.98 1.93851 148.964 1.93111 148.949 1.93038H144.651V5.9532H147.655L147.88 5.99576C148.088 6.081 148.237 6.28439 148.248 6.52234C148.255 6.67677 148.263 6.82148 148.275 6.95595C148.289 7.11553 148.24 7.27564 148.136 7.39736C148.031 7.51947 147.878 7.59249 147.718 7.6026C146.736 7.66412 145.748 7.7263 144.678 7.79231V12.0436H148.922C149.25 12.0436 149.518 12.3113 149.518 12.6398C149.518 12.8068 149.509 12.9646 149.502 13.1121C149.488 13.4294 149.227 13.6809 148.91 13.6813H142.572C142.244 13.6813 141.976 13.4134 141.975 13.085V0.939197C141.977 0.611379 142.244 0.346798 142.572 0.346798H148.957ZM59.0838 0.323538H65.4221C65.7506 0.323538 66.0182 0.591357 66.0182 0.919835C66.0182 0.974681 66.0228 1.03191 66.0261 1.10565C66.0294 1.1749 66.034 1.2614 66.034 1.34961C66.034 1.67803 65.7658 1.94578 65.4373 1.94584H61.1164V5.98803H64.086L64.3107 6.03448C64.5208 6.12097 64.6708 6.32423 64.6788 6.56489L64.694 6.99084C64.7039 7.31 64.4587 7.5802 64.1402 7.6026C63.1378 7.67086 62.1572 7.72954 61.1092 7.80004V11.9855H65.3871C65.7155 11.9855 65.9831 12.2533 65.9831 12.5817V13.0541C65.9831 13.3825 65.7155 13.6503 65.3871 13.6503H59.0449C58.7165 13.6503 58.4488 13.3825 58.4488 13.0541V0.912104L58.4951 0.67977C58.5856 0.466335 58.799 0.315807 59.0449 0.315807C59.0581 0.315807 59.0713 0.322679 59.0838 0.323538ZM225.065 0.315807H231.383C231.712 0.315807 231.979 0.583626 231.979 0.912104C231.979 1.03904 231.99 1.13063 231.999 1.31472C232.007 1.47728 231.949 1.63831 231.837 1.75613C231.724 1.87309 231.568 1.93798 231.407 1.93811H227.094V5.98803H230.09C230.418 5.98895 230.683 6.25637 230.683 6.58425C230.683 6.72395 230.684 6.85247 230.69 6.97148C230.707 7.29672 230.458 7.57438 230.133 7.5948C229.131 7.65678 228.161 7.72075 227.102 7.78841V12.0203H231.356C231.685 12.0203 231.952 12.2881 231.952 12.6165V13.0425C231.952 13.3704 231.685 13.6349 231.356 13.6349H224.999C224.671 13.6347 224.404 13.3703 224.403 13.0425V0.904306C224.404 0.75543 224.458 0.609066 224.565 0.497789L224.573 0.490058C224.703 0.356314 224.885 0.295851 225.065 0.315807ZM128.583 1.45415V12.5817C128.667 12.586 128.751 12.5893 128.835 12.5933C128.827 12.537 128.83 12.4798 128.839 12.423V1.64769C128.839 1.5725 128.847 1.49783 128.873 1.43089C128.777 1.43756 128.68 1.44675 128.583 1.45415ZM143.168 12.4888H143.489V7.2309C143.49 7.10985 143.531 6.99976 143.594 6.90566C143.516 6.80549 143.463 6.68582 143.462 6.54943V1.53543H143.168V12.4888ZM97.5385 8.07103C97.6515 8.29953 97.7281 8.54931 97.7751 8.81442C97.8537 9.26336 97.8762 9.81572 97.8795 10.4677L97.8643 11.4783C97.8623 11.7902 97.8755 12.0687 97.9218 12.3262C97.9151 12.2991 97.9092 12.2986 97.9257 12.3223C97.9429 12.3457 97.972 12.3787 98.0149 12.4153C98.042 12.438 98.0744 12.4579 98.1041 12.4772C98.1193 12.4625 98.1339 12.4489 98.1464 12.4346C98.1544 12.426 98.1603 12.4184 98.1663 12.4114C98.163 11.9461 98.1874 11.4699 98.2085 11.0369C98.2323 10.5495 98.2429 10.0994 98.1966 9.67398C98.1332 9.08667 97.9607 8.55103 97.5385 8.07103ZM44.5181 1.42706C45.7652 5.05023 46.996 8.64195 48.27 12.2216C48.27 12.2216 48.2733 12.2337 48.278 12.241C48.2839 12.2517 48.2951 12.2668 48.3084 12.2836C48.3368 12.3185 48.3764 12.3572 48.4246 12.3959C48.4643 12.4274 48.5125 12.4406 48.5489 12.4617C48.5846 12.4262 48.6222 12.3909 48.6493 12.3533C48.6824 12.3079 48.6956 12.2836 48.6956 12.2836C48.7683 12.0789 48.8363 11.8689 48.909 11.6641C48.868 11.6725 48.8271 11.6837 48.7848 11.6834C48.5337 11.6818 48.3103 11.5218 48.2271 11.2847C47.6495 9.62316 47.1011 8.0596 46.5738 6.54553L45.0524 2.093C44.8963 1.61578 44.7594 1.4749 44.6924 1.43862C44.6804 1.43215 44.6338 1.40875 44.5181 1.42706ZM59.6376 12.4617H59.9204V7.24637C59.9204 7.11831 59.9667 7.00306 60.036 6.90566C59.9739 6.81163 59.9283 6.70551 59.9277 6.58425V1.51223H59.6376V12.4617ZM225.595 12.4462H225.909V7.2309C225.909 7.11123 225.952 7.00307 226.013 6.9095C225.95 6.81487 225.905 6.7069 225.905 6.58425V1.50443H225.595V12.4462ZM30.808 1.76003C30.766 4.49484 30.7022 7.20031 30.8661 9.89078L30.9048 10.2354C31.0302 11.0119 31.4054 11.6228 31.9347 12.0513C32.071 12.1615 32.2208 12.2579 32.38 12.3455C32.0223 12.0782 31.7401 11.7501 31.5359 11.3698C31.184 10.7133 31.0669 9.94992 31.052 9.20548C31.0274 7.9698 31.0278 6.73399 31.0287 5.5079C31.0296 4.27949 31.0293 3.05828 31.0016 1.84131C31.0023 1.87355 31.0143 1.83496 30.8932 1.67096C30.852 1.70935 30.8258 1.73948 30.808 1.76003ZM202.066 1.71741C201.838 1.91492 201.711 2.06056 201.656 2.19364C201.427 2.74348 201.213 3.29947 200.99 3.85467C201.049 3.8476 201.111 3.84693 201.171 3.8585C201.185 3.86114 201.197 3.87053 201.21 3.87403C201.238 3.87661 201.265 3.87912 201.296 3.88176C201.355 3.88705 201.425 3.89293 201.497 3.90112C201.797 3.93561 202.023 4.19141 202.023 4.49352C202.023 7.06544 201.995 9.60889 202.05 12.1636C202.048 12.1305 202.038 12.1252 202.054 12.1558C202.072 12.1891 202.108 12.236 202.167 12.3068L202.175 12.3146L202.186 12.3068C202.235 12.2596 202.264 12.2224 202.283 12.1984C202.335 8.63799 202.319 5.07263 202.318 1.4967C202.219 1.57739 202.134 1.6582 202.066 1.71741ZM218.335 1.73677C218.22 1.84705 218.127 1.94631 218.053 2.03875L217.886 2.30207C217.718 2.70469 217.56 3.11194 217.395 3.5178C217.445 3.51119 217.497 3.50696 217.55 3.51396C217.82 3.55083 218.031 3.76896 218.061 4.04048C218.357 6.82677 218.331 9.50713 218.386 12.1209L218.483 12.2758C218.522 12.2367 218.548 12.2074 218.564 12.1868C218.616 8.62431 218.6 5.05684 218.598 1.48507C218.499 1.5758 218.409 1.66633 218.335 1.73677ZM193.161 1.3999V3.84304C193.228 3.83762 193.294 3.8355 193.354 3.83141C193.436 3.82592 193.511 3.82242 193.583 3.81594L193.773 3.82757C193.958 3.87152 194.114 4.00407 194.187 4.18764C195.251 6.86212 196.308 9.54327 197.366 12.2178C197.491 11.8991 197.616 11.5803 197.741 11.2615C197.725 11.2628 197.708 11.273 197.691 11.273C197.447 11.2725 197.226 11.1216 197.137 10.8936C195.939 7.80447 194.851 5.02182 193.804 2.22846C193.624 1.74562 193.468 1.51752 193.347 1.43089C193.307 1.40221 193.271 1.39118 193.219 1.39217C193.203 1.39256 193.184 1.396 193.161 1.3999ZM209.264 3.70751C209.289 3.69984 209.314 3.68854 209.341 3.68431C209.41 3.67368 209.478 3.66026 209.546 3.64943C209.613 3.63879 209.682 3.62934 209.752 3.6185L209.957 3.62233C210.152 3.66026 210.322 3.79612 210.398 3.9902C210.984 5.4849 211.571 6.97895 212.156 8.47372C212.645 9.72122 213.131 10.9702 213.619 12.2178L214.015 11.2266C213.96 11.2319 213.904 11.2371 213.848 11.2266C213.628 11.1851 213.456 11.0246 213.391 10.8201C212.129 7.57623 211.121 4.86105 209.992 2.19754C209.931 2.05487 209.797 1.89708 209.554 1.69421C209.476 1.62886 209.376 1.5427 209.264 1.45415C209.262 2.20547 209.265 2.95659 209.264 3.70751ZM164.68 1.48507C164.678 5.13224 164.662 8.59636 164.715 12.0551C164.712 12.0447 164.713 12.0496 164.726 12.0745C164.742 12.1043 164.771 12.1426 164.812 12.1946C164.905 12.0485 164.93 11.9822 164.932 11.9545C165.013 10.6183 164.966 9.28286 164.966 7.75742C164.967 7.60339 165.026 7.45386 165.133 7.34317L165.141 7.33927L165.295 7.21928L165.299 7.21538C165.157 7.10615 165.064 6.94055 165.063 6.75078V1.56642C165.063 1.53437 165.074 1.50424 165.078 1.47351C164.947 1.47695 164.814 1.48269 164.68 1.48507ZM92.1993 1.4038C92.1973 5.04019 92.1788 8.44841 92.2383 11.8577C92.239 11.8773 92.2535 11.9256 92.3117 12.028C92.3711 11.9025 92.4042 11.8167 92.4088 11.7454C92.4907 10.4146 92.4359 9.09605 92.4359 7.67224C92.4359 7.48868 92.5244 7.3287 92.6566 7.21928C92.5799 7.11923 92.5284 6.99851 92.5284 6.86304V1.39217C92.4194 1.39686 92.3097 1.4003 92.1993 1.4038ZM19.7075 1.9923C19.3508 1.99395 18.94 2.14917 18.5383 2.49952L18.1395 2.91767C17.4102 3.8363 17.0047 5.40329 17.0128 7.04502C17.0211 8.689 17.4447 10.2327 18.1743 11.1105C18.7076 11.7515 19.2497 12.0175 19.6843 12.028C20.0897 12.0376 20.5541 11.8289 20.9736 11.1724C21.3473 10.5863 21.621 9.91239 21.8796 9.17065C22.1061 8.52083 22.342 7.76905 22.6036 7.05665C22.3441 6.30725 22.1238 5.54794 21.9106 4.89231C21.7306 4.33889 21.5454 3.83068 21.3182 3.36681L21.0743 2.91767C20.6645 2.2354 20.1617 1.99058 19.7075 1.9923ZM181.925 2.00783C181.57 2.01153 181.165 2.15901 180.775 2.48406L180.392 2.87121C179.671 3.73982 179.254 5.29063 179.246 6.94439C179.237 8.59788 179.636 10.169 180.349 11.0639C180.881 11.7319 181.448 12.0048 181.905 12.0126C182.339 12.0195 182.831 11.7913 183.257 11.1066L183.501 10.6691C183.731 10.2152 183.916 9.71263 184.097 9.16292C184.311 8.51237 184.536 7.74572 184.794 7.00247C184.542 6.28122 184.318 5.52408 184.101 4.86904C183.853 4.12301 183.587 3.44551 183.226 2.85185C182.852 2.23196 182.374 2.0034 181.925 2.00783ZM72.1318 3.83141C72.2897 3.84125 72.4391 3.91149 72.5461 4.03665C73.7858 5.48794 74.7948 7.03478 75.7483 8.54726C76.4877 9.72102 77.1934 10.8641 77.9514 11.9545V10.2896C77.8807 10.3044 77.806 10.319 77.7267 10.3361C77.4901 10.3864 77.247 10.2887 77.1109 10.0883C76.1032 8.59068 75.1873 7.0219 74.2728 5.49243C73.5776 4.32938 72.8798 3.18397 72.1318 2.0852V3.83141ZM184.244 2.23236C184.677 2.94284 184.972 3.72125 185.227 4.49352C185.493 5.29314 185.698 6.03098 185.979 6.80496C186.027 6.93943 186.019 7.0821 185.971 7.21154L185.975 7.21538C185.69 8.00839 185.486 8.74755 185.227 9.53462C185.041 10.1031 184.833 10.6706 184.562 11.2072L184.267 11.7338C184.22 11.8103 184.163 11.8796 184.113 11.9506C184.152 11.923 184.195 11.9024 184.233 11.8732C185.049 11.2366 185.672 10.1508 185.975 8.58215C186.313 6.82075 186.101 5.14327 185.514 3.85467C185.161 3.08049 184.679 2.46364 184.109 2.03875C184.153 2.10252 184.203 2.16384 184.244 2.23236ZM131.832 2.25945C131.304 2.086 130.702 2.05223 130.027 2.14719V11.9312C130.812 11.9363 131.504 11.8589 132.095 11.6293C132.801 11.3548 133.398 10.8613 133.841 9.97986L134.197 9.15902C134.794 7.52694 134.721 5.91058 133.957 4.37345L133.516 3.6107C133.039 2.89077 132.468 2.46899 131.832 2.25945ZM17.2025 2.18201C17.0396 2.31067 16.8874 2.45445 16.7456 2.61179C16.058 3.37559 15.5883 4.50792 15.464 5.96476C15.3032 7.85317 15.573 9.4012 16.1494 10.5142C16.4414 11.0779 16.8128 11.5321 17.2567 11.8693C16.2801 10.6928 15.8332 8.83213 15.8241 7.05275C15.8151 5.27292 16.2412 3.39667 17.2025 2.18201ZM179.424 2.17818C179.243 2.32011 179.074 2.47798 178.921 2.65441C178.208 3.47372 177.741 4.71151 177.643 6.35199L177.624 7.07985C177.634 9.31259 178.316 10.9133 179.412 11.7919C178.466 10.5961 178.048 8.72019 178.057 6.94049C178.066 5.18946 178.489 3.35266 179.424 2.17818ZM105.372 9.87532C105.287 10.1254 105.281 10.2428 105.294 10.2974C105.437 10.8794 105.775 11.3766 106.246 11.7609C105.958 11.3088 105.735 10.7757 105.588 10.1889C105.573 10.1271 105.519 10.032 105.372 9.87532ZM134.197 2.53434C134.304 2.66663 134.409 2.80745 134.507 2.95639C136.079 5.33946 136.181 7.96491 134.906 10.5103C134.715 10.8897 134.493 11.219 134.251 11.5054C134.621 11.1996 134.967 10.8141 135.285 10.3284L135.509 9.95666C136.478 8.17385 136.454 5.82858 135.455 4.05984L135.227 3.68815C134.908 3.21535 134.563 2.83765 134.197 2.53434ZM105.774 2.85958L105.638 3.26227C105.468 4.02403 105.638 4.51704 105.948 4.91166C106.292 5.34845 106.833 5.69801 107.493 6.08483L109.026 6.90176C109.553 7.1828 110.098 7.49885 110.59 7.90458C110.941 8.19473 111.302 8.60779 111.57 9.04285C111.823 9.4536 112.055 9.99307 111.996 10.5219L112 10.5258C111.961 10.8773 111.799 11.2077 111.601 11.5015C112.045 11.0778 112.281 10.6015 112.337 10.1386C112.421 9.42823 112.105 8.59762 111.171 7.87359C110.637 7.4598 110.045 7.10786 109.414 6.7624C108.798 6.42553 108.108 6.07697 107.47 5.70541C107.051 5.45953 106.488 5.1323 106.123 4.65997C105.929 4.40894 105.778 4.10649 105.732 3.74623C105.687 3.39866 105.742 3.03502 105.886 2.65824C105.847 2.72472 105.806 2.78961 105.774 2.85958ZM1.44416 9.38362C1.37933 9.39691 1.29634 9.42314 1.19253 9.4688V10.0302C1.49021 10.5762 1.81407 11.037 2.16045 11.4124C1.99175 11.0515 1.87162 10.6503 1.81202 10.2199C1.76847 9.9005 1.71356 9.67768 1.6533 9.53462C1.59567 9.39862 1.55259 9.37589 1.55259 9.37589C1.5401 9.37332 1.50693 9.37094 1.44416 9.38362ZM1.97074 3.28163C1.91583 3.41267 1.8777 3.53464 1.86237 3.64559C1.83838 3.8437 1.93023 4.19193 2.18754 4.62515C2.43356 5.03867 2.77195 5.43177 3.07809 5.68988C3.55069 6.08846 4.11335 6.39249 4.74295 6.71978C5.35392 7.03736 6.03777 7.38051 6.64404 7.83877C7.01256 8.11392 7.41413 8.5324 7.71267 8.96158C7.86254 9.17713 7.99866 9.41541 8.0882 9.65461C8.17318 9.88179 8.24553 10.1854 8.16564 10.491C8.15223 10.5429 8.12454 10.5906 8.10756 10.642C8.22842 10.4501 8.33851 10.2592 8.41734 10.065L8.51024 9.73206C8.55736 9.40636 8.47331 9.10444 8.29344 8.81059C8.0395 8.39588 7.60113 8.01017 7.10091 7.68777C6.51948 7.3065 5.89332 6.98172 5.23854 6.63461C4.59414 6.29298 3.91894 5.93133 3.29106 5.4847C2.94514 5.24166 2.59809 4.85332 2.35406 4.46253C2.2295 4.2631 2.11909 4.0426 2.04818 3.81978C1.99863 3.66363 1.9636 3.47637 1.97074 3.28163ZM96.6597 6.97148C96.5724 7.03643 96.4806 7.09168 96.3887 7.14183C96.5011 7.17414 96.6101 7.21366 96.7138 7.26183C96.6887 7.19846 96.6696 7.13046 96.6676 7.06049C96.6669 7.02375 96.6735 6.9878 96.6795 6.95212C96.6722 6.9576 96.6669 6.96606 96.6597 6.97148ZM166.84 2.06591C166.665 2.07959 166.46 2.09333 166.252 2.11236V6.22809C166.775 6.30276 167.238 6.35648 167.65 6.30553C168.137 6.24501 168.499 6.05496 168.757 5.57371C168.928 5.25527 169.042 4.78882 169.063 4.27671C169.078 3.89392 169.044 3.51958 168.966 3.20418L168.873 2.91383C168.744 2.58423 168.586 2.3967 168.428 2.28271C168.266 2.16648 168.061 2.09558 167.793 2.06201C167.519 2.02785 167.204 2.03756 166.84 2.06591ZM93.7172 6.28617C93.9273 6.29443 94.1328 6.30421 94.3139 6.30937C94.6879 6.32 95.011 6.31274 95.2931 6.26681C95.5707 6.22155 95.7841 6.14298 95.9513 6.01902C96.1138 5.89829 96.2685 5.70745 96.3927 5.384C96.5308 5.02479 96.6088 4.47376 96.5823 3.94368C96.5691 3.68319 96.5348 3.44656 96.4779 3.25837C96.4191 3.0635 96.3504 2.96035 96.3075 2.91767C96.0266 2.63498 95.5938 2.44256 94.9793 2.26335C94.6277 2.1608 94.1784 2.04476 93.7172 1.91875V6.28617ZM169.659 1.8723C169.784 2.0519 169.895 2.25529 169.984 2.48406L170.12 2.91383C170.231 3.36079 170.271 3.85361 170.251 4.327C170.225 4.95514 170.088 5.61448 169.806 6.13902C169.78 6.18752 169.745 6.22915 169.717 6.27454C169.9 6.15368 170.063 6.02397 170.194 5.86802C170.516 5.4816 170.722 4.94358 170.759 4.21863L170.743 3.7346C170.648 2.95969 170.232 2.26738 169.659 1.8723ZM97.6165 2.91383C97.7077 3.21674 97.7546 3.5544 97.7711 3.88566C97.8035 4.53911 97.7143 5.26136 97.5041 5.80994C97.446 5.9614 97.3726 6.09798 97.2986 6.22809C97.7275 5.8266 98.0314 5.40554 98.1854 4.97748C98.3757 4.44706 98.3572 3.87132 98.0149 3.24291C97.8775 2.98923 97.6779 2.73919 97.446 2.50725C97.514 2.64106 97.5748 2.77718 97.6165 2.91383ZM7.27899 1.98846C7.50994 2.32421 7.70904 2.70939 7.87529 3.13064L7.94494 3.22745C7.96787 3.2515 7.99985 3.27647 8.03791 3.30872C8.07531 3.11273 8.07584 3.01982 8.06111 2.97575L8.05727 2.97185C7.93179 2.61106 7.65928 2.27115 7.27899 1.98846ZM110.711 1.90712L111.562 2.92156L111.566 2.9254C111.669 3.03106 111.781 3.12621 111.888 3.22745C111.897 3.17927 111.913 3.1391 111.915 3.10355C111.918 3.05676 111.911 3.0261 111.911 3.0261C111.632 2.32976 111.2 1.93805 110.711 1.70578C110.609 1.65748 110.502 1.61856 110.393 1.58188C110.504 1.69428 110.618 1.7971 110.711 1.90712ZM25.0313 7.00247C25.0277 9.27843 24.4294 11.1412 23.2696 12.3494C22.0897 13.5786 20.4142 14.0434 18.4841 13.6774C16.9677 13.3912 15.8099 12.4483 15.0923 11.0639C14.3828 9.69446 14.1057 7.9026 14.2793 5.86413C14.4199 4.21519 14.9592 2.81822 15.859 1.81811C16.7669 0.809417 18.0094 0.239816 19.4597 0.207438C21.1878 0.167658 22.6184 0.792304 23.5987 2.01556C24.5629 3.21945 25.0383 4.93829 25.0313 7.00247ZM85.0291 6.77013L85.0212 9.45717C85.0205 10.3373 85.0271 11.2125 85.0674 12.09C85.0634 12.0706 85.0595 12.0716 85.0753 12.0978C85.0972 12.1339 85.1381 12.1864 85.2068 12.2604L85.2227 12.2758C85.3258 12.1348 85.3112 12.114 85.3112 12.1558V12.1481C85.3601 8.75178 85.3674 5.35519 85.3112 1.96131L85.1877 1.77939C85.0872 1.9089 85.0635 1.9691 85.0635 1.9691C84.9815 3.547 85.0291 5.1253 85.0291 6.7624V6.77013Z" fill="white"/>
</svg>
