<svg width="145" height="37" viewBox="0 0 145 37" fill="none" xmlns="http://www.w3.org/2000/svg">
<path d="M5.1416 11.2501C6.27513 10.9182 8.39819 10.7743 9.86364 10.9309C11.3291 11.0875 13.1578 11.6197 13.9344 12.1082C14.7109 12.5967 15.6942 13.724 16.1263 14.6132C16.5584 15.5025 16.9091 16.6549 16.9091 17.1684C16.9091 17.682 16.6273 18.1078 16.2828 18.1078C15.9384 18.1078 15.6693 17.6131 15.6755 17.0119C15.6881 16.4107 15.1244 15.1393 14.423 14.1937C13.5838 13.0539 12.3562 12.3397 10.803 12.0892C9.51295 11.8763 7.54021 11.8763 6.4192 12.0892C5.29819 12.2959 3.82021 13.0351 3.13132 13.724C2.40487 14.4505 1.87236 15.8345 1.85983 17.0119C1.84733 18.1828 2.31088 19.4852 2.95579 20.0802C3.56953 20.6501 6.44435 21.7774 9.33768 22.5853C13.208 23.6687 14.9991 24.5145 16.07 25.7796C16.8966 26.7503 17.5354 28.3222 17.5354 29.3806C17.5353 30.6456 16.8715 31.9482 15.5 33.3761C14.0408 34.8979 12.6693 35.6244 10.6465 35.9563C8.42954 36.3133 7.19569 36.1319 4.85354 35.0861C2.91841 34.2281 1.54688 33.1068 0.939395 31.8856C0.41961 30.8523 2.16498e-05 29.3054 0 28.4412C0 27.5832 0.281818 27.0133 0.626263 27.1887C0.970696 27.364 1.25253 28.2095 1.25253 29.0674C1.25256 29.9317 1.95396 31.4786 2.81818 32.5119C3.93919 33.8583 5.13538 34.4972 7.04546 34.779C8.54219 34.992 10.7028 34.8353 11.9803 34.4158C13.2266 34.0024 14.7108 33.0567 15.2682 32.3052C15.8318 31.5599 16.295 30.2448 16.2951 29.3806C16.2951 28.5226 15.9072 27.2513 15.4437 26.5624C14.9741 25.8735 13.2081 24.9275 11.5235 24.464C9.83258 23.9943 7.11435 23.224 5.4798 22.7418C3.80152 22.2471 2.09194 21.2516 1.55954 20.4563C1.03976 19.6798 0.607469 18.2018 0.601188 17.1684C0.588663 16.1351 1.14601 14.5192 1.82864 13.5735C2.51754 12.6342 4.00807 11.5883 5.1416 11.2501ZM132.924 18.7029C134.446 17.7385 135.592 17.5002 137.465 17.7507C138.843 17.9386 140.502 18.5902 141.153 19.1977C141.805 19.8052 142.719 21.2141 143.189 22.3351C143.658 23.4561 144.041 24.9341 144.041 25.623C144.041 26.6531 143.719 26.8395 139.305 26.87L134.998 26.881C130.584 26.9115 130.263 27.0978 130.263 28.1281C130.263 28.817 130.757 30.3828 131.359 31.6165C132.091 33.1131 133.075 34.0209 134.333 34.3778C135.367 34.6659 136.914 34.7536 137.778 34.5595C138.636 34.3716 139.983 33.6206 140.772 32.8941C141.554 32.1677 142.187 31.2218 142.181 30.7897C142.168 30.3576 142.444 29.8691 142.788 29.6937C143.132 29.5184 143.414 29.9442 143.414 30.6331C143.414 31.322 142.569 32.7311 141.535 33.7644C139.976 35.3238 139.149 35.6431 136.682 35.6493C134.834 35.6493 133.131 35.236 132.179 34.5534C131.34 33.9458 130.281 32.5368 129.83 31.4159C129.379 30.2949 129.01 28.2533 129.01 26.8755C129.01 25.4978 129.43 23.3872 129.95 22.1786C130.463 20.9699 131.803 19.4106 132.924 18.7029ZM21.2929 18.1078C21.6812 18.1078 21.9192 21.4458 21.9192 26.8755C21.9192 32.3052 21.6812 35.6432 21.2929 35.6432C20.9047 35.6432 20.6667 32.3052 20.6667 26.8755C20.6667 21.4458 20.9047 18.1078 21.2929 18.1078ZM25.6768 11.2189C26.0713 11.2189 26.3031 15.7093 26.3031 23.4311C26.3031 31.1529 26.0713 35.6432 25.6768 35.6432C25.2822 35.6432 25.0505 31.1529 25.0505 23.4311C25.0505 15.7093 25.2822 11.2189 25.6768 11.2189ZM82.9799 11.2189C87.013 11.2189 89.5306 11.5196 90.8082 12.1583C91.8415 12.6719 92.9688 13.6614 93.3132 14.3503C93.6576 15.0392 93.9395 16.5861 93.9395 17.7947C93.9395 19.3979 93.4322 20.4939 92.0607 21.8654C90.2508 23.6753 90.2257 23.7693 91.4344 24.3705C92.1233 24.7149 92.9689 26.0551 93.3071 27.3452C93.6515 28.6354 93.9393 31.1028 93.9456 32.825C93.9518 34.7413 93.739 35.7121 93.3945 35.3301C93.0814 34.9856 92.6871 32.8688 92.5243 30.6331C92.28 27.2701 91.9667 26.3682 90.7329 25.4414C89.5556 24.5521 88.0901 24.3204 78.2829 24.3705V30.0068C78.2829 33.3448 78.0261 35.6432 77.6566 35.6432C77.2621 35.6432 77.0304 31.1529 77.0304 23.4311V11.2189H82.9799ZM125.566 0.00247468C125.91 -0.0350983 126.825 0.359691 127.601 0.879488C128.697 1.6122 129.01 2.42001 129.004 4.48662C128.998 6.01471 128.315 8.61372 127.394 10.5927C126.511 12.4903 125.108 14.9515 124.269 16.0725C122.898 17.9136 122.854 18.1329 123.844 18.3959C124.445 18.5525 125.29 19.3979 125.722 20.2747C126.154 21.1514 126.505 22.1472 126.505 22.4917C126.505 22.8361 126.223 23.1179 125.879 23.1179C125.534 23.1179 125.115 22.4165 124.939 21.5523C124.764 20.6943 124.132 19.7233 123.53 19.3977C122.647 18.9281 121.914 19.4169 117.111 24.9967L120.869 25.9361C122.935 26.4497 125.19 27.4392 125.879 28.1281C126.568 28.8169 127.131 29.8064 127.131 30.32C127.131 30.8335 126.806 31.8919 126.405 32.6685C126.004 33.445 125.227 34.4218 124.683 34.8414C124.132 35.261 122.209 35.6117 120.399 35.6242C117.712 35.6368 116.823 35.3551 115.546 34.0776C114.681 33.2196 113.98 31.8105 113.98 30.9462C113.98 30.0883 114.262 29.3806 114.606 29.3806C114.951 29.3806 115.226 30.0131 115.213 30.7897C115.201 31.5662 115.696 32.7 116.309 33.3137C116.998 34.0088 118.527 34.4785 120.337 34.5662C122.516 34.6664 123.58 34.3905 124.582 33.4513C125.315 32.7624 125.923 31.6351 125.929 30.9462C125.929 30.2573 125.572 29.349 125.121 28.9231C124.676 28.5035 122.553 27.5893 116.485 25.623L112.571 28.8234C110.416 30.5832 106.966 32.8378 104.899 33.8335C102.832 34.8293 100.227 35.6432 99.1061 35.6432C97.9852 35.6432 96.645 35.2173 96.1314 34.7038C95.6179 34.1903 95.1856 32.706 95.173 31.4159C95.1605 29.8941 96.0749 27.2011 97.7845 23.7442C99.989 19.279 101.486 17.3497 107.041 11.8073C110.992 7.85567 115.182 4.33649 117.424 3.07141C119.491 1.90657 122.027 0.754205 123.061 0.516206C124.094 0.271964 125.221 0.0463131 125.566 0.00247468ZM45.8738 18.7029C47.3956 17.7385 48.5417 17.5002 50.4142 17.7507C51.792 17.9386 53.4513 18.5902 54.1027 19.1977C54.754 19.8052 55.6683 21.2141 56.138 22.3351C56.6077 23.4561 56.9899 24.9341 56.9899 25.623C56.9899 26.8003 56.5701 26.8755 43.2122 26.8755V28.4412C43.2122 29.3054 43.6318 30.8523 44.1516 31.8856C44.6651 32.9189 45.7235 33.9456 46.5 34.1711C47.2766 34.3966 48.8924 34.5471 50.1011 34.5032C51.5978 34.4531 52.7376 33.9273 53.7021 32.844C54.4786 31.9735 55.1111 30.8335 55.1112 30.32C55.1112 29.8064 55.393 29.3806 55.7374 29.3806C56.0819 29.3806 56.3637 29.6624 56.3637 30.0068C56.3636 30.3513 56.0505 31.2657 55.6622 32.0422C55.2802 32.8187 54.3658 33.9395 53.6268 34.5344C52.819 35.192 51.1907 35.6246 49.4748 35.6371C47.7588 35.6434 46.0614 35.2235 45.1283 34.5534C44.2891 33.9458 43.2306 32.5368 42.7798 31.4159C42.3289 30.2949 41.9596 28.2533 41.9596 26.8755C41.9596 25.4978 42.3792 23.3872 42.899 22.1786C43.4125 20.9699 44.7528 19.4106 45.8738 18.7029ZM65.9142 17.5189C66.5154 17.5001 67.0102 17.7634 67.0102 18.1078C67.0101 18.4523 66.4276 18.7341 65.7075 18.7341C64.9935 18.7341 63.5844 19.5796 62.5762 20.6129C60.8039 22.4353 60.7475 22.6796 60.7475 28.7543C60.7475 32.3052 60.4782 35.1547 60.1213 35.3301C59.7205 35.5303 59.495 32.5117 59.495 26.8755C59.495 21.4458 59.733 18.1078 60.1213 18.1078C60.4657 18.1078 60.754 18.7404 60.7665 19.5169C60.7853 20.8258 60.8416 20.8442 61.5242 19.7921C61.9251 19.1659 62.8331 18.4084 63.5406 18.1078C64.2421 17.8072 65.313 17.5439 65.9142 17.5189ZM40.5946 18.158C40.7699 18.014 41.0143 18.014 41.1395 18.158C41.2572 18.3054 40.0172 22.1743 38.3708 26.7501C36.73 31.3344 35.102 35.0983 34.7576 35.1234C34.4132 35.1484 32.6722 31.6852 30.8936 27.4204C29.1089 23.1621 27.6309 19.3231 27.6057 18.8907C27.5807 18.4585 27.8689 18.1078 28.251 18.1078C28.6396 18.1092 30.2308 21.7049 34.6451 34.0776L37.4633 26.2493C39.0101 21.9468 40.4192 18.302 40.5946 18.158ZM125.253 5.12511C124.395 5.0437 122.842 5.34465 121.808 5.78929C120.775 6.24023 118.52 7.56788 116.798 8.73897C115.076 9.91011 111.444 12.9911 108.732 15.5838C106.02 18.1765 102.52 21.9907 100.948 24.0573C99.2192 26.3431 97.9604 28.7415 97.7411 30.1756C97.3841 32.5241 97.3902 32.5308 99.5758 32.5058C100.785 32.4933 102.895 31.9671 104.273 31.3346C105.651 30.7021 108.538 28.8731 110.692 27.2761C113.98 24.8338 114.606 24.0698 114.606 22.4917C114.606 21.3394 115.201 20.0054 116.141 19.0472C117.067 18.1078 118.383 17.4875 119.429 17.4938C120.794 17.5 121.689 16.8362 123.449 14.5191C124.695 12.8721 126.035 10.8996 126.424 10.123C126.812 9.34645 127.062 7.93733 126.975 6.99167C126.856 5.66399 126.461 5.23784 125.253 5.12511ZM136.224 18.7341C135.366 18.7343 133.813 19.5108 132.774 20.4563C131.734 21.4019 130.676 23.1113 130.419 24.2573L129.95 26.3306C141.641 26.2555 142.788 26.0801 142.788 25.3099C142.788 24.7963 142.362 23.3872 141.849 22.1786C141.329 20.9699 140.208 19.7048 139.344 19.3604C138.486 19.0159 137.076 18.7341 136.224 18.7341ZM49.3182 18.7775C48.5417 18.7963 47.3455 19.0847 46.6566 19.4166C45.9677 19.7423 44.9093 20.8506 44.3081 21.8777C43.7069 22.9047 43.2122 24.3078 43.2122 24.9967C43.2122 26.1677 43.632 26.2493 49.4748 26.2493C54.0587 26.2493 55.7369 26.0425 55.7497 25.4664C55.7559 25.0343 55.4741 23.7693 55.1234 22.6482C54.7226 21.3832 53.7772 20.2559 52.6061 19.6735C51.5728 19.1537 50.0948 18.7525 49.3182 18.7775ZM78.2829 12.4715V23.1179C89.1608 23.1179 89.7372 22.9926 91.1525 21.5523C92.2359 20.4438 92.6872 19.2977 92.6747 17.6381C92.6747 16.348 92.4618 14.9762 92.205 14.6004C91.9545 14.2184 91.115 13.5858 90.3385 13.1913C89.5617 12.7968 86.5369 12.4715 83.6061 12.4715H78.2829ZM118.721 18.7341C118.232 18.7341 117.362 19.1784 116.798 19.7169C116.235 20.2617 115.784 21.1761 115.802 21.7523C115.827 22.5664 116.266 22.3789 117.737 20.926C118.783 19.8931 119.634 18.979 119.628 18.8907C119.622 18.803 119.216 18.7341 118.721 18.7341ZM21.2929 11.2189C21.6374 11.2189 21.9192 12.0644 21.9192 13.0977C21.9192 14.131 21.6374 14.9765 21.2929 14.9765C20.9485 14.9765 20.6667 14.131 20.6667 13.0977C20.6667 12.0644 20.9485 11.2189 21.2929 11.2189Z" fill="white"/>
</svg>
