<svg width="142" height="22" viewBox="0 0 142 22" fill="none" xmlns="http://www.w3.org/2000/svg">
<path d="M68.4311 6.14226C68.6588 6.08693 69.9154 6.06239 71.2259 6.08903C73.3167 6.12796 73.7453 6.19978 74.7452 6.67521C75.4056 6.98875 76.3393 7.69577 76.9707 8.3577C77.569 8.98477 78.2894 10.0052 78.5751 10.6262C78.925 11.3906 79.0926 12.114 79.0927 12.8805C79.0927 13.8211 79.0161 14.059 78.6269 14.3172C78.2376 14.5754 77.1381 14.6246 71.9132 14.6246C66.6406 14.6225 65.6157 14.6696 65.3403 14.9298C65.1085 15.147 65.0526 15.4299 65.1478 15.9032C65.2224 16.268 65.4542 16.9135 65.6654 17.3378C65.8766 17.7599 66.3526 18.3339 66.7231 18.6126C67.0937 18.8913 67.8845 19.3053 68.4828 19.5348C69.1142 19.7766 70.0665 19.9508 70.7601 19.9549C71.4142 19.9569 72.5094 19.7828 73.1926 19.5676C73.8757 19.3524 74.9936 18.9302 75.6768 18.633C76.3599 18.3338 77.2439 18.0368 77.6435 17.9712C78.1549 17.8871 78.4737 17.9507 78.7304 18.1843C78.9291 18.3667 79.0948 18.676 79.0969 18.8748C79.099 19.0715 78.8422 19.4834 78.5276 19.7888C78.2109 20.0962 77.3475 20.582 76.6084 20.8689C75.8673 21.1558 74.7266 21.5288 74.0724 21.6948C73.3788 21.8731 71.9504 22 70.6566 22C69.0336 22 68.1495 21.8996 67.396 21.6312C66.8267 21.4283 66.0337 21.0698 65.6363 20.832C65.2367 20.5964 64.5618 20.0225 64.1354 19.5614C63.7089 19.0983 63.1645 18.2825 62.9264 17.7476C62.6863 17.2107 62.4049 16.1737 62.2993 15.4421C62.1834 14.6347 62.1812 13.5854 62.293 12.778C62.3965 12.0443 62.703 10.9911 62.9721 10.4337C63.2412 9.8783 63.9325 8.95609 64.506 8.38432C65.0794 7.81464 65.8723 7.19576 66.2656 7.00923C66.6589 6.8248 67.2138 6.57474 67.4995 6.45586C67.7831 6.33701 68.2033 6.19555 68.4311 6.14226ZM26.8198 6.18529C27.1614 6.10127 28.5112 6.06039 29.8216 6.09523C32.0719 6.15466 32.2748 6.19567 33.5314 6.85552C34.3181 7.26743 35.2497 7.98263 35.8086 8.60767C36.3303 9.18967 36.9225 10.1119 37.1254 10.657C37.3283 11.2042 37.5146 12.1756 37.5394 12.817C37.5684 13.5568 37.4856 14.0835 37.3158 14.2515C37.1108 14.4565 35.5084 14.5445 30.5876 14.6224C27.0352 14.6777 24.0126 14.7925 23.8697 14.8786C23.7269 14.9626 23.6132 15.2844 23.6152 15.5958C23.6173 15.9053 23.7871 16.5283 23.9941 16.9791C24.199 17.43 24.7434 18.1206 25.2051 18.5161C25.6667 18.9096 26.4991 19.3953 27.0539 19.592C27.6087 19.7908 28.6209 19.9529 29.3041 19.9529C29.9872 19.9529 31.012 19.7991 31.5813 19.6126C32.1506 19.4262 33.0822 19.0675 33.6515 18.8175C34.2208 18.5675 35.0799 18.2354 35.5582 18.0796C36.2661 17.8522 36.5312 17.8481 36.9556 18.055C37.324 18.2333 37.4835 18.4793 37.4877 18.8748C37.4918 19.1842 37.3283 19.5942 37.1254 19.7848C36.9225 19.9754 36.1502 20.4057 35.4112 20.7398C34.67 21.0738 33.4362 21.4939 32.6681 21.6742C31.8608 21.8607 30.3723 21.998 29.1488 21.998C27.9771 21.9959 26.6086 21.8711 26.0952 21.7194C25.5818 21.5678 24.7682 21.2009 24.2838 20.9017C23.7994 20.6045 23.1245 20.0839 22.7829 19.7457C22.4413 19.4075 21.8638 18.553 21.4995 17.8501C20.864 16.6205 20.8349 16.4688 20.8307 14.1101C20.8266 11.7288 20.8474 11.6098 21.4912 10.4212C21.8556 9.74498 22.5179 8.82275 22.963 8.37191C23.4061 7.92106 24.3171 7.27962 24.9837 6.94558C25.6523 6.61158 26.4782 6.26933 26.8198 6.18529ZM124.379 0.11513C124.619 0.0331561 125.592 -0.0158358 126.538 0.00465753C127.716 0.0292515 128.306 0.125571 128.413 0.312058C128.498 0.459879 128.517 1.68927 128.455 3.04164C128.393 4.39418 128.393 6.07668 128.455 6.78168C128.548 7.8186 128.637 8.0646 128.931 8.06872C129.13 8.07281 129.527 7.91295 129.813 7.71008C130.099 7.50926 130.54 7.23049 130.796 7.08908C131.051 6.94768 131.865 6.69355 132.606 6.52551C133.701 6.27549 134.212 6.26113 135.349 6.44966C136.117 6.57671 137.189 6.90052 137.729 7.16693C138.27 7.43334 139.015 7.91508 139.386 8.23682C139.756 8.55653 140.359 9.27175 140.725 9.82506C141.158 10.4747 141.518 11.4071 141.75 12.4686C142.054 13.8662 142.069 14.311 141.86 15.4914C141.723 16.2516 141.39 17.3132 141.118 17.8481C140.847 18.383 140.218 19.2211 139.721 19.7109C139.224 20.1986 138.444 20.8054 137.988 21.0554C137.533 21.3074 136.647 21.6353 136.021 21.7849C135.293 21.959 134.361 22.0103 133.434 21.9284C132.537 21.8484 131.571 21.6046 130.898 21.2849C130.299 21.0001 129.763 20.629 129.707 20.461C129.651 20.2909 129.511 20.1536 129.397 20.1536C129.283 20.1537 129.051 20.4754 128.879 20.8709C128.699 21.2848 128.416 21.5943 128.206 21.6025C128.008 21.6107 127.099 21.6046 126.188 21.5861C125.252 21.5697 124.416 21.4529 124.265 21.3156C124.116 21.1844 123.996 20.8442 123.996 20.5635C123.996 20.2807 124.116 19.9425 124.265 19.8114C124.412 19.6802 124.859 19.5429 125.981 19.4363V2.22811L125.256 2.11323C124.859 2.0497 124.416 1.93298 124.273 1.85306C124.13 1.77516 123.998 1.38365 123.977 0.986098C123.948 0.412382 124.031 0.231936 124.379 0.11513ZM90.5823 6.31857C91.1434 6.1075 91.9404 6.02969 93.0666 6.07682C94.4329 6.13215 94.876 6.24074 95.6026 6.69362C96.087 6.9969 96.7081 7.54398 96.9814 7.91081C97.2567 8.27558 97.6356 9.17527 97.824 9.90892C98.0911 10.9479 98.1614 12.1202 98.1386 15.2372C98.1159 18.3583 98.1698 19.2663 98.383 19.3831C98.5321 19.4671 98.8881 19.5389 99.1737 19.543C99.4573 19.5471 99.857 19.7089 100.06 19.9036C100.263 20.0983 100.428 20.4425 100.426 20.6679C100.424 20.8933 100.308 21.1925 100.17 21.334C99.9916 21.5164 99.0331 21.5901 96.8552 21.5901C93.8162 21.5901 93.7891 21.5861 93.5324 21.0902C93.313 20.6681 93.3296 20.5061 93.6359 20.0655C93.8802 19.711 94.1825 19.5429 94.5675 19.549C94.8801 19.5551 95.255 19.4383 95.3978 19.2928C95.5965 19.0918 95.6483 18.0014 95.6048 14.8273C95.5552 10.9152 95.5199 10.577 95.0976 9.90892C94.8492 9.51341 94.2965 9.00721 93.87 8.78178C93.3401 8.50102 92.7313 8.37818 91.9425 8.39253C91.042 8.40892 90.5616 8.55236 89.7543 9.04215C89.1084 9.43357 88.5245 10.0054 88.2016 10.5587C87.7048 11.4071 87.682 11.6101 87.6323 15.2884C87.5805 19.104 87.5827 19.131 88.0463 19.3092C88.303 19.4097 88.7916 19.5717 89.1332 19.6721C89.6487 19.8237 89.7646 19.9754 89.8143 20.5697C89.8454 20.9611 89.7998 21.3464 89.7108 21.4222C89.6192 21.5001 88.429 21.6168 87.063 21.6844C85.6967 21.75 84.2992 21.7254 83.9577 21.6312C83.5685 21.5225 83.2579 21.2562 83.1296 20.9201C82.9598 20.4816 82.9992 20.3032 83.3366 19.9549C83.5643 19.7192 83.9889 19.5305 84.2787 19.5326C84.5685 19.5367 84.9204 19.424 85.0571 19.2846C85.2413 19.0958 85.3096 17.6735 85.3096 14.0076C85.3096 10.2289 85.2455 8.92136 85.0467 8.72654C84.9039 8.58309 84.5767 8.46833 84.3199 8.47038C84.0632 8.47241 83.6678 8.38215 83.4401 8.26945C83.1814 8.14031 83.022 7.85339 83.0158 7.50095C83.0116 7.18947 83.1276 6.8226 83.2745 6.68121C83.4236 6.53982 84.055 6.36774 84.6822 6.29396C85.3074 6.22224 86.1707 6.22225 86.5972 6.29396C87.2223 6.39847 87.4129 6.54399 87.5805 7.03984C87.6944 7.37792 87.9035 7.65258 88.0463 7.65064C88.1892 7.64859 88.6302 7.41905 89.0297 7.13831C89.4271 6.85757 90.1269 6.48868 90.5823 6.31857ZM51.2463 0.172567L51.354 9.80445C51.4141 15.102 51.4845 19.4589 51.5093 19.4876C51.5366 19.5162 52.8385 19.5368 54.4034 19.5348C56.428 19.5327 57.3266 19.6065 57.5129 19.791C57.6557 19.9344 57.7737 20.2807 57.7737 20.5635C57.7737 20.8442 57.6619 21.1905 57.5232 21.332C57.3307 21.5267 55.6227 21.5902 50.4285 21.5943C43.7377 21.6005 43.5782 21.5922 43.1725 21.1701C42.7895 20.7705 42.7813 20.6988 43.0772 20.1906C43.3919 19.6475 43.4209 19.6413 45.9755 19.5798C47.6089 19.5409 48.6523 19.4282 48.8221 19.2724C49.0332 19.0798 49.0892 17.2804 49.0851 10.8291C49.081 4.49325 49.0209 2.57277 48.818 2.3716C48.6441 2.20151 47.9194 2.11323 46.6918 2.11323C45.6671 2.11323 44.6154 2.04571 44.3545 1.96373C44.0916 1.8797 43.8328 1.67267 43.7769 1.50464C43.7211 1.33452 43.7356 0.941124 43.8101 0.629665L43.9425 0.0598935L51.2463 0.172567ZM0.136905 0.371297C0.242532 0.111101 0.634147 0.0660135 4.45948 0.172567L4.51751 3.86137C4.55063 5.89019 4.64379 7.62598 4.72453 7.72029C4.80733 7.81456 5.29379 7.63221 5.80512 7.31663C6.31643 6.999 6.96855 6.60352 7.25427 6.43545C7.61242 6.22437 8.37842 6.12795 9.73853 6.12385C11.5872 6.11565 11.7612 6.15254 12.6265 6.73044C13.1337 7.06858 13.8334 7.79816 14.8105 9.36176L14.8726 14.1941C14.9264 18.4648 14.9741 19.0573 15.2867 19.2868C15.4792 19.4282 15.8953 19.545 16.2079 19.543C16.5875 19.5403 16.898 19.7138 17.1395 20.0635C17.4438 20.5062 17.4604 20.6661 17.243 21.0882C16.9864 21.5841 16.9613 21.5881 13.879 21.5881C10.9807 21.5881 10.7591 21.5615 10.5666 21.1783C10.4217 20.8914 10.4382 20.5983 10.6204 20.2048C10.8046 19.8073 11.0614 19.6208 11.5002 19.5716C11.8397 19.5347 12.2393 19.3954 12.3863 19.2642C12.5892 19.0839 12.6514 18.0551 12.6411 15.0303C12.6286 11.317 12.5934 10.9726 12.167 10.1489C11.9123 9.66318 11.4257 9.09944 11.0842 8.90066C10.7426 8.69983 10.1381 8.46629 9.73853 8.38432C9.33897 8.3003 8.68892 8.28588 8.28938 8.3535C7.88983 8.41909 7.10941 8.77365 6.55254 9.13841C5.86111 9.59336 5.38287 10.1139 5.05164 10.7779C4.59412 11.6898 4.56309 11.985 4.55895 15.3889C4.55688 18.0551 4.6252 19.0962 4.81773 19.2868C4.96268 19.4282 5.31246 19.5429 5.5981 19.5388C5.88172 19.5347 6.28548 19.6496 6.4925 19.791C6.75952 19.9774 6.8485 20.2562 6.73672 21.4857L3.6314 21.5349C1.39145 21.5697 0.451544 21.5124 0.259015 21.33C0.109968 21.1906 -0.00597209 20.8688 0.000238294 20.6147C0.00439317 20.3606 0.155586 20.0142 0.333615 19.8462C0.513749 19.6761 0.979547 19.5388 1.36872 19.5388C1.81587 19.5388 2.11807 19.424 2.18225 19.2314C2.24021 19.061 2.28794 15.2575 2.29001 10.7779C2.29208 4.47481 2.23406 2.57277 2.03123 2.3716C1.88632 2.2302 1.53427 2.11123 1.25065 2.11123C0.964968 2.10917 0.567419 1.94928 0.364547 1.7546C0.161711 1.56195 -0.00187979 1.24024 0.00225999 1.04353C0.00640716 0.846798 0.0665219 0.54343 0.136905 0.371297ZM134.314 8.77578C133.355 8.7061 132.548 8.76348 132.082 8.92948C131.68 9.07295 131.028 9.42746 130.633 9.71639C130.237 10.0054 129.72 10.5136 129.48 10.8435C129.242 11.1735 128.937 11.7677 128.805 12.1612C128.67 12.5567 128.565 13.4318 128.569 14.1081C128.573 14.7843 128.691 15.6964 128.832 16.135C128.97 16.5756 129.413 17.3031 129.811 17.7518C130.208 18.2027 130.908 18.7622 131.364 18.9958C132.005 19.3258 132.587 19.422 133.951 19.4281C135.411 19.4343 135.835 19.3605 136.436 18.9896C136.833 18.7417 137.458 18.2355 137.821 17.8625C138.185 17.4875 138.671 16.7681 138.903 16.2599C139.181 15.6533 139.326 14.897 139.33 14.0568C139.332 13.1019 139.208 12.528 138.835 11.8026C138.56 11.2677 138.025 10.5464 137.645 10.2001C137.264 9.85377 136.696 9.41522 136.384 9.22667C136.057 9.02789 135.179 8.83726 134.314 8.77578ZM29.8196 8.17519C29.0805 8.12396 28.1013 8.17315 27.6459 8.28586C27.1904 8.39652 26.4515 8.74092 26.0022 9.05036C25.553 9.35775 24.8781 10.0012 24.5013 10.4767C24.0728 11.0177 23.816 11.571 23.816 11.9563C23.816 12.321 23.9423 12.612 24.1265 12.6735C24.2963 12.7309 26.5797 12.776 29.1985 12.776C31.8172 12.776 34.1006 12.7309 34.2705 12.6735C34.4403 12.6182 34.5811 12.3866 34.5811 12.1612C34.5811 11.9357 34.3989 11.3599 34.1733 10.8803C33.9497 10.4008 33.5543 9.81056 33.2935 9.56669C33.0347 9.32487 32.4487 8.93359 31.9933 8.69793C31.5027 8.44381 30.6166 8.23052 29.8196 8.17519ZM71.2756 8.17318C70.5075 8.12195 69.5987 8.14855 69.2571 8.23462C68.9155 8.31865 68.2179 8.62822 67.7045 8.92127C67.1911 9.21433 66.6259 9.62624 66.4458 9.83527C66.2657 10.0443 65.9178 10.5607 65.6694 10.9828C65.4231 11.405 65.2202 11.9357 65.2202 12.1612C65.2202 12.4153 65.3962 12.614 65.686 12.6837C65.9427 12.7452 68.3132 12.7677 70.9548 12.735C74.4035 12.6899 75.8341 12.6019 76.0268 12.4216C76.2462 12.2146 76.2234 12.0075 75.8964 11.2944C75.6769 10.8128 75.2111 10.1119 74.8613 9.7348C74.5114 9.35977 73.8758 8.87408 73.4493 8.6589C73.0104 8.43758 72.0664 8.22647 71.2756 8.17318Z" fill="#FEFEFE"/>
</svg>
