<svg width="193" height="13" viewBox="0 0 193 13" fill="none" xmlns="http://www.w3.org/2000/svg">
<path d="M153.286 5.89057C153.258 5.1776 153.416 4.22702 153.819 3.33811C154.282 2.32036 154.915 1.40423 155.914 0.841875C156.785 0.352023 157.701 -0.00713221 158.748 0.000107517C159.715 0.00734724 160.654 0.0835542 161.529 0.515325C162.959 1.22101 163.911 2.33669 164.397 3.86057C164.954 5.60757 164.929 7.3364 164.177 9.0054C163.459 10.6036 162.22 11.6939 160.502 12.0876C158.906 12.4541 157.34 12.3234 155.916 11.3746C154.826 10.6472 154.1 9.66574 153.647 8.45028C153.367 7.70285 153.302 6.93729 153.286 5.89057ZM154.891 6.16269C154.92 6.43116 154.891 6.73414 154.942 7.04251C155.12 8.1473 155.578 9.0834 156.422 9.83443C157.463 10.7615 158.702 11.0082 159.994 10.6853C161.957 10.1936 162.96 8.62806 163.16 6.78128C163.239 6.04838 163.22 5.29191 162.994 4.56625C162.699 3.61202 162.224 2.78479 161.377 2.20066C160.821 1.81788 160.223 1.60744 159.552 1.5131C158.88 1.41877 158.24 1.49857 157.62 1.69992C156.908 1.93034 156.333 2.39477 155.88 2.98434C155.171 3.90771 154.853 4.96356 154.891 6.16269Z" fill="white"/>
<path d="M135.953 11.9352C135.258 10.5728 134.565 9.2104 133.871 7.84797C133.829 7.76452 133.776 7.68837 133.735 7.60486C133.624 7.38903 133.57 7.06973 133.397 6.98084C133.181 6.87017 132.867 6.94638 132.595 6.94638C131.643 6.94638 130.692 6.95362 129.74 6.94093C129.52 6.93729 129.466 6.99352 129.467 7.21125C129.478 8.70427 129.467 10.1954 129.478 11.6884C129.481 11.9261 129.406 11.9823 129.185 11.9715C128.837 11.9552 128.486 11.9606 128.136 11.9715C127.997 11.9751 127.949 11.9352 127.955 11.7919C127.964 11.4526 127.959 11.1134 127.959 10.7742C127.959 7.36361 127.962 3.95125 127.953 0.540692C127.953 0.301237 128.005 0.239563 128.25 0.241359C129.852 0.254097 131.454 0.228677 133.056 0.254098C134.025 0.270373 134.973 0.411902 135.764 1.06315C136.487 1.65822 136.889 2.39836 136.949 3.3435C137.007 4.26512 136.782 5.07417 136.176 5.77991C135.89 6.1137 135.534 6.36404 135.157 6.5636C134.939 6.67785 134.948 6.75586 135.04 6.93549C135.857 8.52104 136.67 10.1084 137.482 11.6957C137.621 11.9661 137.621 11.9661 137.307 11.9679C136.88 11.9715 136.454 11.9769 136.026 11.9823C136.002 11.9661 135.977 11.9497 135.953 11.9352ZM131.521 5.48782C132.017 5.48782 132.512 5.47873 133.007 5.48961C133.472 5.5005 133.916 5.42615 134.342 5.24836C135.389 4.81295 135.732 3.67005 135.273 2.74483C134.87 1.93393 134.09 1.74711 133.29 1.7199C132.098 1.67814 130.903 1.71445 129.707 1.70536C129.513 1.70536 129.466 1.7598 129.467 1.94846C129.477 3.05326 129.478 4.15805 129.467 5.26284C129.466 5.46969 129.542 5.49506 129.716 5.49146C130.318 5.48237 130.921 5.48782 131.521 5.48782Z" fill="white"/>
<path d="M140.837 6.1119C140.837 4.2415 140.84 2.37114 140.831 0.500791C140.831 0.304883 140.868 0.241359 141.078 0.241359C142.689 0.250449 144.302 0.225083 145.913 0.255893C146.805 0.272223 147.685 0.388331 148.454 0.936209C149.345 1.56933 149.784 2.4111 149.826 3.49771C149.866 4.54627 149.497 5.39893 148.717 6.08828C148.472 6.30416 148.198 6.47106 147.904 6.61259C147.847 6.6398 147.741 6.63436 147.819 6.78493C148.65 8.38496 149.467 9.99049 150.285 11.596C150.473 11.9679 150.471 11.9697 150.036 11.9697C149.735 11.9697 149.434 11.9533 149.133 11.9751C148.891 11.9933 148.755 11.8862 148.665 11.6849C148.247 10.7705 147.792 9.87253 147.311 8.99086C146.969 8.36318 146.687 7.70649 146.35 7.07881C146.292 6.96995 146.239 6.94638 146.136 6.94638C144.931 6.94817 143.728 6.95182 142.523 6.94273C142.301 6.94273 142.33 7.06793 142.33 7.20396C142.33 8.68614 142.324 10.1683 142.335 11.6522C142.337 11.9007 142.288 11.9987 142.019 11.9751C141.72 11.9479 141.417 11.9552 141.118 11.9751C140.896 11.9878 140.826 11.9316 140.827 11.6957C140.838 9.83448 140.833 7.97496 140.833 6.1137L140.837 6.1119ZM144.534 5.48961C145.122 5.43703 145.843 5.5386 146.567 5.43523C147.54 5.2955 148.445 4.56445 148.316 3.41971C148.262 2.9317 148.108 2.53989 147.725 2.22967C147.259 1.85054 146.702 1.73078 146.132 1.71989C144.938 1.69447 143.744 1.71625 142.553 1.70721C142.366 1.70721 142.328 1.76889 142.33 1.94122C142.337 3.05511 142.337 4.16893 142.33 5.28102C142.33 5.44427 142.369 5.49506 142.538 5.49326C143.159 5.48417 143.781 5.48961 144.534 5.48961Z" fill="white"/>
<path d="M116.083 6.11005C116.083 4.24879 116.087 2.38747 116.077 0.528008C116.077 0.29944 116.135 0.24321 116.364 0.24321C118.909 0.252246 121.453 0.252246 123.998 0.24321C124.247 0.24321 124.312 0.310328 124.294 0.547986C124.272 0.847319 124.272 1.15024 124.294 1.44778C124.31 1.67455 124.228 1.7181 124.016 1.7181C122.238 1.70901 120.462 1.71266 118.685 1.71266C118.383 1.71266 118.082 1.7199 117.781 1.70901C117.625 1.70357 117.558 1.73982 117.559 1.91401C117.567 2.95168 117.57 3.98756 117.559 5.02524C117.558 5.24836 117.681 5.22115 117.818 5.22115C119.672 5.22115 121.527 5.22115 123.381 5.22115C123.641 5.22115 123.771 5.35538 123.771 5.6239C123.771 5.88513 123.755 6.14816 123.776 6.40939C123.793 6.62707 123.73 6.68335 123.508 6.6815C121.654 6.67247 119.798 6.67606 117.944 6.67606C117.691 6.67606 117.565 6.8055 117.565 7.06428C117.565 8.11105 117.573 9.15781 117.559 10.2045C117.558 10.4259 117.607 10.4912 117.839 10.4912C119.936 10.4803 122.035 10.4912 124.132 10.4785C124.379 10.4785 124.446 10.542 124.428 10.7796C124.405 11.0681 124.401 11.3638 124.428 11.6504C124.457 11.9352 124.339 11.9751 124.089 11.9733C122.128 11.9642 120.165 11.9679 118.203 11.9679C117.592 11.9679 116.979 11.9588 116.368 11.9733C116.146 11.9787 116.077 11.928 116.077 11.6921C116.088 9.83084 116.083 7.96952 116.083 6.11005Z" fill="white"/>
<path d="M104.237 6.10461C104.237 4.24514 104.241 2.38383 104.232 0.524362C104.232 0.29759 104.288 0.239562 104.515 0.241359C106 0.252245 107.486 0.228676 108.97 0.254097C109.926 0.270427 110.873 0.401014 111.66 1.01601C112.413 1.60379 112.832 2.36935 112.878 3.3435C112.922 4.2397 112.74 5.05605 112.145 5.73996C111.622 6.34047 110.951 6.72325 110.171 6.87017C108.792 7.1296 107.398 6.93369 106.01 6.97904C105.781 6.98628 105.725 7.04071 105.727 7.26563C105.738 8.73872 105.727 10.2118 105.738 11.6831C105.738 11.9134 105.68 11.986 105.449 11.9715C105.13 11.9515 104.809 11.9533 104.489 11.9715C104.282 11.9823 104.232 11.9152 104.233 11.7139C104.241 9.84352 104.237 7.97496 104.237 6.10461ZM105.734 3.61382C105.734 4.14716 105.747 4.68051 105.728 5.21206C105.721 5.45516 105.769 5.54405 106.041 5.5386C107.06 5.51863 108.08 5.53136 109.099 5.53136C109.502 5.53136 109.888 5.45336 110.266 5.31004C111.506 4.83657 111.611 3.29091 111.051 2.51991C110.586 1.87955 109.903 1.74711 109.203 1.72349C108.127 1.68544 107.047 1.71989 105.97 1.70901C105.766 1.70721 105.728 1.77613 105.732 1.95935C105.743 2.51082 105.736 3.06414 105.736 3.61746L105.734 3.61382Z" fill="white"/>
<path d="M181.992 6.85025C181.992 5.23203 181.988 3.61382 181.997 1.99381C181.997 1.77433 181.954 1.70177 181.716 1.70536C180.561 1.7199 179.405 1.70536 178.25 1.71625C178.035 1.7181 177.961 1.6709 177.975 1.44778C177.997 1.11943 177.988 0.789237 177.977 0.459095C177.972 0.301236 178.01 0.24321 178.182 0.24321C181.212 0.248654 184.242 0.248654 187.273 0.24321C187.427 0.24321 187.474 0.286757 187.469 0.439118C187.458 0.778351 187.452 1.11758 187.469 1.45682C187.479 1.66002 187.42 1.71625 187.213 1.71445C186.066 1.70357 184.922 1.71625 183.775 1.70357C183.529 1.69992 183.451 1.74711 183.451 2.01558C183.462 5.22294 183.454 8.43215 183.463 11.6395C183.463 11.9025 183.403 11.9951 183.131 11.9715C182.843 11.9461 182.549 11.9515 182.259 11.9715C182.046 11.9842 181.983 11.9316 181.985 11.7048C181.996 10.0866 181.99 8.46841 181.99 6.8484L181.992 6.85025Z" fill="white"/>
<path d="M170.395 6.82662C170.395 5.2175 170.389 3.60837 170.402 1.99925C170.403 1.74891 170.331 1.70177 170.095 1.70536C168.959 1.7181 167.822 1.69992 166.687 1.7199C166.415 1.72354 166.362 1.6401 166.378 1.39514C166.4 1.08677 166.389 0.774758 166.38 0.464538C166.376 0.313974 166.398 0.24321 166.579 0.24321C169.609 0.248654 172.639 0.248654 175.67 0.24321C175.848 0.24321 175.875 0.312123 175.871 0.464538C175.862 0.803771 175.855 1.143 175.873 1.48224C175.884 1.68724 175.802 1.71625 175.623 1.71625C174.468 1.70901 173.312 1.7199 172.156 1.70721C171.909 1.70357 171.857 1.77792 171.857 2.01379C171.864 5.23203 171.86 8.44848 171.868 11.6667C171.868 11.8989 171.824 11.9933 171.572 11.9751C171.264 11.9515 170.949 11.9552 170.64 11.9751C170.425 11.9878 170.389 11.908 170.391 11.7139C170.398 10.0848 170.395 8.45752 170.395 6.82847V6.82662Z" fill="white"/>
<path d="M190.792 6.09372C190.792 4.23426 190.796 2.37294 190.787 0.513475C190.787 0.303033 190.825 0.22688 191.051 0.241359C191.389 0.263133 191.732 0.257689 192.071 0.241359C192.254 0.234119 192.318 0.277667 192.314 0.475372C192.3 1.11399 192.309 1.75435 192.309 2.39292C192.309 5.48417 192.307 8.57542 192.314 11.6649C192.314 11.8971 192.276 11.9914 192.02 11.9715C191.701 11.9461 191.38 11.9515 191.061 11.9715C190.845 11.9842 190.787 11.9243 190.788 11.703C190.799 9.83263 190.794 7.96228 190.794 6.09372H190.792Z" fill="white"/>
<path d="M135.953 11.9352C135.977 11.9515 136.002 11.9679 136.026 11.9823C135.975 12.006 135.949 11.9914 135.953 11.9352Z" fill="white"/>
<path d="M91.2684 11.9503C88.5886 11.9503 85.9094 11.9467 83.2296 11.9558C82.9939 11.9558 82.9286 11.9086 82.9286 11.6619C82.9378 7.9502 82.9378 4.2385 82.9286 0.528607C82.9286 0.307278 82.9776 0.241958 83.21 0.243809C85.7532 0.252845 88.2969 0.252845 90.8417 0.243809C91.0757 0.243809 91.1704 0.285505 91.1487 0.539494C91.1231 0.83703 91.1285 1.13996 91.1487 1.43929C91.1628 1.66062 91.0904 1.71326 90.8743 1.7114C89.2239 1.70237 87.5729 1.70596 85.9219 1.70596C85.4848 1.70596 85.0477 1.71325 84.6122 1.70237C84.4489 1.69872 84.3983 1.74406 84.3999 1.91096C84.407 2.93775 84.4124 3.96454 84.3961 4.99318C84.3929 5.23443 84.5197 5.20362 84.665 5.20362C86.5479 5.20362 88.4329 5.20906 90.3158 5.19632C90.5771 5.19453 90.6495 5.26164 90.6277 5.51384C90.6043 5.7823 90.6059 6.05807 90.6277 6.32654C90.6479 6.57873 90.5864 6.66577 90.3066 6.66397C88.4417 6.64944 86.5789 6.66218 84.714 6.64944C84.4614 6.64944 84.3929 6.70387 84.3961 6.9633C84.4124 8.04812 84.4054 9.13299 84.4016 10.2197C84.4016 10.3684 84.3961 10.4718 84.6068 10.47C86.7912 10.4628 88.9751 10.4646 91.1612 10.4646C91.1976 10.4646 91.2357 10.4464 91.2717 10.4373V11.9503H91.2684Z" fill="white"/>
<path d="M1.5057 3.40038C1.50026 3.5056 1.48757 3.61262 1.48757 3.71784C1.48757 6.36464 1.48398 9.01144 1.49302 11.6582C1.49302 11.9032 1.43314 11.9739 1.19004 11.9576C0.881667 11.934 0.567801 11.9394 0.257582 11.9576C0.0526376 11.9685 0 11.9086 0 11.7036C0.00723972 9.66819 0.00544353 7.63274 0.00544353 5.59549C0.00544353 3.89927 0.00909048 2.20305 0 0.506834C0 0.307334 0.0435474 0.240161 0.253989 0.247455C0.720217 0.263786 1.18644 0.260138 1.65267 0.247455C1.80144 0.243808 1.86856 0.296446 1.92299 0.42883C2.34747 1.47195 2.77379 2.51327 3.20556 3.55274C3.66635 4.65939 4.13802 5.76053 4.59516 6.86897C4.97794 7.79419 5.34438 8.72484 5.72172 9.65365C5.73446 9.68631 5.77071 9.71173 5.81426 9.75708C6.07549 9.11666 6.33127 8.49083 6.58891 7.86675C7.0406 6.76195 7.49594 5.65716 7.94584 4.55052C8.39029 3.46026 8.82931 2.36815 9.27196 1.27784C9.38987 0.985799 9.51686 0.699149 9.62938 0.405259C9.67831 0.276469 9.75996 0.247455 9.88875 0.249252C10.375 0.256491 10.8593 0.258342 11.3455 0.249252C11.5106 0.245604 11.5542 0.294595 11.5542 0.457898C11.5505 4.21853 11.5487 7.98106 11.5542 11.7417C11.5542 11.9358 11.4888 11.963 11.3219 11.9576C10.9827 11.9467 10.6416 11.9431 10.3024 11.9576C10.1228 11.9649 10.0756 11.9177 10.0774 11.7362C10.0883 10.8546 10.0829 9.97111 10.0829 9.08944V3.3496C10.0593 3.34595 10.0357 3.34236 10.0122 3.3405C9.84161 3.75959 9.67107 4.17863 9.49873 4.59771C8.89648 6.06531 8.29416 7.53475 7.69185 9.0024C7.30907 9.93486 6.91905 10.8655 6.54716 11.8034C6.49637 11.9322 6.44014 11.9558 6.32404 11.954C5.96482 11.9485 5.60561 11.9485 5.24646 11.954C5.13394 11.9558 5.10493 11.9177 5.05959 11.8089C4.62602 10.7403 4.17427 9.67907 3.72982 8.61418C3.26724 7.50574 2.80645 6.3955 2.34567 5.28706C2.08444 4.65939 1.82501 4.03351 1.56558 3.40583C1.56558 3.3478 1.5511 3.2643 1.49846 3.26795C1.46036 3.26974 1.45491 3.35863 1.50755 3.40403L1.5057 3.40038Z" fill="white"/>
<path d="M39.1446 11.9503C38.6073 11.9503 38.1141 11.943 37.6205 11.9539C37.4499 11.9576 37.4118 11.8396 37.3629 11.7344C36.922 10.7893 36.4558 9.855 35.9569 8.94068C35.6322 8.3456 35.3655 7.72337 35.0426 7.13015C34.97 6.99591 34.9084 6.93603 34.7469 6.93788C33.5714 6.94512 32.3976 6.94877 31.2221 6.93788C31.0134 6.93603 30.9935 7.01404 30.9935 7.18643C30.9989 8.67945 30.9899 10.1706 31.0026 11.6637C31.0044 11.9158 30.93 11.9721 30.696 11.9576C30.3567 11.9376 30.0157 11.9448 29.6764 11.9576C29.5222 11.963 29.4624 11.914 29.4878 11.7635C29.4914 11.7453 29.4878 11.7254 29.4878 11.7054C29.4878 7.97371 29.4896 4.24389 29.4823 0.512277C29.4823 0.287301 29.544 0.247401 29.7544 0.247401C31.4833 0.256492 33.2121 0.221981 34.9392 0.261881C36.3669 0.294541 37.557 0.840622 38.1936 2.19396C38.8359 3.55819 38.5219 5.23802 37.2105 6.20678C37.0345 6.33742 36.8549 6.46077 36.6644 6.5569C36.4885 6.64579 36.4631 6.71835 36.5556 6.89798C37.303 8.34745 38.0414 9.80416 38.7815 11.2573C38.892 11.475 39.0047 11.6908 39.1424 11.9557L39.1446 11.9503ZM33.0906 1.70596C32.4792 1.70596 31.8679 1.7132 31.2547 1.70231C31.0624 1.69867 30.9899 1.73133 30.9917 1.94721C31.0044 3.04297 31.0026 4.13688 30.9917 5.23258C30.9899 5.43398 31.0407 5.49201 31.2475 5.49021C32.3341 5.47933 33.4226 5.47209 34.5093 5.49021C34.9773 5.49745 35.4199 5.41036 35.8463 5.25076C37.0073 4.81534 37.352 3.31144 36.5991 2.42977C36.1384 1.89098 35.5161 1.7513 34.8648 1.715C34.2752 1.68239 33.6802 1.70776 33.0888 1.70776L33.0906 1.70596Z" fill="white"/>
<path d="M48.5181 6.09797C48.5181 4.23671 48.5219 2.37719 48.5127 0.515924C48.5127 0.301835 48.56 0.242013 48.7832 0.243809C51.3465 0.252845 53.9098 0.252845 56.4731 0.243809C56.6854 0.243809 56.7306 0.307278 56.7213 0.503241C56.705 0.822496 56.7088 1.1436 56.7213 1.46291C56.7289 1.65338 56.6544 1.71505 56.466 1.71505C54.4177 1.70781 52.3677 1.71325 50.3193 1.70052C50.0798 1.70052 49.9927 1.73503 49.9982 2.00529C50.0183 2.99403 50.0129 3.98272 50.002 4.9714C50.0004 5.16372 50.0548 5.20906 50.2415 5.20721C52.1353 5.19997 54.0296 5.20721 55.9217 5.19638C56.1699 5.19638 56.2374 5.25985 56.2189 5.4993C56.1971 5.77866 56.1971 6.06166 56.2189 6.34107C56.2374 6.58417 56.183 6.66577 55.9108 6.66397C54.0459 6.64944 52.1826 6.66033 50.3177 6.65129C50.0744 6.65129 49.9949 6.69119 49.9982 6.95786C50.0167 8.03364 50.0129 9.10942 50.0004 10.1852C49.9982 10.4083 50.051 10.4736 50.2834 10.4736C52.3606 10.4646 54.4395 10.4736 56.5167 10.4609C56.8084 10.4591 56.8814 10.5444 56.8596 10.8165C56.8356 11.1049 56.8378 11.3988 56.8596 11.6873C56.8759 11.9086 56.803 11.9576 56.5874 11.9558C54.7421 11.9467 52.8973 11.9503 51.0526 11.9503C50.2943 11.9503 49.5377 11.9394 48.781 11.9576C48.5491 11.963 48.5143 11.8887 48.5165 11.6818C48.5236 9.82055 48.5198 7.96108 48.5198 6.09976L48.5181 6.09797Z" fill="white"/>
<path d="M17.542 4.26572C17.542 5.47753 17.5093 6.68934 17.551 7.89941C17.5982 9.30533 18.3184 10.2959 19.6899 10.5916C20.6296 10.7947 21.5947 10.7693 22.4854 10.2686C23.2057 9.86409 23.6138 9.26178 23.7861 8.46356C23.9059 7.91389 23.9022 7.36242 23.9022 6.8073C23.9022 4.71377 23.9059 2.62029 23.8968 0.526811C23.8968 0.294596 23.9585 0.229275 24.1852 0.243809C24.5136 0.263732 24.8456 0.263732 25.1758 0.243809C25.3989 0.229275 25.4479 0.301835 25.446 0.51772C25.437 2.16495 25.446 3.81218 25.4388 5.4612C25.4352 6.36099 25.4896 7.26443 25.4079 8.16243C25.2193 10.2197 24.0129 11.7 21.9339 12.1245C21.2899 12.2551 20.6296 12.3005 19.9856 12.2315C18.596 12.0809 17.4022 11.5512 16.6584 10.2777C16.3065 9.67722 16.1161 9.03686 16.0217 8.34745C15.9782 8.0282 15.9854 7.71618 15.9836 7.40232C15.9782 5.11473 15.9836 2.82708 15.9745 0.539494C15.9745 0.289152 16.0453 0.229275 16.2811 0.243809C16.6204 0.263732 16.9614 0.260139 17.3007 0.243809C17.493 0.234719 17.5438 0.294596 17.542 0.48506C17.5329 1.74586 17.5383 3.00486 17.5383 4.26572C17.5383 4.26572 17.542 4.26572 17.5456 4.26572H17.542Z" fill="white"/>
<path d="M71.7342 6.09612C71.7342 4.23486 71.7375 2.37539 71.7288 0.514074C71.7288 0.300039 71.774 0.227424 71.9971 0.243754C72.2965 0.265527 72.5992 0.265527 72.8986 0.243754C73.1544 0.225627 73.2382 0.290948 73.2361 0.568507C73.2252 3.57267 73.2274 6.57688 73.2328 9.58104C73.2328 9.86769 73.1054 10.2378 73.2905 10.4174C73.4592 10.5843 73.8256 10.4627 74.1054 10.4627C75.9213 10.4664 77.7372 10.4627 79.5531 10.4664C79.9886 10.4664 79.9287 10.4119 79.932 10.8582C79.9342 11.1594 79.9249 11.4587 79.9358 11.7598C79.9412 11.9176 79.8852 11.9521 79.736 11.9521C77.133 11.9485 74.5316 11.9467 71.928 11.9557C71.707 11.9557 71.732 11.8451 71.732 11.7072C71.732 9.83682 71.732 7.96647 71.732 6.09612H71.7342Z" fill="white"/>
<path d="M60.5524 6.07799C60.5524 4.22756 60.5562 2.37719 60.5469 0.52496C60.5469 0.296392 60.6036 0.227424 60.8322 0.243755C61.1425 0.263732 61.4544 0.267379 61.7625 0.243755C62.0041 0.225628 62.0439 0.318166 62.0439 0.535848C62.0368 3.01575 62.0401 5.49745 62.0401 7.97736C62.0401 8.71391 62.051 9.45045 62.0346 10.187C62.0292 10.4246 62.1054 10.4736 62.3286 10.4718C64.3677 10.4646 66.4068 10.4718 68.4459 10.4609C68.6924 10.4609 68.7926 10.5063 68.7687 10.7747C68.7414 11.0922 68.7507 11.4151 68.7687 11.7326C68.7795 11.9213 68.7088 11.9521 68.5384 11.9521C65.955 11.9467 63.3737 11.9448 60.7903 11.9539C60.5616 11.9539 60.5524 11.8668 60.5524 11.6855C60.5578 9.81505 60.5562 7.9447 60.5562 6.07434L60.5524 6.07799Z" fill="white"/>
<path d="M44.2059 6.13422C44.2059 7.98465 44.2026 9.83688 44.2113 11.6873C44.2113 11.9068 44.1569 11.9703 43.9397 11.9558C43.6109 11.9358 43.2772 11.9322 42.9506 11.9558C42.7133 11.9739 42.6839 11.8814 42.6877 11.6782C42.6986 10.7766 42.6915 9.87498 42.6915 8.97513C42.6915 6.16508 42.6948 3.35499 42.6861 0.544938C42.6861 0.303632 42.7421 0.223832 42.9871 0.24381C43.2772 0.267379 43.5728 0.274619 43.8597 0.24381C44.1732 0.207502 44.2151 0.336292 44.2135 0.612055C44.2004 2.45339 44.208 4.29473 44.208 6.13607L44.2059 6.13422Z" fill="white"/>
</svg>
