<svg width="127" height="27" viewBox="0 0 127 27" fill="none" xmlns="http://www.w3.org/2000/svg">
<path d="M52.3181 0.160537C52.8701 0.0604003 54.0719 0.0249733 54.9888 0.0783834C56.2996 0.15628 56.9695 0.331934 58.1045 0.901661C59.0903 1.39345 59.522 1.73179 59.462 1.95879C59.4139 2.13045 59.2338 2.78457 59.0515 3.44691L59.0169 3.57232C58.8211 4.27766 58.5608 4.84969 58.4384 4.84548C58.316 4.84103 57.9154 4.31799 57.5482 3.68598C57.1587 3.01165 56.5578 2.34824 56.1015 2.09007C55.6743 1.8475 55.0222 1.58062 54.6549 1.49826C54.2877 1.41369 53.4865 1.43594 52.8745 1.54498C52.2625 1.65626 51.4055 1.99452 50.9693 2.29719C50.5331 2.6021 49.9455 3.27412 49.6629 3.79487C49.3068 4.45139 49.1466 5.11465 49.1443 5.96478C49.1399 6.84829 49.2868 7.4537 49.6718 8.14359C49.9656 8.66882 50.6045 9.3721 51.0941 9.71039C51.5837 10.0464 52.5362 10.5585 53.2083 10.8455C53.8827 11.1349 55.2336 11.738 56.2128 12.1898C57.192 12.6393 58.3783 13.3514 58.8457 13.7698C59.3152 14.1905 59.9138 14.9849 60.1764 15.5346C60.5436 16.3024 60.6504 16.9256 60.6326 18.2053C60.6193 19.3069 60.4545 20.2906 60.1519 21.0985C59.8937 21.7839 59.2194 22.85 58.6207 23.5198C57.9998 24.2164 57.034 24.9777 56.3241 25.3338C55.652 25.672 54.4502 26.075 53.6535 26.2285C52.8367 26.3865 51.5792 26.451 50.7602 26.3798C49.9657 26.3108 48.7639 26.0458 48.0896 25.7921C47.4175 25.5384 46.5895 25.1045 45.6348 24.3255L45.9729 22.7676C46.1599 21.9108 46.3737 21.1608 46.4472 21.0985C46.5207 21.0364 46.7453 21.2367 46.9455 21.5414C47.148 21.8463 47.6221 22.4472 48.0005 22.8767C48.3788 23.3063 49.1288 23.8738 49.6696 24.1386C50.2082 24.4034 51.1497 24.6885 51.7617 24.773C52.4205 24.8643 53.284 24.8196 53.876 24.6661C54.4279 24.5214 55.2536 24.161 55.7121 23.865C56.284 23.4955 56.7379 22.919 57.1474 22.0443C57.5791 21.1252 57.7461 20.4197 57.7394 19.5406C57.735 18.8663 57.5769 18.0161 57.3878 17.6489C57.1986 17.2817 56.7402 16.6807 56.3708 16.3136C55.9992 15.9464 55.06 15.3567 54.2855 15.0028C53.511 14.6467 51.9732 13.9345 50.8715 13.4182C49.7699 12.9019 48.4947 12.1163 48.0339 11.6712C47.5755 11.2261 47.0614 10.585 46.8923 10.2489C46.7231 9.91289 46.4715 9.08721 46.3335 8.41288C46.171 7.6117 46.1533 6.76595 46.2824 5.96478C46.3915 5.29044 46.6808 4.34011 46.9234 3.85051C47.1682 3.36088 47.8069 2.56647 48.341 2.08355C48.8774 1.6006 49.7654 1.01292 50.3151 0.772562C50.8671 0.534438 51.7684 0.258456 52.3181 0.160537ZM5.40586 0.621295C9.76119 0.61907 11.0499 0.690314 12.0358 0.981859C12.7101 1.18216 13.578 1.55823 13.9675 1.81861C14.3569 2.07899 14.9333 2.64205 15.2493 3.07157C15.5631 3.50109 15.9304 4.40022 16.0617 5.07456C16.1953 5.74886 16.2353 6.69918 16.153 7.18883C16.0707 7.67844 15.819 8.47964 15.5942 8.96926C15.3672 9.45888 14.7241 10.2846 14.1655 10.8053C13.6069 11.3261 12.7235 11.9694 12.2027 12.2365C11.6841 12.5036 10.6848 12.8795 8.7107 13.4204L9.75458 14.7557C10.3265 15.4901 12.5276 18.2698 14.644 20.9316C16.7592 23.5916 18.4876 25.7939 18.4898 25.8278C18.4898 25.8589 17.5528 25.8834 14.3259 25.8834L12.681 23.5533C11.7752 22.2714 10.0461 19.968 8.83546 18.4346C7.62702 16.9012 6.22493 15.2187 5.71969 14.6979C5.00753 13.959 4.64244 13.7497 3.35614 13.7542L3.38287 16.4805C3.39622 17.9805 3.47189 20.6357 3.54979 22.3827C3.62768 24.1275 3.66549 25.6298 3.63433 25.7211C3.6053 25.8101 2.80397 25.8679 0.129099 25.8145L0.240376 22.3982C0.302689 20.5197 0.33604 15.3276 0.31601 10.861C0.29598 6.39433 0.215851 2.26147 0.140183 1.6806L0 0.623468L5.40586 0.621295ZM31.8053 0.00253236C31.9833 0.0381714 32.2169 0.218469 32.3215 0.400914C32.4283 0.583407 34.1731 4.6918 36.1984 9.52565C38.2235 14.3594 40.2153 19.0663 40.6227 19.9857C41.03 20.9026 41.7756 22.5807 42.2786 23.7135C42.7812 24.8455 43.1928 25.7954 43.1934 25.8278C43.1956 25.8589 42.3187 25.8613 39.2987 25.7856L38.2748 22.9413C37.7117 21.3767 36.9173 19.2958 36.51 18.3165C36.1028 17.3375 35.6622 16.4051 35.5331 16.2447C35.3461 16.0177 34.2911 15.9686 26.2301 16.091L25.5603 17.7602C25.1909 18.6771 24.3764 20.8827 22.6071 25.8834L21.3274 25.8278C20.6241 25.7966 20.0476 25.7476 20.0453 25.7165C20.0462 25.6834 20.7048 24.2064 21.5143 22.4338C22.3222 20.66 24.6079 15.5501 26.5953 11.0835C28.5804 6.61689 30.4922 2.27926 30.8416 1.44914C31.2644 0.447703 31.5894 -0.0397517 31.8053 0.00253236ZM82.0291 0.63477V2.88922L81.2502 2.76903C80.8229 2.70227 79.1024 2.56859 74.3864 2.29263L74.2241 2.96029C74.1351 3.3275 74.1106 8.63548 74.2776 25.8834H70.9014L71.0638 2.29263L67.868 2.46845C66.1099 2.56637 64.345 2.691 63.2233 2.84901V0.512191L82.0291 0.63477ZM99.2771 0.623468V2.62646L95.9944 2.45954C94.1895 2.3683 92.0107 2.29263 89.596 2.29263L89.4491 11.8625L98.3869 11.5286V13.5316L89.4847 13.3091V24.3255L93.6576 24.1632C95.9521 24.0741 98.2089 23.9227 99.5086 23.6579L99.4997 25.8834H86.2577L86.302 13.1978C86.3265 6.22438 86.3532 0.518143 86.3577 0.512191C86.3643 0.512191 89.2733 0.536672 99.2771 0.623468ZM108.068 24.103H110.961C112.552 24.103 114.807 24.0273 118.083 23.7691L118.114 25.8834H104.73V0.512191H108.079L108.068 24.103ZM126.542 25.8834H123.204V0.623468H126.542V25.8834ZM30.9351 5.29277C30.8639 5.29499 29.987 7.25118 28.9877 9.63693C27.9886 12.0223 27.1698 14.0762 27.1695 14.1993C27.1695 14.3395 28.6161 14.4218 31.0642 14.4218C34.6717 14.4218 34.9499 14.3929 34.8341 14.0324C34.765 13.8183 33.8881 11.7622 32.8868 9.46566C31.8833 7.16731 31.0067 5.28936 30.9351 5.29277ZM6.14915 1.95879C4.86982 1.95879 3.78176 2.0345 3.72779 2.12571C3.6766 2.21696 3.57204 4.52043 3.49415 7.24446L3.35614 12.1963C5.64618 12.4077 6.72785 12.3277 7.80723 12.0985C8.72414 11.9026 9.90148 11.4931 10.4222 11.1905C10.943 10.8878 11.6083 10.3135 11.9021 9.91512C12.1959 9.51674 12.5475 8.79121 12.681 8.3016C12.8146 7.81198 12.9236 7.11092 12.9236 6.74372C12.9236 6.37648 12.8124 5.67543 12.6789 5.18584C12.532 4.64726 12.069 3.9395 11.5126 3.39649C10.8969 2.79564 10.2367 2.40612 9.53203 2.22808C8.95116 2.07897 7.42883 1.9588 6.14915 1.95879Z" fill="#FEFEFC"/>
</svg>
