<svg width="185" height="16" viewBox="0 0 185 16" fill="none" xmlns="http://www.w3.org/2000/svg">
<path d="M118.333 2.92568C119.749 2.92568 120.822 3.43289 122.084 4.69502C123.376 5.98662 123.854 7.01876 123.854 8.52859C123.854 9.66096 123.488 11.3242 123.04 12.2147C122.592 13.1053 121.53 14.1669 120.681 14.5738C119.832 14.9808 118.67 15.3109 118.103 15.3168C117.537 15.3168 116.422 14.8509 115.632 14.2847C114.842 13.7125 113.845 12.3857 113.42 11.33C112.937 10.1269 112.813 8.71707 113.09 7.55522C113.332 6.53492 114.163 5.07221 114.942 4.31143C115.856 3.40912 117.042 2.92573 118.333 2.92568ZM161.157 2.94353C163.021 2.93174 165.209 3.19108 166.023 3.51546C167.138 3.96369 167.497 4.53579 167.497 5.87458C167.497 7.05411 167.104 7.84052 166.318 8.2337C165.221 8.78218 165.203 8.94144 166.017 10.4454C166.507 11.3359 166.902 12.3976 166.902 12.8045C166.908 13.2114 167.173 13.5417 167.497 13.5417C167.822 13.5417 168.199 13.2114 168.335 12.8045C168.5 12.3209 168.608 12.37 168.659 12.9519C168.695 13.4356 168.305 14.2377 167.792 14.7213C166.955 15.5056 166.754 15.5056 165.97 14.7213C165.492 14.2377 164.896 12.9106 164.655 11.7724C164.324 10.2448 163.87 9.67276 162.903 9.5607C161.753 9.43095 161.6 9.68456 161.6 11.7724C161.6 13.5417 161.859 14.1904 162.632 14.3555C163.198 14.4853 162.337 14.609 160.715 14.6326C158.515 14.6739 158.026 14.5383 158.798 14.1136C159.647 13.6418 159.83 12.7041 159.83 8.82348C159.83 4.94286 159.647 4.00515 158.798 3.53331C158.031 3.10867 158.645 2.95533 161.157 2.94353ZM178.491 2.92568C179.906 2.92568 180.98 3.43289 182.242 4.69502C183.681 6.13407 184.011 6.95389 184.011 9.11837C184.011 11.1649 183.675 12.1086 182.537 13.2468C181.723 14.0548 180.467 14.8684 179.735 15.0513C179.004 15.2282 177.677 15.0985 176.786 14.7564C175.896 14.4143 174.787 13.5358 174.327 12.8045C173.867 12.0732 173.436 10.9467 173.377 10.2979C173.313 9.64917 173.254 8.42222 173.248 7.57883C173.242 6.647 173.885 5.42019 174.87 4.48249C175.972 3.43279 177.152 2.92573 178.491 2.92568ZM6.63502 0.000395506C6.87683 -0.0114 7.80869 0.242049 8.69925 0.572321C9.78445 0.969439 10.5708 0.969439 11.0584 0.572321C11.595 0.135929 11.8843 0.336573 12.132 1.30379C12.3148 2.03513 12.3795 3.39764 12.0905 6.04564L10.616 3.7516C9.56623 2.11202 8.66976 1.40995 7.51969 1.30379C6.62912 1.22122 5.367 1.42174 4.71824 1.74612C4.0282 2.08821 3.27323 3.37982 2.90167 4.84246C2.54781 6.22255 2.43579 8.2809 2.65401 9.41326C2.86634 10.5456 3.6213 12.0792 4.32313 12.8223C5.02498 13.5595 6.19863 14.1552 6.92991 14.1494C7.66123 14.1376 8.78771 13.6007 9.43648 12.9519C10.0852 12.3032 10.616 11.2416 10.616 10.5928C10.616 9.92637 10.0381 9.17119 9.28903 8.85861C8.25701 8.43399 8.75239 8.3103 11.5007 8.3103C14.249 8.3103 14.7444 8.43399 13.7124 8.85861C12.58 9.33043 12.3795 9.86739 12.3618 12.5096C12.3441 15.3051 12.2733 15.4702 11.6245 14.2317C10.9699 12.9755 10.8342 12.94 10.0263 13.8188C9.48366 14.4026 8.22153 14.7624 6.78247 14.7506C5.48495 14.7389 3.82767 14.3319 3.09634 13.8424C2.36503 13.3528 1.37418 12.1557 0.88467 11.1826C0.39516 10.2095 1.2538e-05 8.55218 0 7.49647C0.0058978 6.44077 0.583997 4.70059 1.29763 3.6272C2.01131 2.55385 3.40322 1.30345 4.39397 0.849356C5.38474 0.395266 6.39322 0.012194 6.63502 0.000395506ZM147.94 2.90783C148.153 2.89603 149.256 5.20808 150.394 8.03902C151.532 10.87 152.788 13.53 153.195 13.9547C153.797 14.5798 153.466 14.721 151.426 14.7092C150.04 14.7092 149.268 14.5087 149.698 14.2668C150.128 14.0308 150.394 13.3057 150.282 12.657C150.134 11.7488 149.545 11.4303 147.734 11.2828C145.9 11.1295 145.275 11.3241 144.909 12.1675C144.579 12.9224 144.756 13.4707 145.499 13.9956C146.425 14.6443 146.218 14.7446 143.906 14.7564C141.282 14.7682 141.264 14.7567 142.503 13.7128C143.193 13.1348 144.608 10.4689 145.652 7.79136C146.696 5.11411 147.728 2.92019 147.94 2.90783ZM107.34 1.74612C106.32 2.76643 106.16 3.71013 106.16 8.82348C106.16 12.0672 105.96 14.727 105.718 14.727C105.476 14.7329 103.418 12.3328 97.0188 4.04649L96.8477 8.35177C96.7121 11.6662 96.8772 12.7927 97.5613 13.2468C98.0508 13.5712 98.4578 14.0371 98.4696 14.2789C98.4812 14.5207 97.2959 14.7213 95.8392 14.7213C94.3766 14.7213 93.1853 14.4559 93.1852 14.1315C93.1852 13.8071 93.5862 13.5417 94.0699 13.5417C94.5535 13.5417 95.0843 13.1406 95.2494 12.657C95.4087 12.1734 95.5504 9.58428 95.5622 6.90669C95.5799 2.43053 95.4735 1.98805 94.2352 1.34525C92.9612 0.684701 92.9965 0.64344 94.9545 0.631644C96.8536 0.619849 97.3313 1.02069 100.852 5.57969C102.958 8.31035 104.886 10.5516 105.128 10.5634C105.37 10.5811 105.523 8.79983 105.47 6.6118C105.394 3.62168 105.099 2.37719 104.291 1.59868C103.259 0.607846 103.318 0.566561 108.519 0.566561L107.34 1.74612ZM33.694 2.92568C33.9771 2.92568 35.1332 5.44994 36.2715 8.52859C37.4038 11.6072 38.666 14.2435 39.0729 14.3792C39.4799 14.5148 38.6129 14.6447 37.1561 14.6683C35.6935 14.686 34.8562 14.5087 35.2808 14.2668C35.7112 14.0308 35.9763 13.3057 35.8643 12.657C35.7168 11.7488 35.1273 11.4303 33.3168 11.2828C31.4826 11.1295 30.8574 11.3241 30.4917 12.1675C30.1615 12.9224 30.3384 13.4707 31.0815 13.9956C32.0193 14.6502 31.8835 14.739 27.7196 14.7213L28.8341 13.0994C29.4534 12.2088 30.6801 9.55477 31.5647 7.20158C32.4493 4.84855 33.405 2.92599 33.694 2.92568ZM53.5225 2.90783C55.6338 2.89013 55.687 2.93745 54.7199 3.93994C53.9237 4.75973 53.6937 6.06331 53.6878 9.85559C53.676 12.6983 53.4222 14.7213 53.0802 14.7213C52.7558 14.7213 50.9629 12.6864 45.7079 5.68566L45.5254 8.58158C45.431 10.174 45.4959 12.0732 45.6728 12.8045C45.8557 13.5358 46.4688 14.2317 47.0349 14.3555C47.6011 14.4853 46.9227 14.615 45.519 14.6504C43.2369 14.7153 43.0657 14.6268 43.8971 13.8366C44.5754 13.1879 44.8173 11.8195 44.7996 8.67603C44.782 5.3321 44.5578 4.24107 43.7675 3.68076C42.8652 3.0379 42.9124 2.96121 44.2335 2.91992C45.3894 2.88453 46.4098 3.78685 52.1955 11.2771L52.3723 7.83859C52.4785 5.77436 52.3016 4.34115 51.93 4.25268C51.588 4.17008 51.3109 3.83979 51.3108 3.51546C51.3108 3.19108 52.3076 2.91962 53.5225 2.90783ZM69.2991 2.88421C71.552 2.88421 71.6111 2.93745 70.644 3.93994C69.8478 4.75973 69.6178 6.06331 69.6119 9.85559C69.6001 12.6393 69.3521 14.6564 69.0336 14.5738C68.7208 14.4909 66.9925 12.4322 61.9033 5.57969L61.9154 9.5607C61.9271 12.7336 62.1392 13.6595 62.959 14.1136C63.7493 14.5501 63.3659 14.6856 61.3371 14.6856C59.3082 14.6856 58.9249 14.5501 59.7152 14.1136C60.5644 13.6418 60.7473 12.7041 60.7473 8.82348C60.7473 4.95452 60.5645 3.99878 59.7152 3.50336C58.8719 3.00801 59.0018 2.93128 60.4467 3.06103C61.8621 3.19082 62.8471 4.06417 68.7093 11.7724L68.8625 8.38114C68.9805 5.78611 68.7741 4.74204 67.9779 3.93994C66.9872 2.93154 67.0404 2.88421 69.2991 2.88421ZM21.527 2.92568C22.9837 2.92568 24.181 3.19108 24.181 3.51546C24.1809 3.83982 23.7799 4.10524 23.2963 4.10524C22.5768 4.10524 22.4116 5.05479 22.4116 9.11837C22.4116 13.4119 22.5591 14.1668 23.4437 14.3555C24.0099 14.4853 23.1489 14.5853 21.527 14.5853C19.9051 14.5853 19.044 14.4853 19.6102 14.3555C20.4948 14.1668 20.6423 13.4119 20.6423 9.11837C20.6423 5.05479 20.4772 4.10524 19.7576 4.10524C19.2681 4.10524 18.873 3.83982 18.873 3.51546C18.873 3.19108 20.0643 2.92568 21.527 2.92568ZM78.1458 3.01438C79.7677 3.03797 80.6288 3.16166 80.0626 3.29141C79.1721 3.48605 79.0305 4.24683 79.0305 8.82348C79.0305 13.4001 79.172 14.1609 80.0626 14.3555C80.6288 14.4853 79.7677 14.5853 78.1458 14.5853C76.5239 14.5853 75.6628 14.4853 76.229 14.3555C77.1137 14.1668 77.2611 13.4119 77.2611 9.11837C77.2611 4.95467 77.0841 4.01105 76.229 3.53331C75.4564 3.10867 75.9459 2.97309 78.1458 3.01438ZM133.88 2.92568C138.522 2.92568 138.598 2.94927 138.598 4.40013C138.598 5.20812 138.734 6.26974 138.893 6.75925C139.052 7.24285 138.987 7.63772 138.746 7.63182C138.504 7.62591 137.902 6.75894 137.419 5.71504C136.935 4.66532 136.133 3.81035 135.649 3.81035C134.971 3.81035 134.723 4.70681 134.588 7.64392C134.488 9.74942 134.558 12.0732 134.735 12.8045C134.912 13.5358 135.526 14.2317 136.092 14.3555C136.658 14.4853 135.661 14.5853 133.88 14.5853C132.099 14.5853 131.102 14.4853 131.668 14.3555C132.559 14.1609 132.7 13.4001 132.7 8.82348C132.7 5.9051 132.577 3.51715 132.423 3.51546C132.27 3.51546 131.598 3.98139 130.931 4.54757C130.259 5.11376 129.722 6.04562 129.734 6.6118C129.745 7.17797 129.486 7.64392 129.162 7.64392C128.837 7.64392 128.702 7.04823 128.861 6.31691C129.014 5.58561 129.15 4.524 129.156 3.95779C129.162 3.06133 129.781 2.92568 133.88 2.92568ZM178.704 3.50336C178.22 3.52106 177.524 3.7337 177.164 3.98141C176.805 4.22341 176.186 5.21398 175.796 6.18099C175.389 7.17772 175.224 9.01811 175.419 10.4454C175.666 12.2795 176.15 13.1879 177.229 13.8366C178.539 14.621 178.869 14.621 180.178 13.8366C181.175 13.235 181.765 12.2382 182.001 10.7403C182.195 9.52534 182.166 7.86215 181.936 7.05414C181.7 6.24024 181.081 5.1077 180.55 4.52972C180.019 3.95177 179.193 3.4916 178.704 3.50336ZM118.44 3.4976C117.898 3.5094 117.037 3.91064 116.524 4.40013C116.016 4.88965 115.432 6.01613 115.226 6.90669C115.02 7.79728 115.013 9.46048 115.208 10.5928C115.403 11.7311 116.099 13.123 116.759 13.6892C117.579 14.391 118.363 14.5796 119.242 14.2789C119.95 14.0371 120.899 12.9106 121.359 11.7724C121.878 10.4808 122.044 8.93551 121.79 7.64392C121.572 6.51154 120.953 5.1077 120.416 4.52972C119.873 3.95183 118.983 3.48594 118.44 3.4976ZM32.2553 7.64392C31.3474 9.70735 31.3536 9.70788 32.9269 9.87287L32.928 9.87345C33.7946 9.96776 34.5789 9.9677 34.6737 9.87345C34.7622 9.78499 34.4616 8.77621 34.0016 7.64392L33.1636 5.57969L32.2553 7.64392ZM146.65 7.64392C145.771 9.69635 145.776 9.70831 147.345 9.87345C148.212 9.96773 148.99 9.9676 149.073 9.87345C149.156 9.78498 148.843 8.77624 148.377 7.64392L147.528 5.57969L146.65 7.64392ZM163.37 4.10524C161.742 4.10524 161.6 4.27038 161.6 6.16947C161.6 8.04485 161.742 8.2219 163.163 8.08625C164.024 8.00362 164.991 7.54356 165.316 7.05414C165.64 6.56468 165.735 5.70355 165.522 5.13735C165.275 4.47091 164.514 4.10525 163.37 4.10524Z" fill="white"/>
</svg>
