<svg width="124" height="34" viewBox="0 0 124 34" fill="none" xmlns="http://www.w3.org/2000/svg">
<path d="M13.6177 25.1763C13.7283 24.5519 13.7429 23.3033 13.7669 12.2425L13.7946 0H17.4291L17.3854 24.5578L17.2246 25.5401C17.1359 26.08 16.9823 26.8171 16.8834 27.1773C16.7851 27.5374 16.6178 28.0446 16.5115 28.3051C16.406 28.5656 16.2205 28.9745 16.099 29.2146C15.9782 29.4548 15.757 29.831 15.6071 30.0514C15.4579 30.2719 15.1756 30.6284 14.9806 30.8446C14.7856 31.0607 14.4291 31.3874 14.1889 31.57C13.9488 31.7526 13.4904 32.0393 13.1702 32.2074C12.8501 32.3748 12.3182 32.5974 11.9878 32.7008C11.6575 32.8041 11.0681 32.9445 10.6781 33.0122C10.1971 33.0951 9.5466 33.1352 8.65889 33.1373C7.68094 33.1395 7.1927 33.1075 6.73065 33.0115C6.39011 32.9409 5.85021 32.7983 5.53005 32.6949C5.20988 32.5916 4.68599 32.3726 4.36582 32.2081C4.04566 32.043 3.5385 31.725 3.23799 31.5002C2.9382 31.2753 2.51617 30.8984 2.30152 30.6626C2.08614 30.4262 1.73687 29.9714 1.52513 29.6512C1.31339 29.3311 1.04343 28.8566 0.925555 28.5962C0.807678 28.3357 0.627951 27.8612 0.525354 27.5411C0.423485 27.2209 0.286689 26.6643 0.221929 26.3041C0.156442 25.9439 0.0800401 25.1661 0 23.502H3.63819L3.72987 24.5025C3.78008 25.0533 3.8834 25.7489 3.9598 26.0494C4.03548 26.3492 4.15627 26.7429 4.22757 26.9226C4.29888 27.1023 4.46187 27.4298 4.58921 27.6502C4.71655 27.8707 4.99814 28.2141 5.21498 28.4142C5.43181 28.6143 5.8211 28.8814 6.07941 29.0073C6.33772 29.1332 6.79468 29.2918 7.09447 29.3602C7.46629 29.4439 7.96472 29.4839 8.65889 29.4839C9.39162 29.4846 9.87113 29.4446 10.3688 29.3413C10.7494 29.2627 11.2405 29.107 11.4603 28.9949C11.68 28.8836 12.0453 28.6085 12.2716 28.3851C12.5692 28.0904 12.7628 27.8067 12.9709 27.3592C13.1295 27.0194 13.3121 26.5442 13.3776 26.3041C13.4424 26.064 13.5508 25.5561 13.6177 25.1763Z" fill="#FDFDFD"/>
<path d="M32.8521 32.5982V0H36.4903V28.96H52.5711V32.5982H32.8521Z" fill="#FDFDFD"/>
<path d="M58.3194 32.5982V0H61.9576V32.5982H58.3194Z" fill="#FDFDFD"/>
<path d="M67.7059 32.5982V0L71.8899 0.00291055L80.7416 13.3354C85.6102 20.6685 89.6297 26.6759 89.6733 26.6861C89.7315 26.6992 89.7534 23.0115 89.7534 0H93.3915V32.5982H89.3168L83.5029 23.8847C80.305 19.0925 76.2695 13.048 71.3805 5.73451L71.3441 32.5982H67.7059Z" fill="#FDFDFD"/>
<path d="M99.2126 32.5982V0H122.352V3.71095H102.851V13.8251H121.115V17.5361H102.851V28.96H123.152V32.5982H99.2126Z" fill="#FDFDFD"/>
<path d="M20.6278 20.8104V16.954H29.7233V20.8104H20.6278Z" fill="#FDFDFD"/>
</svg>
