<svg width="117" height="30" viewBox="0 0 117 30" fill="none" xmlns="http://www.w3.org/2000/svg">
<path d="M21.334 0.00500515C27.4279 -0.000120123 28.0122 0.0384396 28.9578 0.512528C29.5216 0.794405 30.2211 1.34283 30.5107 1.72978C30.8002 2.11674 31.1669 2.89578 31.3257 3.45956C31.5436 4.2309 31.5411 4.75372 31.313 5.57374C31.1439 6.17339 30.5057 7.55723 29.8933 8.6489C29.2808 9.74058 28.143 11.7881 27.3639 13.1976C26.5849 14.607 25.3573 16.8545 24.6321 18.1947C23.9094 19.535 23.4046 20.719 23.5122 20.8292C23.6175 20.9394 24.6553 21.024 25.8186 21.0214C27.0102 21.0163 28.2966 21.1623 28.7656 21.3545C29.2243 21.5441 29.9162 22.0618 30.3032 22.5077C30.6902 22.9536 31.1361 23.7531 31.295 24.281C31.4538 24.8089 31.5154 25.6443 31.4309 26.1389C31.3489 26.6335 31.0155 27.4382 30.6926 27.9328C30.3697 28.4273 29.5882 29.091 28.9553 29.4088C27.8508 29.9623 27.5432 29.988 21.398 29.9829C17.8744 29.9829 14.5866 29.8702 14.0945 29.7344C13.6025 29.5985 12.8875 29.168 12.5056 28.7759C12.1264 28.3812 11.6369 27.6278 11.4165 27.0999C11.1987 26.572 11.0193 25.793 11.0193 25.3701C11.0193 24.9217 11.7498 23.1919 12.7774 21.2058C13.7461 19.3377 15.5912 15.937 16.8776 13.646C18.1666 11.3551 19.1608 9.36644 19.0917 9.2255C19.0199 9.08199 17.9385 8.96923 16.6571 8.96923C15.2144 8.96923 14.0868 8.83851 13.646 8.61812C13.2591 8.42336 12.5672 7.84676 12.1085 7.3368C11.6241 6.79609 11.2089 6.00426 11.1167 5.44561C11.0296 4.9177 11.0348 4.13866 11.1245 3.71583C11.2167 3.29299 11.5959 2.50624 11.9701 1.96552C12.3416 1.4274 13.1181 0.76637 13.6921 0.497262C14.63 0.0590508 15.3963 0.0101304 21.334 0.00500515ZM88.4751 0C94.5613 0 95.1533 0.0410022 96.0989 0.512528C96.6627 0.794418 97.411 1.45814 97.7646 1.98604C98.1157 2.51395 98.4771 3.34937 98.5642 3.84396C98.6539 4.33854 98.5976 5.14321 98.4438 5.6378C98.2875 6.13239 97.2188 8.26451 96.0681 10.3787C94.9201 12.4929 93.1954 15.6628 92.237 17.4259C91.2811 19.1865 90.5483 20.7164 90.6073 20.8214C90.669 20.9265 91.699 21.0136 92.8956 21.0136C94.1231 21.0136 95.4378 21.1623 95.9067 21.3545C96.3654 21.5441 97.0574 22.0618 97.4443 22.5077C97.8313 22.9536 98.2772 23.7531 98.4361 24.281C98.595 24.8089 98.6565 25.6443 98.572 26.1389C98.49 26.6335 98.1566 27.4382 97.8337 27.9328C97.5108 28.4273 96.7294 29.091 96.0964 29.4088C94.9919 29.9623 94.6844 29.988 88.5391 29.9829C85.0155 29.9829 81.7277 29.8726 81.2356 29.7419C80.7436 29.6112 79.9646 29.0937 79.5058 28.5914C79.0471 28.0892 78.5448 27.2434 78.3859 26.7155C78.2271 26.1876 78.1707 25.3522 78.2578 24.8576C78.3475 24.363 79.8953 21.252 81.6969 17.9385C83.4984 14.625 85.2846 11.3679 85.6664 10.699C86.0483 10.0302 86.302 9.36644 86.2328 9.2255C86.161 9.08199 85.0796 8.96923 83.7983 8.96923C82.3555 8.96923 81.2279 8.83851 80.7872 8.61812C80.4002 8.42336 79.7083 7.84676 79.2496 7.3368C78.7038 6.7269 78.3604 6.02988 78.2553 5.31747C78.1631 4.69475 78.2272 3.84396 78.4015 3.33143C78.5706 2.83688 78.9241 2.12966 79.188 1.75806C79.452 1.38648 80.1646 0.838073 80.7719 0.540807C81.8072 0.0334291 82.2839 0 88.4751 0ZM36.3895 0.394656C36.9635 0.138392 37.7015 0.035987 38.4396 0.112866C39.0802 0.18206 40.0182 0.522772 40.5537 0.886663C41.0817 1.24543 41.7172 1.91173 41.9632 2.37044C42.3655 3.11873 42.4192 4.31036 42.491 14.2226C42.5346 20.2833 42.5064 25.7315 42.4269 26.3311C42.3219 27.1255 42.0247 27.6892 41.3225 28.417C40.7229 29.0397 39.9285 29.5396 39.2084 29.7471C38.2781 30.0136 37.8322 30.0162 36.902 29.7599C36.2665 29.5831 35.4209 29.1296 35.0211 28.7504C34.6213 28.3711 34.1318 27.7431 33.9319 27.3562C33.6372 26.7796 33.5706 24.5244 33.5706 14.9914C33.5706 5.48148 33.6373 3.20074 33.9294 2.6267C34.1293 2.23975 34.5624 1.66816 34.8904 1.36065C35.221 1.05058 35.8975 0.617582 36.3895 0.394656ZM103.308 0.476741C104.089 0.133348 104.776 0.0204815 105.581 0.107611C106.216 0.176802 107.167 0.527895 107.695 0.886663C108.241 1.25568 108.874 2.00911 109.163 2.6267C109.643 3.65942 109.671 4.29514 109.671 14.9914C109.671 25.2906 109.63 26.3567 109.209 27.2921C108.956 27.8559 108.41 28.5836 107.997 28.909C107.585 29.2345 106.785 29.6293 106.221 29.7882C105.44 30.0086 104.922 30.0033 104.043 29.7599C103.408 29.5856 102.511 29.0732 102.047 28.6222C101.583 28.1738 101.086 27.4023 100.942 26.9077C100.778 26.3414 100.712 21.7439 100.84 2.90599L101.514 1.93724C101.914 1.36325 102.641 0.768881 103.308 0.476741ZM71.6257 0.0230237C72.0486 0.0153363 72.884 0.238215 73.4836 0.517533C74.1243 0.814796 74.893 1.47356 76.1256 3.2033L76.1181 14.9274C76.113 24.3476 76.0411 26.7898 75.7592 27.3562C75.5645 27.7431 74.9879 28.435 74.4779 28.8937C73.8655 29.4421 73.1736 29.7805 72.4586 29.8855C71.8589 29.9726 70.9646 29.9188 70.4725 29.7676C69.9805 29.6139 69.2374 29.2269 68.8249 28.904C68.4123 28.5811 67.8663 27.8559 67.6126 27.2921C67.1923 26.3567 67.1514 25.2906 67.1514 14.9914C67.1514 4.71013 67.1924 3.62613 67.6101 2.69077C67.8638 2.12703 68.4095 1.41463 68.8221 1.10964C69.2372 0.804688 69.8652 0.438121 70.2163 0.292051C70.5699 0.148549 71.2029 0.0281488 71.6257 0.0230237ZM54.8405 0.0282791C55.476 0.0154659 56.5702 0.158974 57.275 0.348609C57.9797 0.535682 59.0739 0.958372 59.7095 1.28382C60.345 1.60928 61.4674 2.49349 62.208 3.24434C62.9486 3.99776 63.8712 5.27648 64.2582 6.08627C64.8937 7.41884 64.9629 7.83142 64.9629 10.3787C64.9629 13.1155 64.9372 13.2463 64.066 14.8453C63.5739 15.7525 62.6514 17.0031 62.0158 17.6284C61.3803 18.2511 60.1144 19.1172 59.1969 19.5554C57.9925 20.132 57.0162 20.3909 53.8104 20.6292L53.8129 22.5512C53.8129 23.607 53.7 25.1651 53.5641 26.0108C53.3514 27.3331 53.1645 27.6945 52.2215 28.6042C51.4092 29.3884 50.8274 29.7113 49.9714 29.8522C49.2155 29.9778 48.4646 29.9265 47.7932 29.7036C47.2294 29.5191 46.394 28.986 45.9353 28.5221C45.4689 28.048 44.9795 27.1973 44.8231 26.5874C44.6412 25.8724 44.5745 22.5 44.718 8.07231L45.5509 6.34253C46.0096 5.39179 46.8886 4.06434 47.5037 3.3955C48.1187 2.72665 49.3026 1.80917 50.1304 1.35815C50.9581 0.9097 52.0984 0.430628 52.6622 0.294804C53.226 0.161546 54.2049 0.0410925 54.8405 0.0282791ZM4.48462 0.0152657C4.90745 0.0127033 5.71468 0.217844 6.27846 0.468983C6.84224 0.720122 7.64949 1.37356 8.8411 2.90599L8.91793 14.3303C8.95893 20.6138 8.93074 26.1287 8.85386 26.5874C8.76929 27.0922 8.28244 27.8662 7.62385 28.5504C6.77051 29.4345 6.28613 29.7188 5.38154 29.8597C4.72295 29.9648 3.84396 29.924 3.33143 29.7676C2.83941 29.6139 2.11674 29.2551 1.72978 28.9681C1.34282 28.6811 0.794418 27.984 0.512528 27.4202C0.0230637 26.4413 0 25.8826 0 14.9914C0 4.3105 0.030679 3.52618 0.484249 2.6267C0.753326 2.0988 1.18385 1.47084 1.44524 1.23252C1.70663 0.994193 2.32688 0.625182 2.8189 0.409922C3.31093 0.194668 4.06179 0.0178283 4.48462 0.0152657ZM54.7969 8.19268C54.3613 8.19781 53.8615 8.48748 53.4232 8.98976C53.0414 9.42284 52.7442 10.0558 52.7596 10.3992C52.7775 10.74 53.0492 11.3013 53.3669 11.6472C53.6847 11.9906 54.1742 12.3033 54.4561 12.3392C54.738 12.3751 55.2864 12.3238 55.6733 12.2238C56.0936 12.1162 56.5344 11.7343 56.7624 11.2756C57.011 10.7759 57.0802 10.2659 56.9546 9.82512C56.8496 9.44841 56.4754 8.92561 56.1218 8.66167C55.7707 8.39773 55.1736 8.18757 54.7969 8.19268ZM114.268 0C114.834 3.09745e-05 115.321 0.258865 115.959 0.896923C116.505 1.44277 116.856 2.04499 116.856 2.43451C116.856 2.78815 116.685 3.42112 116.472 3.84396C116.259 4.26679 115.857 4.72807 115.575 4.86901C115.293 5.00996 114.658 5.12528 114.166 5.12528C113.509 5.12528 113.061 4.9177 112.5 4.35649C111.913 3.76967 111.736 3.36991 111.757 2.66524C111.774 1.98873 112.008 1.50947 112.628 0.871397C113.23 0.248676 113.702 0 114.268 0ZM114.273 0.512528C113.981 0.512546 113.415 0.850792 113.012 1.2608C112.61 1.67337 112.269 2.27816 112.254 2.60618C112.238 2.93419 112.461 3.52106 112.748 3.90802C113.163 4.4718 113.474 4.61275 114.294 4.61275C115.114 4.61275 115.424 4.4718 115.839 3.90802C116.126 3.52107 116.357 2.94446 116.352 2.6267C116.349 2.30894 115.998 1.70415 115.575 1.28132C115.152 0.858484 114.568 0.512528 114.273 0.512528ZM114.017 1.27106C114.381 1.26337 114.85 1.44535 115.062 1.67598C115.378 2.01681 115.388 2.18339 115.127 2.58316C114.87 2.9777 114.87 3.15201 115.127 3.46457C115.303 3.67978 115.352 3.9386 115.237 4.04116C115.122 4.14366 114.835 3.95161 114.596 3.61597C114.353 3.27002 114.027 3.07526 113.845 3.16751C113.668 3.25726 113.525 3.50574 113.525 3.71583C113.525 3.92851 113.41 4.04384 113.269 3.97209C113.128 3.90274 112.992 3.34412 112.969 2.73432C112.946 2.12196 113.023 1.54542 113.14 1.453C113.258 1.35819 113.653 1.2762 114.017 1.27106Z" fill="white"/>
</svg>
