<svg width="177" height="14" viewBox="0 0 177 14" fill="none" xmlns="http://www.w3.org/2000/svg">
<path d="M70.2924 0.277131C70.5342 0.180801 71.3678 0.123809 72.1423 0.149365C73.3376 0.188683 73.6305 0.271305 74.0768 0.688076C74.3677 0.959375 74.7276 1.42334 74.8809 1.72019C75.0323 2.01705 75.1561 2.52624 75.1561 2.8506C75.1561 3.17498 75.0244 3.70579 74.8612 4.03016C74.7 4.35454 74.3009 4.79689 73.3868 5.40631L74.2026 6.14354C74.6528 6.54852 75.2662 7.3231 76.1214 8.8467L76.3514 8.25692C76.4792 7.93255 76.5952 7.31327 76.607 6.88076C76.6305 6.12978 76.603 6.09242 75.9916 6.04524C75.4235 6.00199 75.3527 5.93119 75.3527 4.81653H79.8744L79.8252 5.35717C79.7859 5.8034 79.6738 5.90561 79.1863 5.94493C78.8619 5.97049 78.5042 6.10221 78.3901 6.23982C78.2781 6.37547 78.0716 6.92991 77.936 7.47054C77.7984 8.01118 77.4701 8.89587 76.723 10.4194L77.2184 11.0584C77.4897 11.4103 77.932 11.8074 78.1994 11.943C78.6201 12.1553 78.742 12.1357 79.0899 11.7956C79.312 11.5794 79.4909 11.3356 79.487 11.255C79.4851 11.1744 79.1686 10.8205 78.7872 10.4686C78.4059 10.1167 78.0992 9.696 78.105 9.53477C78.1109 9.37357 78.2682 9.08255 78.4549 8.88989C78.6417 8.69723 79.0152 8.53798 79.2846 8.53798C79.5559 8.53798 79.9982 8.74841 80.2675 9.00595C80.5388 9.26545 80.8259 9.75489 80.9065 10.095C80.9871 10.4351 80.9969 10.9581 80.9241 11.255C80.8534 11.5518 80.6548 12.004 80.4818 12.2595C80.3108 12.5151 79.9038 12.8887 79.5795 13.0892C79.2551 13.2897 78.6574 13.4568 78.2525 13.4607C77.8475 13.4646 77.3167 13.3683 77.0729 13.2464C76.8291 13.1245 76.3652 12.7746 75.451 11.9116L74.5663 12.5013C74.0808 12.8257 73.3278 13.1854 72.8953 13.3014C72.4628 13.4155 71.6666 13.4666 71.126 13.4136C70.5853 13.3605 69.7891 13.1403 69.3566 12.926C68.9241 12.7098 68.2832 12.2123 67.9313 11.8211C67.5794 11.428 67.1961 10.732 67.0781 10.272C66.9582 9.81198 66.9189 9.08261 66.9877 8.6501C67.0565 8.21761 67.3297 7.53149 67.5971 7.1265C67.8625 6.72152 68.4995 6.15137 69.0126 5.86238C69.5257 5.57338 69.972 5.32961 70.0034 5.32174C70.0328 5.31382 69.7458 4.97573 69.3645 4.57079C68.759 3.92991 68.6685 3.70576 68.6685 2.8506C68.6685 2.04458 68.7766 1.73981 69.2602 1.15988C69.5866 0.768676 70.0505 0.371516 70.2924 0.277131ZM7.92123 0.491483C8.04509 0.243776 8.281 0.11599 8.56016 0.147445C8.94548 0.190696 9.06544 0.438406 9.48025 2.06423C9.74172 3.0924 9.89703 4.08718 9.82429 4.2759C9.75154 4.46462 9.49201 4.62186 9.24824 4.6258C8.96711 4.62973 8.71744 4.44886 8.56016 4.13431C8.42451 3.86105 8.02739 3.31645 7.67549 2.92327C7.32359 2.53205 6.7279 2.05434 6.34849 1.86168C5.97103 1.67099 5.39501 1.49208 5.07063 1.46456C4.74625 1.43704 4.19382 1.42916 3.84192 1.44488C3.48412 1.46061 2.94349 1.6907 2.61321 1.96593C2.19842 2.31193 2.02344 2.63239 2.02344 3.0472C2.02345 3.39122 2.20825 3.82957 2.46577 4.09889C2.74886 4.39575 3.64927 4.78304 4.97233 5.18016C6.10864 5.52223 7.61062 6.08849 8.31442 6.43843C9.28951 6.92598 9.6945 7.26216 10.0307 7.86373C10.2725 8.29624 10.4731 8.98235 10.475 9.38733C10.475 9.79231 10.3354 10.4116 10.1605 10.7635C9.98549 11.1154 9.60999 11.654 9.32494 11.9607C9.03988 12.2674 8.45203 12.7078 8.01953 12.9378C7.40814 13.2641 6.88125 13.3585 5.65455 13.3624C4.31184 13.3683 3.91271 13.2857 3.00055 12.8238C2.4088 12.525 1.91534 12.3048 1.90354 12.3323C1.88975 12.3618 1.77967 12.584 1.6578 12.8277C1.50839 13.1213 1.2862 13.2523 0.991321 13.2209C0.606001 13.1776 0.519459 12.9968 0.316971 11.7956C0.189188 11.0387 0.055505 9.9319 0.0220813 9.33818C-0.0349306 8.34146 -0.00540255 8.25298 0.401541 8.20777C0.743613 8.17042 0.934309 8.33752 1.23706 8.94499C1.45332 9.3775 1.98413 10.0852 2.41662 10.5177C2.84913 10.9502 3.53524 11.4398 3.94022 11.6029C4.3452 11.7681 5.11978 11.9018 5.66041 11.8978C6.29147 11.8939 6.87339 11.7523 7.2823 11.5007C7.6342 11.2845 8.05491 10.8421 8.21612 10.5177C8.37929 10.1914 8.45593 9.72941 8.3891 9.48562C8.32226 9.24185 8.1237 8.88399 7.94677 8.68936C7.7717 8.49275 6.34449 7.92067 4.77574 7.41544C2.71152 6.749 1.74228 6.33227 1.2626 5.90173C0.89694 5.57539 0.476231 5.06424 0.328778 4.76739C0.179372 4.47054 0.0575097 3.9181 0.0575026 3.53868C0.0575026 3.15925 0.212811 2.52614 0.401541 2.12902C0.590279 1.73191 1.01099 1.20115 1.33536 0.951481C1.65974 0.701807 2.19054 0.410841 2.51492 0.304681C2.8393 0.196555 3.9009 0.133603 4.87404 0.163092C6.12437 0.200444 6.80262 0.312546 7.18401 0.550423C7.703 0.870862 7.73252 0.868915 7.92123 0.491483ZM114.066 0.442335C114.201 0.255572 115.289 0.21224 118.637 0.261388C122.836 0.324298 123.066 0.347937 123.911 0.8001C124.434 1.08123 124.975 1.57466 125.232 2.01306C125.472 2.42001 125.671 3.08455 125.675 3.48953C125.679 3.89451 125.565 4.51379 125.423 4.86568C125.281 5.21758 124.841 5.77002 124.446 6.09439C124.051 6.41877 123.239 6.81786 121.554 7.27395L123.327 9.43648C124.3 10.6259 125.297 11.7071 125.537 11.8369C125.779 11.9686 126.131 12.0806 126.32 12.0826C126.508 12.0865 126.709 12.179 126.762 12.2871C126.817 12.3952 126.817 12.6606 126.762 12.8769C126.675 13.2248 126.498 13.27 125.238 13.274C123.933 13.2779 123.772 13.2327 123.304 12.7333C123.023 12.4345 121.939 11.0603 120.896 9.68222C119.099 7.30934 118.959 7.17565 117.62 7.17565L117.618 9.38733C117.614 10.9148 117.691 11.6757 117.864 11.8487C118 11.9843 118.356 12.0964 118.652 12.0944C119.099 12.0905 119.193 12.177 119.193 12.582C119.193 12.9299 119.063 13.1049 118.751 13.1796C118.507 13.2386 117.335 13.2602 116.146 13.2288C114.068 13.1737 113.981 13.154 113.934 12.7294C113.907 12.4856 113.995 12.2498 114.131 12.2045C114.266 12.1593 114.62 12.0708 115.458 11.8939V6.68417C115.458 2.22744 115.414 1.4607 115.163 1.37615C115.002 1.32307 114.691 1.27786 114.475 1.27786C114.259 1.27785 114.038 1.14416 113.983 0.982966C113.93 0.821771 113.966 0.57799 114.066 0.442335ZM28.4495 0.0943609C32.1336 0.092395 33.4627 0.155305 33.7025 0.340102C33.8794 0.477778 34.2234 1.20909 34.4672 1.96593C34.7129 2.72281 34.9469 3.43055 34.9901 3.53868C35.0334 3.64681 34.8427 3.84537 34.5675 3.98101C34.1035 4.20905 34.0406 4.18149 33.677 3.58783C33.4607 3.23597 33.2838 2.88212 33.2838 2.80145C33.2818 2.72085 32.9495 2.43186 32.5445 2.16253C31.8584 1.7025 31.6422 1.66908 26.9908 1.67104V5.7995L27.9246 5.80536C28.5635 5.81125 29.0294 5.6874 29.399 5.41217C29.7981 5.11925 29.9534 4.81848 29.9888 4.2759C30.034 3.59962 30.0871 3.53868 31.2175 3.53868L31.3158 9.33818H30.6278C29.9652 9.33818 29.9397 9.31062 29.9357 8.60095C29.9318 8.17435 29.7863 7.71623 29.5917 7.51374C29.342 7.25425 28.9547 7.16386 26.9908 7.17565L27.0891 11.7956L28.5635 11.8506C29.3755 11.8821 30.4803 11.8172 31.0209 11.7071C31.5616 11.597 32.3578 11.2569 32.7903 10.9502C33.2228 10.6435 33.7988 9.97901 34.0681 9.4718C34.3394 8.96657 34.6481 8.54984 34.7562 8.54787C34.8643 8.5459 35.1101 8.65796 35.3008 8.79361C35.631 9.02952 35.6193 9.13375 35.0865 10.7143C34.7779 11.6344 34.422 12.5839 34.0681 13.27L23.3538 13.1717L23.3047 12.6311C23.2614 12.1593 23.3243 12.0905 23.8059 12.0905C24.1087 12.0905 24.4645 11.9804 24.5962 11.8447C24.7712 11.6639 24.8342 10.272 24.8322 6.63502C24.8283 1.86965 24.8125 1.66318 24.4351 1.47445C24.2188 1.36632 23.8649 1.27786 23.6487 1.27786C23.3774 1.27786 23.2456 1.13628 23.224 0.819778C23.2044 0.566182 23.2634 0.300784 23.3538 0.229999C23.4442 0.157259 25.7365 0.0963271 28.4495 0.0943609ZM50.0276 0.245742C50.1712 0.165142 51.3488 0.119924 55.0053 0.196593L55.0545 0.737225C55.0938 1.16381 55.021 1.27786 54.7104 1.27786C54.4942 1.27786 54.1403 1.36632 53.9241 1.47445C53.5466 1.66318 53.5309 1.8677 53.5309 6.68417C53.5309 11.2864 53.5604 11.7052 53.8749 11.8035C54.0636 11.8624 54.618 11.8585 55.1036 11.7956C55.5912 11.7327 56.2753 11.6403 56.6272 11.5911C57.0007 11.538 57.6023 11.194 58.0761 10.7635C58.5224 10.3585 59.0532 9.69401 59.2557 9.28903C59.5624 8.67763 59.7019 8.57341 60.0676 8.6717C60.3114 8.73854 60.5729 8.84864 60.6515 8.91744C60.7281 8.98644 60.4509 9.97351 59.2793 13.1717L54.7832 13.2327C50.9006 13.2838 50.2537 13.2504 50.0413 12.987C49.9057 12.8179 49.8408 12.5466 49.8939 12.3854C49.9489 12.2202 50.2733 12.0689 51.27 11.9922L51.3683 1.47445L50.6311 1.31913C50.12 1.21101 49.8743 1.04585 49.831 0.778502C49.7956 0.566181 49.8841 0.326345 50.0276 0.245742ZM137.427 0.0904252C138.428 0.0943571 139.379 0.143513 139.54 0.196593C139.704 0.249679 139.835 0.517044 139.835 0.786373C139.835 1.12449 139.729 1.27589 139.491 1.27392C139.303 1.27196 138.984 1.38401 138.784 1.51966C138.449 1.74968 138.41 2.22766 138.164 13.1717L137.574 13.2366C136.998 13.3015 136.914 13.1854 130.497 2.65007L130.452 7.12449C130.418 10.4508 130.47 11.6639 130.649 11.8526C130.782 11.9942 131.089 12.1043 131.333 12.0984C131.576 12.0944 131.82 12.2242 131.873 12.3854C131.928 12.5466 131.928 12.814 131.873 12.9752C131.793 13.2189 131.386 13.2622 127.352 13.1717L127.302 12.6311C127.261 12.177 127.33 12.0905 127.731 12.0905C127.995 12.0905 128.348 11.9568 128.517 11.7956C128.783 11.542 128.826 10.7969 128.826 6.58587C128.826 2.84077 128.767 1.64543 128.58 1.56679C128.445 1.50782 128.158 1.42727 127.941 1.38402C127.725 1.34274 127.481 1.30137 127.401 1.2935C127.32 1.28366 127.24 1.0714 127.222 0.819778C127.202 0.566199 127.265 0.29883 127.357 0.222127C127.452 0.147422 128.405 0.110092 131.429 0.196593L133.873 4.22675C135.217 6.44235 136.399 8.3906 136.499 8.55181C136.617 8.7405 136.666 7.53136 136.592 1.60807L135.903 1.37222C135.526 1.24443 135.194 1.03598 135.166 0.912124C135.139 0.790229 135.227 0.550437 135.363 0.385315C135.553 0.149403 136.017 0.0825616 137.427 0.0904252ZM146.209 0.0943609C149.895 0.092395 151.22 0.155305 151.458 0.340102C151.635 0.477778 152.01 1.27593 152.293 2.11338C152.578 2.95085 152.789 3.6684 152.761 3.70772C152.734 3.74901 152.514 3.88073 152.27 4.00261C151.883 4.1992 151.788 4.1599 151.501 3.68612C151.32 3.38929 151.071 2.96857 150.945 2.75231C150.819 2.53605 150.39 2.20381 149.993 2.01508C149.437 1.74968 148.759 1.67104 144.75 1.67104V5.7995L145.684 5.80536C146.323 5.81125 146.789 5.6874 147.158 5.41217C147.557 5.11925 147.713 4.81848 147.748 4.2759C147.793 3.59962 147.846 3.53868 148.977 3.53868L149.075 9.33818L148.436 9.28903C147.841 9.24381 147.791 9.18284 147.699 8.40043C147.646 7.93843 147.469 7.47442 147.306 7.37023C147.145 7.26604 146.502 7.17959 144.75 7.17565L144.848 11.7956L146.519 11.8487C147.585 11.8841 148.566 11.7936 149.223 11.6029C149.791 11.4398 150.499 11.0957 150.795 10.8421C151.092 10.5865 151.558 9.96721 151.827 9.46393C152.099 8.96263 152.407 8.54985 152.516 8.54787C152.624 8.5459 152.879 8.65796 153.082 8.79361C153.438 9.03346 153.428 9.11013 152.803 10.9109C152.447 11.9391 152.059 12.8946 151.942 13.0361C151.774 13.2386 150.606 13.2799 141.113 13.1717L141.064 12.6311C141.021 12.1593 141.084 12.0905 141.565 12.0905C141.868 12.0905 142.224 11.9804 142.356 11.8447C142.531 11.6639 142.594 10.272 142.592 6.63502C142.588 1.86965 142.572 1.66318 142.194 1.47445C141.978 1.36632 141.624 1.27786 141.408 1.27786C141.137 1.27785 141.005 1.13628 140.983 0.819778C140.964 0.566183 141.023 0.300785 141.113 0.229999C141.204 0.157259 143.496 0.0963271 146.209 0.0943609ZM164.681 1.27786C165.151 2.53209 165.162 2.54586 165.375 2.01508C165.493 1.71825 165.593 1.36438 165.597 1.22871C165.599 1.09306 165.711 0.77844 166.081 0.0766022L175.714 0.0373412L176.282 1.69063C176.592 2.59889 176.793 3.49739 176.724 3.68612C176.655 3.87484 176.421 4.03016 176.205 4.03016C175.946 4.03016 175.66 3.75097 175.37 3.2123C175.126 2.7621 174.707 2.22342 174.436 2.017C174.166 1.81058 173.478 1.58061 171.876 1.37615L171.878 6.34013C171.88 9.25166 171.961 11.4673 172.077 11.6973C172.208 11.9594 172.47 12.0905 172.863 12.0905C173.187 12.0905 173.492 12.2006 173.541 12.3362C173.588 12.4719 173.522 12.7392 173.394 12.9319C173.185 13.2405 172.879 13.2759 168.44 13.1717L168.39 12.6311C168.351 12.2045 168.424 12.0905 168.735 12.0905C168.951 12.0905 169.259 12.0453 169.423 11.9922C169.674 11.9077 169.717 11.133 169.723 1.37615L168.786 1.51179C168.271 1.5865 167.63 1.81451 167.358 2.02094C167.089 2.22539 166.668 2.7621 166.425 3.2123C166.014 3.97115 165.921 4.03017 165.147 4.03803C164.417 4.04393 164.28 3.97508 164.067 3.4974C163.934 3.19662 163.535 2.66187 163.183 2.30997C162.693 1.82439 162.296 1.63762 160.472 1.37615V6.48758C160.472 10.3506 160.533 11.6599 160.719 11.8487C160.857 11.9843 161.213 12.0964 161.51 12.0944C161.982 12.0905 162.044 12.1593 161.952 13.1717H156.841L156.791 12.6311C156.748 12.1593 156.811 12.0905 157.293 12.0905C157.595 12.0905 157.951 11.9804 158.083 11.8447C158.258 11.6639 158.321 10.2503 158.315 1.47445H157.627C157.25 1.47445 156.695 1.5943 156.398 1.74371C156.101 1.89115 155.632 2.26665 155.356 2.57923C155.079 2.88985 154.792 3.34405 154.717 3.58783C154.629 3.87287 154.423 4.03213 154.137 4.0341C153.894 4.03606 153.593 3.92399 153.469 3.78836C153.298 3.59963 153.335 3.30077 153.622 2.55571C153.831 2.01509 154.13 1.21888 154.287 0.786373L154.574 0H164.205L164.681 1.27786ZM41.867 0.0982966C45.6789 0.0982966 46.9037 0.157282 47.0924 0.35191C47.2281 0.491549 47.582 1.28773 47.8788 2.12125C48.1757 2.95479 48.388 3.70382 48.3467 3.78442C48.3073 3.86503 48.0852 3.99872 47.8552 4.07931C47.5112 4.20118 47.3539 4.09499 46.9686 3.48953C46.7111 3.08456 46.2628 2.53016 45.9699 2.26082C45.4666 1.79293 45.3113 1.76737 40.1625 1.67104L40.2608 5.7012L41.1455 5.76014C41.633 5.7916 42.2818 5.70313 42.5865 5.56355C42.8932 5.42201 43.1782 5.13108 43.2195 4.91483C43.2628 4.69859 43.3218 4.29949 43.3513 4.03016C43.3965 3.62715 43.5125 3.53868 44.5859 3.53868L44.635 6.43843C44.6822 9.19463 44.6645 9.34211 44.291 9.43648C44.0747 9.48955 43.7621 9.42467 43.595 9.28903C43.4279 9.15339 43.2923 8.77788 43.2943 8.45351C43.2963 8.12913 43.1468 7.7064 42.96 7.51374C42.7045 7.24835 42.3191 7.16386 40.1625 7.17565L40.2608 11.7956L42.1285 11.7818C43.1566 11.7719 44.3283 11.7071 44.7333 11.6343C45.1815 11.5518 45.7871 11.2117 46.2766 10.7635C46.7209 10.3585 47.2733 9.69204 47.5053 9.28509C47.7393 8.87618 48.0164 8.54394 48.1246 8.54393C48.2327 8.54393 48.4803 8.65797 48.675 8.79361C49.0112 9.03149 48.9974 9.13372 48.4076 10.8126C48.0675 11.7858 47.7078 12.7373 47.6115 12.926C47.4503 13.2425 47.0136 13.2661 36.7221 13.1717L36.673 12.6311C36.6297 12.1593 36.6927 12.0925 37.1645 12.0984C37.4613 12.1043 37.8152 11.9941 37.9469 11.8526C38.1278 11.6639 38.1769 10.3349 38.0983 1.57275L37.3592 1.37615C36.8205 1.23264 36.6101 1.06748 36.5884 0.77063C36.5727 0.544555 36.6317 0.300781 36.7221 0.229999C36.8126 0.157259 39.1284 0.0982968 41.867 0.0982966ZM87.6575 0.206385C87.7558 0.119884 89.8279 0.0903754 92.2597 0.137558C96.4491 0.220127 96.7362 0.24964 97.6661 0.701803C98.2539 0.986864 98.8298 1.45676 99.0972 1.86764C99.4 2.3316 99.5435 2.84274 99.5395 3.44038C99.5356 3.97118 99.3744 4.58063 99.1405 4.96398C98.9242 5.31588 98.4603 5.7759 97.4695 6.3696L98.0416 6.52684C98.3542 6.61335 98.9086 7.01642 99.2703 7.42139C99.6536 7.85193 99.978 8.46532 100.049 8.89584C100.118 9.30083 100.078 9.94173 99.9623 10.3211C99.8483 10.7006 99.571 11.253 99.3489 11.5499C99.1267 11.8467 98.59 12.2674 98.1575 12.4837C97.725 12.6999 96.6418 12.9693 95.7493 13.0813C94.8567 13.1934 92.6686 13.2582 87.6398 13.1717L87.5906 12.6311C87.5474 12.1593 87.6103 12.0905 88.0919 12.0905C88.3947 12.0905 88.7505 11.9804 88.8822 11.8447C89.0572 11.6639 89.1201 10.272 89.1182 6.63502C89.1143 1.86965 89.0985 1.66318 88.7211 1.47445C88.5048 1.36632 88.1509 1.27786 87.9347 1.27786C87.6634 1.27785 87.5316 1.13628 87.51 0.819778C87.4904 0.566187 87.5572 0.290936 87.6575 0.206385ZM11.9475 0.0982966C11.9828 0.0452164 14.165 0.00982584 21.5845 0.0452126L22.2155 1.69264C22.5635 2.6009 22.8505 3.45218 22.8544 3.58783C22.8583 3.72347 22.6185 3.89057 22.3217 3.96133C21.9187 4.0557 21.7299 4.00063 21.5845 3.74113C21.4763 3.55043 21.209 3.11597 20.9907 2.77784C20.7725 2.43971 20.287 2.00723 19.9115 1.81849C19.536 1.62976 18.9403 1.47445 17.9475 1.47445V11.8939L18.4881 12.0079C18.785 12.0708 19.1388 12.1593 19.2745 12.2045C19.4101 12.2497 19.5242 12.3972 19.5281 12.5328C19.534 12.6685 19.4239 12.8886 19.2824 13.0223C19.1035 13.1933 18.3348 13.2524 14.3105 13.1717L14.2614 12.6311C14.2181 12.1514 14.2771 12.0905 14.802 12.0905C15.1952 12.0905 15.4573 11.9594 15.5884 11.6973C15.7083 11.4594 15.7653 9.3932 15.6867 1.57275L15.0969 1.50785C14.7725 1.47247 14.1749 1.58256 13.7699 1.7536C13.2725 1.96199 12.8243 2.38665 12.3937 3.05507C12.0418 3.59765 11.6211 4.03999 11.4599 4.0341C11.2968 4.0282 11.0491 3.95937 10.9056 3.87878C10.7031 3.76672 10.7777 3.36171 11.2652 1.96593C11.6053 0.992949 11.912 0.151617 11.9475 0.0982966ZM107.008 0.0982966C107.555 0.0982966 107.846 0.202491 107.971 0.442335C108.07 0.631209 108.964 2.99814 109.957 5.7012C110.952 8.40435 111.909 10.907 112.088 11.2628C112.269 11.6265 112.648 11.9922 112.951 12.0984C113.352 12.2379 113.48 12.4011 113.443 12.7294C113.395 13.1599 113.336 13.1717 108.675 13.1717L108.626 12.6311C108.585 12.1731 108.652 12.0905 109.068 12.0905C109.34 12.0905 109.613 11.9804 109.676 11.8447C109.741 11.7091 109.578 10.9365 108.84 8.6501L104.547 8.52819L103.987 10.0636C103.678 10.9089 103.479 11.7091 103.544 11.8447C103.609 11.9804 103.884 12.0905 104.154 12.0905C104.57 12.0905 104.637 12.1731 104.547 13.1717H100.615L100.566 12.6311C100.526 12.2045 100.601 12.0905 100.91 12.0905C101.126 12.0905 101.458 11.8879 101.647 11.6383C101.836 11.3905 102.823 8.93505 103.841 6.1828C104.857 3.43055 105.811 0.935845 105.958 0.638928C106.184 0.184798 106.352 0.0982969 107.008 0.0982966ZM71.5055 5.99216C71.3895 5.99412 71.0278 6.19663 70.6995 6.44236C70.3712 6.6881 69.8659 7.19729 69.5769 7.57278C69.2073 8.05245 69.05 8.49285 69.05 9.04329C69.05 9.53476 69.2191 10.0813 69.4982 10.5001C69.7439 10.8677 70.1961 11.3552 70.5009 11.5813C70.9196 11.89 71.2971 11.9804 72.0245 11.943C72.5828 11.9155 73.3299 11.7071 73.784 11.4516C74.2204 11.2078 74.5743 10.8991 74.5704 10.7635C74.5683 10.6277 74.2027 9.78828 73.7604 8.89584C73.3161 8.00332 72.6752 6.98495 72.3351 6.63109C71.995 6.27728 71.6216 5.99027 71.5055 5.99216ZM91.2651 7.17565L91.3752 11.7956C93.2035 11.8841 94.3536 11.8212 95.1104 11.7151C96.3195 11.544 96.5652 11.4359 97.1255 10.8225C97.5502 10.3605 97.7644 9.92599 97.7644 9.53477C97.7644 9.21039 97.6091 8.67761 97.4204 8.35128C97.2317 8.02494 96.7893 7.62781 96.4374 7.46661C95.9912 7.26412 95.1163 7.17565 93.5317 7.17565H91.2651ZM106.662 2.8506C106.568 2.8508 106.196 3.71378 105.838 4.76739C105.479 5.82103 105.152 6.79413 105.113 6.92991C105.058 7.11274 105.445 7.17565 106.611 7.17565C107.476 7.17565 108.182 7.10881 108.18 7.02821C108.178 6.9473 107.873 5.97427 107.506 4.86568C107.136 3.75692 106.759 2.8506 106.662 2.8506ZM91.2769 1.67104V5.7995C94.8155 5.7995 95.366 5.72086 95.9951 5.40631C96.4276 5.19006 96.8699 4.83619 96.9781 4.61994C97.0862 4.40366 97.1747 3.87286 97.1747 3.44038C97.1747 2.80738 97.0606 2.55767 96.5849 2.16253C96.0285 1.69858 95.8634 1.67104 93.636 1.67104H91.2769ZM117.62 1.67104V5.7995C120.819 5.7995 121.947 5.70906 122.191 5.59897C122.435 5.48887 122.789 5.135 122.978 4.8126C123.166 4.49018 123.322 3.91809 123.322 3.53868C123.322 3.03542 123.162 2.69135 122.732 2.26082C122.144 1.67303 122.13 1.67104 119.881 1.67104H117.62ZM72.1857 1.2386C72.0127 1.18355 71.7473 1.18159 71.5959 1.23466C71.4465 1.28577 71.1221 1.51581 70.8744 1.74582C70.5716 2.02694 70.4281 2.38472 70.432 2.8506C70.434 3.23 70.5677 3.73722 70.7309 3.98101C70.9569 4.31719 71.2185 4.42335 71.8141 4.42335C72.3384 4.42335 72.7316 4.29228 72.9937 4.03016C73.2434 3.78049 73.3888 3.36959 73.3927 2.89975C73.3947 2.38077 73.2649 2.04071 72.9504 1.74976C72.7027 1.52173 72.3607 1.2917 72.1857 1.2386Z" fill="white"/>
</svg>
