<svg width="230" height="15" viewBox="0 0 230 15" fill="none" xmlns="http://www.w3.org/2000/svg">
<path d="M11.0625 7.14337C11.921 7.258 13.2969 6.71676 13.5448 7.37796C14.0033 8.59647 13.7874 10.0496 13.2755 11.348C12.3556 13.681 10.3053 14.7128 7.63369 14.7715C5.54071 14.8168 3.485 14.3049 1.90126 12.5559C-1.12228 9.20704 -0.778313 2.36541 4.66881 0.600331C7.08449 -0.180836 9.64936 -0.00753513 11.8171 1.7015C12.2277 2.02414 12.7289 2.45608 12.0623 2.97598C11.5984 3.33858 11.2918 4.17848 10.396 3.42128C7.64172 1.09093 3.72231 2.29074 2.62113 5.72752C1.9706 7.75393 2.39983 9.66294 3.7836 11.1C5.14341 12.5132 6.97249 13.1558 9.03879 12.4545C9.7374 12.2172 10.236 11.7693 10.7426 11.2974C11.2758 10.8014 11.777 10.1535 11.5024 9.47897C11.2678 8.90303 10.4706 9.40167 9.972 9.22304C9.41206 9.02307 8.38293 9.88957 8.33493 8.45247C8.30293 7.47659 8.48426 6.9434 9.60136 7.12737C10.076 7.20466 10.5746 7.14066 11.0625 7.14066V7.14337Z" fill="white"/>
<path d="M206.699 0.149692C210.029 3.23724 213.332 6.34875 216.495 9.58557C216.991 9.2763 216.799 8.8817 216.801 8.5644C216.82 6.16742 216.842 3.76781 216.793 1.37083C216.777 0.610998 216.996 0.34966 217.75 0.429661C218.343 0.493662 218.945 0.264324 218.932 1.30683C218.873 5.47955 218.908 9.6549 218.908 13.8303C218.908 14.1395 218.985 14.5341 218.644 14.6515C218.3 14.7688 218.138 14.3662 217.929 14.1609C215.658 11.9132 213.429 9.62027 211.111 7.41793C210.306 6.65269 209.416 5.98082 208.555 5.10891C208.555 7.78586 208.549 10.4628 208.56 13.1397C208.56 13.7583 208.56 14.2675 207.707 14.3262C206.806 14.3875 206.481 14.1476 206.491 13.1744C206.539 8.86833 206.504 4.55971 206.502 0.251027L206.625 0.253658L206.693 0.149692H206.699Z" fill="white"/>
<path d="M74.6879 5.23962C74.6689 7.85783 74.6104 10.4788 74.6506 13.097C74.6638 14.0489 74.3116 14.2835 73.4159 14.3369C72.3521 14.3982 72.5494 13.7476 72.5494 13.1531C72.5494 9.199 72.5413 5.24758 72.5603 1.29353C72.5603 0.938968 72.3097 0.421698 72.7759 0.245694C73.1521 0.101764 73.3465 0.586961 73.5839 0.818929C75.2665 2.46404 76.9754 4.08774 78.5915 5.79685C79.743 7.01266 81.2334 7.8712 82.1854 9.28163C82.2891 9.4363 82.3877 9.58294 82.593 9.51894C82.9562 9.40694 82.8195 9.08437 82.8225 8.8524C82.8334 6.45272 82.8838 4.05311 82.8042 1.65613C82.7691 0.648332 83.0468 0.320362 84.0513 0.418994C84.6249 0.475032 84.9127 0.504329 84.9047 1.2082C84.8704 5.42892 84.8886 9.64694 84.8806 13.8676C84.8806 14.1049 85.0194 14.4248 84.6811 14.5555C84.4166 14.6568 84.2837 14.4035 84.1449 14.2596C81.1508 11.1933 77.8236 8.46577 74.9516 5.27425C74.9414 5.05295 74.8902 4.79431 74.6185 4.87432C74.4585 4.91961 74.4694 5.15158 74.6879 5.24225V5.23962Z" fill="white"/>
<path d="M53.4834 5.01569C53.4834 7.6659 53.4644 10.3162 53.4834 12.9638C53.4886 13.7663 53.4082 14.2809 52.3766 14.3369C51.2354 14.3982 51.4436 13.7077 51.4407 13.0677C51.4385 9.119 51.4355 5.17028 51.4458 1.22157C51.4458 0.888337 51.334 0.528366 51.5663 0.203099C55.0535 3.11728 58.1381 6.43942 61.6684 9.86824C61.6684 6.82073 61.6926 4.18382 61.6524 1.54954C61.6421 0.762964 61.7298 0.373697 62.6898 0.400364C63.5614 0.424401 63.7938 0.648331 63.7857 1.51754C63.7404 5.83952 63.7646 10.1615 63.7646 14.7555C60.1144 11.5426 56.7734 8.38313 53.6646 4.97835C53.6055 4.92232 53.5448 4.86635 53.4856 4.81302C53.4856 4.87972 53.4834 4.94635 53.4805 5.01298L53.4834 5.01569Z" fill="white"/>
<path d="M129.28 7.28729C129.28 5.42359 129.319 3.55725 129.261 1.69354C129.234 0.797668 129.327 0.360399 130.436 0.392399C131.436 0.421697 131.554 0.765666 131.546 1.6242C131.535 2.89064 130.964 4.58638 131.778 5.30895C132.479 5.93282 134.137 5.49826 135.374 5.50359C137.367 5.51068 138.362 4.51171 138.358 2.50671C138.358 2.24274 138.358 1.97614 138.358 1.71217C138.358 0.555031 139.23 0.00576144 140.31 0.445734C140.733 0.619034 140.589 0.949634 140.589 1.22427C140.6 5.30895 140.565 9.39364 140.619 13.4757C140.633 14.5502 139.976 14.2756 139.406 14.3049C138.806 14.3369 138.305 14.4062 138.355 13.4623C138.446 11.7879 138.344 10.1055 138.384 8.4258C138.401 7.73523 138.2 7.47659 137.489 7.4953C135.772 7.53526 134.052 7.53526 132.335 7.4953C131.69 7.4793 131.493 7.6846 131.506 8.32447C131.543 9.96687 131.479 11.6093 131.535 13.2517C131.567 14.2196 131.058 14.2862 130.292 14.3315C129.445 14.3822 129.239 14.0836 129.261 13.2837C129.311 11.2867 129.277 9.28967 129.277 7.29L129.28 7.28729Z" fill="white"/>
<path d="M181.08 7.90583C181.08 9.88154 181.08 11.4279 181.08 12.9743C181.08 13.8036 180.915 14.3261 179.849 14.3448C178.708 14.3635 178.964 13.6809 178.961 13.0704C178.956 9.21493 178.988 5.35951 178.937 1.50417C178.927 0.624294 179.174 0.328326 180.033 0.437625C181.334 0.600258 182.646 0.264324 183.963 0.674925C185.72 1.2242 186.597 2.02136 186.691 3.52247C186.859 6.16471 186.477 6.92199 184.544 7.74853C184.307 7.84979 184.056 7.91912 183.699 8.03909C184.803 9.48686 185.883 10.9027 186.966 12.3211C187.283 12.737 187.64 13.129 187.904 13.577C188.152 13.9955 188.093 14.2595 187.469 14.3288C186.315 14.4568 185.531 14.0862 184.869 13.0996C183.752 11.4306 182.504 9.84683 181.078 7.90846L181.08 7.90583ZM181.153 6.27138C181.153 6.34342 181.126 6.46602 181.158 6.48202C181.302 6.56202 181.353 6.45272 181.384 6.33538C182.249 6.31405 183.15 6.35138 183.859 5.77545C184.584 5.18621 184.723 4.39971 184.326 3.53847C183.843 2.49063 182.878 2.44 181.916 2.35737C181.361 2.30937 181.11 2.48267 181.132 3.0852C181.172 4.14641 181.148 5.21025 181.15 6.27409L181.153 6.27138Z" fill="white"/>
<path d="M120.694 3.59458C117.039 1.41357 114.338 2.15748 112.754 3.85855C111.093 5.64496 110.922 8.37787 112.389 10.3962C114.786 13.6944 117.81 12.5746 120.734 11.0735C121.364 13.5024 120.257 14.1796 117.719 14.5342C115.109 14.8995 112.723 14.2943 110.859 12.1986C109.205 10.3402 108.587 6.95406 109.584 4.66112C110.811 1.83484 112.888 0.2351 116.031 0.181766C116.943 0.165766 117.841 0.187099 118.753 0.42177C120.791 0.944374 121.103 1.38427 120.694 3.59458Z" fill="white"/>
<path d="M159.669 14.2889C159.331 14.1796 158.288 14.7128 158.926 13.3744C160.672 9.71357 162.325 6.01019 164.037 2.33341C164.351 1.65884 164.578 0.560367 165.237 0.539034C166.026 0.512367 166.082 1.67221 166.394 2.32544C168.087 5.85822 169.726 9.41497 171.361 12.9771C171.537 13.3611 172.123 13.9903 171.596 14.1823C170.943 14.4222 169.969 14.6808 169.412 13.897C168.945 13.2437 168.497 12.4812 168.366 11.7106C168.196 10.7108 167.655 10.6361 166.887 10.7001C166.666 10.7188 166.439 10.7348 166.223 10.7028C163.762 10.3375 161.754 10.7455 161.157 13.617C160.995 14.3982 160.389 14.3262 159.669 14.2862V14.2889ZM165.237 4.57038C164.951 5.29829 164.751 5.81556 164.548 6.33283C164.229 7.1487 163.224 8.09783 163.719 8.70044C164.098 9.16167 165.442 8.82844 166.357 8.84707C166.444 8.84707 166.533 8.82311 166.617 8.83377C167.209 8.90837 167.178 8.62577 166.983 8.2232C166.428 7.07936 165.885 5.93019 165.237 4.57309V4.57038Z" fill="white"/>
<path d="M37.8451 0.00313125C39.5382 3.60254 41.138 6.99936 42.7324 10.3962C43.1883 11.3667 43.5722 12.3772 44.0948 13.3104C44.6041 14.2196 44.2255 14.2649 43.4203 14.3315C42.2765 14.4222 41.7539 13.913 41.4419 12.8944C40.7727 10.7214 40.73 10.7188 38.557 10.7161C38.4691 10.7161 38.381 10.7054 38.2931 10.6894C35.9788 10.2815 34.3764 10.9427 33.8191 13.4544C33.6538 14.2009 32.2113 14.6275 31.5235 14.2943C31.1182 14.0996 31.2675 13.7983 31.3982 13.5237C32.5553 11.052 33.7444 8.59377 34.8723 6.10619C35.7708 4.11982 36.6587 2.1281 37.8505 0.00313125H37.8451ZM35.8694 8.7884C37.0959 8.8364 38.3331 8.92707 39.6742 8.7404C39.0183 7.26866 38.4104 5.90886 37.7971 4.53838C37.1706 5.91952 36.5467 7.29533 35.8668 8.7911L35.8694 8.7884Z" fill="white"/>
<path d="M151.706 0.757631C151.706 4.83968 151.668 8.92166 151.724 13.0037C151.737 14.0063 151.444 14.2702 150.46 14.3022C149.354 14.3396 149.396 13.769 149.402 12.9984C149.423 9.32167 149.479 5.63955 149.375 1.96547C149.338 0.648332 149.719 0.205729 150.969 0.437697C151.14 0.469698 151.324 0.448364 151.5 0.450994C151.57 0.552329 151.638 0.656295 151.708 0.757631H151.706Z" fill="white"/>
<path d="M195.462 7.37256C195.462 5.37551 195.52 3.37584 195.435 1.38142C195.395 0.445588 195.813 0.376253 196.526 0.432291C197.112 0.477588 197.717 0.237657 197.698 1.3015C197.632 5.25021 197.645 9.20156 197.688 13.153C197.698 14.1554 197.229 14.2755 196.39 14.3341C195.432 14.4008 195.438 13.9181 195.448 13.2303C195.475 11.2786 195.459 9.32423 195.459 7.37256H195.462Z" fill="white"/>
<path d="M227.733 7.3513C227.733 5.31429 227.787 3.27728 227.712 1.2456C227.672 0.139098 228.39 0.491032 228.931 0.448365C229.523 0.400364 230.011 0.341695 230 1.26957C229.946 5.25299 229.957 9.23634 229.992 13.2198C230 14.2729 229.389 14.2542 228.624 14.3315C227.606 14.4329 227.731 13.817 227.733 13.1957C227.742 11.2494 227.736 9.30034 227.736 7.354L227.733 7.3513Z" fill="white"/>
<path d="M93.8254 7.23126C93.8254 5.23955 93.8787 3.24521 93.8042 1.2562C93.7611 0.16299 94.4654 0.482923 95.017 0.442959C95.6066 0.402994 96.094 0.33366 96.0808 1.26416C96.0275 5.24758 96.0304 9.23363 96.0757 13.217C96.0888 14.2835 95.5212 14.2621 94.7372 14.3288C93.7531 14.4115 93.8093 13.8702 93.8145 13.209C93.8335 11.2173 93.8225 9.22297 93.8225 7.23126H93.8254Z" fill="white"/>
<path d="M21.9412 7.23126C21.9412 5.23962 21.9945 3.24521 21.9171 1.2562C21.8798 0.301659 22.4211 0.416364 22.9917 0.445662C23.5436 0.474959 24.2208 0.165693 24.2048 1.2562C24.1489 5.23962 24.1622 9.22297 24.1968 13.2063C24.2048 14.2515 23.6103 14.2515 22.8371 14.3288C21.8345 14.4275 21.9305 13.8436 21.9359 13.2063C21.9491 11.2147 21.9412 9.22297 21.9412 7.23126Z" fill="white"/>
<path d="M74.6864 5.23962C74.4709 5.14632 74.457 4.91698 74.617 4.87169C74.8895 4.79431 74.937 5.05032 74.9509 5.27162C74.8625 5.26095 74.7748 5.25029 74.6864 5.23962Z" fill="white"/>
<path d="M206.699 0.149692L206.629 0.253731L206.507 0.251027C206.44 0.149692 206.398 0.0430973 206.558 0.000429832C206.59 -0.00760686 206.651 0.0990607 206.699 0.152395L206.699 0.149692Z" fill="white"/>
<path d="M151.706 0.757631C151.636 0.656295 151.567 0.552402 151.497 0.451067C151.737 0.43777 151.828 0.525663 151.706 0.757631Z" fill="white"/>
<path d="M53.4834 5.01569C53.4834 4.94898 53.4864 4.88228 53.4886 4.81565C53.547 4.87161 53.6084 4.92765 53.6676 4.98098L53.5872 5.05558L53.4834 5.01569Z" fill="white"/>
<path d="M181.153 6.27138C181.243 6.24472 181.321 6.26605 181.384 6.33538C181.353 6.45272 181.302 6.56465 181.158 6.48202C181.126 6.46339 181.153 6.34342 181.153 6.27138Z" fill="white"/>
</svg>
