<svg width="120" height="34" viewBox="0 0 120 34" fill="none" xmlns="http://www.w3.org/2000/svg">
<path d="M0 33.4698L0.0122699 0L8.22086 0.134319L8.34356 25.8991H24.5399V33.4698H0Z" fill="white"/>
<path d="M27.3153 11.7028C27.2393 5.70733 27.2442 0.622751 27.3301 0.402956C27.465 0.0488432 27.9706 0.00976865 35.7031 0.136761L35.9485 21.8842L36.5791 23.0979C36.9227 23.7671 37.6417 24.6512 38.1742 25.0639C38.7337 25.501 39.708 25.9406 40.4883 26.1116C41.4871 26.3314 42.2552 26.3411 43.4331 26.1531C44.3681 26.0041 45.411 25.6451 45.9485 25.2886C46.4564 24.954 47.1387 24.2116 47.4699 23.6425C47.7988 23.0711 48.184 21.8891 48.3264 21.0172C48.4736 20.1014 48.5841 15.3197 48.5865 0.014653H56.8368L56.8074 11.3096C56.7804 21.9208 56.7485 22.6999 56.2822 24.192C56.0098 25.0639 55.4086 26.4901 54.9472 27.3595C54.4859 28.2265 53.5485 29.4915 52.8614 30.168C52.1742 30.842 50.9595 31.7456 50.162 32.1706C49.3644 32.5979 47.8822 33.1743 46.8687 33.4527C45.4822 33.8361 44.3068 33.9607 42.0834 33.9631C39.9068 33.9656 38.6282 33.8337 37.1755 33.4625C36.0957 33.1865 34.6626 32.6639 33.9902 32.3C33.3153 31.9361 32.1006 30.9788 31.2908 30.1704C30.4785 29.3645 29.519 28.1557 29.1583 27.4841C28.7975 26.8149 28.265 25.4424 27.9779 24.4363C27.492 22.7316 27.4454 21.8476 27.3153 11.7028Z" fill="white"/>
<path d="M63.065 33.4722L63.0773 0.00244216L71.2859 0.136761L71.4086 25.9015H87.6049V33.4722H63.065Z" fill="white"/>
<path d="M90.8883 24.0675C90.5153 22.7927 90.4491 21.1418 90.3656 11.3072L90.2724 0.0122108L94.1546 0.0170951C96.2896 0.0195373 98.1595 0.100129 98.3092 0.200257C98.4982 0.322365 98.638 3.63393 98.7632 10.8798C98.9227 20.1722 98.9939 21.5228 99.3939 22.6022C99.6638 23.3373 100.216 24.1554 100.78 24.6585C101.296 25.1176 102.103 25.6524 102.577 25.8478C103.048 26.0408 104.209 26.2093 105.153 26.219C106.54 26.2361 107.131 26.114 108.221 25.5865C108.994 25.2129 109.806 24.595 110.123 24.1359C110.425 23.6963 110.864 22.8415 111.099 22.2359C111.475 21.2614 111.526 19.9476 111.585 0.0122108H120L119.904 11.3072C119.823 20.6656 119.74 22.8318 119.418 23.9454C119.205 24.6854 118.64 26.0847 118.164 27.0591C117.634 28.1483 116.8 29.3255 116.005 30.1118C115.293 30.8176 114.052 31.7456 113.244 32.1779C112.439 32.6077 110.896 33.189 109.816 33.4722C108.454 33.8264 107.063 33.9875 105.276 33.9998C103.858 34.0071 101.926 33.8532 100.982 33.653C100.037 33.4552 98.4908 32.9301 97.546 32.4881C96.3558 31.9312 95.3571 31.2084 94.2945 30.1338C93.3399 29.1716 92.4883 28.0091 92.0393 27.0591C91.6417 26.219 91.1239 24.8734 90.8883 24.0675Z" fill="white"/>
</svg>
