<svg width="116" height="51" viewBox="0 0 116 51" fill="none" xmlns="http://www.w3.org/2000/svg">
<path d="M13.3277 4.78266C13.5971 4.75329 14.3186 4.75749 14.9326 4.79386C15.5467 4.82883 16.4887 4.95617 17.026 5.07786C17.5633 5.19816 18.3797 5.43867 18.8403 5.61212C19.3008 5.78558 19.9916 6.09895 20.3754 6.31017C20.7592 6.52139 21.45 6.96069 21.9105 7.28662C22.3711 7.61255 23.1568 8.31335 23.655 8.8435C24.1532 9.37365 24.7896 10.1528 25.0673 10.5752C25.345 10.9977 25.7623 11.7209 25.9939 12.1825C26.2256 12.6441 26.6122 13.5884 26.855 14.2808C27.0978 14.9732 27.4216 16.137 27.5765 16.8686C27.7579 17.7345 27.885 19.027 27.9394 20.5755C27.9939 22.1296 27.9617 23.4375 27.8487 24.3523C27.7524 25.1217 27.5236 26.3331 27.3394 27.0451C27.1551 27.7571 26.8034 28.8272 26.5564 29.4231C26.3108 30.019 25.8139 31.0108 25.4538 31.6262C25.0938 32.2417 24.4659 33.123 24.0598 33.5846C23.6536 34.0462 22.9725 34.7288 22.5468 35.1023C22.1198 35.4758 21.2057 36.1136 20.5149 36.5193C19.8241 36.9263 18.7886 37.4173 18.2122 37.6103C17.6373 37.8034 16.7567 38.0427 16.2584 38.142C15.7602 38.2399 14.567 38.3196 13.6069 38.3168C12.1555 38.314 11.6279 38.2497 10.4668 37.9335C9.69924 37.7251 8.50603 37.2592 7.81522 36.8997C7.12442 36.5402 6.11959 35.8926 5.5823 35.4618C5.045 35.031 4.32209 34.3692 3.97739 33.9915C3.63129 33.6139 3.14702 33.053 2.45207 32.1858L2.44648 36.3123C2.44508 38.5826 2.3948 42.8155 2.23292 51H0.348894L0.435436 42.9917C0.482885 38.5868 0.452215 29.0034 0.364294 21.6945C0.277768 14.3857 0.160491 7.79149 0 5.67646L2.44226 5.67797L2.43244 12.0426L3.31026 10.7976C3.79174 10.1136 4.72819 9.04349 5.39109 8.41962C6.05398 7.79714 7.02809 7.02779 7.55423 6.71165C8.08176 6.39692 8.98471 5.94784 9.55969 5.71704C10.1361 5.48483 11.1088 5.19256 11.7228 5.06666C12.3369 4.94077 13.0584 4.81344 13.3277 4.78266ZM103.238 5.04849C103.257 5.01073 103.712 5.11139 104.249 5.27225C104.787 5.43452 105.792 5.85559 106.482 6.20949C107.493 6.72846 107.984 7.10047 108.997 8.11881C110.058 9.18751 110.355 9.59189 110.899 10.7137C111.255 11.4453 111.735 12.64 111.968 13.3715C112.2 14.1031 112.49 15.2669 112.612 15.9594C112.732 16.6518 112.832 17.8954 112.832 18.722C112.832 19.5487 112.8 20.3209 112.762 20.4356C112.701 20.6202 111.256 20.6454 89.1074 20.6454L89.1088 21.4498C89.1088 21.8918 89.1744 22.8206 89.2539 23.513C89.3321 24.2055 89.522 25.3693 89.6755 26.1009C89.8276 26.8324 90.1458 27.9963 90.3802 28.6887C90.6161 29.3811 91.0291 30.3561 91.3012 30.8569C91.572 31.3577 92.0577 32.113 92.3814 32.5355C92.7038 32.9579 93.2453 33.5356 93.5844 33.8182C93.9236 34.1007 94.5781 34.5581 95.0386 34.8351C95.4992 35.1106 96.4412 35.5219 97.132 35.7485C97.8228 35.9738 98.7955 36.2367 99.2951 36.3305C99.7948 36.4256 101.144 36.5012 102.296 36.4984C103.878 36.4956 104.729 36.4227 105.785 36.1989C106.552 36.0367 107.62 35.7401 108.157 35.5387C108.694 35.3373 109.416 35.0142 109.762 34.8211C110.108 34.6267 110.429 34.5204 110.476 34.586C110.524 34.6504 110.68 35.0072 110.825 35.3793C111.056 35.9709 111.063 36.0689 110.878 36.1808C110.763 36.2521 110.229 36.4941 109.692 36.7208C109.155 36.946 108.15 37.2956 107.459 37.4971C106.768 37.6971 105.669 37.9545 105.017 38.0678C104.358 38.1825 102.977 38.2734 101.912 38.272C100.607 38.2706 99.5575 38.1852 98.6322 38.0062C97.8842 37.8607 96.7063 37.5292 96.0155 37.2704C95.3247 37.0117 94.2599 36.5178 93.6473 36.1709C93.036 35.8254 92.1525 35.1653 91.685 34.7037C91.2161 34.2421 90.5589 33.4559 90.2225 32.9551C89.8862 32.4543 89.3768 31.5731 89.0907 30.9968C88.8032 30.4191 88.4431 29.6007 88.2882 29.1783C88.1333 28.7558 87.8807 27.9053 87.7286 27.2899C87.5765 26.6744 87.384 25.6826 87.303 25.0867C87.2207 24.4908 87.1536 23.0262 87.1536 21.8344C87.1536 20.6427 87.2471 18.9417 87.363 18.0576C87.4802 17.1596 87.7634 15.8768 88.0049 15.155C88.2435 14.443 88.7613 13.2316 89.1549 12.4623C89.5498 11.6929 90.2867 10.5291 90.7933 9.87445C91.2999 9.21981 92.1484 8.31615 92.6787 7.86432C93.209 7.4125 94.0827 6.78299 94.6199 6.46686C95.1572 6.15072 96.1844 5.6891 96.9032 5.4415C97.7461 5.15196 98.289 5.0331 98.4383 5.10723C98.564 5.17164 98.9492 5.47378 99.9231 6.33531L99.1556 6.43885C98.7341 6.4976 98.0112 6.67246 97.5507 6.82913C97.0901 6.9872 96.4314 7.27544 96.0853 7.47267C95.7392 7.66852 95.1112 8.09096 94.6897 8.41128C94.2683 8.73022 93.65 9.30092 93.3179 9.67719C92.9843 10.0549 92.4219 10.8047 92.0674 11.3432C91.713 11.8818 91.184 12.8736 90.8937 13.5464C90.6021 14.2192 90.2127 15.2893 90.0285 15.9244C89.8442 16.5594 89.6098 17.4701 89.5051 17.9471C89.4019 18.4253 89.3489 18.8462 89.3866 18.8842C89.4242 18.9206 94.2223 18.9696 110.637 19.0368L110.549 17.6379C110.499 16.8406 110.281 15.5173 110.042 14.5605C109.772 13.4751 109.391 12.4133 108.962 11.553C108.512 10.648 108.029 9.93459 107.445 9.31492C106.974 8.81556 106.361 8.27981 106.08 8.12592C105.801 7.97205 105.039 7.23205 104.388 6.48229C103.736 5.73277 103.218 5.08805 103.238 5.04849ZM40.4019 4.98825C41.7416 4.97846 42.4045 5.04151 43.2628 5.26392C43.8769 5.42199 44.8189 5.78278 45.3562 6.06674C45.9646 6.38847 46.7028 6.95225 47.3127 7.56352C47.9979 8.24894 48.467 8.88408 48.8661 9.66463C49.1801 10.2801 49.5722 11.1936 49.7355 11.6929C49.8974 12.1923 50.1262 13.1365 50.2407 13.7912C50.4123 14.7676 50.4501 16.6239 50.4487 24.1425C50.4487 31.2919 50.4933 33.7511 50.6566 35.3331C50.8227 36.9402 50.8296 37.3823 50.6929 37.4635C50.598 37.5208 50.1583 37.5684 49.7173 37.5684C49.0475 37.5712 48.9149 37.5306 48.9107 37.3265C48.9079 37.1922 48.8145 36.1696 48.7028 35.0534C48.5912 33.9372 48.4836 33.007 48.4627 32.9845C48.4431 32.9621 48.1041 33.3398 47.7092 33.8238C47.3156 34.3078 46.6638 34.9862 46.2633 35.3331C45.8614 35.68 45.1803 36.199 44.7477 36.4872C44.315 36.7767 43.521 37.1977 42.9837 37.4243C42.4464 37.6495 41.5518 37.9335 40.995 38.0524C40.3921 38.1825 39.2924 38.2707 38.2736 38.2707C36.9716 38.2707 36.3156 38.2021 35.5174 37.9811C34.941 37.8216 34.0311 37.4593 33.4938 37.1767C32.8923 36.8606 32.1359 36.2871 31.5261 35.6842C30.8116 34.9764 30.3942 34.4113 30.0243 33.6545C29.7424 33.0768 29.4201 32.1648 29.3071 31.6262C29.1954 31.0877 29.1019 30.2218 29.1005 29.7028C29.0991 29.1839 29.1857 28.3026 29.2932 27.7445C29.402 27.1864 29.6532 26.3205 29.8514 25.8211C30.051 25.3217 30.5492 24.4712 30.9567 23.9327C31.3656 23.3941 32.1094 22.6066 32.6104 22.1841C33.1114 21.7617 34.1427 21.0902 34.9033 20.6943C35.6625 20.2971 36.8808 19.7837 37.6107 19.5501C38.3406 19.3179 39.5645 19.0003 40.3321 18.8423C41.0997 18.6856 42.4185 18.4926 43.2628 18.4129C44.1071 18.3332 45.6297 18.2674 48.4962 18.2674V17.1134C48.4962 16.4783 48.4306 15.425 48.3511 14.7704C48.2715 14.1157 48.1055 13.2037 47.9841 12.742C47.8626 12.2804 47.5347 11.4313 47.257 10.855C46.8997 10.115 46.4657 9.51764 45.7748 8.81823C45.1287 8.16499 44.5132 7.69501 43.9606 7.43483C43.5001 7.21662 42.8092 6.95368 42.4255 6.85017C42.0417 6.74526 41.1625 6.65855 40.4717 6.65715C39.7808 6.65575 38.6825 6.74667 38.0294 6.86137C37.3763 6.97468 36.4036 7.21809 35.8663 7.40273C35.329 7.58598 34.4805 7.9426 33.9822 8.19299C33.484 8.44478 32.9021 8.76936 32.6913 8.91344C32.4806 9.05751 32.2601 9.17357 32.2029 9.17217C32.1457 9.16937 31.9572 8.83925 31.7856 8.43778C31.4911 7.7482 31.4869 7.6964 31.7158 7.53415C31.8498 7.44043 32.4918 7.0838 33.1449 6.74389C33.798 6.40258 34.74 5.98704 35.2383 5.82058C35.7365 5.65412 36.7106 5.40236 37.4014 5.25968C38.1913 5.09742 39.3036 4.99664 40.4019 4.98825ZM54.8671 6.69212C55.0694 7.25027 55.5117 8.43089 55.8481 9.31492C56.1844 10.199 56.6547 11.4272 56.8934 12.0426C57.1306 12.6582 57.9485 14.7984 58.7105 16.7987C59.4711 18.799 60.6642 21.9464 61.3606 23.7928C62.0584 25.6392 62.7353 27.4325 62.8679 27.7795C62.9991 28.1265 63.6661 29.8749 64.3499 31.6653C65.0323 33.4572 65.6241 34.919 65.6618 34.9148C65.6995 34.9106 66.0261 34.1371 66.3861 33.197C66.7476 32.2556 67.3337 30.731 67.6896 29.8078C68.0469 28.8845 68.9861 26.4603 69.7774 24.4223C70.57 22.3842 71.9879 18.7318 72.9271 16.3091C73.8677 13.8863 74.9758 11.0215 75.3903 9.94439C75.8048 8.86732 76.3058 7.54542 76.5054 7.00685C76.7036 6.4683 76.9367 5.94787 77.0218 5.84995C77.1265 5.72828 77.5132 5.68497 79.3105 5.74791L78.7565 7.0768C78.4508 7.80837 78.12 8.6253 78.0196 8.89527C77.9204 9.16538 77.3245 10.6439 76.6938 12.1825C76.0644 13.7212 75.0764 16.144 74.4986 17.568C73.9208 18.992 73.0542 21.1322 72.5741 22.324C72.0926 23.5158 71.2762 25.5315 70.7598 26.8003C70.2435 28.0704 69.427 30.0847 68.9441 31.2765C68.4612 32.4683 67.7384 34.2309 67.3365 35.1932C66.9359 36.1542 66.5828 37.0831 66.5535 37.2565C66.5033 37.546 66.4236 37.5712 64.6151 37.5796L64.2103 36.5612C63.987 36.0001 62.7128 32.7731 61.3773 29.3881C60.0418 26.003 58.2667 21.5029 57.4321 19.3865C56.5976 17.2715 55.1838 13.6835 54.2934 11.4132C53.4017 9.14295 52.549 6.98739 52.3982 6.62218C52.2475 6.25716 52.1248 5.89489 52.1247 5.81785C52.1247 5.73532 52.6132 5.67797 54.4972 5.67797L54.8671 6.69212ZM83.246 37.5713H81.1527L81.1499 5.67797H83.246V37.5713ZM14.9326 6.59841C14.3186 6.56484 13.3612 6.59564 12.8044 6.66698C12.2476 6.73833 11.3055 6.95798 10.711 7.15521C10.1165 7.35105 9.18984 7.77486 8.65256 8.09518C8.11526 8.41413 7.24303 9.08829 6.71552 9.59045C6.1866 10.0926 5.48743 10.8816 5.16226 11.3432C4.8357 11.8048 4.35011 12.6232 4.08355 13.1617C3.817 13.7002 3.46667 14.5507 3.30618 15.0501C3.14429 15.5495 2.91539 16.4937 2.79537 17.1484C2.6293 18.0548 2.57905 19.3263 2.58045 22.4989C2.58045 24.93 2.64463 26.9653 2.73255 27.3948C2.81628 27.799 3.01314 28.5068 3.17084 28.9685C3.32715 29.4301 3.64531 30.1547 3.87558 30.5771C4.10584 30.9995 4.49934 31.629 4.75054 31.9759C5.00174 32.3228 5.60469 32.9886 6.09174 33.4586C6.57877 33.9272 7.32257 34.5329 7.74544 34.8043C8.16829 35.0757 8.95261 35.4857 9.48991 35.7151C10.0272 35.9459 11.032 36.276 11.7228 36.4508C12.7862 36.7194 13.2133 36.7557 14.514 36.6927C15.5578 36.641 16.3394 36.518 16.9562 36.3096C17.4544 36.1403 18.2402 35.8115 18.7007 35.5793C19.1612 35.3471 19.8213 34.9597 20.1661 34.7205C20.5108 34.4813 21.1612 33.9077 21.6092 33.4461C22.0572 32.9831 22.6921 32.1969 23.0187 31.6962C23.3466 31.1954 23.7416 30.5351 23.8965 30.2274C24.0528 29.9197 24.3403 29.2594 24.5343 28.7586C24.7297 28.2578 25.0158 27.4088 25.1693 26.8702C25.3242 26.3317 25.5572 25.3245 25.6884 24.6321C25.8475 23.7942 25.9298 22.6485 25.9326 21.205C25.9368 19.7278 25.8614 18.6129 25.6953 17.7079C25.5628 16.9763 25.2628 15.8125 25.0297 15.1201C24.7966 14.4276 24.3863 13.4513 24.117 12.9519C23.849 12.4525 23.3899 11.7279 23.0996 11.3432C22.8079 10.9585 22.3585 10.4143 22.1004 10.1332C21.8422 9.852 21.1918 9.29388 20.6545 8.89104C20.1172 8.48818 19.2073 7.92314 18.6309 7.63359C18.0559 7.34544 17.2395 7.00687 16.8167 6.88377C16.3938 6.76068 15.5467 6.63198 14.9326 6.59841ZM48.4264 20.1558C46.2633 20.1265 44.6305 20.2034 43.4024 20.3069C42.1743 20.4104 40.5414 20.6301 39.7739 20.7938C39.0063 20.9574 38.0015 21.2204 37.541 21.3784C37.0804 21.5351 36.2012 21.9505 35.5872 22.3016C34.9326 22.6751 34.0577 23.3466 33.4729 23.9243C32.7333 24.6545 32.3439 25.1846 31.9741 25.961C31.5624 26.824 31.455 27.2465 31.3614 28.339C31.2986 29.0706 31.2972 30.1239 31.3586 30.682C31.42 31.2401 31.593 32.0263 31.7424 32.4306C31.8917 32.8348 32.2839 33.5328 32.6146 33.9818C32.9691 34.4644 33.558 35.0268 34.052 35.3542C34.5125 35.6577 35.2187 36.0297 35.622 36.1794C36.0253 36.3291 36.8418 36.5221 37.4363 36.606C38.0322 36.6913 38.9882 36.7193 39.5645 36.669C40.1409 36.6172 40.8931 36.5096 41.2392 36.4271C41.5853 36.3459 42.3068 36.0718 42.8441 35.82C43.3814 35.5682 44.1671 35.0841 44.5886 34.7442C45.0101 34.4043 45.6702 33.7217 46.0526 33.2265C46.4364 32.7314 47.0086 31.8221 47.3254 31.2066C47.6422 30.5911 48.0343 29.6469 48.1976 29.1083C48.4739 28.1949 48.4921 27.862 48.46 24.1425L48.4264 20.1558ZM97.8298 0.235105C97.9065 0.226712 98.702 1.05474 99.5966 2.07448C100.493 3.09423 101.34 4.05666 101.481 4.21193C101.622 4.36721 102.428 5.26813 103.273 6.21373C104.22 7.27682 104.755 7.979 104.668 8.05174C104.591 8.11748 104.293 8.23911 104.005 8.32304C103.605 8.43914 103.437 8.43506 103.292 8.30077C103.189 8.20424 102.301 7.46424 101.322 6.65715C100.34 5.85002 98.4955 4.31682 97.2185 3.25092C95.943 2.18505 94.7735 1.22555 94.6199 1.12057C94.4664 1.01566 94.3729 0.898078 94.4106 0.861709C94.4486 0.8253 95.2021 0.671482 96.0853 0.521837C96.9687 0.370765 97.753 0.242101 97.8298 0.235105ZM112.623 0.039214C112.776 -0.00554645 113.248 -0.0125256 113.67 0.0210457C114.147 0.0602128 114.616 0.202953 114.909 0.397391C115.168 0.570847 115.492 0.900972 115.629 1.13178C115.766 1.3626 115.921 1.83401 115.972 2.1809C116.028 2.54459 115.997 3.07616 115.901 3.43984C115.791 3.85807 115.541 4.25951 115.156 4.63718C114.718 5.06802 114.423 5.22892 113.949 5.30026C113.603 5.35201 113.069 5.33519 112.762 5.26105C112.455 5.18831 112.048 5.00925 111.855 4.86517C111.664 4.72109 111.378 4.4203 111.22 4.19649C111.063 3.97268 110.888 3.50696 110.834 3.16008C110.765 2.73205 110.802 2.30678 110.947 1.83119C111.065 1.44655 111.271 1.00592 111.403 0.85201C111.537 0.698142 111.802 0.470115 111.995 0.345617C112.186 0.221122 112.469 0.0825777 112.623 0.039214ZM113.495 0.642186C113.148 0.643597 112.714 0.758298 112.448 0.921951C112.199 1.07583 111.9 1.34301 111.784 1.51645C111.668 1.68991 111.566 2.14593 111.558 2.5306C111.55 2.92507 111.642 3.42865 111.769 3.68464C111.893 3.93499 112.136 4.23432 112.309 4.35045C112.482 4.46654 112.811 4.59948 113.042 4.64565C113.272 4.69181 113.696 4.65965 113.984 4.57434C114.271 4.48901 114.635 4.24557 114.793 4.03434C114.951 3.82311 115.138 3.43004 115.206 3.16008C115.283 2.86632 115.283 2.44667 115.206 2.11095C115.125 1.75286 114.902 1.38776 114.584 1.0968C114.187 0.733109 113.97 0.642186 113.495 0.642186ZM113.251 1.3416C113.903 1.3416 114.15 1.40315 114.367 1.62137C114.521 1.77523 114.645 2.04241 114.644 2.21587C114.642 2.38932 114.515 2.6565 114.362 2.81037C114.083 3.09013 114.083 3.09013 114.365 3.47481C114.519 3.68601 114.646 3.89164 114.646 3.92943C114.646 3.9672 114.49 3.99937 114.298 3.99937C114.08 3.99937 113.817 3.84131 113.6 3.57972C113.409 3.34892 113.188 3.16008 113.111 3.16008C113.035 3.16008 112.979 3.20764 112.989 3.26499C112.997 3.32234 112.997 3.51118 112.989 3.68464C112.977 3.90006 112.884 3.99937 112.693 3.99937C112.433 3.99937 112.414 3.90565 112.414 2.67049V1.3416H113.251ZM113.455 1.92913C113.092 1.89278 113.032 1.93195 113.036 2.2089C113.04 2.47186 113.118 2.5306 113.46 2.5306C113.785 2.5306 113.879 2.46905 113.879 2.25084C113.879 2.04243 113.771 1.95991 113.455 1.92913Z" fill="#FDFDFB"/>
</svg>
