<svg width="126" height="33" viewBox="0 0 126 33" fill="none" xmlns="http://www.w3.org/2000/svg">
<path d="M82.2607 0.0489368C82.4298 0.0243357 83.3985 0.0182212 84.4133 0.0346221C85.9919 0.0592234 86.3988 0.100254 87.2322 0.319615C87.7673 0.460049 88.5515 0.718323 88.9748 0.893606C89.3971 1.06787 90.0255 1.38562 90.3699 1.59883C90.7143 1.81101 91.0936 2.05401 91.2125 2.13909C91.4288 2.2918 91.4298 2.31779 91.3837 10.8531L90.7174 10.2708C90.3504 9.95094 89.7282 9.47633 89.3336 9.21597C88.9389 8.95561 88.2009 8.58659 87.6935 8.39593C86.8181 8.06689 86.7002 8.04844 85.3871 8.04127C84.5004 8.03614 83.8372 8.08232 83.542 8.1715C83.2437 8.26068 82.927 8.46877 82.6451 8.76091C82.3509 9.06535 82.1889 9.33703 82.1459 9.59637C82.111 9.80753 82.1388 10.1653 82.2074 10.3908C82.2792 10.6224 82.518 10.9801 82.7578 11.2138C83.0274 11.4752 83.7675 11.9232 84.7721 12.4316C85.6464 12.8734 86.7996 13.4905 87.3347 13.8021C87.8698 14.1147 88.6314 14.6108 89.0261 14.905C89.4207 15.1992 90.0203 15.7344 90.3596 16.0932C90.6979 16.4519 91.1346 16.9768 91.3283 17.2587C91.5221 17.5406 91.8296 18.0941 92.011 18.4887C92.1935 18.8834 92.4497 19.5753 92.5799 20.0263C92.7911 20.752 92.8177 21.0534 92.8105 22.6402C92.8044 24.2228 92.7726 24.5489 92.543 25.4078C92.3995 25.9429 92.1217 26.7271 91.9259 27.1504C91.7291 27.5728 91.2934 28.2883 90.9572 28.7393C90.62 29.1903 90.0941 29.7848 89.7876 30.0595C89.4822 30.3342 88.9779 30.733 88.6673 30.9451C88.3567 31.1573 87.7109 31.5223 87.2322 31.756C86.7535 31.9897 85.9919 32.2931 85.5409 32.4295C85.0898 32.5668 84.3057 32.7503 83.7983 32.8374C83.2693 32.9276 82.275 32.9953 81.4663 32.9943C80.6913 32.9932 79.7227 32.943 79.3137 32.8825C78.9047 32.8221 78.2015 32.6805 77.7504 32.5688C77.2994 32.4561 76.6311 32.2582 76.2641 32.1281C75.8971 31.9979 75.2985 31.7406 74.9315 31.5571C74.5646 31.3736 74.0695 31.0907 73.394 30.6356V26.3816C73.394 24.0414 73.4165 22.1277 73.4452 22.1277C73.4739 22.1277 73.7845 22.3624 74.1371 22.6494C74.4897 22.9354 75.1232 23.3751 75.5466 23.6242C75.9689 23.8743 76.6844 24.2218 77.1354 24.395C77.5864 24.5693 78.3245 24.7815 78.7755 24.8666C79.3239 24.9691 80.0035 25.007 80.8256 24.9814C81.907 24.9455 82.1172 24.9086 82.5682 24.6739C82.8501 24.5263 83.1637 24.2966 83.2662 24.1634C83.3687 24.0301 83.4774 23.6909 83.5072 23.409C83.5471 23.04 83.5102 22.7683 83.3728 22.4403C83.256 22.1584 82.968 21.7955 82.6195 21.489C82.2576 21.1712 81.4324 20.6772 80.3131 20.1093C79.3547 19.6224 78.1779 18.9796 77.6992 18.6803C77.2205 18.381 76.505 17.8686 76.1104 17.5405C75.7157 17.2115 75.1314 16.6221 74.8126 16.2295C74.4938 15.8369 74.0449 15.1696 73.8163 14.7473C73.5836 14.3188 73.2792 13.5254 73.1275 12.9534C72.8958 12.078 72.8547 11.7038 72.8445 10.3908C72.8363 9.27452 72.8825 8.6287 73.0117 8.03316C73.1101 7.58216 73.2863 6.95892 73.4032 6.64933C73.519 6.33978 73.7558 5.80879 73.928 5.47052C74.1002 5.13226 74.4292 4.60128 74.6589 4.2917C74.8895 3.98214 75.2637 3.52698 75.4912 3.28096C75.7188 3.03495 76.2047 2.61261 76.5716 2.342C76.9386 2.07138 77.5372 1.67979 77.9042 1.4717C78.2712 1.26362 78.8934 0.965351 79.288 0.808519C79.6827 0.651686 80.4443 0.42621 80.9794 0.307303C81.5144 0.189421 82.0915 0.0725131 82.2607 0.0489368ZM105.222 0.000787231C106.095 -0.00741321 107.038 0.0489568 107.631 0.146337C108.166 0.233467 109.02 0.441529 109.527 0.608613C110.035 0.775696 110.819 1.12217 111.27 1.3774C111.721 1.63367 112.239 1.9556 112.756 2.3441V6.59808C112.756 8.93826 112.734 10.8521 112.705 10.8521C112.676 10.8521 112.388 10.6131 112.064 10.322C111.74 10.0299 111.082 9.53582 110.603 9.22318C110.125 8.91157 109.34 8.51594 108.861 8.34578C108.05 8.05774 107.889 8.03518 106.554 8.03416C105.198 8.03313 105.087 8.04853 104.53 8.31505C104.178 8.48316 103.849 8.73122 103.715 8.93008C103.591 9.11358 103.469 9.4703 103.445 9.7245C103.418 10.0166 103.462 10.317 103.566 10.5445C103.657 10.7414 103.882 11.0508 104.067 11.2312C104.251 11.4117 105.347 12.0513 106.503 12.652C107.66 13.2537 108.974 13.9846 109.425 14.2778C109.876 14.571 110.568 15.0876 110.962 15.4269C111.357 15.7651 111.914 16.3391 112.2 16.702C112.486 17.0638 112.866 17.6266 113.045 17.9506C113.225 18.2745 113.506 18.9439 113.671 19.4369C113.836 19.9299 114.021 20.6916 114.081 21.1282C114.142 21.5649 114.191 22.2804 114.191 22.7171C114.19 23.1538 114.121 23.9379 114.037 24.4597C113.952 24.9814 113.785 25.6959 113.664 26.0485C113.543 26.4011 113.295 26.9885 113.114 27.3554C112.931 27.7224 112.487 28.4102 112.129 28.8848C111.769 29.3604 111.152 30.0083 110.757 30.325C110.363 30.6417 109.809 31.0456 109.527 31.2239C109.245 31.4013 108.646 31.717 108.195 31.9262C107.744 32.1342 106.845 32.4417 106.196 32.6099C105.184 32.8723 104.77 32.9224 103.274 32.9665C101.94 33.0065 101.28 32.9788 100.455 32.8476C99.8629 32.7533 98.964 32.5596 98.4566 32.4172C97.9492 32.2737 97.1414 31.9743 96.6627 31.7509C96.184 31.5274 95.5484 31.1963 94.712 30.6869L94.709 26.3816C94.7059 22.1738 94.71 22.0795 94.8996 22.2302C95.0062 22.3153 95.4121 22.6278 95.8016 22.9251C96.1901 23.2224 96.9702 23.697 97.534 23.9789C98.0978 24.2597 98.882 24.5847 99.2766 24.7005C99.7717 24.8461 100.424 24.9281 101.378 24.966C102.388 25.006 102.915 24.9824 103.326 24.8768C103.636 24.7979 104.036 24.6196 104.215 24.4812C104.395 24.3428 104.614 24.0558 104.702 23.8446C104.79 23.6335 104.862 23.3106 104.861 23.1271C104.86 22.9436 104.773 22.6094 104.668 22.3839C104.564 22.1584 104.323 21.8283 104.132 21.651C103.943 21.4747 103.521 21.163 103.197 20.9591C102.874 20.7561 102.597 20.5911 102.582 20.5921C102.568 20.5941 101.819 20.2108 100.917 19.7403C100.015 19.2698 98.9189 18.6465 98.4822 18.3544C98.0455 18.0612 97.3587 17.5108 96.9569 17.1305C96.5551 16.7502 96.0272 16.1619 95.7853 15.8236C95.5424 15.4853 95.1621 14.8159 94.9396 14.3372C94.7172 13.8586 94.4486 13.1195 94.343 12.6972C94.1944 12.1016 94.1513 11.548 94.1513 10.237C94.1513 8.78967 94.1862 8.4124 94.3933 7.62313C94.5255 7.11575 94.7828 6.3777 94.9632 5.98305C95.1425 5.58841 95.4768 4.98875 95.7043 4.65047C95.9329 4.31222 96.391 3.74124 96.7242 3.38247C97.0563 3.0237 97.6283 2.51111 97.9953 2.2446C98.3623 1.97706 98.9609 1.59376 99.3279 1.39182C99.6948 1.19091 100.293 0.913042 100.66 0.775685C101.027 0.638327 101.765 0.429235 102.301 0.309305C102.836 0.190399 103.389 0.0755682 103.531 0.0540421C103.671 0.0325161 104.433 0.00796253 105.222 0.000787231ZM20.4653 2.46913C20.7554 3.44397 21.3396 5.37008 21.765 6.75184C22.1894 8.13362 22.9346 10.5784 23.4205 12.1846C23.9064 13.7909 24.7592 16.6047 25.3158 18.4375C25.8724 20.2692 26.796 23.3147 27.369 25.2028C27.941 27.091 28.637 29.3748 28.9148 30.2769C29.1925 31.1789 29.4191 31.9518 29.4191 31.9938C29.4173 32.0358 27.167 32.0716 19.4248 32.0747L19.1531 30.9708C19.0035 30.3639 18.7493 29.2774 18.2972 27.2488L11.0706 27.2529L11.0244 27.4836C10.9988 27.6109 10.7917 28.5447 10.5632 29.5593C10.3356 30.5741 10.1112 31.5428 9.97997 32.0195L0 32.0707L0.0614633 31.7376C0.0952896 31.5541 0.398744 30.5044 0.734957 29.4056C1.07117 28.3067 1.52322 26.7835 1.73849 26.0229C1.95477 25.2623 2.50217 23.3936 2.95524 21.8714C3.40831 20.3492 4.20165 17.6738 4.71726 15.9261C5.23183 14.1784 6.08573 11.2959 6.61261 9.51949C7.13948 7.74309 7.8796 5.2522 8.2558 3.98419C8.633 2.71522 9.00718 1.45853 9.08716 1.19091L9.2316 0.704011L19.9373 0.698806L20.4653 2.46913ZM125.672 32.0707H116.651V0.704011H125.672V32.0707ZM40.3882 11.6977C40.3882 17.7445 40.423 23.21 40.5419 24.9967L49.3574 25.0491V32.0195H31.3677V0.704011H40.3882V11.6977ZM70.8323 7.26437H61.0943V12.6972H70.6273V19.4625H61.0943V25.1003H70.8323L70.7811 32.0195H51.6125L51.5603 0.704011H70.8323V7.26437ZM14.7188 11.7233C14.7013 11.6669 14.6357 11.8053 14.5742 12.0308C14.5127 12.2563 14.1601 13.7785 13.789 15.4135C13.419 17.0484 13.0049 18.8699 12.8695 19.4624C12.7342 20.0549 12.644 20.5736 12.6675 20.6156C12.6911 20.6576 13.6106 20.6925 14.7094 20.6925C16.6395 20.6925 16.7083 20.6853 16.7083 20.4875C16.7083 20.3747 16.5033 19.4173 16.2532 18.3605C16.0031 17.3037 15.5623 15.4001 15.2753 14.1321C14.9873 12.8634 14.7373 11.78 14.7188 11.7233Z" fill="#FEFEFE"/>
</svg>
