<svg width="134" height="21" viewBox="0 0 134 21" fill="none" xmlns="http://www.w3.org/2000/svg">
<path d="M28.6402 0.000366627C29.553 -0.00580886 30.6311 0.0667867 31.0342 0.160999C31.4373 0.25523 32.4103 0.636713 33.1964 1.01046C34.3625 1.56337 34.8444 1.90777 35.8236 2.88541C36.4831 3.54336 37.2831 4.53491 37.6044 5.08629C37.9241 5.63767 38.3257 6.54119 38.4986 7.09412C38.6701 7.64704 38.8491 8.75753 38.8955 9.56529C38.9557 10.6093 38.9094 11.3662 38.7333 12.1909C38.5974 12.8288 38.2561 13.8358 37.975 14.4304C37.6939 15.025 37.1549 15.9193 36.778 16.4182C36.4011 16.9155 35.7093 17.6368 35.2429 18.0183C34.7764 18.3998 33.9069 18.9558 33.3123 19.2539C32.7177 19.552 31.7106 19.9272 31.0728 20.0878C30.4164 20.2531 29.38 20.3798 28.6788 20.3798C27.9344 20.3798 26.9521 20.2531 26.2077 20.0616C25.5281 19.8871 24.4856 19.4871 23.8909 19.172C23.2809 18.8492 22.3155 18.131 21.673 17.5194C21.0475 16.9247 20.2644 15.9872 19.9355 15.4343C19.6049 14.8814 19.1494 13.8744 18.9239 13.1948C18.5779 12.1508 18.513 11.6843 18.5083 10.1831C18.5037 8.90581 18.581 8.14745 18.7803 7.48024C18.9332 6.97056 19.2775 6.11029 19.5447 5.56819C19.8119 5.02609 20.3787 4.15654 20.8065 3.63759C21.2343 3.11711 22.0328 2.37112 22.5827 1.97727C23.1325 1.58497 23.877 1.11545 24.2384 0.934747C24.5999 0.754042 25.3644 0.472972 25.9374 0.309263C26.6586 0.103853 27.4927 0.00808892 28.6402 0.000366627ZM123.085 0.00338319C123.956 -0.00433689 125.033 0.0667867 125.479 0.160999C125.926 0.255222 126.777 0.557878 127.371 0.832788C127.966 1.10771 128.899 1.67309 129.444 2.09009C129.989 2.50555 130.661 3.12481 130.937 3.46459C131.214 3.80438 131.691 4.49939 131.997 5.00907C132.304 5.51875 132.734 6.49178 132.95 7.17134C133.266 8.16444 133.345 8.72511 133.348 10.0286C133.351 11.0758 133.259 12.0056 133.089 12.6543C132.944 13.2072 132.636 14.0412 132.406 14.5076C132.176 14.974 131.776 15.6691 131.517 16.0521C131.257 16.4351 130.594 17.1641 130.045 17.6738C129.493 18.1835 128.564 18.8584 127.975 19.172C127.388 19.4871 126.352 19.887 125.672 20.0616C124.939 20.2515 123.95 20.3797 123.24 20.3782C122.582 20.3782 121.539 20.2639 120.923 20.1264C120.307 19.989 119.294 19.6245 118.67 19.3156C118.047 19.0067 117.161 18.46 116.7 18.0985C116.242 17.7371 115.548 17.0421 115.162 16.5541C114.776 16.066 114.223 15.1795 113.934 14.5849C113.645 13.9902 113.293 13.0172 113.153 12.4226C112.963 11.6148 112.918 10.9121 112.977 9.64251C113.032 8.46409 113.159 7.65939 113.387 7.0169C113.57 6.50721 113.939 5.67318 114.207 5.16352C114.493 4.61832 115.207 3.72103 115.936 2.98586C116.907 2.00821 117.463 1.5942 118.49 1.08452C119.212 0.726207 120.186 0.338635 120.653 0.224347C121.119 0.110057 122.214 0.00956102 123.085 0.00338319ZM75.7083 0.214995C76.2859 0.0682784 77.2003 0.0142377 78.5656 0.0466709C80.2289 0.0868276 80.7464 0.159493 81.5773 0.468387C82.1302 0.673809 82.9921 1.08452 83.494 1.38105C83.996 1.6776 84.8655 2.37733 85.4246 2.93488C85.9853 3.49244 86.7049 4.39597 87.0261 4.94271C87.3458 5.48944 87.786 6.49177 88.0038 7.17134C88.3219 8.16753 88.4008 8.72202 88.4039 10.0286C88.407 11.0712 88.3142 12.0087 88.1459 12.6543C88.0007 13.2072 87.5962 14.2142 87.2456 14.8937C86.7791 15.7957 86.2709 16.4646 85.3658 17.3681C84.5426 18.1913 83.7627 18.7998 83.0446 19.1767C82.4499 19.4886 81.4074 19.887 80.7278 20.0616C79.971 20.2562 79.0135 20.3782 78.2567 20.3767C77.5771 20.3736 76.5701 20.267 76.0172 20.1403C75.4643 20.0121 74.6658 19.762 74.241 19.5844C73.8163 19.4052 73.0178 18.9634 72.4649 18.602C71.9119 18.2406 71.0578 17.5008 70.5667 16.9602C70.0493 16.3903 69.4176 15.4544 69.0655 14.7393C68.7319 14.0597 68.3534 13.0527 68.2252 12.4998C68.0955 11.9469 67.9889 10.8704 67.9874 10.1059C67.9858 9.34134 68.0894 8.29881 68.2175 7.78914C68.3473 7.27945 68.7426 6.27089 69.0963 5.54964C69.5998 4.52721 70.0168 3.96044 70.9867 2.98435C71.9629 2.00515 72.5189 1.59115 73.546 1.08301C74.2673 0.724697 75.2419 0.335463 75.7083 0.214995ZM51.1355 6.81916C52.3572 10.41 53.4106 13.4527 53.4739 13.5809C53.5481 13.7308 53.8059 13.13 54.2059 11.882C54.5457 10.8209 55.3598 8.28337 56.0146 6.24465C56.6695 4.20595 57.3614 2.05138 57.8943 0.375627L63.9069 0.292219L63.9702 19.9133H59.9546L59.9499 13.079C59.9468 9.24897 59.8881 6.34705 59.814 6.47633C59.7414 6.60452 58.6495 9.68272 55.0895 19.9304L51.7302 19.8361L50.0513 15.0482C49.1293 12.4149 48.0775 9.40929 47.0582 6.47633L46.9809 19.9133H42.8108L42.7846 10.2093C42.7707 4.87162 42.817 0.457472 42.8881 0.401871C42.9596 0.344741 44.3439 0.296923 48.9115 0.289203L51.1355 6.81916ZM14.7399 0.292219C16.1621 0.295309 17.3266 0.350928 17.3269 0.414239C17.3269 0.477563 15.6573 2.19812 13.6155 4.23683C11.3807 6.46697 9.92432 8.03615 9.95818 8.17526C9.98907 8.30345 11.7868 10.909 13.9521 13.9671C16.1172 17.0247 17.9363 19.613 17.994 19.7203C18.0759 19.8716 17.5184 19.9133 12.7707 19.9195L9.83616 15.5888C8.22218 13.2072 6.89384 11.2597 6.88611 11.2612C6.8747 11.2648 6.3001 11.8068 4.35009 13.6582L4.35325 19.9133H0.0287079L0.00246376 10.2093C-0.0114362 4.87162 0.034886 0.457472 0.105932 0.401871C0.177338 0.344742 1.16147 0.298403 4.35325 0.298403V4.31405C4.35325 6.8887 4.40886 8.3297 4.5077 8.3297C4.59268 8.32964 4.81817 8.13041 5.00966 7.88642C5.20136 7.64375 6.88655 5.83345 12.1529 0.286035L14.7399 0.292219ZM97.9595 2.42056C98.687 3.58973 100.528 6.55204 104.822 13.4636L104.893 0.298403H108.915V19.9133L104.554 19.8361L103.297 17.8283C102.605 16.7239 100.789 13.808 96.4815 6.87331L96.4043 19.9133H92.3887V0.298403L96.636 0.296895L97.9595 2.42056ZM28.9876 3.90184C28.308 3.87868 27.44 3.94818 27.057 4.05629C26.6739 4.16442 26.0144 4.45473 25.5897 4.70183C25.165 4.94741 24.5503 5.39689 24.2229 5.69805C23.897 5.99923 23.375 6.76211 23.0645 7.39532C22.524 8.49808 22.5008 8.61245 22.5008 10.1786C22.5008 11.6983 22.5347 11.8806 22.9903 12.8119C23.3008 13.4451 23.7966 14.1108 24.3418 14.6236C24.8159 15.0699 25.5681 15.6073 26.0144 15.8189C26.4608 16.0305 27.2083 16.2654 27.6748 16.3426C28.1412 16.4198 28.8362 16.4522 29.2192 16.4152C29.6023 16.3781 30.2618 16.2515 30.6865 16.131C31.1112 16.0105 31.8372 15.6491 32.2975 15.3263C32.7871 14.985 33.4157 14.3363 33.8034 13.7741C34.1709 13.2429 34.5832 12.4088 34.7222 11.9208C34.8952 11.3061 34.954 10.6296 34.9123 9.71989C34.8613 8.64187 34.764 8.22788 34.364 7.40317C34.0659 6.78538 33.5762 6.11661 33.0928 5.66563C32.6619 5.26252 31.8387 4.70956 31.2657 4.43773C30.407 4.03 30.0038 3.93582 28.9876 3.90184ZM123.046 3.85704C122.537 3.86014 121.772 3.98061 121.348 4.12733C120.923 4.27406 120.263 4.57672 119.88 4.79912C119.497 5.02308 118.89 5.52662 118.529 5.91736C118.167 6.30966 117.698 6.97845 117.486 7.40317C117.273 7.82792 117.021 8.64496 116.926 9.21793C116.782 10.0797 116.794 10.4628 117 11.4188C117.167 12.1941 117.445 12.883 117.84 13.5039C118.164 14.0135 118.705 14.656 119.04 14.9293C119.374 15.2043 120.013 15.6043 120.459 15.8174C120.906 16.0321 121.74 16.2685 122.313 16.3426C122.906 16.4198 123.721 16.4213 124.205 16.3456C124.671 16.2715 125.471 16.0074 125.981 15.7587C126.517 15.4977 127.218 14.9742 127.641 14.5201C128.044 14.0893 128.6 13.266 128.877 12.693C129.34 11.7308 129.379 11.5315 129.379 10.1028C129.379 8.67421 129.34 8.47804 128.886 7.55445C128.616 7.00462 128.154 6.2757 127.861 5.93591C127.569 5.59613 126.956 5.09263 126.5 4.81616C126.044 4.5397 125.289 4.21069 124.823 4.08404C124.356 3.9574 123.556 3.8555 123.046 3.85704ZM78.1793 3.86775C77.7129 3.87548 77.0518 3.94807 76.712 4.02839C76.3722 4.11026 75.685 4.39913 75.1861 4.6694C74.6872 4.94124 73.9737 5.4942 73.603 5.8973C73.2323 6.30042 72.7041 7.10047 72.4308 7.67345C71.9814 8.61708 71.935 8.84882 71.9427 10.106C71.9504 11.1454 72.0369 11.7107 72.284 12.3455C72.4678 12.8119 72.8817 13.5425 73.2045 13.9672C73.5273 14.3919 74.1374 14.9835 74.5606 15.28C74.9838 15.5766 75.7452 15.9519 76.2534 16.1109C76.9546 16.3318 77.509 16.3874 78.5701 16.3426C79.7516 16.2932 80.1161 16.2098 80.964 15.7943C81.5694 15.4978 82.2521 14.9958 82.6969 14.5201C83.1 14.0893 83.656 13.266 83.9325 12.693C84.3958 11.7293 84.4345 11.5331 84.4329 10.106C84.4314 8.68667 84.3913 8.4796 83.9403 7.55761C83.6716 7.00472 83.2113 6.27572 82.9179 5.93591C82.6244 5.59613 82.0112 5.09263 81.5556 4.81616C81.1 4.5397 80.3446 4.21069 79.8782 4.08404C79.4118 3.9574 78.6457 3.86003 78.1793 3.86775Z" fill="white"/>
</svg>
