<svg width="215" height="17" viewBox="0 0 215 17" fill="none" xmlns="http://www.w3.org/2000/svg">
<path d="M90.534 8.22342C90.534 5.86342 90.534 3.50352 90.534 1.14352C90.534 0.568222 90.593 0.524122 91.17 0.566122C91.588 0.595522 92.014 0.635422 92.426 0.585022C93.003 0.513622 93.373 0.797122 93.652 1.21492C94.487 2.46002 95.287 3.72812 96.121 4.97532C96.816 6.01672 97.517 7.05602 98.174 8.12262C98.491 8.63492 98.672 8.60972 98.991 8.12892C99.858 6.82292 100.74 5.52752 101.611 4.22362C102.29 3.20952 102.966 2.19752 103.629 1.17502C103.896 0.763522 104.194 0.507422 104.74 0.582922C105.204 0.648022 105.683 0.599724 106.155 0.595524C106.476 0.593424 106.611 0.715223 106.611 1.06582C106.602 5.85502 106.604 10.6463 106.617 15.4355C106.617 15.8302 106.457 15.9625 106.086 15.9562C105.403 15.9436 104.721 15.9436 104.041 15.9562C103.692 15.9625 103.537 15.8344 103.537 15.4649C103.549 12.7375 103.549 10.0101 103.551 7.28282C103.551 7.12112 103.663 6.89432 103.436 6.82712C103.239 6.76842 103.142 6.97622 103.05 7.11692C101.895 8.85952 100.74 10.6001 99.596 12.347C99.356 12.7123 99.058 13.0294 98.855 13.422C98.664 13.7915 98.447 13.571 98.302 13.3632C97.855 12.7228 97.423 12.0719 96.988 11.4211C96.119 10.1193 95.302 8.78192 94.37 7.52002C94.246 7.35202 94.154 7.16312 94.059 6.97622C94.009 6.87542 93.952 6.78302 93.832 6.79772C93.673 6.81662 93.658 6.94892 93.662 7.07492C93.669 7.38982 93.69 7.70272 93.692 8.01762C93.692 10.4657 93.681 12.9118 93.7 15.3599C93.704 15.8281 93.587 16.0339 93.083 16.0045C92.438 15.9688 91.789 15.9835 91.143 16.0003C90.71 16.0129 90.525 15.8827 90.53 15.4019C90.553 13.0063 90.54 10.6127 90.54 8.21712L90.534 8.22342Z" fill="white"/>
<path d="M0.00426994 8.96112C0.00426994 6.60122 0.00426994 4.24122 0.00426994 1.88132C0.00426994 1.30602 0.0630707 1.26192 0.640371 1.30392C1.05827 1.33332 1.48447 1.37322 1.89597 1.32282C2.47337 1.25142 2.84287 1.53482 3.12217 1.95272C3.95777 3.19772 4.75777 4.46592 5.59127 5.71302C6.28627 6.75442 6.98757 7.79372 7.64467 8.86032C7.96177 9.37262 8.14227 9.34742 8.46147 8.86662C9.32857 7.56072 10.2104 6.26522 11.0818 4.96142C11.7599 3.94732 12.436 2.93532 13.0995 1.91282C13.3661 1.50122 13.6643 1.24512 14.2102 1.32072C14.6742 1.38582 15.1529 1.33752 15.6253 1.33332C15.9466 1.33122 16.0809 1.45302 16.0809 1.80362C16.0725 6.59282 16.0746 11.3841 16.0872 16.1732C16.0872 16.568 15.9277 16.7002 15.556 16.6939C14.8737 16.6813 14.1913 16.6813 13.511 16.6939C13.1625 16.7002 13.0071 16.5722 13.0071 16.2026C13.0197 13.4753 13.0197 10.7479 13.0218 8.02052C13.0218 7.85882 13.1331 7.63212 12.9063 7.56492C12.709 7.50612 12.6124 7.71402 12.52 7.85462C11.3652 9.59732 10.2104 11.3379 9.06617 13.0847C8.82677 13.4501 8.52867 13.7671 8.32497 14.1597C8.13387 14.5293 7.91767 14.3088 7.77277 14.1009C7.32557 13.4606 6.89307 12.8097 6.45837 12.1588C5.58917 10.8571 4.77247 9.51962 3.84017 8.25782C3.71637 8.08982 3.62397 7.90082 3.52947 7.71402C3.47907 7.61322 3.42237 7.52082 3.30267 7.53552C3.14317 7.55442 3.12847 7.68672 3.13267 7.81262C3.13897 8.12762 3.15997 8.44042 3.16207 8.75542C3.16207 11.2035 3.15157 13.6495 3.17047 16.0977C3.17467 16.5659 3.05707 16.7716 2.55317 16.7422C1.90857 16.7065 1.25977 16.7212 0.61317 16.738C0.18057 16.7506 -0.00413004 16.6205 6.99562e-05 16.1396C0.02317 13.744 0.0105699 11.3505 0.0105699 8.95482L0.00426994 8.96112Z" fill="white"/>
<path d="M130.057 8.24242C130.057 5.88243 130.07 3.52042 130.047 1.16042C130.043 0.671224 130.188 0.538924 130.677 0.545224C133.476 0.570424 136.274 0.541024 139.071 0.568324C140.28 0.580924 141.414 0.870724 142.348 1.72732C143.495 2.77922 144.335 5.04682 143.512 6.81042C142.991 7.92742 142.348 8.86382 141.187 9.36352C140.856 9.50632 140.797 9.69532 140.998 10.0165C141.958 11.5492 142.749 13.1785 143.728 14.7007C143.925 15.0052 144.066 15.3495 144.213 15.6833C144.322 15.929 144.219 16.0319 143.948 16.0256C143.232 16.013 142.514 16.0088 141.798 16.0214C141.523 16.0256 141.385 15.8744 141.263 15.6749C140.154 13.863 138.911 12.1329 137.855 10.2895C137.647 9.92623 137.383 9.74782 136.927 9.76042C135.808 9.79612 134.689 9.78772 133.57 9.76252C133.148 9.75412 133.035 9.89472 133.041 10.3105C133.068 12.0237 133.047 13.737 133.07 15.4503C133.077 15.8597 132.911 15.9626 132.541 15.9521C131.911 15.9332 131.279 15.9164 130.654 15.9563C130.194 15.9857 130.045 15.8492 130.049 15.3768C130.07 12.9979 130.059 10.6212 130.057 8.24242ZM136.262 3.50572C135.355 3.50572 134.446 3.52042 133.539 3.49942C133.171 3.49102 133.039 3.62112 133.045 3.98232C133.06 4.78432 133.051 5.58852 133.047 6.39052C133.047 6.68242 133.137 6.83772 133.469 6.83772C135.319 6.83352 137.171 6.86292 139.021 6.84192C140.01 6.83142 140.77 6.03362 140.751 5.11192C140.732 4.19852 139.923 3.47842 138.932 3.48262C138.042 3.48892 137.152 3.48262 136.262 3.48262V3.50572Z" fill="white"/>
<path d="M39.2263 8.76792C39.2263 6.38912 39.2368 4.01032 39.2179 1.63142C39.2137 1.17582 39.3543 1.01622 39.8163 1.01832C42.6675 1.03302 45.5209 0.972123 48.37 1.04352C50.6838 1.10232 52.5692 2.38102 52.9724 4.88162C53.2873 6.82792 52.3698 8.88762 50.4864 9.79682C50.0686 9.99832 50.0035 10.181 50.2492 10.5925C51.2633 12.2995 52.2438 14.0253 53.2369 15.7449C53.2621 15.7911 53.2852 15.8373 53.3083 15.8835C53.6065 16.5008 53.6065 16.4945 52.9346 16.4861C52.2522 16.4777 51.5698 16.4777 50.8875 16.4861C50.5473 16.4903 50.2597 16.4 50.0812 16.0976C49.4513 15.0352 48.8068 13.9771 48.2063 12.8979C47.8158 12.1987 47.3601 11.5373 47.02 10.8067C46.8289 10.3993 46.4804 10.2251 45.9933 10.2398C44.9456 10.2734 43.8937 10.2671 42.8439 10.2398C42.3778 10.2293 42.2413 10.3993 42.2476 10.8528C42.2728 12.5325 42.2476 14.2122 42.2728 15.8898C42.2791 16.3538 42.1237 16.5113 41.666 16.4882C41.055 16.4567 40.4398 16.4546 39.831 16.4924C39.3669 16.5218 39.2179 16.3643 39.2221 15.9003C39.2389 13.5214 39.2305 11.1426 39.2305 8.76372H39.2284L39.2263 8.76792ZM45.46 7.39272C45.46 7.39272 45.46 7.37382 45.46 7.36542C46.5245 7.36542 47.589 7.39902 48.6514 7.35282C49.2918 7.32552 49.8985 6.67042 49.9657 6.07422C50.1211 4.68842 49.4219 3.89272 47.9837 3.87802C46.2368 3.86122 44.49 3.89062 42.7431 3.88432C42.3043 3.88432 42.1615 4.07532 42.172 4.49112C42.1909 5.27632 42.193 6.06372 42.172 6.84892C42.1615 7.26882 42.3421 7.40322 42.7347 7.39692C43.6438 7.38432 44.5509 7.39272 45.46 7.39272Z" fill="white"/>
<path d="M210.806 12.0112C211.512 11.5135 211.449 10.1803 210.731 9.81502C208.608 8.12482 205.419 9.67642 202.962 8.70642C194.581 4.23632 205.769 -4.01718 213.141 2.28792C214.012 2.62182 212.117 4.71302 211.646 4.73392C209.952 3.15092 207.63 2.58402 205.331 2.98502C204.398 3.07952 203.426 3.64012 203.004 4.54292C202.618 7.46342 207.63 5.77112 209.398 6.36532C217.513 7.69442 214.199 16.4245 207.178 16.1285C204.398 16.666 194.98 12.4836 201.192 10.8039C203.317 13.4641 208.186 14.4173 210.806 12.0112Z" fill="white"/>
<path d="M67.5802 8.74692C67.5802 6.37022 67.5907 3.99132 67.5718 1.61462C67.5676 1.14642 67.7293 1.01622 68.1807 1.01832C71.87 1.03302 75.559 1.02672 79.248 1.02882C79.936 1.02882 79.945 1.04142 79.945 1.74272C79.945 2.26762 79.945 2.79252 79.945 3.31532C79.945 3.97032 79.909 4.00812 79.273 4.00812C76.615 4.00812 73.957 4.00812 71.301 4.00812C70.612 4.00812 70.599 4.02072 70.602 4.71362C70.604 5.20282 70.627 5.69412 70.595 6.18122C70.566 6.64102 70.738 6.80062 71.198 6.79432C72.649 6.77332 74.099 6.80482 75.55 6.77332C76.069 6.76282 76.228 6.94552 76.199 7.44102C76.165 8.01632 76.165 8.59582 76.199 9.17102C76.224 9.59942 76.052 9.72322 75.653 9.71902C74.186 9.70642 72.716 9.72952 71.248 9.70222C70.736 9.69172 70.574 9.87232 70.593 10.372C70.627 11.2265 70.627 12.0853 70.593 12.9419C70.574 13.429 70.749 13.5844 71.225 13.5823C74.11 13.5676 76.995 13.5739 79.88 13.5739C80.361 13.5739 80.602 13.8161 80.602 14.3004C80.602 14.7896 80.602 15.2788 80.602 15.768C80.602 16.444 80.602 16.4461 79.894 16.4461C76.501 16.4461 73.111 16.4461 69.7176 16.4461C69.1927 16.4461 68.6678 16.4252 68.145 16.4545C67.702 16.4818 67.5697 16.3097 67.5718 15.8793C67.5865 13.5025 67.5802 11.1237 67.5802 8.74692Z" fill="white"/>
<path d="M34.2593 16.6498C32.9051 17.0445 32.2773 16.2152 31.8343 15.1591C31.5571 14.4977 31.1897 13.8867 30.8937 13.238C30.7572 12.9356 30.5472 12.8285 30.2365 12.8285C28.1726 12.8306 26.1108 12.8327 24.0468 12.8222C23.6143 12.8201 23.5093 13.1414 23.3477 13.4248C22.8501 14.3024 22.533 15.2704 21.9997 16.1354C21.7835 16.486 21.5147 16.6603 21.1053 16.654C20.4061 16.6435 19.707 16.6309 19.0078 16.6498C18.5585 16.6624 18.5627 16.5154 18.7306 16.1648C19.4319 14.7119 20.1143 13.2485 20.7925 11.785C21.5084 10.2397 22.279 8.72172 22.9635 7.15962C23.4653 6.01532 24.0972 4.92562 24.5969 3.78142C24.9602 2.94992 25.3801 2.15002 25.7622 1.33112C25.9092 1.01622 26.1066 0.932223 26.4173 0.940623C26.8708 0.953223 27.3306 0.980523 27.7799 0.934323C28.2754 0.883923 28.5337 1.14222 28.7164 1.52852C29.4092 2.99192 30.0874 4.46162 30.7782 5.92512C31.6705 7.81262 32.5733 9.69592 33.4657 11.5856C34.2005 13.1393 34.9249 14.6951 35.6556 16.2509C35.7773 16.507 35.7269 16.654 35.412 16.6498C35.0278 16.6456 34.6435 16.6498 34.2572 16.6498H34.2593ZM27.1732 9.83032C27.1732 9.83032 27.1732 9.82822 27.1732 9.82612C27.7149 9.82612 28.2565 9.82612 28.7982 9.82612C29.1468 9.82612 29.2413 9.68332 29.0754 9.36842C28.5043 8.27872 27.929 7.19112 27.4608 6.05102C27.4041 5.91462 27.3348 5.79072 27.1648 5.80332C27.0052 5.81592 26.9443 5.93982 26.8813 6.07412C26.369 7.15752 25.8546 8.24092 25.3318 9.32012C25.1302 9.73582 25.1827 9.82822 25.653 9.83032C26.159 9.83242 26.6651 9.83032 27.1732 9.83032Z" fill="white"/>
<path d="M125.352 16.0066C125.142 16.0066 124.928 15.9793 124.725 16.0108C123.851 16.1473 123.41 15.6665 123.097 14.94C122.759 14.1589 122.274 13.4514 121.962 12.6535C121.831 12.3239 121.548 12.1475 121.128 12.1538C119.152 12.1769 117.177 12.1727 115.201 12.1601C114.779 12.158 114.556 12.2945 114.374 12.7039C113.96 13.6424 113.471 14.5474 112.996 15.4565C112.816 15.805 112.513 16.0045 112.106 16.0066C111.39 16.0087 110.672 16.0066 109.956 16.0087C109.557 16.0087 109.519 15.8407 109.681 15.5111C110.584 13.6739 111.489 11.8368 112.371 9.98912C113.185 8.28222 113.956 6.55422 114.777 4.84932C115.396 3.56652 116.097 2.32562 116.608 0.988222C116.723 0.683722 116.956 0.427623 117.378 0.503223C117.599 0.543123 117.832 0.509523 118.058 0.509523C119.541 0.509523 119.511 0.522124 120.122 1.87212C120.817 3.40692 121.579 4.91232 122.304 6.43662C123.055 8.01972 123.794 9.60702 124.546 11.1901C125.247 12.6661 125.947 14.1421 126.675 15.6035C126.835 15.9226 126.791 16.0129 126.457 16.0108C126.089 16.0108 125.722 16.0108 125.354 16.0108C125.354 16.0087 125.354 16.0066 125.354 16.0045L125.352 16.0066ZM118.224 9.23332C118.747 9.23332 119.27 9.23332 119.793 9.23332C120.15 9.23332 120.234 9.06112 120.076 8.76722C119.497 7.68172 118.911 6.60042 118.426 5.46872C118.304 5.18742 118.13 5.20212 117.958 5.42462C117.733 5.71652 117.624 6.06922 117.466 6.39882C117.109 7.15262 116.719 7.88952 116.364 8.64332C116.152 9.09472 116.261 9.23542 116.757 9.23332C117.246 9.23122 117.733 9.23332 118.222 9.23332H118.224Z" fill="white"/>
<path d="M153.69 0.551623C155.945 0.551623 158.2 0.562123 160.455 0.543223C160.902 0.539023 161.091 0.650323 161.062 1.12902C161.024 1.72112 161.026 2.31952 161.062 2.91152C161.091 3.40702 160.898 3.53302 160.423 3.52462C158.868 3.49732 157.312 3.52882 155.756 3.50572C155.273 3.49942 155.13 3.65272 155.134 4.14192C155.155 7.91702 155.145 11.6921 155.158 15.4671C155.158 15.8871 154.992 16.0256 154.597 16.0151C153.933 16.0004 153.268 15.9941 152.604 16.0151C152.166 16.0298 152.033 15.8535 152.035 15.4251C152.048 11.5976 152.038 7.77002 152.05 3.94452C152.05 3.49102 151.783 3.47842 151.471 3.47842C149.932 3.47842 148.395 3.45952 146.856 3.49102C146.352 3.50152 146.157 3.35672 146.186 2.84232C146.219 2.26702 146.219 1.68752 146.186 1.11222C146.159 0.660823 146.341 0.543223 146.765 0.545323C149.073 0.560023 151.38 0.551623 153.688 0.551623H153.69Z" fill="white"/>
<path d="M61.4145 8.71122C61.4145 11.1047 61.404 13.4983 61.4229 15.8918C61.4271 16.3243 61.32 16.486 60.8623 16.4566C60.2366 16.4146 59.6046 16.4293 58.9769 16.4545C58.6031 16.4692 58.4394 16.3642 58.4394 15.959C58.4478 11.1194 58.4457 6.27992 58.4394 1.43822C58.4394 1.00572 58.5653 0.804122 59.0566 0.846122C59.6466 0.896522 60.2471 0.894422 60.8371 0.846122C61.3578 0.804122 61.4166 1.08762 61.4166 1.47812C61.4145 2.98142 61.4166 4.48262 61.4166 5.98592C61.4166 6.89512 61.4166 7.80212 61.4166 8.71122H61.4145Z" fill="white"/>
<path d="M164.612 8.25282C164.612 5.89082 164.621 3.53082 164.604 1.16882C164.602 0.761524 164.715 0.612424 165.135 0.614524C168.879 0.625024 172.622 0.625024 176.366 0.614524C176.782 0.614524 176.925 0.763624 176.904 1.17302C176.876 1.69582 176.897 2.22282 176.897 2.74772C176.897 3.41542 176.878 3.43642 176.232 3.43432C173.574 3.43432 170.913 3.43433 168.255 3.43223C167.531 3.43223 167.522 3.44063 167.525 4.16073C167.525 4.72133 167.541 5.27982 167.518 5.84042C167.501 6.27502 167.68 6.42412 168.108 6.41782C169.595 6.39892 171.081 6.42412 172.568 6.39892C173.028 6.39052 173.194 6.52702 173.162 6.99522C173.124 7.55162 173.135 8.11432 173.162 8.67282C173.181 9.04862 173.03 9.15572 172.675 9.15362C171.172 9.14102 169.666 9.16622 168.163 9.13682C167.642 9.12632 167.497 9.31312 167.514 9.80652C167.546 10.7157 167.541 11.6248 167.514 12.5339C167.501 13.0105 167.667 13.1743 168.152 13.1722C171.004 13.1533 173.855 13.1638 176.706 13.1638C177.426 13.1638 177.435 13.1722 177.435 13.8987C177.435 14.3543 177.401 14.812 177.443 15.2613C177.487 15.761 177.326 15.9248 176.809 15.9206C174.063 15.8975 171.316 15.9101 168.57 15.9101C167.485 15.9101 166.401 15.9101 165.316 15.9101C164.845 15.9101 164.611 15.684 164.612 15.2319C164.612 12.9055 164.612 10.5792 164.612 8.25282Z" fill="white"/>
<path d="M195.004 8.28642C195.004 10.6485 194.995 13.0084 195.012 15.3684C195.014 15.782 194.867 15.8576 194.479 15.9269C193.347 16.1284 192.805 15.3495 192.201 14.665C191.403 13.7643 190.622 12.851 189.837 11.9397C188.936 10.8983 188.041 9.85062 187.139 8.81132C186.555 8.13952 185.961 7.47812 185.367 6.81672C185.278 6.71802 185.175 6.57322 185.018 6.65082C184.854 6.72852 184.858 6.89862 184.861 7.06242C184.873 9.82542 184.875 12.5885 184.898 15.3495C184.903 15.7652 184.764 15.908 184.352 15.887C183.777 15.8576 183.198 15.8513 182.622 15.887C182.154 15.9164 182.03 15.7463 182.032 15.2886C182.049 11.039 182.041 6.78942 182.041 2.53982C182.041 2.05062 182.045 1.55932 182.034 1.07012C182.03 0.856024 182.051 0.669123 182.314 0.658623C183.099 0.622923 183.79 0.599822 184.401 1.37042C185.711 3.02272 187.174 4.55132 188.562 6.14272C189.467 7.17992 190.351 8.23812 191.245 9.28582C191.325 9.37822 191.397 9.48532 191.493 9.55252C191.659 9.66592 191.796 9.92202 192.024 9.81702C192.272 9.70372 192.123 9.44332 192.123 9.24812C192.123 6.55432 192.125 3.86262 192.113 1.16882C192.113 0.767823 192.234 0.593523 192.654 0.612423C193.248 0.637623 193.845 0.637623 194.439 0.612423C194.88 0.593523 195.012 0.772023 195.008 1.20032C194.993 3.56022 194.999 5.92232 194.999 8.28222C195.004 8.28222 195.006 8.28222 195.01 8.28222L195.004 8.28642Z" fill="white"/>
</svg>
