<svg width="178" height="25" viewBox="0 0 178 25" fill="none" xmlns="http://www.w3.org/2000/svg">
<path d="M81.4803 0.210924C81.8358 0.210924 82.1793 0.290694 82.5274 0.343937C82.8728 0.397087 83.2172 0.467458 83.5569 0.552907C84.0782 0.68406 84.5855 0.855052 85.0965 1.02409C86.4127 1.45925 87.5585 2.17933 88.6308 3.0382C89.0311 3.35933 89.3485 3.76209 89.7041 4.12884C90.1937 4.63809 90.6023 5.21567 90.9337 5.83131C91.3134 6.53808 91.6765 7.25826 91.9008 8.03912C91.9836 8.32795 92.0786 8.61679 92.1931 8.89985C92.2824 9.1184 92.2824 9.36731 92.3206 9.59722C92.3643 9.85562 92.4556 10.0988 92.4891 10.3591C92.6818 11.7728 92.7097 13.1865 92.5291 14.602C92.5068 14.7787 92.476 14.9554 92.4472 15.1321C92.4193 15.1378 92.3792 15.1378 92.3867 15.1815C92.3885 15.1929 92.4211 15.1986 92.4397 15.2081C92.3029 15.6337 92.2862 16.084 92.1549 16.5134C92.0413 16.8916 91.912 17.2621 91.7863 17.6363C91.5908 18.2254 91.2902 18.7707 91.0053 19.3217C90.755 19.8025 90.4543 20.2452 90.109 20.665C89.3336 21.6113 88.4102 22.3808 87.3519 22.9888C86.9358 23.2282 86.5039 23.441 86.0459 23.593C86.0255 23.6102 86.0041 23.6273 85.9817 23.6463C85.8868 23.6386 85.8281 23.7432 85.7285 23.7242C85.7062 23.7355 85.6857 23.7488 85.6624 23.7603C85.547 23.7622 85.4474 23.8191 85.3413 23.8514C85.3208 23.8647 85.2976 23.88 85.2771 23.8933C85.1738 23.9161 85.0714 23.9275 84.969 23.9616C83.9907 24.2999 82.9686 24.4044 81.9438 24.4899C80.3307 24.6229 78.7157 24.6096 77.1008 24.6077C75.3033 24.6077 73.5059 24.6077 71.7067 24.6077C71.3837 24.6077 71.3911 24.6362 71.3911 24.2979C71.393 16.2873 71.3948 8.27667 71.3967 0.266029C71.3967 0.180487 71.4004 0.0950372 71.4023 0.00949483C74.0775 0.00949483 76.7536 0.00949483 79.4287 0.00949483C79.4343 0.0874045 79.4604 0.172947 79.5386 0.178625C79.7815 0.193797 80.031 0.266028 80.2646 0.134875C80.435 0.119703 80.6062 0.129197 80.7775 0.15768C80.7887 0.250762 80.7431 0.383777 80.905 0.385732C81.066 0.385732 81.0242 0.254579 81.0344 0.159635C81.1461 0.138691 81.2504 0.165313 81.3546 0.20329C81.3928 0.269844 81.4328 0.279339 81.4803 0.212785V0.210924ZM85.3944 21.9876C85.4995 21.9818 85.6205 22.0255 85.7062 21.9533C85.9231 21.7671 86.1409 21.5771 86.3028 21.3377C86.354 21.2597 86.3727 21.1781 86.2535 21.1363C86.3578 20.9843 86.4639 20.8304 86.5951 20.6993C86.7478 20.7107 86.7515 20.6099 86.7441 20.5017C86.8008 20.361 86.8846 20.2375 86.987 20.1254C87.0652 20.116 87.1769 20.1293 87.0624 20.0019C87.0857 19.886 87.1657 19.7986 87.215 19.6979C87.3444 19.4377 87.5166 19.2001 87.5948 18.9151C87.6116 18.8923 87.6293 18.8714 87.646 18.8486C87.6935 18.7422 87.7391 18.6377 87.7866 18.5313C87.8759 18.5142 87.9346 18.4838 87.8322 18.4002C88.0835 17.7104 88.3032 17.0113 88.4381 16.2893C88.5834 16.2417 88.5508 16.1467 88.5052 16.0479C88.5601 15.4114 88.6606 14.7824 88.6988 14.1441C88.8105 12.2953 88.6736 10.4693 88.2641 8.66621C88.0798 7.85863 87.7959 7.07963 87.4794 6.3158C86.9377 5.01237 86.1148 3.9046 85.0509 2.97927C84.1461 2.19459 83.1185 1.62456 81.9457 1.33768C81.6152 1.25595 81.2755 1.21602 80.9432 1.14761C80.2795 1.01087 79.6112 0.967122 78.9419 0.923466C78.0772 0.866407 77.2106 0.89489 76.3468 0.906339C76.3431 0.868362 76.3366 0.818935 76.2975 0.811302C76.2286 0.799946 76.2286 0.860729 76.2193 0.906339C75.8795 0.929144 75.537 0.951949 75.1972 0.974754C74.9422 0.991788 74.9403 0.991789 74.9403 1.25028C74.9422 8.7498 74.9459 16.2493 74.9496 23.7489C74.9496 23.7964 74.9254 23.8572 74.9822 23.878C75.0548 23.9047 75.0511 23.8363 75.0641 23.7926C75.1702 23.7698 75.2782 23.7698 75.3853 23.7926C75.3946 23.8382 75.3946 23.899 75.4625 23.8875C75.5044 23.88 75.5081 23.8324 75.5146 23.7945C76.734 23.7755 77.9543 23.7755 79.1737 23.7945C79.2938 23.9712 79.3887 23.9674 79.4948 23.785C79.5842 23.7413 79.6829 23.745 79.7778 23.7432C80.4201 23.7185 81.0586 23.6519 81.6897 23.5342C82.3282 23.4145 82.9547 23.2625 83.5625 23.0211C84.2225 22.7589 84.8135 22.3827 85.3962 21.9932L85.3944 21.9876Z" fill="white"/>
<path d="M21.9002 6.11251L21.9819 5.9054C22.1757 5.92057 22.1529 5.77806 22.1585 5.65836L22.1624 5.65082C22.284 5.63937 22.284 5.55011 22.284 5.45889C22.2802 5.36199 22.3353 5.30493 22.4151 5.26314C22.5329 5.25746 22.5405 5.17387 22.5443 5.08461C22.624 4.97058 22.6621 4.82425 22.7951 4.7483C22.9636 4.73555 23.0497 4.62916 23.0535 4.42903C23.1979 4.42521 23.2454 4.33409 23.2549 4.20675C23.4829 3.86663 23.7831 3.59678 24.1024 3.34407C24.2296 3.3422 24.3285 3.30041 24.3418 3.15408C24.4082 3.02107 24.5071 2.92613 24.6477 2.8767C24.6553 2.92985 24.6686 2.98495 24.7312 2.98877C24.7883 2.99259 24.8281 2.94698 24.8396 2.89569C24.8509 2.84626 24.8453 2.79311 24.8471 2.74182C24.8681 2.54607 25.0733 2.54989 25.1721 2.43782C25.3127 2.44536 25.4533 2.44917 25.4286 2.24207C25.7193 2.01597 25.9834 1.7519 26.3292 1.60557C26.3501 1.58463 26.371 1.56182 26.3919 1.54097C26.409 1.45925 26.4888 1.51621 26.5249 1.47824C26.5439 1.46306 26.5629 1.44789 26.5819 1.43076C26.6674 1.38134 26.751 1.33191 26.8366 1.28258C26.8574 1.26927 26.8802 1.25782 26.9012 1.24451C26.9258 1.23697 26.9505 1.22933 26.9753 1.21984C26.9942 1.20653 27.0114 1.19322 27.0304 1.17805C27.055 1.17041 27.0797 1.16287 27.1025 1.15524C27.1216 1.14193 27.1406 1.12862 27.1576 1.11531C27.1994 1.10581 27.2432 1.09828 27.2849 1.08878C27.3078 1.07352 27.3306 1.05834 27.3514 1.04317C27.817 0.849374 28.2711 0.632678 28.7632 0.512975C28.7841 0.495941 28.8069 0.478814 28.8278 0.461687C29.1774 0.387594 29.527 0.304006 29.8804 0.239407C30.2148 0.178625 30.5492 0.102576 30.8912 0.121565C31.1098 0.133014 31.3017 0.0361155 31.5107 0.00763244C31.5069 0.138692 31.581 0.18998 31.7045 0.18998C31.8375 0.18998 31.847 0.09876 31.847 0H33.388C33.5 0.224235 33.6672 0.258395 33.9693 0.119703C34.718 0.110208 35.4457 0.267889 36.1583 0.467457C37.7676 0.917695 39.1642 1.76325 40.441 2.82541C41.391 3.61586 42.2536 4.48227 42.9148 5.53484C43.2777 6.11251 43.5799 6.71671 43.825 7.35702C44.1138 8.11517 44.3532 8.88086 44.4786 9.68267C44.4216 9.73024 44.4368 9.76821 44.4919 9.80433C44.528 9.91072 44.5622 10.0171 44.5451 10.1311C44.4881 10.1768 44.4976 10.2166 44.5565 10.2508C44.5907 10.38 44.6306 10.5074 44.6097 10.6441C44.5451 10.7107 44.547 10.7715 44.6211 10.8284C44.6895 11.1001 44.6933 11.3795 44.6876 11.655C44.6781 12.3542 44.6876 13.0515 44.6097 13.7545C44.5394 14.3949 44.452 15.0257 44.3019 15.6489C44.0815 16.5685 43.768 17.4578 43.3215 18.2938C42.9909 18.9113 42.6033 19.4908 42.1738 20.0475C41.5506 20.857 40.7963 21.5258 40.0191 22.1719C39.527 22.5823 38.9894 22.9414 38.425 23.2567C37.9025 23.5494 37.3667 23.8078 36.7966 23.9939C35.6072 24.3835 34.3797 24.5564 33.1334 24.5887C32.17 24.6134 31.2105 24.583 30.2567 24.431C29.7113 24.3436 29.1622 24.279 28.6397 24.0946C28.425 24.0187 28.2254 23.897 28.007 23.8457C27.5357 23.7337 27.1481 23.443 26.7206 23.2434C26.2893 23.0421 25.915 22.7153 25.5255 22.4283C25.248 22.2231 24.9878 21.9951 24.7199 21.7766C24.7104 21.636 24.6172 21.5961 24.4956 21.5885C24.0378 21.1781 23.5874 20.7582 23.1941 20.2869C22.5006 19.4585 21.9211 18.5503 21.4784 17.5604C21.1211 16.7586 20.8533 15.9187 20.6918 15.0599C20.5834 14.4784 20.498 13.8837 20.4808 13.2852C20.4542 12.3162 20.4201 11.3453 20.5435 10.38C20.6062 10.3439 20.6139 10.3021 20.5531 10.2547C20.5701 10.1463 20.5891 10.0381 20.6062 9.93166C20.6708 9.8841 20.669 9.8195 20.65 9.75304C20.6613 9.59908 20.6708 9.44522 20.6823 9.29126C20.8076 9.27227 20.8248 9.20767 20.7602 9.10891C20.7602 9.0633 20.7602 9.01769 20.7602 8.97208C20.8323 8.95691 20.8912 8.9341 20.8171 8.85052L20.8228 8.71555C20.8931 8.70224 20.954 8.68325 20.8874 8.59584C20.8874 8.54837 20.8894 8.50276 20.8912 8.45529C20.9045 8.43816 20.9179 8.41917 20.9292 8.40205C20.935 8.35644 20.9425 8.31278 20.9482 8.26717C21.1553 8.1 21.1611 7.85864 21.1819 7.62305C21.1668 7.51665 21.2104 7.43492 21.2921 7.37032C21.4175 7.32285 21.3624 7.21264 21.3795 7.1271C21.4138 7.05869 21.4461 6.99037 21.4803 6.92195C21.733 6.70721 21.8204 6.40888 21.8945 6.10488L21.9002 6.11251ZM39.7912 5.64701C39.2914 4.3796 38.4782 3.34602 37.4369 2.47961C36.713 1.87728 35.8979 1.45925 34.9878 1.2217C33.806 0.912017 32.6051 0.845557 31.3928 0.976616C30.154 1.11149 29.0349 1.53334 28.0906 2.36559C26.8213 3.48471 25.8656 4.82044 25.3317 6.4355C25.0998 7.13855 24.8985 7.84914 24.773 8.58253C24.7332 8.82194 24.7502 9.07093 24.6533 9.30085C24.5887 9.354 24.5925 9.41673 24.6325 9.48319C24.6059 9.87274 24.5849 10.2622 24.5223 10.6479C24.4462 10.7087 24.4444 10.7696 24.5166 10.836C24.5203 10.8893 24.5261 10.9424 24.5241 10.9957C24.5185 12.3827 24.4539 13.7697 24.6553 15.1511C24.7199 15.5938 24.7427 16.0404 24.8396 16.4811C24.9099 16.7984 24.9991 17.1082 25.0657 17.4255C25.1797 17.9803 25.3868 18.5085 25.6299 19.0158C25.8542 19.4833 26.086 19.9488 26.3767 20.3838C26.8935 21.1572 27.532 21.8165 28.2331 22.4131C28.7461 22.8483 29.3674 23.1142 30.0001 23.3403C30.3231 23.4543 30.6576 23.5171 30.9919 23.5722C31.049 23.5817 31.0851 23.6197 31.1174 23.6634H31.1592C31.3149 23.5665 31.4479 23.6063 31.5696 23.726C31.6228 23.7222 31.6798 23.7317 31.714 23.6748C32.1814 23.6576 32.645 23.7545 33.1124 23.7109C33.3557 23.6881 33.5969 23.6501 33.842 23.6709C33.8896 23.7375 33.9294 23.7242 33.9655 23.6596C34.1365 23.5835 34.3285 23.6253 34.4976 23.5779C34.9517 23.4505 35.4096 23.3366 35.839 23.1295C36.6256 22.7532 37.3553 22.2991 37.9708 21.6721C38.1495 21.4897 38.3338 21.313 38.5143 21.1344C38.5485 21.2009 38.596 21.2199 38.6625 21.1743C38.7917 21.085 38.7917 20.9539 38.7765 20.819C38.9722 20.5263 39.1679 20.2338 39.3636 19.9393C39.6182 19.8366 39.6392 19.7986 39.5403 19.6125C39.5764 19.4244 39.681 19.2629 39.7437 19.0861C39.9906 18.3945 40.1977 17.6914 40.3308 16.9657C40.5246 15.9016 40.6081 14.8281 40.6329 13.7507C40.6538 12.7798 40.6386 11.8088 40.6367 10.836C40.6367 10.6328 40.6196 10.4313 40.612 10.228C40.5778 9.39579 40.4751 8.57118 40.3707 7.74656C40.3877 7.64585 40.4258 7.5375 40.2738 7.50334C40.251 7.06632 40.1293 6.65211 39.985 6.24171C39.9337 6.09538 39.8653 5.95669 39.8691 5.79706C39.8766 5.73059 39.8709 5.66981 39.795 5.64505L39.7912 5.64701Z" fill="white"/>
<path d="M134.517 13.3385C134.52 13.5721 134.526 13.8058 134.526 14.0396C134.526 17.2982 134.526 20.5586 134.526 23.8173C134.526 23.9123 134.518 24.0092 134.515 24.1041C134.365 24.1194 134.315 24.2106 134.338 24.3474C134.351 24.4291 134.403 24.5032 134.393 24.5925C133.334 24.5963 132.276 24.5982 131.218 24.6039C131.099 24.6039 131.035 24.5659 131.044 24.4404C131.047 24.3759 131.044 24.3132 131.044 24.2486C131.044 16.274 131.044 8.30133 131.044 0.326812C131.044 0.220419 131.049 0.114025 131.053 0.00763244H137.988C137.994 0.0855421 138.02 0.170992 138.1 0.17667C138.323 0.193797 138.554 0.266028 138.765 0.121565C138.934 0.131153 139.104 0.142508 139.272 0.152003C139.27 0.283155 139.308 0.383777 139.462 0.383777C139.613 0.383777 139.657 0.285016 139.668 0.15768C140.815 0.245084 141.921 0.511113 142.994 0.927189C143.737 1.21602 144.437 1.57132 145.052 2.07675C145.792 2.6829 146.306 3.43724 146.618 4.3473C146.95 5.31824 147.002 6.29681 146.797 7.29437C146.774 7.4083 146.736 7.51851 146.704 7.63068C146.62 7.64771 146.563 7.67433 146.654 7.75792C146.546 8.31464 146.259 8.78974 145.949 9.25328C145.862 9.38248 145.793 9.53067 145.662 9.62766C145.522 9.60858 145.497 9.69412 145.499 9.80619C144.943 10.4656 144.251 10.9614 143.518 11.4023C142.898 11.7747 142.235 12.0654 141.551 12.2839C141.005 12.4587 140.445 12.6031 139.872 12.6982C139.075 12.8292 138.275 12.9261 137.465 12.9281C137.431 12.8976 137.387 12.8862 137.374 12.9356C137.356 13.0002 137.416 13.0078 137.462 13.0192C137.899 13.4277 138.336 13.8325 138.769 14.2448C139.823 15.2442 140.874 16.2455 141.929 17.2449C143.16 18.4135 144.395 19.5782 145.628 20.7449C146.451 21.522 147.273 22.2991 148.094 23.0782C148.583 23.5399 149.067 24.0035 149.554 24.4671C149.483 24.4785 149.434 24.5127 149.417 24.5849C148.722 24.6191 148.028 24.5982 147.332 24.6001C147.262 24.6001 147.186 24.6153 147.131 24.5374C146.945 24.2695 146.647 24.1232 146.43 23.8875C146.042 23.4638 145.577 23.1162 145.186 22.702C144.781 22.2744 144.306 21.9286 143.909 21.5011C143.582 21.1477 143.186 20.8683 142.865 20.5188C142.438 20.0552 141.923 19.6846 141.5 19.2248C141.173 18.8695 140.794 18.5788 140.451 18.2482C140.299 18.1018 140.168 17.9328 140.013 17.7883C139.788 17.5775 139.529 17.3989 139.323 17.1708C138.923 16.7263 138.427 16.3823 138.022 15.9472C137.657 15.5558 137.221 15.2442 136.865 14.8528C136.498 14.4481 136.071 14.1175 135.677 13.7432C135.434 13.5113 135.204 13.2644 134.969 13.023C134.946 12.9679 134.9 12.9546 134.847 12.9527C134.654 12.9413 134.544 13.0059 134.517 13.1465C134.452 13.156 134.393 13.1732 134.403 13.2567C134.41 13.3213 134.463 13.3308 134.515 13.3385H134.517ZM136.321 1.0374C136.067 0.815119 135.757 0.777142 135.44 0.779004C135.243 0.779004 135.084 0.864545 134.973 1.02986C134.887 1.03368 134.801 1.04689 134.718 1.04317C134.587 1.03554 134.513 1.07547 134.524 1.21984C134.528 1.26163 134.524 1.30538 134.524 1.34718C134.524 4.67607 134.524 8.00682 134.53 11.3358C134.53 11.5904 134.511 11.8488 134.558 12.1015C134.518 12.1205 134.478 12.1452 134.488 12.1946C134.494 12.2269 134.531 12.2402 134.564 12.2364C134.635 12.2307 134.642 12.1737 134.651 12.1223C134.737 12.0996 134.823 12.0996 134.908 12.1223C134.918 12.187 134.934 12.2459 135.018 12.2364C135.082 12.2288 135.093 12.1756 135.1 12.1243C135.849 12.1034 136.599 12.1072 137.348 12.1243C137.507 12.3105 137.635 12.2991 137.798 12.0901C138.83 11.9286 139.818 11.6303 140.741 11.1306C140.772 11.1933 140.799 11.2749 140.887 11.2484C140.962 11.2275 140.939 11.1495 140.941 11.0926C140.941 11.0621 140.937 11.0318 140.935 11.0014C140.943 10.9691 140.965 10.9576 140.996 10.9596C141.372 11.045 141.463 10.9709 141.391 10.6366C141.419 10.5777 141.465 10.5377 141.526 10.5169C141.801 10.4618 141.857 10.4047 141.908 10.1311C142.014 9.981 142.12 9.83281 142.229 9.68267C142.525 9.6257 142.602 9.48515 142.472 9.22862C142.503 9.12409 142.533 9.01769 142.563 8.91316C142.58 8.89036 142.596 8.86755 142.613 8.8467C142.786 8.4135 142.852 7.95553 142.941 7.50334C143 7.46723 143.008 7.42739 142.951 7.38178C142.938 7.18602 142.958 6.99223 142.994 6.80029C143.093 6.78326 143.272 6.8459 143.23 6.65778C143.188 6.46976 143.193 6.28536 143.193 6.0992C143.193 5.94534 143.124 5.89209 142.983 5.90354C142.947 5.62988 142.921 5.35436 142.875 5.08265C142.715 4.12316 142.379 3.23767 141.756 2.47766C141.436 2.09006 141.043 1.80886 140.557 1.66449C140.534 1.64737 140.513 1.63024 140.491 1.61311C140.369 1.57132 140.251 1.52385 140.128 1.48773C139.679 1.35472 139.215 1.28825 138.761 1.1894C138.761 1.06597 138.697 1.01459 138.582 1.04689C138.514 1.06598 138.454 1.11159 138.391 1.14389C138.136 1.13057 137.881 1.11531 137.627 1.102C137.192 1.08115 136.757 1.0602 136.321 1.03935V1.0374Z" fill="white"/>
<path d="M114.501 18.1456C114.424 18.0772 114.437 17.9803 114.422 17.891C114.404 17.8682 114.388 17.8473 114.373 17.8246C114.262 17.5433 114.152 17.264 114.039 16.9828C114.025 16.8878 114.081 16.7604 113.922 16.7339C113.811 16.4526 113.7 16.1696 113.59 15.8884C113.574 15.8712 113.559 15.8561 113.544 15.8389C113.517 15.6508 113.419 15.5843 113.219 15.5843C110.373 15.592 107.526 15.59 104.682 15.59C104.428 15.59 104.364 15.6243 104.291 15.8617C104.063 16.5894 103.742 17.281 103.481 17.9974C103.297 18.5067 103.111 19.0158 102.917 19.5213C102.733 20.0001 102.533 20.4713 102.35 20.9502C102.149 21.4764 101.963 22.0084 101.76 22.5328C101.565 23.0383 101.359 23.538 101.158 24.0396C101.153 24.0491 101.144 24.0567 101.142 24.0681C101.11 24.2543 101.078 24.4709 100.921 24.5697C100.775 24.6628 100.567 24.5964 100.386 24.6001C100.162 24.6059 99.9375 24.6001 99.6983 24.6001C99.7094 24.336 99.8351 24.1289 99.9207 23.9104C99.9375 23.8876 99.9542 23.8667 99.9701 23.8439C99.9757 23.8021 99.9831 23.7584 99.9887 23.7165C100.004 23.6976 100.021 23.6805 100.036 23.6615C100.105 23.4886 100.171 23.3138 100.24 23.1408C100.399 23.1143 100.342 22.9851 100.357 22.8901C100.386 22.8008 100.412 22.7134 100.441 22.624C100.456 22.6069 100.472 22.5899 100.487 22.5728C100.511 22.5063 100.536 22.4379 100.561 22.3713C100.638 22.3562 100.709 22.339 100.622 22.2459C100.598 22.1642 100.662 22.1129 100.691 22.0503C100.819 22.037 100.806 21.9419 100.806 21.8545C100.839 21.6512 100.923 21.465 101.011 21.2807C101.089 21.2655 101.16 21.2484 101.07 21.1553C101.047 21.0736 101.109 21.0223 101.14 20.9596C101.266 20.9463 101.255 20.8532 101.255 20.7658C101.298 20.5644 101.366 20.3725 101.461 20.1882C101.479 20.1672 101.496 20.1445 101.511 20.1236C101.516 20.0818 101.524 20.038 101.53 19.9962C101.545 19.9773 101.562 19.9601 101.578 19.9411C101.613 19.755 101.72 19.5973 101.781 19.4205C101.941 19.3939 101.883 19.2647 101.899 19.1698C101.927 19.0804 101.954 18.993 101.982 18.9037C101.997 18.8866 102.012 18.8696 102.027 18.8525C102.052 18.7859 102.077 18.7176 102.102 18.651C102.18 18.6359 102.25 18.6187 102.162 18.5256C102.14 18.4439 102.202 18.3926 102.233 18.3299C102.36 18.3166 102.346 18.2216 102.346 18.1342C102.379 17.9309 102.465 17.7447 102.552 17.5604C102.63 17.5452 102.7 17.5281 102.611 17.435C102.588 17.3533 102.651 17.302 102.682 17.2393C102.806 17.2259 102.795 17.1329 102.795 17.0455C102.839 16.8441 102.908 16.6522 103.003 16.4679C103.019 16.4469 103.036 16.4241 103.052 16.4033C103.058 16.3615 103.065 16.3177 103.071 16.2759C103.086 16.257 103.103 16.2398 103.118 16.2208C103.154 16.0347 103.255 15.875 103.322 15.7002C103.481 15.6736 103.424 15.5464 103.439 15.4513C103.452 15.4285 103.466 15.4039 103.479 15.3811C103.609 15.3354 103.552 15.2214 103.569 15.134C103.593 15.0656 103.618 14.9991 103.643 14.9307C103.66 14.9079 103.677 14.8851 103.694 14.8623C103.7 14.8205 103.707 14.7787 103.713 14.7369C103.728 14.7179 103.745 14.699 103.76 14.6818C103.812 14.4804 103.943 14.3056 103.974 14.0966C103.988 14.0795 104.003 14.0624 104.019 14.0472C104.043 13.9788 104.068 13.9123 104.093 13.8439C104.253 13.8173 104.196 13.6899 104.211 13.595C104.224 13.5722 104.237 13.5474 104.253 13.5246C104.357 13.4943 104.335 13.4069 104.338 13.3308C104.38 13.1788 104.386 13.0155 104.485 12.8825C104.499 12.8635 104.517 12.8445 104.532 12.8274C104.545 12.8045 104.556 12.7799 104.57 12.7571C104.651 12.7343 104.66 12.6753 104.649 12.6051C104.667 12.3808 104.821 12.2022 104.862 11.9856C104.879 11.9628 104.897 11.942 104.912 11.9192C105.131 11.3016 105.41 10.7088 105.647 10.1008C105.807 9.69226 105.972 9.2799 106.166 8.88282C106.261 8.6852 106.326 8.47428 106.403 8.26913C106.421 8.24632 106.437 8.22538 106.453 8.20257C106.671 7.58507 106.95 6.99223 107.189 6.38422C107.348 5.97568 107.513 5.56342 107.707 5.16633C107.802 4.96872 107.866 4.75779 107.944 4.55255C107.961 4.52974 107.979 4.50889 107.994 4.48609C108.081 4.2505 108.203 4.02813 108.264 3.78304C108.28 3.76024 108.298 3.73743 108.315 3.71462C108.442 3.37264 108.614 3.04583 108.714 2.6924C108.731 2.66959 108.748 2.64679 108.765 2.62593C109.005 2.02928 109.246 1.43076 109.485 0.834201C109.503 0.811396 109.519 0.790452 109.535 0.767647C109.618 0.511113 109.782 0.283155 109.793 0.00195471H110.627C110.601 0.0779096 110.625 0.146325 110.654 0.216602C110.897 0.790453 111.136 1.36617 111.378 1.94002C111.642 2.56516 111.906 3.19215 112.174 3.81534C112.459 4.47845 112.751 5.13775 113.035 5.80283C113.348 6.54004 113.654 7.28106 113.966 8.01827C114.222 8.62628 114.488 9.23057 114.743 9.83858C115.17 10.855 115.605 11.8678 116.03 12.8863C116.449 13.899 116.895 14.9003 117.32 15.913C117.672 16.7624 118.048 17.6022 118.402 18.4516C118.788 19.3769 119.216 20.2851 119.595 21.2123C119.858 21.8527 120.156 22.4797 120.395 23.1313C120.572 23.6102 120.804 24.0681 121.008 24.5279C120.981 24.5641 120.964 24.5887 120.926 24.5887C119.676 24.5982 118.424 24.6134 117.173 24.583C117.165 24.5659 117.154 24.5546 117.135 24.5508C117.127 24.5298 117.118 24.509 117.11 24.4862C117.093 24.4652 117.078 24.4424 117.061 24.4216C117.013 24.2904 116.968 24.1593 116.92 24.0282C116.905 24.0092 116.89 23.9921 116.875 23.9731C116.867 23.9313 116.862 23.8876 116.854 23.8458C116.837 23.8249 116.822 23.8021 116.804 23.7812C116.729 23.7128 116.738 23.6159 116.725 23.5266C116.707 23.5038 116.69 23.4829 116.676 23.4601C116.565 23.1789 116.455 22.8996 116.344 22.6184C116.329 22.5233 116.384 22.3961 116.227 22.3695C116.196 22.3067 116.134 22.2554 116.16 22.1737C116.245 22.0788 116.174 22.0635 116.097 22.0503C115.988 21.7709 115.877 21.4897 115.765 21.2104C115.75 21.1914 115.734 21.1743 115.718 21.1553C115.71 21.1135 115.705 21.0699 115.696 21.028L115.647 20.9634C115.57 20.895 115.583 20.7981 115.568 20.7088C115.55 20.686 115.533 20.6651 115.518 20.6423C115.408 20.3611 115.298 20.0818 115.185 19.8006C115.17 19.7056 115.227 19.5782 115.068 19.5517C115.062 19.5099 115.059 19.47 115.052 19.4282C115.052 19.3408 115.066 19.2457 114.939 19.2306C114.829 18.9512 114.718 18.67 114.606 18.3908C114.59 18.3717 114.576 18.3547 114.559 18.3357C114.55 18.2938 114.545 18.2501 114.537 18.2083C114.521 18.1874 114.505 18.1646 114.488 18.1437L114.501 18.1456ZM113.137 14.6894C113.12 14.6666 113.103 14.6438 113.088 14.621C113.069 14.4842 112.993 14.3664 112.946 14.2391C112.928 14.2163 112.911 14.1954 112.895 14.1726C112.805 13.9388 112.714 13.7033 112.625 13.4695C112.607 13.4487 112.59 13.4259 112.575 13.4049C112.479 13.1598 112.398 12.9109 112.288 12.6734C112.047 12.1528 111.842 11.617 111.61 11.0926C111.386 10.5891 111.182 10.076 110.968 9.56688C110.643 8.79727 110.318 8.0259 110.006 7.25258C109.678 6.43746 109.309 5.63937 109.006 4.8129C108.972 4.71982 108.959 4.60384 108.807 4.54305C108.667 5.01237 108.428 5.43608 108.313 5.90736C108.296 5.93016 108.279 5.95101 108.262 5.97382C107.961 6.70721 107.661 7.4407 107.361 8.17409C107.063 8.90181 106.768 9.62766 106.468 10.3554C106.167 11.0831 105.848 11.8032 105.571 12.5385C105.293 13.2739 104.935 13.9788 104.699 14.7616C104.853 14.7616 104.959 14.7616 105.065 14.7616C106.242 14.7616 107.416 14.7616 108.592 14.7616C110.002 14.7616 111.414 14.7635 112.824 14.7578C112.926 14.7578 113.059 14.83 113.139 14.6932L113.137 14.6894Z" fill="white"/>
<path d="M177.992 0.00763244C177.992 0.231867 177.992 0.456009 178 0.680244C178.004 0.799947 177.96 0.860729 177.834 0.851234C177.761 0.845556 177.684 0.851234 177.61 0.851234C174.443 0.851234 171.277 0.851234 168.11 0.851234C168.066 0.851234 168.022 0.856912 167.982 0.851234C167.8 0.82089 167.76 0.917789 167.774 1.07165C167.779 1.14575 167.774 1.22179 167.774 1.29589C167.774 8.92079 167.774 16.5438 167.774 24.1688C167.774 24.6761 167.805 24.5982 167.35 24.6001C166.377 24.6059 165.402 24.6039 164.429 24.6039C164.185 24.6039 164.185 24.6001 164.179 24.3607C164.179 24.3075 164.179 24.2543 164.179 24.2011C164.179 16.5666 164.179 8.93224 164.179 1.29589C164.179 1.27494 164.179 1.25409 164.179 1.23129C164.175 0.790452 164.214 0.853189 163.805 0.853189C160.82 0.853189 157.835 0.853189 154.849 0.853189C154.625 0.853189 154.399 0.853189 154.175 0.862684C154.063 0.8665 154.027 0.820889 154.03 0.712542C154.038 0.478813 154.04 0.243223 154.041 0.00763244C162.026 0.00763244 170.008 0.00763244 177.992 0.00763244Z" fill="white"/>
<path d="M59.7797 0.00763244C59.7797 7.96316 59.7816 15.9187 59.7835 23.8762C59.7835 24.0586 59.7873 24.2391 59.7893 24.4216C59.7893 24.5469 59.7417 24.6115 59.5992 24.6096C58.5181 24.6039 57.437 24.6059 56.3577 24.6059C56.2913 24.6059 56.2304 24.5944 56.1905 24.5336V24.5013C56.1924 24.374 56.1981 24.2448 56.1981 24.1175C56.1981 16.4849 56.1981 8.85238 56.1962 1.22179C56.1962 0.817073 56.2418 0.412353 56.1886 0.00763244H59.7835H59.7797Z" fill="white"/>
<path d="M6.75999 20.0076C6.74286 19.8727 6.78652 19.7454 6.81314 19.6162C6.87206 19.5801 6.87969 19.5402 6.82263 19.4965C6.86443 18.8695 6.89868 18.2405 6.94811 17.6155C6.98413 17.1575 6.98608 16.6977 6.98608 16.2398C6.98794 10.9576 6.98609 5.67549 6.98795 0.393272C6.98795 0.266029 6.99363 0.136831 6.99744 0.00949483H9.82285C9.81903 0.148187 9.81336 0.286878 9.81336 0.42557C9.81336 5.63369 9.81717 10.8417 9.80954 16.0498C9.80954 17.0949 9.73926 18.138 9.62142 19.1792C9.49604 20.2813 9.04571 21.2369 8.38259 22.1167C7.88097 22.7836 7.26161 23.3005 6.55093 23.7222C6.53008 23.7394 6.50913 23.7545 6.48828 23.7717C6.33814 23.8401 6.188 23.9103 6.03795 23.9788C6.01701 23.9959 5.99616 24.0149 5.97335 24.032C5.82517 24.0795 5.67502 24.1251 5.52684 24.1726C5.50403 24.1859 5.48309 24.1992 5.46028 24.2125C5.41663 24.22 5.37483 24.2277 5.33108 24.2353C5.31023 24.2486 5.28929 24.2619 5.26844 24.2751C4.91687 24.3379 4.57303 24.4404 4.21959 24.4937C3.30562 24.6305 2.3936 24.64 1.47777 24.5317C1.46064 24.4538 1.43598 24.3968 1.35239 24.4804C1.30864 24.4766 1.26499 24.4727 1.22124 24.4689C1.13383 24.3207 1.00659 24.2904 0.850769 24.3474C0.780493 24.3683 0.767182 24.2751 0.706399 24.2751C0.687318 24.2619 0.66833 24.2467 0.647479 24.2333C0.624674 24.2277 0.601868 24.22 0.580925 24.2144C0.571431 24.1118 0.484026 24.0871 0.411887 24.0548C0.288368 24.0016 0.248436 23.9085 0.25793 23.785C0.356783 23.7868 0.449865 23.785 0.44791 23.6481C0.485981 23.612 0.527776 23.5797 0.563892 23.5417C0.704446 23.3954 0.846953 23.4087 1.0199 23.4981C1.69056 23.8439 2.4031 24.0034 3.15939 23.9065C3.37022 23.88 3.57733 23.8211 3.78639 23.7773C3.93839 23.9027 3.99536 23.7945 4.04665 23.6729C4.34684 23.5113 4.65093 23.3631 4.93214 23.1675C5.46792 22.795 5.90875 22.3352 6.2203 21.7633C6.41605 21.4023 6.56992 21.0223 6.62502 20.6081C6.62697 20.5928 6.6536 20.5796 6.67063 20.5663C6.70107 20.513 6.78279 20.4694 6.69921 20.3953C6.6859 20.3021 6.72006 20.2167 6.74854 20.1311C6.80746 20.097 6.81695 20.057 6.76185 20.0096L6.75999 20.0076Z" fill="white"/>
<path d="M80.2646 0.133015C80.031 0.264167 79.7815 0.191935 79.5386 0.176762C79.4604 0.170991 79.4343 0.0855421 79.4287 0.00763244H80.2627C80.3288 0.0494263 80.2721 0.0912208 80.2627 0.133015H80.2646Z" fill="white"/>
<path d="M138.766 0.12352C138.555 0.266028 138.325 0.193797 138.101 0.178625C138.021 0.172854 137.994 0.0874045 137.988 0.00949483H138.76C138.833 0.0436559 138.806 0.0835884 138.766 0.125382V0.12352Z" fill="white"/>
<path d="M33.9713 0.127337C33.6692 0.266029 33.502 0.231774 33.3899 0.00763244H33.9675C34.0397 0.0456099 34.0074 0.0855431 33.9713 0.127337Z" fill="white"/>
<path d="M0.256534 23.7831C0.24704 23.9065 0.286879 23.9997 0.410399 24.0529C0.482631 24.0833 0.570035 24.1099 0.579529 24.2125C0.427526 24.2315 0.32681 24.1136 0.197612 24.07C0.131059 24.0472 0.076048 23.9977 0 24.0395V23.8477C0.110209 23.9218 0.167176 23.7888 0.256534 23.7831Z" fill="white"/>
<path d="M31.8496 0.00763244C31.8496 0.106392 31.8401 0.197612 31.7071 0.197612C31.5836 0.197612 31.5114 0.146324 31.5133 0.0152649L31.5285 0.00763244H31.8496Z" fill="white"/>
<path d="M21.9002 6.11251C21.8261 6.41838 21.7387 6.71475 21.4859 6.92949C21.5449 6.61785 21.6835 6.34428 21.9002 6.11251Z" fill="white"/>
<path d="M139.668 0.161497C139.657 0.288741 139.613 0.389456 139.463 0.387594C139.311 0.387594 139.271 0.286879 139.273 0.15582C139.404 0.133015 139.537 0.127243 139.668 0.161497Z" fill="white"/>
<path d="M134.393 24.5925C134.403 24.5051 134.351 24.4291 134.338 24.3474C134.315 24.2106 134.365 24.1194 134.515 24.1041C134.545 24.2391 134.534 24.3758 134.526 24.5127C134.52 24.5963 134.465 24.6115 134.393 24.5925Z" fill="white"/>
<path d="M81.0344 0.157681C81.0232 0.252717 81.067 0.385732 80.905 0.383778C80.744 0.383778 80.7896 0.248902 80.7784 0.15582C80.8631 0.136831 80.9488 0.134876 81.0363 0.159543L81.0344 0.157681Z" fill="white"/>
<path d="M21.1896 7.63068C21.1686 7.86627 21.1611 8.10568 20.9558 8.27481C21.0281 8.0582 21.0509 7.82261 21.1896 7.63068Z" fill="white"/>
<path d="M23.0518 4.42903C23.0479 4.62916 22.9617 4.73555 22.7934 4.7483C22.837 4.60765 22.9396 4.51457 23.0518 4.42903Z" fill="white"/>
<path d="M0.84928 24.3455C1.0051 24.2884 1.13243 24.3189 1.21984 24.4671C1.0925 24.4386 0.96526 24.4081 0.84928 24.3455Z" fill="white"/>
<path d="M22.1568 5.6565C22.1511 5.7762 22.1758 5.91685 21.9801 5.90354C22.0257 5.81232 22.0504 5.70593 22.1568 5.6565Z" fill="white"/>
<path d="M25.426 2.24588C25.4488 2.45485 25.3101 2.44917 25.1695 2.44154C25.2151 2.32379 25.3557 2.32947 25.426 2.24588Z" fill="white"/>
<path d="M24.8431 2.74555C24.8413 2.79693 24.8469 2.85008 24.8356 2.89951C24.8241 2.95079 24.7843 2.9964 24.7272 2.99259C24.6665 2.98877 24.6531 2.9318 24.6436 2.88052C24.7101 2.83677 24.7767 2.79116 24.8431 2.7475V2.74555Z" fill="white"/>
<path d="M24.4972 21.598C24.6189 21.6056 24.7138 21.6456 24.7215 21.7861C24.6189 21.7558 24.5295 21.7082 24.4972 21.598Z" fill="white"/>
<path d="M24.338 3.15604C24.3247 3.30227 24.2278 3.34406 24.0986 3.34602C24.1347 3.22818 24.2354 3.1902 24.338 3.15604Z" fill="white"/>
<path d="M23.2535 4.20861C23.244 4.33399 23.1961 4.42717 23.0518 4.42903C23.0936 4.33213 23.1451 4.24473 23.2535 4.20861Z" fill="white"/>
<path d="M149.419 24.5868C149.436 24.5146 149.485 24.4804 149.556 24.469C149.607 24.4842 149.664 24.507 149.651 24.5697C149.64 24.6172 149.58 24.602 149.543 24.602C149.501 24.602 149.461 24.5925 149.419 24.5868Z" fill="white"/>
<path d="M44.622 10.836C44.5479 10.7791 44.5441 10.7182 44.6107 10.6517C44.6392 10.7125 44.643 10.7733 44.622 10.836Z" fill="white"/>
<path d="M101.904 19.1755C101.889 19.2705 101.946 19.3977 101.786 19.4262C101.781 19.3218 101.819 19.2381 101.904 19.1755Z" fill="white"/>
<path d="M103.445 15.459C103.43 15.5539 103.487 15.6812 103.327 15.7079C103.321 15.6033 103.359 15.5197 103.445 15.459Z" fill="white"/>
<path d="M113.924 16.7338C114.081 16.7623 114.026 16.8896 114.041 16.9827C113.956 16.9201 113.918 16.8383 113.924 16.7338Z" fill="white"/>
<path d="M100.363 22.8939C100.347 22.9888 100.405 23.1162 100.245 23.1447C100.239 23.0401 100.277 22.9565 100.363 22.8939Z" fill="white"/>
<path d="M116.236 22.3732C116.393 22.3998 116.339 22.5271 116.353 22.6221C116.269 22.5613 116.231 22.4777 116.236 22.3732Z" fill="white"/>
<path d="M103.574 15.1416C103.557 15.229 103.613 15.343 103.485 15.3886C103.445 15.2802 103.496 15.2062 103.574 15.1416Z" fill="white"/>
<path d="M21.3848 7.13474C21.3677 7.22028 21.4228 7.33235 21.2974 7.37796C21.2537 7.26961 21.3051 7.19747 21.3848 7.13474Z" fill="white"/>
<path d="M134.517 13.3385C134.465 13.329 134.412 13.3213 134.405 13.2567C134.396 13.1731 134.454 13.156 134.519 13.1465C134.538 13.2111 134.538 13.2757 134.519 13.3384L134.517 13.3385Z" fill="white"/>
<path d="M115.079 19.5536C115.237 19.582 115.182 19.7094 115.197 19.8025C115.112 19.7398 115.074 19.6581 115.079 19.5536Z" fill="white"/>
<path d="M20.7658 9.11841C20.8304 9.21717 20.8133 9.28186 20.6879 9.30085C20.6879 9.22862 20.6404 9.1374 20.7658 9.11841Z" fill="white"/>
<path d="M104.216 13.6007C104.202 13.6956 104.258 13.823 104.099 13.8496C104.094 13.745 104.131 13.6615 104.216 13.6007Z" fill="white"/>
<path d="M145.501 9.80814C145.499 9.69598 145.523 9.61053 145.664 9.62952C145.629 9.70547 145.579 9.76821 145.501 9.80814Z" fill="white"/>
<path d="M101.26 20.7696C101.26 20.857 101.271 20.9501 101.146 20.9634C101.115 20.8588 101.191 20.817 101.26 20.7696Z" fill="white"/>
<path d="M104.342 13.3365C104.34 13.4126 104.364 13.5 104.257 13.5304C104.192 13.4259 104.272 13.3821 104.342 13.3365Z" fill="white"/>
<path d="M114.95 19.2343C115.077 19.2476 115.065 19.3426 115.063 19.4319C114.995 19.3825 114.917 19.3407 114.95 19.2343Z" fill="white"/>
<path d="M100.81 21.8584C100.81 21.9457 100.824 22.0407 100.696 22.054C100.664 21.9495 100.742 21.9058 100.81 21.8584Z" fill="white"/>
<path d="M22.2823 5.45879C22.2823 5.54815 22.2823 5.63742 22.1607 5.65073C22.1493 5.55383 22.2063 5.50068 22.2823 5.45879Z" fill="white"/>
<path d="M22.543 5.08647C22.5411 5.17573 22.5335 5.25941 22.4138 5.26509C22.4119 5.17387 22.4651 5.12072 22.543 5.08647Z" fill="white"/>
<path d="M102.35 18.1418C102.35 18.2292 102.364 18.3242 102.237 18.3375C102.204 18.233 102.282 18.1892 102.35 18.1418Z" fill="white"/>
<path d="M102.802 17.0531C102.802 17.1405 102.813 17.2336 102.688 17.2469C102.657 17.1424 102.734 17.1006 102.802 17.0531Z" fill="white"/>
<path d="M102.169 18.5313C102.258 18.6244 102.185 18.6415 102.107 18.6567C102.094 18.5997 102.089 18.5446 102.169 18.5313Z" fill="white"/>
<path d="M137.463 13.0211C137.418 13.0097 137.357 13.0021 137.376 12.9375C137.39 12.89 137.434 12.8995 137.467 12.9299L137.463 13.0211Z" fill="white"/>
<path d="M20.5573 10.2642C20.618 10.3116 20.6085 10.3516 20.5477 10.3895C20.4603 10.3401 20.4622 10.2983 20.5573 10.2642Z" fill="white"/>
<path d="M44.5568 10.2603C44.4979 10.2262 44.4884 10.1862 44.5454 10.1406C44.5719 10.1787 44.5758 10.2185 44.5568 10.2603Z" fill="white"/>
<path d="M146.656 7.76174C146.563 7.67815 146.622 7.65153 146.706 7.6344C146.718 7.68764 146.702 7.73139 146.656 7.76174Z" fill="white"/>
<path d="M81.4803 0.210924C81.4347 0.27934 81.3928 0.26789 81.3546 0.20143C81.3984 0.184303 81.4384 0.188119 81.4803 0.210924Z" fill="white"/>
<path d="M20.8931 8.60348C20.9615 8.69088 20.8988 8.70987 20.8285 8.72318C20.7999 8.65672 20.8037 8.60729 20.8931 8.60348Z" fill="white"/>
<path d="M20.8224 8.85815C20.8984 8.94174 20.8395 8.96454 20.7654 8.97971C20.735 8.91698 20.735 8.86764 20.8224 8.85815Z" fill="white"/>
<path d="M1.35192 24.4785C1.43356 24.3949 1.46018 24.4519 1.4773 24.5298C1.41652 24.5583 1.3671 24.564 1.35192 24.4785Z" fill="white"/>
<path d="M44.492 9.81187C44.4369 9.77771 44.4216 9.73777 44.4787 9.6903C44.5033 9.72828 44.509 9.76821 44.492 9.81187Z" fill="white"/>
<path d="M20.656 9.76244C20.675 9.83085 20.677 9.89359 20.6124 9.94107C20.4774 9.84417 20.618 9.81568 20.656 9.76244Z" fill="white"/>
<path d="M104.656 12.6088C104.665 12.6791 104.656 12.7399 104.576 12.7608C104.517 12.6639 104.583 12.6354 104.656 12.6088Z" fill="white"/>
<path d="M100.626 22.2478C100.716 22.3409 100.644 22.358 100.566 22.3732C100.553 22.3162 100.547 22.2611 100.626 22.2478Z" fill="white"/>
<path d="M116.105 22.054C116.181 22.0673 116.253 22.0845 116.167 22.1775C116.09 22.1642 116.092 22.1129 116.105 22.054Z" fill="white"/>
<path d="M101.076 21.1591C101.165 21.2522 101.095 21.2693 101.016 21.2845C101.003 21.2275 100.998 21.1743 101.076 21.1591Z" fill="white"/>
<path d="M102.617 17.4425C102.707 17.5357 102.636 17.5528 102.559 17.568C102.545 17.511 102.539 17.4578 102.617 17.4425Z" fill="white"/>
<path d="M134.849 12.9508C134.901 12.9546 134.948 12.9679 134.971 13.0211C134.91 13.0344 134.865 13.0173 134.849 12.9508Z" fill="white"/>
<path d="M92.4379 15.2081C92.4193 15.1986 92.3867 15.1929 92.3848 15.1815C92.3774 15.1378 92.4165 15.1377 92.4472 15.1321C92.4602 15.1586 92.4593 15.1834 92.4379 15.2081Z" fill="white"/>
<path d="M115.728 21.1572C115.743 21.1762 115.758 21.1933 115.775 21.2123C115.737 21.2123 115.71 21.2028 115.728 21.1572Z" fill="white"/>
<path d="M103.124 16.2284C103.109 16.2474 103.091 16.2645 103.076 16.2835C103.059 16.2379 103.086 16.2284 103.124 16.2284Z" fill="white"/>
<path d="M100.492 22.5765C100.477 22.5936 100.462 22.6107 100.447 22.6279C100.43 22.5823 100.454 22.5728 100.492 22.5765Z" fill="white"/>
<path d="M27.3534 1.04885C27.3306 1.06402 27.3077 1.07929 27.2869 1.09446C27.2945 1.05834 27.3077 1.028 27.3534 1.04885Z" fill="white"/>
<path d="M116.684 23.4638C116.702 23.4866 116.718 23.5076 116.733 23.5303C116.696 23.5246 116.669 23.5094 116.684 23.4638Z" fill="white"/>
<path d="M104.025 14.0547C104.009 14.0719 103.994 14.089 103.979 14.1042C103.961 14.0585 103.987 14.051 104.025 14.0547Z" fill="white"/>
<path d="M104.919 11.9229C104.902 11.9457 104.885 11.9666 104.87 11.9894C104.856 11.9438 104.881 11.9286 104.919 11.9229Z" fill="white"/>
<path d="M115.528 20.6442C115.545 20.667 115.561 20.6878 115.577 20.7107C115.537 20.705 115.512 20.6898 115.528 20.6442Z" fill="white"/>
<path d="M85.9789 23.6443C85.9994 23.6272 86.0208 23.6102 86.0431 23.5912C86.0394 23.6291 86.0245 23.6558 85.9789 23.6443Z" fill="white"/>
<path d="M26.9007 1.25028C26.8799 1.26359 26.857 1.27495 26.8361 1.28826C26.8476 1.25782 26.8552 1.21984 26.9007 1.25028Z" fill="white"/>
<path d="M27.0303 1.18568C27.0113 1.19899 26.9942 1.2123 26.9752 1.22747C26.9752 1.1895 26.9808 1.16092 27.0303 1.18568Z" fill="white"/>
<path d="M100.043 23.6634C100.027 23.6824 100.01 23.6994 99.9952 23.7185C99.9775 23.6729 100.005 23.6634 100.043 23.6634Z" fill="white"/>
<path d="M115.657 20.9653L115.707 21.0299C115.668 21.0242 115.641 21.009 115.657 20.9653Z" fill="white"/>
<path d="M113.546 15.8389C113.561 15.8561 113.576 15.8712 113.592 15.8884C113.554 15.8922 113.528 15.8845 113.546 15.8389Z" fill="white"/>
<path d="M101.516 20.1273C101.499 20.1483 101.483 20.1711 101.467 20.1919C101.454 20.1463 101.479 20.1311 101.516 20.1273Z" fill="white"/>
<path d="M101.583 19.9469C101.568 19.9659 101.551 19.9829 101.536 20.002C101.519 19.9564 101.545 19.9469 101.583 19.9469Z" fill="white"/>
<path d="M28.8295 0.467458C28.8087 0.484492 28.7859 0.50162 28.7649 0.518747C28.7706 0.480677 28.7859 0.456009 28.8295 0.467458Z" fill="white"/>
<path d="M103.766 14.6894C103.75 14.7084 103.733 14.7273 103.718 14.7445C103.703 14.6989 103.728 14.6875 103.766 14.6894Z" fill="white"/>
<path d="M116.813 23.785C116.831 23.8058 116.846 23.8286 116.863 23.8496C116.825 23.8439 116.798 23.8306 116.813 23.785Z" fill="white"/>
<path d="M85.2752 23.8895L85.3394 23.8477C85.332 23.8819 85.3227 23.9161 85.2752 23.8895Z" fill="white"/>
<path d="M99.9757 23.8458C99.9589 23.8686 99.9422 23.8895 99.9263 23.9123C99.9133 23.8667 99.9375 23.8515 99.9757 23.8458Z" fill="white"/>
<path d="M5.97168 24.0282C5.99253 24.0111 6.01347 23.9921 6.03628 23.9749C6.03246 24.0129 6.01719 24.0395 5.97168 24.0282Z" fill="white"/>
<path d="M116.882 23.9788C116.898 23.9977 116.913 24.0149 116.928 24.0339C116.89 24.0339 116.864 24.0244 116.882 23.9788Z" fill="white"/>
<path d="M103.7 14.8718C103.682 14.8946 103.665 14.9174 103.649 14.9402C103.635 14.8946 103.66 14.8793 103.7 14.8718Z" fill="white"/>
<path d="M5.46047 24.2105C5.48327 24.1972 5.50412 24.184 5.52693 24.1707C5.51743 24.2049 5.50989 24.241 5.46047 24.2105Z" fill="white"/>
<path d="M0.645711 24.2315C0.664699 24.2448 0.683687 24.26 0.704631 24.2733C0.657159 24.2979 0.649527 24.2676 0.645711 24.2315Z" fill="white"/>
<path d="M5.26658 24.2733C5.28743 24.2601 5.30837 24.2467 5.32922 24.2334C5.32168 24.2676 5.31405 24.3037 5.26658 24.2733Z" fill="white"/>
<path d="M104.538 12.8311C104.522 12.8502 104.505 12.8691 104.49 12.8862C104.474 12.8407 104.499 12.8292 104.538 12.8311Z" fill="white"/>
<path d="M117.07 24.4254C117.087 24.4462 117.103 24.469 117.12 24.49C117.081 24.4842 117.055 24.4709 117.07 24.4254Z" fill="white"/>
<path d="M56.1877 24.5012V24.5335C56.1668 24.5468 56.1478 24.5431 56.1345 24.5222C56.1516 24.5165 56.1688 24.5089 56.1859 24.5032L56.1877 24.5012Z" fill="white"/>
<path d="M109.543 0.773324C109.526 0.79613 109.509 0.817074 109.493 0.839879C109.48 0.794269 109.505 0.779096 109.543 0.773324Z" fill="white"/>
<path d="M117.145 24.5545C117.162 24.5602 117.175 24.5716 117.183 24.5868C117.139 24.6096 117.132 24.5944 117.145 24.5545Z" fill="white"/>
<path d="M102.033 18.86L101.987 18.9113C101.97 18.8657 101.996 18.8562 102.033 18.86Z" fill="white"/>
<path d="M20.9348 8.40968C20.9215 8.42681 20.9082 8.4458 20.8968 8.46292C20.8682 8.41536 20.9005 8.41154 20.9348 8.40968Z" fill="white"/>
<path d="M106.461 8.20639C106.444 8.22919 106.426 8.25004 106.411 8.27285C106.398 8.22724 106.423 8.21207 106.461 8.20639Z" fill="white"/>
<path d="M114.572 18.3374C114.588 18.3565 114.603 18.3735 114.619 18.3925C114.581 18.3925 114.555 18.383 114.572 18.3374Z" fill="white"/>
<path d="M114.373 17.8246C114.389 17.8473 114.406 17.8682 114.422 17.891C114.382 17.8853 114.357 17.8701 114.373 17.8246Z" fill="white"/>
<path d="M114.501 18.1456C114.519 18.1665 114.534 18.1893 114.55 18.2102C114.512 18.2045 114.486 18.1893 114.501 18.1456Z" fill="white"/>
<path d="M108.001 4.48981C107.984 4.51262 107.967 4.53356 107.952 4.55636C107.939 4.51075 107.963 4.49558 108.001 4.48981Z" fill="white"/>
<path d="M108.322 3.7203C108.306 3.74311 108.288 3.76591 108.271 3.78872C108.258 3.74311 108.282 3.72793 108.322 3.7203Z" fill="white"/>
<path d="M108.771 2.63162C108.754 2.65442 108.737 2.67723 108.72 2.69808C108.707 2.65247 108.731 2.63729 108.771 2.63162Z" fill="white"/>
<path d="M26.3901 1.5447C26.3691 1.56564 26.3483 1.58845 26.3273 1.6093C26.3273 1.5675 26.3501 1.54665 26.3901 1.5447Z" fill="white"/>
<path d="M26.5826 1.43654C26.5636 1.45171 26.5446 1.46688 26.5256 1.48401C26.5256 1.44407 26.5351 1.41745 26.5826 1.43654Z" fill="white"/>
<path d="M103.058 16.4108C103.04 16.4318 103.023 16.4546 103.007 16.4754C102.994 16.4298 103.019 16.4146 103.058 16.4108Z" fill="white"/>
<path d="M6.48689 23.7678C6.50783 23.7508 6.52877 23.7355 6.54962 23.7185C6.54581 23.7565 6.5325 23.785 6.48689 23.7678Z" fill="white"/>
<path d="M85.6596 23.7583C85.6829 23.747 85.7034 23.7337 85.7267 23.7223C85.7127 23.7508 85.7071 23.7906 85.6596 23.7583Z" fill="white"/>
<path d="M27.1575 1.12108C27.1385 1.13439 27.1195 1.1477 27.1024 1.16092C27.1024 1.1249 27.1081 1.0926 27.1575 1.12108Z" fill="white"/>
<path d="M85.3944 21.9876C85.6792 21.7044 85.9659 21.4194 86.2516 21.1362C86.3708 21.1781 86.3522 21.2617 86.301 21.3377C86.139 21.5771 85.9203 21.7671 85.7043 21.9533C85.6205 22.0255 85.4986 21.9818 85.3925 21.9875L85.3944 21.9876Z" fill="white"/>
<path d="M79.1718 23.7888C79.2779 23.7678 79.3841 23.7603 79.493 23.7793C79.3869 23.9616 79.291 23.9655 79.1718 23.7888Z" fill="white"/>
<path d="M86.5951 20.6993C86.6258 20.6194 86.6696 20.5492 86.7441 20.5017C86.7515 20.6099 86.7478 20.7107 86.5951 20.6993Z" fill="white"/>
<path d="M88.4409 16.2854C88.3935 16.1847 88.4717 16.1201 88.507 16.0441C88.5554 16.1429 88.5852 16.2379 88.4409 16.2854Z" fill="white"/>
<path d="M87.7894 18.5294C87.781 18.4781 87.7568 18.4211 87.835 18.3983C87.9392 18.4819 87.8806 18.5123 87.7894 18.5294Z" fill="white"/>
<path d="M75.3834 23.7868C75.4271 23.7868 75.469 23.7868 75.5128 23.7868C75.5091 23.8249 75.5025 23.8742 75.4616 23.88C75.3927 23.8914 75.3927 23.8306 75.3834 23.785V23.7868Z" fill="white"/>
<path d="M86.987 20.1236C86.9963 20.0722 87.0121 20.0247 87.0633 20.0001C87.175 20.1273 87.0633 20.1141 86.987 20.1236Z" fill="white"/>
<path d="M74.9487 23.7432C74.9869 23.7583 75.0241 23.7717 75.0641 23.7868C75.0511 23.8286 75.0548 23.899 74.9831 23.8724C74.9254 23.8514 74.9487 23.7906 74.9506 23.7432H74.9487Z" fill="white"/>
<path d="M76.3468 0.900661C76.303 0.900661 76.2612 0.900661 76.2174 0.900661C76.2276 0.855051 76.2276 0.794268 76.2956 0.805624C76.3375 0.813257 76.3412 0.862591 76.3449 0.900661H76.3468Z" fill="white"/>
<path d="M87.5967 18.9132C87.5827 18.8676 87.6079 18.8525 87.6479 18.8468C87.6302 18.8696 87.6134 18.8904 87.5967 18.9132Z" fill="white"/>
<path d="M38.5163 21.1325C38.5924 21.0185 38.655 20.8931 38.7767 20.817C38.7918 20.9519 38.7918 21.0831 38.6626 21.1723C38.598 21.2179 38.5506 21.199 38.5144 21.1325H38.5163Z" fill="white"/>
<path d="M39.3636 19.9393C39.4016 19.8196 39.4605 19.7112 39.5403 19.6125C39.6392 19.7986 39.6202 19.8348 39.3636 19.9393Z" fill="white"/>
<path d="M24.5242 10.6479C24.547 10.7107 24.5452 10.7734 24.5185 10.836C24.4482 10.7714 24.4482 10.7088 24.5242 10.6479Z" fill="white"/>
<path d="M31.5716 23.7242C31.6039 23.6634 31.6495 23.6406 31.716 23.6729C31.6818 23.7299 31.6248 23.7204 31.5716 23.7242Z" fill="white"/>
<path d="M40.3669 7.74842C40.2738 7.69146 40.2434 7.60973 40.27 7.5052C40.422 7.53946 40.384 7.64771 40.3669 7.74842Z" fill="white"/>
<path d="M39.8669 5.79901C39.7928 5.77239 39.7263 5.74195 39.7928 5.64701C39.8688 5.67167 39.8764 5.73245 39.8669 5.79901Z" fill="white"/>
<path d="M24.6553 9.30075C24.6724 9.36349 24.6686 9.42427 24.6344 9.48319C24.5945 9.41664 24.5907 9.35586 24.6553 9.30075Z" fill="white"/>
<path d="M33.8438 23.6691C33.8837 23.6463 33.9255 23.6425 33.9673 23.6576C33.9312 23.7204 33.8913 23.7355 33.8438 23.6691Z" fill="white"/>
<path d="M31.1196 23.6615C31.1273 23.6501 31.133 23.6368 31.1406 23.6254C31.1463 23.6387 31.1534 23.6501 31.1592 23.6634L31.1386 23.6596H31.1178L31.1196 23.6615Z" fill="white"/>
<path d="M136.321 1.0374C135.871 1.04503 135.421 1.05648 134.973 1.02986C135.084 0.864545 135.243 0.779004 135.44 0.779004C135.757 0.779004 136.069 0.815119 136.321 1.0374Z" fill="white"/>
<path d="M142.994 6.80029C142.968 6.50206 142.974 6.20178 142.983 5.90354C143.126 5.89209 143.195 5.9472 143.193 6.0992C143.193 6.28536 143.188 6.46976 143.23 6.65778C143.272 6.8459 143.093 6.78326 142.994 6.80029Z" fill="white"/>
<path d="M140.994 10.9615C141.106 10.8304 141.237 10.7221 141.389 10.6385C141.461 10.9729 141.37 11.047 140.994 10.9615Z" fill="white"/>
<path d="M142.226 9.68462C142.293 9.52508 142.368 9.37112 142.469 9.23057C142.598 9.48515 142.523 9.62766 142.226 9.68462Z" fill="white"/>
<path d="M137.348 12.1243C137.498 12.1129 137.648 12.1015 137.798 12.0901C137.635 12.2991 137.507 12.3086 137.348 12.1243Z" fill="white"/>
<path d="M141.524 10.5187C141.636 10.3744 141.77 10.2528 141.905 10.1331C141.854 10.4085 141.799 10.4636 141.524 10.5187Z" fill="white"/>
<path d="M138.762 1.18754C138.637 1.18382 138.512 1.18186 138.392 1.14202C138.457 1.10972 138.515 1.06411 138.583 1.04503C138.698 1.01469 138.762 1.06598 138.762 1.18754Z" fill="white"/>
<path d="M140.739 11.1325C140.79 11.0717 140.855 11.028 140.933 11.0033C140.935 11.0337 140.941 11.0641 140.939 11.0945C140.936 11.1515 140.96 11.2294 140.885 11.2503C140.796 11.2769 140.77 11.1933 140.739 11.1325Z" fill="white"/>
<path d="M134.558 12.1015C134.589 12.1072 134.619 12.1148 134.651 12.1205C134.642 12.1736 134.634 12.2287 134.564 12.2345C134.53 12.2382 134.493 12.225 134.488 12.1927C134.478 12.1433 134.518 12.1185 134.558 12.0995V12.1015Z" fill="white"/>
<path d="M134.906 12.1224C134.97 12.1034 135.035 12.1053 135.097 12.1243C135.088 12.1756 135.081 12.2288 135.015 12.2364C134.932 12.2459 134.915 12.1869 134.906 12.1224Z" fill="white"/>
<path d="M142.94 7.50334C142.919 7.46155 142.924 7.42171 142.951 7.38178C143.006 7.42739 142.999 7.46723 142.94 7.50334Z" fill="white"/>
<path d="M142.562 8.91512C142.547 8.86951 142.574 8.85433 142.611 8.84866C142.594 8.87146 142.579 8.89427 142.562 8.91512Z" fill="white"/>
<path d="M140.557 1.66254C140.513 1.67399 140.496 1.64923 140.491 1.61125C140.513 1.62838 140.533 1.6455 140.557 1.66254Z" fill="white"/>
<path d="M4.04562 23.6691C3.99238 23.7906 3.93541 23.899 3.78527 23.7736C3.85183 23.6862 3.9544 23.6919 4.04562 23.6691Z" fill="white"/>
<path d="M6.69995 20.3934C6.78354 20.4656 6.70181 20.5112 6.67147 20.5644C6.68096 20.5074 6.69045 20.4504 6.69995 20.3934Z" fill="white"/>
<path d="M0.446607 23.6463C0.448468 23.7831 0.353433 23.785 0.256534 23.7831C0.302145 23.7109 0.366836 23.6672 0.446607 23.6463Z" fill="white"/>
<path d="M6.82263 19.4946C6.87773 19.5402 6.87206 19.5802 6.81314 19.6143C6.79229 19.5725 6.79601 19.5327 6.82263 19.4946Z" fill="white"/>
<path d="M6.75999 20.0076C6.81509 20.0532 6.80839 20.0931 6.74761 20.1293C6.72676 20.0855 6.73151 20.0457 6.75999 20.0076Z" fill="white"/>
<path d="M112.624 13.4677C112.585 13.4619 112.559 13.4486 112.574 13.4031C112.592 13.4239 112.609 13.4467 112.624 13.4677Z" fill="white"/>
<path d="M112.945 14.2372C112.908 14.2315 112.881 14.2162 112.894 14.1707C112.911 14.1934 112.928 14.2144 112.945 14.2372Z" fill="white"/>
<path d="M113.137 14.6894C113.099 14.6837 113.072 14.6666 113.088 14.621C113.105 14.6438 113.122 14.6666 113.137 14.6894Z" fill="white"/>
<path d="M108.313 5.90354C108.325 5.9472 108.3 5.96432 108.262 5.97C108.28 5.9472 108.296 5.92635 108.313 5.90354Z" fill="white"/>
</svg>
