<svg width="146" height="31" viewBox="0 0 146 31" fill="none" xmlns="http://www.w3.org/2000/svg">
<path d="M60.2425 0.184853C60.8781 0.0695489 62.2619 0.0287559 63.3177 0.0902558C64.827 0.179951 65.5985 0.382211 66.9054 1.03823C68.0405 1.60451 68.5376 1.9941 68.4685 2.25548C68.413 2.45314 68.2057 3.20634 67.9958 3.969L67.956 4.1134C67.7305 4.92558 67.4308 5.58425 67.2898 5.57941C67.1488 5.57428 66.6875 4.97202 66.2647 4.24428C65.8163 3.46781 65.1243 2.70391 64.599 2.40664C64.107 2.12734 63.3561 1.82003 62.9333 1.72519C62.5105 1.62781 61.5879 1.65344 60.8832 1.77899C60.1785 1.90713 59.1917 2.29662 58.6894 2.64514C58.1872 2.99623 57.5106 3.77003 57.1851 4.36966C56.7751 5.12562 56.5906 5.88934 56.588 6.86823C56.5829 7.88557 56.7521 8.58268 57.1954 9.37707C57.5337 9.98185 58.2693 10.7917 58.8331 11.1812C59.3969 11.5681 60.4937 12.1577 61.2676 12.4883C62.0441 12.8214 63.5996 13.5159 64.7271 14.0361C65.8547 14.5538 67.2206 15.3737 67.7588 15.8555C68.2994 16.3398 68.9887 17.2546 69.2911 17.8876C69.7139 18.7717 69.8369 19.4893 69.8164 20.9627C69.801 22.2312 69.6113 23.3639 69.2628 24.2942C68.9655 25.0835 68.1891 26.3109 67.4997 27.0823C66.7848 27.8844 65.6727 28.7609 64.8553 29.1709C64.0814 29.5605 62.6975 30.0244 61.7801 30.2013C60.8396 30.3832 59.3917 30.4574 58.4487 30.3754C57.5338 30.296 56.15 29.9909 55.3735 29.6987C54.5996 29.4066 53.6462 28.9069 52.5468 28.01L52.9362 26.2162C53.1515 25.2296 53.3977 24.3659 53.4823 24.2942C53.567 24.2227 53.8256 24.4533 54.0562 24.8042C54.2893 25.1553 54.8353 25.8472 55.2709 26.3418C55.7065 26.8364 56.5702 27.4898 57.1929 27.7948C57.813 28.0997 58.8971 28.4279 59.6019 28.5253C60.3604 28.6303 61.3547 28.579 62.0364 28.4022C62.6719 28.2356 63.6227 27.8205 64.1505 27.4797C64.8091 27.0543 65.3317 26.3904 65.8032 25.3833C66.3004 24.3249 66.4926 23.5126 66.4849 22.5003C66.4798 21.7239 66.2978 20.7449 66.08 20.3221C65.8622 19.8992 65.3344 19.2073 64.9091 18.7845C64.4811 18.3617 63.3996 17.6827 62.5079 17.2752C61.6161 16.8652 59.8453 16.0451 58.5768 15.4506C57.3084 14.8561 55.84 13.9515 55.3094 13.439C54.7815 12.9265 54.1896 12.1883 53.9948 11.8013C53.8001 11.4143 53.5103 10.4636 53.3514 9.68714C53.1644 8.76461 53.144 7.79075 53.2926 6.86823C53.4182 6.09176 53.7513 4.99749 54.0306 4.43373C54.3125 3.86994 55.048 2.9552 55.6631 2.39913C56.2807 1.84304 57.3032 1.16634 57.9361 0.889579C58.5717 0.615387 59.6096 0.297603 60.2425 0.184853ZM6.22466 0.715399C11.2397 0.712838 12.7235 0.794873 13.8588 1.13058C14.6352 1.36122 15.6346 1.79425 16.0831 2.09407C16.5315 2.39388 17.1952 3.04222 17.5591 3.5368C17.9204 4.03138 18.3433 5.06671 18.4945 5.84318C18.6483 6.61962 18.6944 7.71388 18.5996 8.27768C18.5048 8.84146 18.2151 9.76401 17.9562 10.3278C17.6948 10.8916 16.9543 11.8423 16.311 12.442C15.6678 13.0416 14.6506 13.7824 14.051 14.0899C13.4539 14.3974 12.3031 14.8304 10.0301 15.4531L11.2321 16.9907C11.8907 17.8363 14.425 21.0371 16.8621 24.102C19.2976 27.1649 21.2879 29.7008 21.2904 29.7398C21.2904 29.7757 20.2115 29.8038 16.4957 29.8038L14.6018 27.1208C13.5588 25.6448 11.5678 22.9924 10.1737 21.2268C8.78225 19.4612 7.16779 17.5238 6.58603 16.9241C5.766 16.0733 5.34561 15.8324 3.86448 15.8375L3.89526 18.9767C3.91064 20.7039 3.99777 23.7613 4.08746 25.7729C4.17715 27.782 4.22068 29.5118 4.18481 29.6169C4.15138 29.7194 3.22867 29.786 0.148653 29.7245L0.276785 25.7907C0.348536 23.6277 0.386938 17.6492 0.363875 12.506C0.34081 7.36285 0.248545 2.604 0.161416 1.93516L0 0.717902L6.22466 0.715399ZM36.6227 0.00291592C36.8277 0.043953 37.0966 0.251559 37.2171 0.461638C37.3401 0.671773 39.3492 5.40245 41.6812 10.9685C44.0131 16.5343 46.3066 21.9542 46.7757 23.0129C47.2446 24.0686 48.1032 26.0009 48.6824 27.3053C49.2611 28.6088 49.735 29.7025 49.7357 29.7398C49.7383 29.7757 48.7285 29.7784 45.2511 29.6912L44.0721 26.4161C43.4238 24.6146 42.509 22.2184 42.04 21.0909C41.5711 19.9635 41.0638 18.8899 40.9151 18.7052C40.6999 18.4438 39.485 18.3873 30.2031 18.5282L29.4318 20.4502C29.0064 21.506 28.0686 24.0457 26.0313 29.8038L24.5578 29.7398C23.748 29.7039 23.0841 29.6475 23.0815 29.6116C23.0825 29.5736 23.8408 27.8728 24.773 25.8318C25.7033 23.7893 28.3351 17.9054 30.6235 12.7623C32.9094 7.61912 35.1107 2.62449 35.5131 1.66863C35.9999 0.515515 36.3741 -0.0457727 36.6227 0.00291592ZM94.4537 0.730915V3.32684L93.5568 3.18845C93.0648 3.11157 91.0837 2.95765 85.6534 2.63988L85.4665 3.40867C85.364 3.83151 85.3359 9.94346 85.5281 29.8038H81.6405L81.8275 2.63988L78.1477 2.84234C76.1233 2.95509 74.091 3.0986 72.7994 3.28054V0.58977L94.4537 0.730915ZM114.314 0.717902V3.02428L110.534 2.83208C108.456 2.72701 105.947 2.63988 103.167 2.63988L102.998 13.6592L113.289 13.2748V15.5812L103.039 15.3249V28.01L107.844 27.8231C110.486 27.7205 113.084 27.5462 114.581 27.2412L114.57 29.8038H99.3228L99.3738 15.1968C99.402 7.16716 99.4327 0.596624 99.4379 0.58977C99.4456 0.58977 102.795 0.617959 114.314 0.717902ZM124.437 27.7537H127.768C129.6 27.7537 132.196 27.6666 135.968 27.3693L136.004 29.8038H120.593V0.58977H124.449L124.437 27.7537ZM145.709 29.8038H141.865V0.717902H145.709V29.8038ZM35.6207 6.09444C35.5387 6.097 34.529 8.34948 33.3784 11.0966C32.2279 13.8432 31.2851 16.2083 31.2847 16.35C31.2847 16.5114 32.9504 16.6063 35.7693 16.6063C39.9233 16.6063 40.2436 16.5729 40.1103 16.1578C40.0307 15.9113 39.021 13.5437 37.868 10.8994C36.7126 8.25291 35.7032 6.09051 35.6207 6.09444ZM7.08054 2.25548C5.60743 2.25548 4.35457 2.34265 4.29242 2.44768C4.23348 2.55275 4.11308 5.20512 4.02339 8.34175L3.86448 14.0436C6.50138 14.2871 7.74689 14.195 8.98975 13.931C10.0456 13.7055 11.4012 13.2339 12.0009 12.8854C12.6005 12.5369 13.3666 11.8756 13.7049 11.4169C14.0431 10.9582 14.448 10.1228 14.6018 9.559C14.7555 8.99523 14.8811 8.18798 14.8811 7.76516C14.8811 7.3423 14.753 6.53506 14.5993 5.97131C14.4301 5.35116 13.897 4.5362 13.2564 3.91094C12.5474 3.21909 11.7872 2.77057 10.9758 2.56555C10.307 2.39386 8.55405 2.25549 7.08054 2.25548Z" fill="#FEFEFC"/>
</svg>
