<svg width="151" height="32" viewBox="0 0 151 32" fill="none" xmlns="http://www.w3.org/2000/svg">
<path d="M21.9633 14.8403C22.6887 19.8658 22.2219 24.9204 22.3476 29.9639C22.3691 30.8136 22.1177 31.1318 21.2451 31.0992C19.6937 31.0377 18.1388 31.0992 16.5838 31.0739C14.6625 31.0377 13.7396 30.1302 13.7217 28.1923C13.6929 24.8263 13.7432 21.4603 13.7037 18.0943C13.6929 17.2664 13.5744 16.4058 13.3231 15.6176C12.8849 14.2474 11.8542 13.5568 10.425 13.7702C8.99214 13.9871 8.36016 14.815 8.39604 16.395C8.49662 20.5998 8.32418 24.8155 8.47868 29.0166C8.54328 30.8352 7.95433 31.2945 6.29169 31.1064C5.05272 30.9654 3.7814 31.1209 2.53175 31.063C0.976741 30.9907 0.05392 30.1013 0.0395059 28.5575C-0.0144134 22.7293 0.0250912 16.8976 0 11.0658C0 10.3029 0.204681 9.9847 1.00909 10.0209C2.2014 10.0788 3.39724 10.0317 4.59307 10.0353C7.55212 10.0462 8.16616 10.5668 8.572 13.7629C10.6189 10.2342 13.6032 9.14954 17.1943 9.90153C19.4639 10.3788 20.9147 11.9407 21.5862 14.1932C21.712 14.4065 21.8376 14.6234 21.9633 14.8367V14.8403Z" fill="white"/>
<path d="M60.2608 23.9045C60.2176 27.502 56.9174 30.9077 52.8738 31.3741C47.5051 31.9923 41.3715 29.7941 40.1074 23.5538C39.2275 19.226 39.6405 14.9924 43.4579 12.1252C47.3364 9.21115 51.7103 8.76282 56.1202 10.9574C58.8853 12.3349 60.3901 14.7212 60.6235 17.8486C60.7635 19.7141 60.1638 20.4192 58.3037 20.4626C56.034 20.5132 53.7644 20.4336 51.4949 20.4879C49.2108 20.5421 48.367 22.0209 49.6957 23.9551C52.1305 27.4983 55.6426 27.8743 59.2445 25.0073C59.6 24.7217 59.8729 24.3311 60.2608 23.9117V23.9045ZM51.4625 18.8428C52.3244 18.7741 53.7609 19.0706 53.7177 18.08C53.7609 16.4457 53.768 14.7428 53.2401 13.1268C52.9349 12.1975 52.3136 11.648 51.3404 11.6805C50.4247 11.7131 49.8501 12.259 49.5089 13.1304C49.0888 14.2077 48.9666 15.3213 48.9128 16.4566C48.8386 18.0449 49.6885 18.8392 51.4625 18.8392V18.8428Z" fill="white"/>
<path d="M64.1598 14.6596C64.1598 10.4511 64.2532 6.23907 64.1168 2.03785C64.0592 0.313287 64.6374 -0.131414 66.2103 0.0311982C67.3919 0.154198 68.5985 0.00952386 69.7907 0.0710239C71.6294 0.168613 72.6133 1.20632 72.6169 3.0683C72.6349 11.9659 72.6169 20.8637 72.6493 29.7578C72.6493 30.7268 72.4589 31.1751 71.378 31.1028C70.0098 31.0088 68.6307 31.0956 67.2589 31.0739C65.0469 31.0341 64.1922 30.1881 64.167 27.8272C64.1239 23.4379 64.1527 19.0487 64.1563 14.6632L64.1598 14.6596Z" fill="white"/>
<path d="M21.9651 14.8403C21.8395 14.6271 21.7138 14.4101 21.588 14.1968C22.5433 13.7738 22.906 12.747 23.556 12.0456C25.6999 9.72803 28.2568 9.34483 31.0434 9.96666C33.8338 10.585 35.0728 12.747 35.6652 15.3755C36.3116 18.2317 35.9059 21.1277 35.9776 24.002C35.992 24.6637 35.967 25.3253 35.9776 25.9869C35.992 27.3608 36.2254 28.4889 38.0785 27.5995C37.3746 30.4051 35.4498 31.6886 32.5374 31.4463C29.7938 31.2186 27.4919 28.9661 27.4164 26.3196C27.359 24.3382 27.4416 22.3497 27.4451 20.3649C27.4451 19.4646 27.3949 18.5608 27.3877 17.6605C27.3661 14.4571 25.2654 12.3638 21.9651 14.8403Z" fill="white"/>
<path d="M108.815 13.4702C110.126 12.8086 110.664 11.3587 112.018 10.6213C116.543 8.15903 121.308 10.2018 122.435 15.249C123.079 18.1125 122.712 21.0013 122.784 23.8829C122.809 24.8445 122.774 25.8099 122.784 26.7717C122.791 27.3465 122.885 27.8815 123.635 27.8888C125.646 27.9033 124.479 28.9952 124.102 29.552C123.021 31.1572 120.49 31.8587 118.442 31.2512C115.903 30.4992 114.256 28.6444 114.195 26.2763C114.14 24.0527 114.241 21.822 114.248 19.5985C114.248 18.6983 114.259 17.7835 114.126 16.8977C113.684 13.9692 112.223 13.1593 109.465 14.2439C109.12 14.0993 108.875 13.8643 108.815 13.4739V13.4702Z" fill="white"/>
<path d="M108.815 13.4702C108.875 13.8607 109.121 14.0921 109.465 14.2403C109.253 14.5295 109.038 14.8188 108.826 15.1044L108.808 15.0972C108.808 15.3756 108.801 15.6504 108.797 15.9287C108.348 16.4386 108.477 17.064 108.474 17.6533C108.463 21.0772 108.463 24.5047 108.474 27.9285C108.474 28.5179 108.345 29.1434 108.808 29.6459C109.074 30.6872 108.808 31.1789 107.605 31.1029C106.064 31.0053 104.513 31.0994 102.966 31.0705C101.507 31.0452 100.512 30.3293 100.509 28.8108C100.487 22.7078 100.541 16.6084 100.57 10.5055C100.692 10.3645 100.814 10.2236 100.936 10.0825C102.868 9.83661 104.804 9.92705 106.736 10.0283C107.472 10.068 108.308 10.1295 108.506 11.1346C108.592 11.4022 108.682 11.6733 108.769 11.9409L108.811 13.4666L108.815 13.4702Z" fill="white"/>
<path d="M108.811 29.646C108.348 29.1435 108.477 28.518 108.477 27.9286C108.47 24.5048 108.466 21.0772 108.477 17.6534C108.477 17.064 108.348 16.4386 108.801 15.9289C108.804 20.5024 108.808 25.0724 108.815 29.646H108.811Z" fill="white"/>
<path d="M150.165 17.3134C150.165 17.3134 150.165 17.3134 150.169 17.3134C148.765 7.39968 129.006 6.73439 126.999 16.4493C125.523 22.3967 126.711 30.0689 136.096 31.2836C145.159 32.8419 152.664 26.8691 150.165 17.3097V17.3134ZM141.14 27.9031C140.574 29.4614 139.536 29.9929 137.974 29.9351C134.271 29.8592 135.287 16.4456 135.948 13.7918C136.214 10.4186 140.764 10.3608 141.302 13.6653C142.344 18.304 142.376 23.279 141.145 27.9067L141.14 27.9031ZM150.083 19.3887C150.079 19.62 150.083 19.8478 150.104 20.0756C150.083 19.8478 150.075 19.62 150.083 19.3887Z" fill="white"/>
<path d="M108.806 15.0971L108.824 15.1043L108.828 15.0573L108.806 15.0971Z" fill="white"/>
<path d="M100.939 10.086C100.816 10.227 100.695 10.368 100.573 10.5091C100.533 10.227 100.597 10.0318 100.939 10.086Z" fill="white"/>
<path d="M95.5707 27.8165C94.3353 22.8235 97.3879 16.6482 93.1726 12.5374C89.5958 8.1807 78.4339 8.49888 78.2802 15.3828C79.318 20.3541 86.0328 15.6033 81.5805 12.7651C87.1817 8.80617 89.2648 21.0917 86.004 19.3996C83.6913 18.5463 81.2997 18.7198 79.0628 19.8877C70.0346 25.5097 81.1854 37.4264 87.1464 28.0659C88.6327 32.4299 96.4793 32.7661 97.295 27.8165C96.6127 27.8165 96.0917 27.8165 95.5749 27.8165H95.5707ZM87.3546 23.1453C87.3333 24.4612 87.3835 25.7773 87.25 27.0861C85.9068 28.8071 83.544 27.585 83.6593 25.5423C82.5425 21.4315 87.8896 17.2159 87.3546 23.1453Z" fill="white"/>
</svg>
