<svg width="175" height="15" viewBox="0 0 175 15" fill="none" xmlns="http://www.w3.org/2000/svg">
<path d="M26.1687 0.178746C26.7723 0.0243611 27.484 -0.03119 28.2143 0.0166696C28.8303 0.0568103 29.698 0.226703 30.1441 0.393441C30.5903 0.560184 31.3885 0.977029 31.9196 1.31977C32.5495 1.72735 33.1284 2.27852 33.5884 2.90842C33.9744 3.43951 34.4376 4.25622 34.6152 4.72247C34.819 5.25665 34.9657 6.08728 35.0135 6.96108C35.0737 8.0819 35.0258 8.55901 34.7649 9.43128C34.5873 10.0257 34.2292 10.8424 33.9714 11.2453C33.7136 11.6483 33.2241 12.2566 32.8845 12.5962C32.5449 12.9359 32.006 13.3759 31.688 13.575C31.37 13.7742 30.7277 14.0783 30.2599 14.2527C29.7921 14.4256 28.9939 14.6139 28.4845 14.6726C27.8808 14.7421 27.1814 14.7004 26.4774 14.5553C25.883 14.4333 25.0154 14.1401 24.5476 13.9038C24.0798 13.6676 23.3171 13.1118 22.8493 12.6687C22.3815 12.2257 21.7794 11.4538 21.5076 10.9551C21.2375 10.4564 20.9071 9.63199 20.7743 9.12251C20.6415 8.61305 20.532 7.81331 20.532 7.34705C20.532 6.88082 20.637 6.09806 20.7636 5.6102C20.8917 5.12234 21.1805 4.35812 21.4059 3.91193C21.6313 3.46576 22.1793 2.71852 22.6224 2.25227C23.0655 1.78603 23.8374 1.1808 24.3361 0.909071C24.8347 0.637349 25.6592 0.308432 26.1687 0.178746ZM49.1724 0.297703C49.5599 0.169561 50.3349 0.110816 51.2566 0.140149C52.4207 0.177202 52.8669 0.259118 53.418 0.541647C53.8009 0.736168 54.3104 1.08038 54.5512 1.30424C54.792 1.5281 55.1224 1.97283 55.2845 2.29087C55.4466 2.60889 55.5794 2.9393 55.5794 3.02421C55.5793 3.10911 55.337 3.21411 55.0391 3.25579C54.5512 3.32526 54.4262 3.25883 53.7654 2.57492C53.1849 1.97281 52.8391 1.76128 52.1057 1.55285C51.4511 1.36605 50.9525 1.32127 50.4075 1.39847C49.9829 1.45868 49.3283 1.65786 48.9547 1.84158C48.5795 2.0253 48.1102 2.36652 47.9125 2.59964C47.7134 2.83278 47.508 3.24963 47.4571 3.52597C47.4046 3.80233 47.4124 4.30565 47.4741 4.64527C47.5421 5.01425 47.7551 5.41877 48.0036 5.64879C48.2336 5.86185 48.6938 6.11963 49.0288 6.22307C49.3623 6.32651 50.1574 6.48248 50.7934 6.56893C51.4311 6.65694 52.2987 6.80822 52.7233 6.90394C53.1478 7.00121 53.8071 7.23586 54.19 7.42575C54.5728 7.61565 55.0978 8.00476 55.3587 8.29192C55.6551 8.61922 55.9006 9.11636 56.0149 9.62427C56.143 10.1939 56.1522 10.6525 56.0441 11.1681C55.9607 11.5711 55.6828 12.1964 55.4266 12.5576C55.1718 12.9189 54.6315 13.4253 54.2286 13.6831C53.8256 13.9394 53.1478 14.2528 52.7233 14.3779C52.2987 14.5045 51.499 14.6063 50.9478 14.6063C50.3967 14.6063 49.5969 14.5059 49.1724 14.3824C48.7478 14.2589 48.0531 13.9224 47.6285 13.6337C47.2039 13.345 46.6728 12.803 46.4474 12.4278C46.222 12.0527 45.9966 11.5557 45.9456 11.3225C45.8545 10.9057 45.8654 10.898 46.5864 10.9041C47.295 10.9088 47.3306 10.9319 47.6285 11.5586C47.8415 12.0079 48.1704 12.3506 48.6968 12.6718C49.4024 13.1025 49.563 13.1366 50.9355 13.1366C52.0841 13.1366 52.5349 13.0717 52.9549 12.8479C53.2528 12.6904 53.6588 12.4125 53.858 12.2303C54.0556 12.0497 54.3243 11.6931 54.454 11.4383C54.5836 11.1836 54.6824 10.6633 54.6747 10.2804C54.6685 9.89757 54.5559 9.42977 54.4262 9.2383C54.2965 9.04686 53.929 8.75813 53.611 8.59602C53.2822 8.42774 52.2292 8.1899 51.1794 8.04632C50.1605 7.90583 48.9454 7.67427 48.4791 7.53069C47.9296 7.36087 47.4062 7.05214 46.9909 6.65231C46.5988 6.27563 46.2823 5.79391 46.1789 5.41721C46.0862 5.07757 46.0089 4.46927 46.0089 4.06632C46.0074 3.6634 46.1155 3.07208 46.2467 2.75403C46.3779 2.436 46.7423 1.90952 47.0572 1.58376C47.3706 1.25801 47.8369 0.881322 48.0917 0.746994C48.3464 0.612678 48.8327 0.410406 49.1724 0.297703ZM133.083 1.63472H126.136V6.57512H132.929V8.11899H126.136V13.1366L133.083 13.0594V14.6033H131.115C130.031 14.6033 128.155 14.5508 124.745 14.3717L124.746 0.245235H133.083V1.63472ZM145.742 13.0594L152.766 13.1366V14.5261L151.3 14.5414C150.494 14.5507 148.599 14.5153 144.351 14.3717L144.352 0.245235H145.742V13.0594ZM77.2709 1.55753L70.2462 1.63472V6.57512H77.1937L77.1165 8.0418L70.2462 8.11899V13.0594H77.3481L77.3095 13.7834C77.2709 14.4951 77.2632 14.5059 76.7691 14.4781C76.4928 14.4611 74.6 14.4489 68.8568 14.4489V0.245235H77.3481L77.2709 1.55753ZM3.20354 0.246743C6.23416 0.248287 6.44876 0.268334 7.17901 0.607985C7.60358 0.807145 8.21186 1.25799 8.5299 1.61C8.84794 1.96354 9.22305 2.51319 9.36199 2.83122C9.50866 3.16625 9.62137 3.86409 9.63217 4.49089C9.64297 5.164 9.55199 5.83252 9.38989 6.26634C9.2216 6.71559 8.83869 7.22501 8.30918 7.70513C7.76573 8.19762 7.22687 8.52504 6.71585 8.67171C6.29129 8.79367 5.85746 8.89398 5.75093 8.89243C5.6444 8.89089 5.55791 8.94342 5.55945 9.00672C5.56004 9.07069 6.56866 10.3218 10.0352 14.4489L8.25972 14.4472L5.66755 11.3209C4.24275 9.60277 3.07877 8.07455 3.08157 7.92601C3.0862 7.69288 3.24985 7.65571 4.28425 7.65417C4.94194 7.65417 5.74167 7.58469 6.0597 7.49978C6.37773 7.41641 6.89029 7.12163 7.19906 6.84529C7.50628 6.56895 7.84754 6.17063 7.95562 5.95757C8.06369 5.74607 8.19954 5.32921 8.25822 5.03124C8.31534 4.73483 8.28751 4.19601 8.19489 3.83474C8.10381 3.47348 7.80273 2.92383 7.52638 2.61351C7.25003 2.3032 6.79922 1.95583 6.52287 1.84158C6.18013 1.69954 5.28931 1.63472 1.38949 1.63472V14.4489H0V0.245235L3.20354 0.246743ZM98.8821 1.55753L92.0149 1.63472V6.57512L98.1132 6.65231V8.0418L92.0921 8.19618L92.0797 9.12251L92.0776 9.30222C92.07 9.93163 92.0524 11.3778 92.0149 14.4489H90.7026L90.5806 0.245235H98.8851L98.8821 1.55753ZM111.932 14.4489L110.62 14.3717L110.54 0.245235H111.932V14.4489ZM165.864 0.277651C168.949 0.330142 169.371 0.370299 170.136 0.675982C170.603 0.862785 171.327 1.27643 171.744 1.59447C172.162 1.91405 172.738 2.52245 173.027 2.94701C173.314 3.37159 173.684 4.08333 173.85 4.52948C174.015 4.97568 174.232 5.80939 174.333 6.38213C174.484 7.24357 174.475 7.63887 174.277 8.65935C174.146 9.33861 173.839 10.3081 173.593 10.8129C173.348 11.3193 172.8 12.0944 172.375 12.5359C171.881 13.0485 171.211 13.5256 169.442 14.3717L162.417 14.4489L162.442 0.220509L165.864 0.277651ZM28.4073 1.44792C28.0259 1.40624 27.3312 1.42929 26.8634 1.49722C26.3956 1.56669 25.6421 1.81535 25.1867 2.05311C24.7313 2.28933 24.018 2.84822 23.6042 3.29439C23.1889 3.74057 22.6609 4.5048 22.4325 4.99265C22.0697 5.76455 22.014 6.07338 22.0156 7.34705C22.0171 8.64387 22.0697 8.92027 22.4634 9.74006C22.7088 10.2495 23.226 11.0045 23.6119 11.4183C23.9994 11.8305 24.7329 12.3816 25.2423 12.6425C26.0235 13.0408 26.3864 13.1257 27.5581 13.1797C28.7052 13.2322 29.0958 13.186 29.7968 12.9174C30.2646 12.7383 30.9763 12.3491 31.3792 12.0542C31.7822 11.7578 32.3132 11.2206 32.5587 10.8594C32.8042 10.4981 33.1515 9.76939 33.3306 9.2383C33.519 8.68252 33.6564 7.88123 33.6564 7.34705C33.6564 6.83759 33.5329 6.02087 33.3816 5.533C33.2303 5.04514 32.8304 4.27009 32.4939 3.81001C32.1573 3.35149 31.5676 2.76324 31.1862 2.50541C30.8049 2.24605 30.1781 1.92029 29.7968 1.77825C29.4154 1.63777 28.7886 1.48961 28.4073 1.44792ZM163.805 1.63472V13.0594L169.131 12.9822C170.717 12.1192 171.342 11.6205 171.676 11.2067C171.981 10.8239 172.395 10.0951 172.596 9.58567C172.874 8.87704 172.96 8.35054 172.965 7.34705C172.968 6.36671 172.886 5.82015 172.64 5.18563C172.46 4.71939 172.065 4.02464 171.764 3.64176C171.461 3.25888 170.919 2.75237 170.559 2.51461C170.198 2.27686 169.556 1.98047 169.131 1.85695C168.608 1.70411 167.628 1.63152 166.082 1.63306L163.805 1.63472Z" fill="#FEFEFE"/>
</svg>
