<svg width="136" height="45" viewBox="0 0 136 45" fill="none" xmlns="http://www.w3.org/2000/svg">
<path d="M84.6914 13.715C85.3959 13.7106 86.076 13.756 86.708 13.8498C87.2323 13.9275 87.9756 14.0938 88.3584 14.2199C88.7411 14.346 89.3024 14.5728 89.6045 14.7238C89.9073 14.8749 90.394 15.1538 90.6865 15.3429C90.9791 15.5329 91.4619 15.9264 91.7588 16.2189C92.0557 16.5115 92.4486 16.9816 92.6318 17.2638C92.8143 17.5461 93.0838 18.0738 93.2305 18.4367C93.3771 18.7996 93.5609 19.3116 93.6387 19.5734C93.7164 19.8352 93.8476 20.3801 93.9297 20.7834C94.0125 21.1867 94.0786 21.6077 94.0771 21.9201L90.0186 21.883L89.9307 21.5168C89.8823 21.3152 89.7881 21.0024 89.7207 20.8205C89.6533 20.6387 89.4779 20.2756 89.332 20.0138C89.1861 19.7521 88.8667 19.3388 88.6211 19.0969C88.3322 18.8109 87.9821 18.5614 87.625 18.3869C87.3229 18.238 86.8767 18.062 86.6348 17.9953C86.3751 17.9235 85.7735 17.8576 85.1689 17.8342C84.3844 17.8034 83.9601 17.8245 83.3721 17.9221C82.9482 17.9917 82.4041 18.1229 82.1621 18.2131C81.9203 18.3032 81.5415 18.4925 81.3193 18.634C81.0972 18.7755 80.7588 19.0615 80.5674 19.2697C80.376 19.4773 80.1117 19.8698 79.9805 20.1418C79.751 20.6191 79.7422 20.6703 79.7422 21.5539C79.7422 22.4026 79.7574 22.5018 79.9443 22.8918C80.0551 23.1235 80.3184 23.499 80.5303 23.7248C80.7686 23.98 81.0971 24.2273 81.3926 24.3762C81.655 24.5088 82.1655 24.7329 82.5283 24.8752C82.8912 25.0174 83.5844 25.2695 84.0684 25.4367C84.5523 25.6039 85.5097 25.9245 86.1953 26.1496C86.8809 26.374 88.003 26.7643 88.6885 27.0158C89.374 27.268 90.2976 27.6372 90.7412 27.8351C91.1847 28.0338 91.7123 28.3071 91.9141 28.4435C92.1157 28.5792 92.4458 28.8276 92.6475 28.9963C92.8491 29.1642 93.1824 29.5138 93.3877 29.7726C93.593 30.0307 93.8741 30.4408 94.0127 30.6828C94.1505 30.9247 94.3337 31.3042 94.4209 31.5256C94.5074 31.747 94.6291 32.0944 94.6914 32.2961C94.7537 32.4978 94.8474 32.8938 94.8994 33.176C94.9544 33.4724 94.9941 34.2466 94.9941 35.009C94.9941 35.8169 94.9564 36.5274 94.8955 36.842C94.8405 37.1243 94.7481 37.5375 94.6895 37.759C94.6308 37.9804 94.5125 38.3599 94.4268 38.6017C94.3417 38.8437 94.1452 39.2808 93.9912 39.5734C93.8372 39.866 93.5939 40.2785 93.4502 40.4904C93.3064 40.7023 92.9846 41.1037 92.7354 41.383C92.4853 41.6623 92.0014 42.1085 91.6582 42.3732C91.3158 42.6387 90.7207 43.017 90.3379 43.215C89.9551 43.413 89.4102 43.6529 89.1279 43.7482C88.8458 43.8435 88.4012 43.9725 88.1387 44.0334C87.877 44.095 87.332 44.193 86.9287 44.2502C86.5254 44.3081 85.7162 44.3547 85.1318 44.3547C84.5475 44.3547 83.7227 44.3088 83.2988 44.2531C82.875 44.1966 82.3143 44.095 82.0518 44.0275C81.79 43.9593 81.3776 43.8369 81.1357 43.7541C80.8939 43.6713 80.4649 43.4893 80.1826 43.3478C79.9004 43.2071 79.4715 42.9564 79.2295 42.7922C78.9875 42.6279 78.5248 42.2413 78.2021 41.9318C77.8795 41.6231 77.4065 41.0775 77.1514 40.7189C76.8962 40.3611 76.5295 39.7384 76.3359 39.3351C76.1424 38.9318 75.882 38.3045 75.7588 37.9416C75.6349 37.5787 75.4686 37.0181 75.3887 36.6955C75.3088 36.3729 75.201 35.8543 75.1475 35.5441C75.0941 35.2344 75.0658 34.9654 75.0859 34.9445C75.1065 34.9254 75.7166 34.793 76.4424 34.6515C77.1683 34.5093 78.0599 34.3389 78.4229 34.2736C78.7856 34.2077 79.0901 34.1657 79.0996 34.1789C79.1089 34.1946 79.1695 34.5016 79.2344 34.8625C79.2996 35.2252 79.4172 35.7356 79.4971 35.9982C79.5762 36.2606 79.6911 36.5907 79.752 36.7316C79.812 36.8723 79.9306 37.1201 80.0156 37.2814C80.0999 37.4426 80.2758 37.7399 80.4062 37.9416C80.5367 38.1432 80.8618 38.5145 81.1279 38.7668C81.3941 39.019 81.7696 39.315 81.9609 39.425C82.1523 39.5342 82.5235 39.71 82.7852 39.8156C83.0475 39.9204 83.4765 40.0533 83.7383 40.1105C84.0529 40.1795 84.6392 40.2128 85.4619 40.2092C86.5008 40.2048 86.8059 40.1776 87.2949 40.0441C87.6175 39.9569 88.1122 39.7718 88.3945 39.634C88.6768 39.4961 89.123 39.1887 89.3848 38.9504C89.6473 38.7121 89.9796 38.3386 90.124 38.1193C90.2685 37.9008 90.4557 37.54 90.54 37.3185C90.6251 37.0971 90.7302 36.7424 90.7734 36.5304C90.8159 36.3186 90.8515 35.9316 90.8516 35.6691C90.8516 35.4066 90.814 35.0187 90.7686 34.8068C90.7223 34.5949 90.598 34.2411 90.4932 34.0197C90.3876 33.7984 90.1205 33.437 89.8984 33.217C89.6015 32.9222 89.3013 32.7253 88.7617 32.4709C88.3585 32.281 87.5336 31.9589 86.9287 31.7551C86.3238 31.552 85.2347 31.1994 84.5088 30.9728C83.7829 30.7455 82.6609 30.3596 82.0156 30.1154C81.3704 29.8712 80.5619 29.5397 80.2188 29.3791C79.8763 29.2178 79.3816 28.949 79.1191 28.7804C78.8567 28.6118 78.4614 28.3119 78.2393 28.1154C78.0172 27.9182 77.6687 27.5578 77.4648 27.3137C77.2611 27.0696 76.9621 26.6389 76.8008 26.3566C76.6403 26.0744 76.464 25.7443 76.4111 25.6232C76.3576 25.5022 76.2406 25.1721 76.1504 24.8898C76.0602 24.6076 75.9412 24.1458 75.8848 23.8635C75.8202 23.5379 75.7839 22.8798 75.7861 22.0666C75.7876 21.3198 75.8276 20.6001 75.8818 20.3439C75.9331 20.1021 76.0434 19.6731 76.127 19.3908C76.2113 19.1085 76.4046 18.6128 76.5557 18.2902C76.7066 17.9678 76.9578 17.5174 77.1133 17.2892C77.2687 17.0613 77.5793 16.6653 77.8037 16.4094C78.0281 16.1534 78.4898 15.7319 78.8301 15.4738C79.1703 15.215 79.7793 14.8463 80.1826 14.6535C80.5858 14.4615 81.2122 14.2203 81.5752 14.1183C81.938 14.0157 82.5488 13.8853 82.9316 13.8273C83.3143 13.7694 84.107 13.7187 84.6914 13.715ZM61.0254 13.383C61.5394 13.3999 62.2828 13.4776 62.6758 13.5539C63.0688 13.6309 63.6549 13.7781 63.9775 13.883C64.3002 13.9872 64.8452 14.2127 65.1875 14.3849C65.5299 14.5573 66.0554 14.863 66.3545 15.0646C66.6537 15.2655 67.1649 15.6629 67.4912 15.9474C67.8168 16.2312 68.3288 16.7598 68.6279 17.1213C68.9271 17.4821 69.3546 18.0575 69.5781 18.4006C69.801 18.7438 70.1375 19.3538 70.3252 19.757C70.5129 20.1603 70.7689 20.7876 70.8936 21.1506C71.0182 21.5136 71.2013 22.1237 71.3018 22.507C71.4015 22.8906 71.5495 23.5994 71.6309 24.0832C71.7123 24.5671 71.8139 25.4085 71.8564 25.9533C71.899 26.4981 71.9336 27.6276 71.9336 28.464C71.9336 29.3007 71.8982 30.4729 71.8564 31.0676C71.8139 31.6622 71.7003 32.627 71.6035 33.2121C71.5068 33.797 71.3297 34.6541 71.2109 35.1183C71.0914 35.5825 70.871 36.2922 70.7207 36.6955C70.5704 37.0987 70.3332 37.6593 70.1924 37.9416C70.0524 38.2238 69.8183 38.6527 69.6738 38.8947C69.5286 39.1367 69.2278 39.5828 69.0049 39.8849C68.7819 40.1878 68.3268 40.7074 67.9932 41.0402C67.6596 41.373 67.1151 41.8463 66.7822 42.092C66.4493 42.3383 65.9627 42.6587 65.7002 42.8039C65.4377 42.9491 64.9593 43.1756 64.6367 43.3068C64.314 43.4381 63.704 43.6375 63.2803 43.7482C62.5452 43.941 62.4319 43.9501 60.751 43.9523C59.2862 43.9538 58.8989 43.9316 58.4414 43.8195C58.1393 43.7455 57.6766 43.6172 57.4141 43.5344C57.1515 43.4514 56.674 43.2624 56.3516 43.1144C56.0289 42.9663 55.4675 42.646 55.1045 42.4025C54.7416 42.1591 54.1018 41.6324 53.6816 41.2336C53.2623 40.8347 52.7479 40.294 52.5381 40.0314C52.3291 39.769 52.0071 39.3245 51.8252 39.0422C51.6426 38.7599 51.3778 38.2971 51.2363 38.0148C51.0941 37.7325 50.858 37.1966 50.7129 36.8234C50.567 36.4501 50.3492 35.7899 50.2275 35.3566C50.1058 34.9233 49.9395 34.222 49.8574 33.799C49.776 33.3759 49.6595 32.6326 49.5986 32.1486C49.5378 31.6644 49.469 30.3621 49.4463 29.2531C49.414 27.6789 49.4316 26.9709 49.5254 26.0265C49.5914 25.3615 49.695 24.5194 49.7559 24.1564C49.8167 23.7936 49.9323 23.2 50.0137 22.8371C50.0943 22.4741 50.2618 21.8632 50.3857 21.4797C50.5089 21.0962 50.7367 20.4861 50.8906 20.1232C51.0446 19.7603 51.2984 19.2326 51.4531 18.9504C51.6086 18.6681 51.917 18.1758 52.1377 17.8576C52.3585 17.5386 52.8188 16.9802 53.1611 16.6174C53.5036 16.2551 54.0485 15.7551 54.3711 15.508C54.6937 15.2602 55.0896 14.9735 55.251 14.8693C55.4122 14.766 55.7753 14.5653 56.0576 14.423C56.3399 14.2808 56.8519 14.0655 57.1943 13.9445C57.5368 13.8235 58.099 13.6675 58.4414 13.5978C58.7838 13.5274 59.2959 13.4423 59.5781 13.4094C59.8606 13.3771 60.5118 13.3654 61.0254 13.383ZM38.2393 13.7082C38.6425 13.7082 39.2698 13.7589 39.6328 13.8205C39.9956 13.8828 40.4574 13.9862 40.6592 14.05C40.8608 14.1138 41.2082 14.2484 41.4297 14.3488C41.6519 14.4493 42.015 14.6473 42.2363 14.7902C42.4585 14.9325 42.814 15.2014 43.0273 15.3869C43.2415 15.5724 43.5755 15.9223 43.7705 16.1642C43.9656 16.4062 44.2328 16.8022 44.3633 17.0441C44.4938 17.2861 44.7062 17.748 44.8359 18.0705C44.9657 18.393 45.1434 18.9536 45.2314 19.3166C45.3187 19.6795 45.4252 20.2081 45.4678 20.4904C45.511 20.7728 45.5752 21.3169 45.6104 21.7004C45.6463 22.086 45.6768 27.1936 45.6826 43.6984H41.6494L41.6484 34.1838C41.6477 28.6308 41.6175 24.1504 41.5742 23.423C41.5317 22.714 41.4312 21.8607 41.3418 21.4435C41.2553 21.0402 41.1414 20.6277 41.0879 20.5265C41.0346 20.4265 40.9893 20.3114 40.9883 20.2707C40.9875 20.2304 40.844 19.9817 40.668 19.7199C40.4928 19.4582 40.2207 19.1352 40.0645 19.0031C39.9083 18.8704 39.7464 18.737 39.7061 18.7062C39.6656 18.6746 39.501 18.5785 39.3398 18.4914C39.1785 18.4041 38.9142 18.2798 38.7529 18.216C38.5916 18.1515 38.2128 18.0664 37.9102 18.0275C37.5648 17.9835 37.1279 17.983 36.7363 18.0256C36.3939 18.063 35.8992 18.1644 35.6367 18.2502C35.3743 18.3359 34.9461 18.5254 34.6836 18.6721C34.3955 18.8333 33.9608 19.1881 33.584 19.5685C33.2417 19.9145 32.9021 20.2797 32.8301 20.381C32.7582 20.4815 32.5873 20.7941 32.4502 21.0763C32.3138 21.3587 32.1497 21.7144 32.0859 21.8654C32.0224 22.016 31.971 22.1723 31.9707 22.2131C31.9707 22.2534 31.9217 22.4272 31.8623 22.5988C31.8028 22.771 31.6817 23.3397 31.5938 23.8635C31.4347 24.8047 31.4322 24.9326 31.3838 43.6984H27.3506L27.3037 22.5431L27.1416 21.8097C27.0529 21.4067 26.9129 20.8956 26.8301 20.674C26.748 20.4526 26.5705 20.0722 26.4355 19.8303C26.3006 19.5883 26.0137 19.2235 25.7988 19.0197C25.5835 18.8169 25.293 18.5805 25.1514 18.4953C25.0106 18.4095 24.6805 18.2652 24.418 18.175C24.0315 18.0423 23.7811 18.0119 23.0977 18.0119C22.5604 18.0126 22.0819 18.0568 21.7783 18.133C21.5166 18.1997 21.0238 18.394 20.6836 18.5656C20.2869 18.7658 19.8834 19.0472 19.5557 19.3537C19.2756 19.6155 18.9379 19.9785 18.8066 20.1603C18.6747 20.3422 18.4662 20.688 18.3438 20.9299C18.2214 21.1717 18.0407 21.6007 17.9424 21.883C17.8434 22.1653 17.7052 22.6444 17.6348 22.9465C17.5644 23.2493 17.4395 23.9095 17.3574 24.4133C17.213 25.2945 17.2066 25.6834 17.1582 43.6984H13.0518V14.3674H16.7188L16.7002 16.3469C16.6855 17.8915 16.7016 18.3272 16.7734 18.3273C16.824 18.3273 16.8657 18.2861 16.8672 18.2355C16.8687 18.1849 17.0447 17.8795 17.2588 17.5568C17.4729 17.2342 17.8594 16.726 18.1182 16.4269C18.3762 16.1286 18.8522 15.6811 19.1748 15.4318C19.4973 15.1834 19.9591 14.8627 20.2012 14.7189C20.4431 14.5752 20.7247 14.4336 20.8252 14.4035C20.926 14.3742 21.0405 14.3251 21.0811 14.2951C21.1214 14.265 21.3692 14.1699 21.6309 14.0842C21.8933 13.9984 22.3388 13.8821 22.6211 13.8263C22.9034 13.7706 23.4978 13.7216 23.9414 13.7179C24.385 13.7136 25.0287 13.7594 25.3711 13.8195C25.7143 13.8796 26.2089 14.0006 26.4707 14.0871C26.7331 14.1736 27.162 14.3584 27.4238 14.4992C27.6863 14.64 28.0494 14.8577 28.2305 14.9816C28.4123 15.1062 28.7429 15.3903 28.9658 15.6125C29.1887 15.8354 29.5235 16.2481 29.709 16.5304C29.8952 16.8128 30.1632 17.2918 30.3047 17.5939C30.4462 17.8967 30.6069 18.2849 30.6611 18.4572C30.7159 18.6286 30.7768 18.769 30.7969 18.7687C30.8174 18.768 30.931 18.5939 31.0498 18.382C31.1687 18.17 31.4647 17.7172 31.708 17.3742C31.9515 17.031 32.4488 16.4513 32.8125 16.0861C33.1762 15.721 33.6877 15.2706 33.9502 15.0851C34.2127 14.9004 34.6252 14.649 34.8672 14.5265C35.1092 14.4041 35.5382 14.2219 35.8203 14.1222C36.1027 14.0225 36.5974 13.8889 36.9199 13.8244C37.2425 13.7606 37.836 13.709 38.2393 13.7082ZM103.398 10.9025C103.403 14.7223 103.403 17.9063 103.398 17.9787C103.393 18.0491 103.415 18.1091 103.445 18.1105C103.476 18.1112 103.597 17.9706 103.715 17.798C103.834 17.6248 104.263 17.1518 104.668 16.7472C105.074 16.3432 105.703 15.8134 106.066 15.5715C106.429 15.3288 106.991 15.0203 107.313 14.8869C107.636 14.7528 108.147 14.5813 108.449 14.5051C108.751 14.4288 109.281 14.3298 109.623 14.2844C109.974 14.2375 110.582 14.2211 111.016 14.2453C111.439 14.2702 112.067 14.3431 112.409 14.4084C112.752 14.4744 113.297 14.6246 113.619 14.7433C113.942 14.8614 114.42 15.0776 114.683 15.2228C114.945 15.3673 115.34 15.627 115.562 15.8C115.785 15.9723 116.152 16.3068 116.38 16.5422C116.608 16.7775 116.907 17.1528 117.046 17.3742C117.184 17.5956 117.383 17.9594 117.487 18.1808C117.591 18.4023 117.765 18.8475 117.87 19.1701C117.976 19.4927 118.125 20.0213 118.2 20.3439C118.276 20.6667 118.392 21.326 118.459 21.8097C118.526 22.2937 118.61 23.284 118.646 24.0099C118.681 24.7361 118.711 29.4633 118.715 43.6984H114.683V34.1838C114.683 28.2137 114.653 24.3703 114.606 23.8635C114.565 23.42 114.465 22.777 114.385 22.4338C114.305 22.0906 114.158 21.595 114.059 21.3332C113.96 21.0716 113.779 20.7004 113.657 20.509C113.536 20.3176 113.296 20.0077 113.124 19.8215C112.952 19.6353 112.648 19.3724 112.446 19.2375C112.245 19.1033 111.865 18.9083 111.603 18.8049C111.34 18.7022 110.912 18.5808 110.649 18.5353C110.378 18.4891 109.824 18.4704 109.366 18.4924C108.783 18.5202 108.396 18.5845 107.973 18.7209C107.65 18.825 107.155 19.0455 106.873 19.2111C106.591 19.3768 106.18 19.6672 105.961 19.8556C105.742 20.0434 105.395 20.3996 105.191 20.6467C104.988 20.8937 104.698 21.3389 104.55 21.6359C104.402 21.9327 104.215 22.3743 104.135 22.6164C104.055 22.8584 103.921 23.3367 103.84 23.6799C103.758 24.0231 103.638 24.7484 103.569 25.2931C103.462 26.1577 103.442 27.385 103.39 43.6984H99.4307V3.95525H103.39L103.398 10.9025ZM129.055 43.6984H125.021L125.003 29.2472C124.993 21.2987 124.999 14.7817 125.016 14.7648C125.037 14.748 125.956 14.7346 129.055 14.7346V43.6984ZM7.71777 38.1369C7.84019 38.1296 7.93406 38.1688 7.95605 38.2355C7.97652 38.2969 7.99217 38.5183 7.99219 38.7297C7.9917 38.9863 7.94298 39.1948 7.8457 39.3537C7.76493 39.4849 7.58377 39.6405 7.44238 39.7013C7.23407 39.7907 6.78619 39.8117 2.93359 39.8117V40.3986L2.16309 40.3615V39.8488L0.696289 39.8029L0.146484 39.0051L2.15625 38.9679L2.12695 38.1984H2.93359V39.0051H4.91309C6.88282 39.0051 6.89325 39.0042 7.00684 38.84C7.08016 38.733 7.10648 38.5907 7.08008 38.4367C7.04127 38.2119 7.05271 38.1974 7.27734 38.174C7.4086 38.1601 7.60705 38.1435 7.71777 38.1369ZM60.8975 17.4963C60.6152 17.4779 60.169 17.4892 59.9072 17.5207C59.6447 17.5522 59.2322 17.6344 58.9902 17.7033C58.7482 17.7716 58.3358 17.9447 58.0742 18.0861C57.8117 18.2284 57.4158 18.4846 57.1943 18.6554C56.9722 18.8256 56.5762 19.1945 56.3145 19.4767C56.052 19.7582 55.6831 20.2166 55.4932 20.4953C55.304 20.7747 55.017 21.283 54.8564 21.6262C54.6951 21.9686 54.4821 22.5135 54.3809 22.8361C54.2797 23.1587 54.1483 23.6205 54.0889 23.8625C54.0295 24.1045 53.9281 24.633 53.8643 25.0363C53.8012 25.4396 53.7161 26.1648 53.6758 26.6486C53.6355 27.1326 53.6023 28.0571 53.6016 28.7023C53.6016 29.3476 53.6489 30.3872 53.7061 31.0119C53.764 31.6366 53.8786 32.4787 53.96 32.882C54.0421 33.2852 54.195 33.9116 54.2998 34.2746C54.4047 34.6375 54.5812 35.1488 54.6904 35.4113C54.7997 35.6738 55.0418 36.1522 55.2295 36.4748C55.4179 36.7974 55.7651 37.2921 56.002 37.5744C56.238 37.8566 56.6769 38.2938 56.9775 38.5461C57.2781 38.7975 57.7877 39.1369 58.1104 39.299C58.433 39.4611 58.9615 39.6634 59.2842 39.7492C59.7204 39.8657 60.0963 39.9054 60.751 39.9084C61.4426 39.9113 61.7513 39.8788 62.1982 39.7521C62.5106 39.6641 62.9404 39.5042 63.1523 39.3986C63.3643 39.2923 63.6854 39.1038 63.8672 38.9806C64.0484 38.8573 64.4232 38.54 64.7002 38.2756C64.9774 38.0109 65.394 37.5464 65.625 37.2443C65.8552 36.9415 66.1669 36.464 66.3164 36.1818C66.466 35.8995 66.6986 35.371 66.835 35.008C66.9713 34.645 67.1662 34.0013 67.2666 33.5783C67.3678 33.1552 67.5102 32.4291 67.582 31.965C67.6891 31.281 67.7131 30.6642 67.7139 28.7023C67.7139 26.7457 67.6898 26.1214 67.585 25.4396C67.5131 24.9755 67.3751 24.2658 67.2783 23.8625C67.1823 23.4592 66.9908 22.8162 66.8516 22.4328C66.713 22.0493 66.4748 21.5052 66.3223 21.2228C66.1705 20.9405 65.8723 20.4788 65.6611 20.1965C65.45 19.9142 65.0343 19.4531 64.7373 19.173C64.4396 18.8929 63.9988 18.5367 63.7568 18.382C63.5148 18.2273 63.0686 18.0059 62.7666 17.8908C62.4638 17.7757 62.0348 17.6474 61.8135 17.6056C61.5913 17.5639 61.1796 17.5146 60.8975 17.4963ZM7.91895 31.5988L5.88477 31.5978C4.53996 31.5971 3.76216 31.6251 3.59277 31.6808C3.452 31.7278 3.26057 31.836 3.16895 31.9211C3.0766 32.0062 2.96877 32.1752 2.92773 32.2961C2.87647 32.4471 2.87691 32.614 2.92969 32.8273C2.97222 32.9989 3.08388 33.2303 3.17773 33.341C3.2725 33.4517 3.48659 33.6008 3.6543 33.6711C3.85746 33.756 4.23638 33.8109 4.78418 33.8351C5.23804 33.8549 6.12932 33.8715 7.91895 33.8722V34.6056H0V33.8722L0.97168 33.8312C1.50616 33.8085 2.11613 33.8085 2.32812 33.8312C2.53939 33.8539 2.71331 33.8474 2.71582 33.8176C2.71655 33.7875 2.62927 33.6805 2.52148 33.5793C2.41447 33.4789 2.26622 33.264 2.19141 33.1027C2.11664 32.9414 2.05668 32.6442 2.05664 32.4426C2.05664 32.241 2.09664 31.9499 2.14648 31.7951C2.19556 31.6405 2.33515 31.4169 2.45605 31.298C2.57704 31.1792 2.85863 31.0174 3.08008 30.9396C3.44432 30.8107 3.69848 30.7966 7.91895 30.7922V31.5988ZM5.27637 27.383L5.58984 27.3254C5.76204 27.2939 6.05132 27.2209 6.23242 27.1623C6.41427 27.1044 6.67538 26.9476 6.8125 26.8156C6.94946 26.6836 7.10515 26.4692 7.16016 26.3381C7.2144 26.2068 7.25999 26.0257 7.26074 25.9347C7.26221 25.8438 7.21296 25.6454 7.15137 25.4943C7.08605 25.3323 6.91152 25.128 6.72754 24.9953C6.55599 24.8722 6.33747 24.7495 6.24219 24.7209C6.07944 24.674 6.07124 24.6453 6.11816 24.3029C6.14601 24.1015 6.19089 23.9125 6.21875 23.883C6.24661 23.8537 6.41849 23.8878 6.59961 23.9582C6.7814 24.0293 7.02846 24.1403 7.14941 24.2062C7.2704 24.2722 7.45764 24.4209 7.56543 24.5353C7.67321 24.6497 7.83047 24.9162 7.91406 25.1281C8.00277 25.3524 8.06638 25.6808 8.06641 25.9162C8.06641 26.1375 8.00247 26.4923 7.9248 26.7043C7.82435 26.98 7.67195 27.1903 7.39258 27.4426C7.17845 27.6368 6.82169 27.867 6.59961 27.9543C6.25063 28.0914 6.04811 28.1122 5.09668 28.1144C4.10678 28.1159 3.94849 28.099 3.51953 27.9377C3.1632 27.8035 2.941 27.6548 2.63965 27.3498C2.39261 27.0991 2.20147 26.8282 2.14648 26.6486C2.09665 26.488 2.05542 26.191 2.05469 25.9894C2.05472 25.7878 2.09152 25.4905 2.1377 25.3293C2.18628 25.1599 2.36372 24.8857 2.55859 24.6799C2.7448 24.4842 2.99524 24.2713 3.11621 24.2082C3.2372 24.1444 3.53439 24.0354 3.77637 23.965C4.01831 23.8946 4.4553 23.8344 5.2793 23.8263L5.27637 27.383ZM4.02832 24.7297C3.78854 24.7803 3.50312 24.9073 3.33594 25.0363C3.17984 25.1573 3.00784 25.3631 2.95508 25.4943C2.90236 25.6255 2.85941 25.8314 2.85938 25.9523C2.85938 26.0733 2.89425 26.2635 2.9375 26.3742C2.98001 26.4849 3.08781 26.6536 3.17578 26.7482C3.26377 26.8428 3.46028 26.9828 3.61133 27.0597C3.76237 27.136 4.01868 27.224 4.18066 27.2541L4.47559 27.3088C4.47339 25.2346 4.46437 24.6359 4.4541 24.6388C4.44072 24.6431 4.25064 24.6832 4.02832 24.7297ZM128.814 6.96111C128.844 6.96111 129.116 7.09746 129.419 7.26385C129.722 7.42954 130.131 7.66823 130.327 7.7951C130.641 7.99747 130.726 8.11277 131.036 8.75799C131.23 9.16105 131.455 9.68868 131.536 9.93084C131.618 10.1728 131.707 10.5861 131.735 10.8478C131.773 11.1954 131.754 11.439 131.667 11.7463C131.582 12.0461 131.463 12.2522 131.254 12.4611C131.093 12.6223 130.821 12.8211 130.649 12.9025C130.478 12.9839 130.139 13.0856 129.897 13.1281C129.586 13.1831 129.334 13.1828 129.036 13.1271C128.804 13.0839 128.507 12.9941 128.376 12.9289C128.245 12.8636 128.024 12.7237 127.885 12.6174C127.73 12.4993 127.546 12.2393 127.409 11.9474C127.202 11.5034 127.187 11.4125 127.185 9.76385L126.781 10.2072C126.559 10.4514 126.197 10.7908 125.975 10.9631C125.753 11.1345 125.407 11.3498 125.205 11.4416C124.94 11.5618 124.695 11.6095 124.324 11.6125C123.915 11.6161 123.74 11.5805 123.458 11.4347C123.264 11.3336 122.994 11.1358 122.859 10.9943C122.725 10.8529 122.528 10.5729 122.424 10.3713C122.319 10.1697 122.213 9.85614 122.188 9.67498C122.163 9.49024 122.185 9.16742 122.238 8.94158C122.304 8.6638 122.414 8.45101 122.595 8.25603C122.74 8.10058 122.957 7.9131 123.078 7.83904C123.199 7.76571 123.52 7.64551 123.791 7.57146C124.276 7.44026 124.285 7.44072 124.437 7.58514C124.575 7.71712 124.615 7.72196 124.824 7.63396C124.953 7.58045 125.272 7.48997 125.534 7.43279C125.797 7.37561 126.234 7.26247 126.506 7.18182C126.941 7.05211 127.01 7.04811 127.074 7.14471C127.131 7.23045 127.088 7.29194 126.873 7.42596C126.722 7.52055 126.524 7.6366 126.433 7.68279C126.342 7.7297 126.235 7.75215 126.194 7.73162C126.154 7.71117 126.08 7.74648 126.029 7.80877C125.955 7.90095 125.961 7.94524 126.064 8.04705C126.184 8.16436 126.201 8.16294 126.358 8.01482C126.45 7.92836 126.689 7.7559 126.891 7.63201C127.092 7.50767 127.282 7.40474 127.312 7.4035C127.343 7.40203 127.367 7.44274 127.365 7.49334C127.364 7.54393 127.318 7.6181 127.265 7.65838C127.209 7.70004 126.767 8.03712 126.278 8.40936C125.789 8.78259 125.388 9.12098 125.388 9.16131C125.388 9.20164 125.281 9.27395 124.911 9.4074L125.131 9.43768C125.252 9.45454 125.373 9.50598 125.398 9.55291C125.424 9.59965 125.482 9.61303 125.526 9.58318C125.581 9.54658 125.584 9.49766 125.536 9.4367C125.485 9.3722 125.522 9.28808 125.664 9.15252C125.774 9.04693 126.179 8.72999 126.562 8.44842C126.944 8.1672 127.313 7.86632 127.381 7.77947C127.448 7.69295 127.54 7.62127 127.583 7.62127C127.634 7.62193 127.645 7.74321 127.615 7.9699C127.59 8.16128 127.507 8.42558 127.432 8.55682C127.308 8.77203 127.305 8.81155 127.404 8.97771C127.465 9.07817 127.548 9.16131 127.588 9.16131C127.628 9.16106 127.719 9.07709 127.789 8.97478C127.895 8.81935 127.902 8.75884 127.828 8.62615C127.767 8.5169 127.756 8.33374 127.792 8.0617C127.827 7.79449 127.881 7.65333 127.954 7.63787C128.029 7.62247 128.156 7.81098 128.351 8.22381C128.508 8.5582 128.8 9.17796 128.999 9.60174C129.198 10.0254 129.374 10.3796 129.391 10.3898C129.407 10.4001 129.454 10.3918 129.494 10.3713C129.536 10.35 129.457 10.1147 129.311 9.82146C129.171 9.54083 129.056 9.29473 129.055 9.27166C129.055 9.25114 128.873 8.85499 128.651 8.39178C128.431 7.93145 128.25 7.53725 128.248 7.51189C128.248 7.49138 128.339 7.42306 128.449 7.35857C128.645 7.24568 128.657 7.24911 128.896 7.4865C129.03 7.62142 129.542 8.1885 130.032 8.74725C130.523 9.30524 130.932 9.81724 130.941 9.88396C130.951 9.95061 130.984 10.0332 131.015 10.0676C131.045 10.1018 131.112 10.1101 131.162 10.0861C131.213 10.0612 131.254 9.97533 131.254 9.89471C131.254 9.81407 131.097 9.59094 130.905 9.39959C130.713 9.20821 130.152 8.59749 129.658 8.04314C129.165 7.48913 128.761 7.01922 128.761 6.99822C128.761 6.97769 128.785 6.96111 128.814 6.96111ZM129.75 10.5207C129.69 10.5024 129.587 10.5372 129.524 10.5988C129.461 10.6604 129.412 10.7668 129.414 10.8342C129.416 10.9015 129.46 10.9986 129.511 11.05C129.562 11.1005 129.645 11.1424 129.695 11.1418C129.746 11.141 129.82 11.0748 129.86 10.9943C129.901 10.9137 129.918 10.781 129.897 10.7004C129.877 10.6199 129.811 10.5392 129.75 10.5207ZM128.725 0.000175129C128.926 -0.00342636 129.256 0.0489635 129.458 0.116386C129.66 0.18388 129.94 0.311898 130.081 0.400566C130.222 0.488656 130.455 0.689073 130.597 0.845878C130.74 1.00354 130.936 1.29758 131.036 1.4992C131.187 1.80622 131.217 1.97289 131.217 2.52557C131.218 3.07159 131.181 3.28641 131.004 3.77166C130.887 4.09429 130.746 4.4244 130.691 4.50506C130.637 4.5857 130.594 4.67715 130.594 4.70721C130.598 4.7354 130.864 4.62091 131.189 4.45037C131.734 4.16586 131.84 4.13594 132.418 4.11248C132.942 4.09197 133.126 4.11678 133.49 4.25603C133.732 4.3491 134.062 4.52592 134.224 4.65057C134.385 4.77519 134.623 5.04122 134.752 5.24139C134.901 5.47153 135.02 5.77998 135.074 6.08123C135.122 6.34283 135.14 6.73885 135.114 6.96111C135.089 7.18329 134.99 7.52997 134.894 7.73162C134.798 7.93327 134.607 8.21071 134.472 8.34783C134.335 8.48488 134.059 8.67365 133.857 8.76678C133.656 8.85987 133.326 8.95665 133.124 8.98162C132.889 9.01021 132.572 8.98337 132.244 8.90643C131.962 8.84047 131.573 8.71316 131.38 8.62518C131.187 8.53728 131.03 8.4239 131.031 8.37322C131.033 8.32263 131.117 8.26485 131.218 8.24432C131.318 8.2237 131.402 8.1669 131.403 8.11639C131.406 8.06579 131.364 7.98363 131.312 7.93377C131.259 7.88404 131.118 7.8493 130.997 7.85662C130.854 7.86603 130.661 7.79223 130.447 7.64568C130.266 7.52177 129.813 7.26743 129.439 7.08123C128.923 6.8224 128.761 6.70635 128.761 6.5949C128.761 6.46291 128.822 6.44479 129.366 6.41326C129.699 6.39419 130.318 6.36006 130.741 6.33807C131.165 6.3161 131.742 6.3273 132.024 6.36248C132.307 6.39767 132.587 6.44865 132.647 6.47576C132.708 6.50284 132.817 6.48386 132.89 6.43182C132.968 6.37683 133.005 6.28635 132.98 6.21014C132.945 6.09502 132.854 6.08511 132.079 6.11736C131.606 6.13716 130.748 6.17007 130.173 6.1906C129.5 6.2148 129.128 6.2014 129.128 6.15447C129.13 6.11359 129.385 5.98177 129.696 5.86053C130.008 5.73969 130.346 5.63993 130.447 5.63982C130.548 5.63909 130.68 5.61057 130.741 5.57537C130.802 5.54015 130.826 5.47447 130.796 5.42986C130.766 5.38516 130.692 5.34885 130.631 5.34881C130.57 5.34881 130.183 5.48028 129.77 5.6408C129.357 5.80081 128.995 5.93211 128.963 5.93377C128.933 5.9345 128.923 5.89354 128.941 5.84295C128.962 5.79183 129.274 5.59442 129.638 5.4035C130.002 5.21239 130.391 5.0558 130.502 5.05682C130.613 5.05828 130.77 5.10899 130.851 5.16912C130.931 5.22902 131.03 5.27721 131.07 5.27752C131.111 5.27752 131.21 5.23144 131.291 5.17498C131.422 5.08187 131.425 5.05767 131.327 4.94842C131.238 4.8497 131.125 4.83298 130.741 4.8615C130.456 4.8835 130.087 4.97588 129.824 5.091C129.582 5.19732 129.211 5.39772 128.999 5.53631C128.787 5.67484 128.598 5.82119 128.577 5.8615C128.553 5.90905 128.483 5.90589 128.376 5.85174C128.286 5.80683 128.203 5.76587 128.189 5.75994C128.178 5.75554 128.362 5.22357 128.601 4.5783C128.839 3.93353 129.071 3.23311 129.117 3.02068C129.163 2.80877 129.234 2.61861 129.274 2.59881C129.315 2.5782 129.349 2.48752 129.351 2.39666C129.353 2.30595 129.302 2.18244 129.237 2.12225C129.132 2.02399 129.103 2.02979 128.959 2.17791C128.822 2.31938 128.812 2.36553 128.89 2.48943C128.94 2.5701 128.98 2.69352 128.98 2.76385C128.981 2.83474 128.896 3.15643 128.792 3.47869C128.687 3.80133 128.468 4.41134 128.304 4.83514C128.139 5.25823 127.969 5.6288 127.925 5.6574C127.88 5.68575 127.821 5.68578 127.793 5.6574C127.764 5.62881 127.706 5.07706 127.661 4.43182C127.586 3.33966 127.59 3.24987 127.712 3.12615C127.822 3.01544 127.829 2.96952 127.753 2.85076C127.702 2.7723 127.661 2.65065 127.662 2.58025C127.663 2.5099 127.622 2.40992 127.571 2.35857C127.52 2.30805 127.453 2.26617 127.423 2.26678C127.393 2.26751 127.301 2.37576 127.221 2.50701C127.141 2.63816 127.076 2.8111 127.076 2.89178C127.077 2.97244 127.156 3.12066 127.253 3.22185C127.419 3.39481 127.431 3.47224 127.522 5.82537L127.279 5.5324C127.147 5.37193 126.954 5.15706 126.853 5.05584C126.751 4.95465 126.519 4.75108 126.339 4.60369C126.158 4.45702 125.797 4.22171 125.534 4.08025C125.272 3.93959 124.976 3.79942 124.875 3.77068C124.775 3.74139 124.626 3.65547 124.545 3.57928C124.4 3.44216 124.395 3.4419 124.251 3.58709C124.111 3.72841 124.111 3.74203 124.233 3.88201C124.336 3.99893 124.387 4.01142 124.489 3.94646C124.592 3.88121 124.73 3.916 125.168 4.11834C125.471 4.25834 125.923 4.52634 126.176 4.71404C126.427 4.90136 126.634 5.08725 126.635 5.1281C126.635 5.16835 126.602 5.21785 126.562 5.23846C126.521 5.25825 126.331 5.18212 126.14 5.06853C125.948 4.95488 125.61 4.79836 125.388 4.7199C125.166 4.64218 124.951 4.5322 124.911 4.47576C124.869 4.41647 124.785 4.39332 124.71 4.42107C124.623 4.45334 124.587 4.53371 124.6 4.6701C124.616 4.85775 124.638 4.87054 124.911 4.84783C125.1 4.8317 125.334 4.88067 125.571 4.98553C125.773 5.07495 126.152 5.29083 126.414 5.466C126.677 5.64051 126.957 5.83409 127.038 5.89568C127.136 5.97087 127.16 6.03335 127.111 6.08221C127.062 6.13109 126.842 6.11891 126.451 6.04607C126.129 5.98595 125.486 5.9111 125.021 5.88103C124.558 5.85029 124.13 5.82546 124.068 5.82537C124.007 5.82537 123.958 5.89046 123.958 5.97185C123.958 6.10948 123.999 6.11713 124.618 6.09295C124.983 6.0783 125.647 6.11951 126.103 6.18475C126.902 6.29833 126.928 6.30744 126.928 6.48455C126.928 6.58471 126.903 6.66766 126.873 6.66814C126.843 6.66741 126.521 6.62058 126.158 6.56267C125.795 6.50548 125.052 6.41917 124.508 6.37225C123.964 6.32536 123.477 6.2495 123.424 6.2033C123.35 6.13738 123.329 6.14684 123.332 6.24627C123.333 6.31666 123.285 6.39078 123.225 6.41131C123.164 6.43104 123.099 6.39816 123.078 6.33807C123.058 6.27801 123.008 6.22869 122.968 6.22869C122.928 6.22895 122.893 6.26926 122.892 6.31951C122.889 6.37011 122.942 6.46153 123.008 6.52166C123.097 6.60445 123.157 6.61131 123.249 6.55193C123.337 6.49561 123.682 6.49991 124.472 6.56658C125.077 6.61791 125.827 6.69423 126.14 6.73748C126.451 6.7799 126.707 6.84751 126.708 6.88787C126.708 6.9282 126.691 6.96111 126.671 6.96111C126.648 6.96171 126.295 7.04803 125.883 7.15252C125.469 7.25807 124.975 7.34118 124.783 7.33611C124.592 7.33171 124.179 7.24297 123.866 7.13885C123.554 7.03544 123.101 6.84526 122.86 6.71697C122.619 6.58935 122.254 6.31994 122.05 6.11834C121.801 5.87209 121.625 5.61312 121.517 5.33025C121.428 5.09854 121.355 4.78404 121.354 4.63299C121.354 4.48183 121.407 4.17647 121.473 3.95525C121.538 3.7331 121.683 3.4203 121.794 3.25896C121.904 3.09765 122.106 2.87774 122.243 2.77068C122.38 2.66366 122.64 2.50756 122.821 2.424C123.041 2.32237 123.304 2.27073 123.609 2.26971C123.906 2.26897 124.203 2.3233 124.453 2.42303C124.665 2.50739 125.019 2.6966 125.239 2.84393C125.46 2.9913 125.835 3.29265 126.072 3.51482C126.48 3.89612 126.499 3.90666 126.44 3.69842C126.405 3.57713 126.379 3.13177 126.381 2.70818C126.383 2.28466 126.423 1.80716 126.47 1.64568C126.517 1.48438 126.664 1.19034 126.797 0.992363C126.93 0.794385 127.17 0.541808 127.331 0.431816C127.492 0.321826 127.79 0.180666 127.991 0.118339C128.193 0.0560508 128.523 0.00310675 128.725 0.000175129ZM127.7 6.30193C127.76 6.30218 127.827 6.3762 127.852 6.46697C127.876 6.55775 127.86 6.70522 127.815 6.79607C127.769 6.88976 127.68 6.95326 127.606 6.94256C127.535 6.93229 127.469 6.84989 127.459 6.75896C127.449 6.66882 127.475 6.52903 127.517 6.44842C127.558 6.36776 127.641 6.30193 127.7 6.30193Z" fill="white"/>
</svg>
