<svg width="221" height="20" viewBox="0 0 221 20" fill="none" xmlns="http://www.w3.org/2000/svg">
<path d="M0.468764 7.77244C2.08275 3.94912 4.81615 1.64341 9.06284 1.21578C11.3728 0.981039 13.5989 1.47149 15.5483 2.43157C17.0784 3.18192 16.2442 5.01395 16.2652 6.41416C15.4477 6.40577 15.5357 5.8314 15.3931 5.5044C14.538 3.52569 13.1 2.43576 10.9116 2.29739C8.50111 2.14644 6.5182 2.81719 5.15572 4.93009C3.16436 8.02815 3.59198 13.3648 6.02349 16.1191C8.66457 19.1082 14.1732 19.1291 15.7327 14.5973C16.6089 17.5529 16.1813 18.3159 13.3012 18.9489C7.61232 20.2024 4.11185 18.5255 0.464571 12.7989C-0.174303 10.917 -0.135101 9.81659 0.464571 7.77244H0.468764Z" fill="white"/>
<path d="M129.956 1.58464L136.414 1.71263C136.07 2.98711 134.249 1.88228 134.211 3.04355C134.156 4.92164 134.161 6.80817 134.232 8.68626C134.253 9.18936 134.84 9.15162 135.259 9.14323C136.966 9.1055 138.546 8.73658 138.969 6.80398C139.355 5.04743 139.049 3.46279 137.116 2.66624C136.806 2.54052 133.96 2.31969 133.642 2.11429C135.365 1.17525 140.805 1.9284 141.837 3.55084C143.082 5.5086 142.273 7.31959 139.137 9.40733C139.409 9.56667 139.619 9.73013 139.858 9.81818C142.453 10.7614 143.539 12.1574 143.358 14.3416C143.183 16.4502 141.33 18.3661 138.915 18.668C135.598 19.083 132.257 18.4248 128.686 18.6847C131.637 18.2362 130.953 16.1358 130.966 14.4002C130.991 11.122 130.966 7.84366 130.975 4.56536C130.975 3.63883 131.017 2.71656 129.956 2.26797C129.956 2.04161 129.956 1.81526 129.956 1.59303V1.58464ZM134.156 13.6918C134.156 14.1781 134.119 14.6728 134.165 15.1549C134.253 16.0729 133.762 17.2133 134.903 17.7792C136.14 18.3955 137.385 18.0936 138.479 17.3852C140.584 16.0227 140.688 12.321 138.671 10.8453C137.493 9.98584 136.022 9.55828 134.714 10.0529C133.528 10.5015 134.374 11.9059 134.165 12.8575C134.106 13.1216 134.156 13.4151 134.156 13.6918Z" fill="white"/>
<path d="M25.2964 18.6764H19.7292C20.9574 17.9721 21.23 17.1168 21.209 16.0059C21.1419 12.1029 21.1587 8.2 21.2048 4.29701C21.2174 3.1567 21.0413 2.22604 19.8088 1.87809C19.8968 1.65173 19.9094 1.45466 19.9932 1.41698C22.626 0.237541 23.9438 1.07741 23.9466 3.93647C23.9466 4.28443 23.9424 4.63238 23.9466 4.98034C23.9633 6.09549 23.5483 7.56692 24.1016 8.23767C25.0198 9.34863 25.8917 7.64659 26.9062 7.44958C28.9437 7.0555 30.6289 7.99873 30.7925 10.0739C30.9518 12.082 30.8805 14.111 30.8637 16.1316C30.8554 17.1755 30.8554 18.1649 32.0627 18.6554H26.5709C27.9753 18.0517 28.2016 17.2552 28.1388 16.2197C28.0424 14.6225 28.0801 13.0126 28.122 11.4112C28.1598 10.0781 27.6064 9.11808 26.2648 9.16001C25.0156 9.19774 23.7788 9.54151 23.9214 11.3651C24.0513 13.0294 23.9927 14.7105 23.934 16.3832C23.8962 17.4648 23.9843 18.3619 25.3006 18.6805L25.2964 18.6764Z" fill="white"/>
<path d="M164.302 13.6289C164.592 15.4483 163.41 17.2468 165.581 18.6051H159.876C161.284 18.0559 161.439 17.2258 161.422 16.1778C161.36 12.279 161.393 8.38023 161.397 4.47731C161.397 3.36635 161.67 2.15482 159.607 1.8655C161.372 0.888725 162.688 0.406659 164.336 0V13.3061C165.866 11.8346 167.006 10.7614 168.117 9.66304C169.207 8.58989 167.493 8.66949 167.392 7.91913H172.138C170.469 8.71142 169.174 9.87269 167.916 11.1261C167.216 11.8263 167.145 12.3502 167.803 13.0462C169.45 14.7901 170.562 16.9995 172.935 18.5757C170.385 18.8566 168.373 19.1375 167.115 16.6515C166.554 15.5448 165.748 14.4422 164.298 13.6247L164.302 13.6289Z" fill="white"/>
<path d="M91.4377 18.5925C90.4646 18.668 90.1252 18.7141 89.7898 18.7183C88.4693 18.7267 87.1528 18.7183 85.7445 18.7183C87.4004 17.0456 87.2493 10.4009 85.6187 9.20194C88.1884 7.32379 89.3878 7.23161 89.9029 8.87495C90.641 8.48925 91.3538 8.04905 92.1166 7.73464C94.6277 6.69496 96.4347 7.84785 96.4807 10.5183C96.5146 12.3964 96.5392 14.2787 96.4727 16.1526C96.4307 17.2971 96.6064 18.2026 97.8723 18.6177H92.2171C93.8357 18.035 93.9655 17.1671 93.9196 16.14C93.8484 14.5428 93.9023 12.9414 93.8943 11.34C93.8856 10.0403 93.282 9.08034 91.9408 9.15582C90.6916 9.2271 89.4796 9.57925 89.664 11.4112C89.8277 13.0671 89.7525 14.7524 89.6766 16.4167C89.6307 17.4061 89.8443 18.1523 91.433 18.5883L91.4377 18.5925Z" fill="white"/>
<path d="M157.105 15.7334C155.872 18.3535 154.351 19.2925 151.953 19.1375C149.991 19.0117 148.565 17.7247 147.915 15.4944C146.93 12.1071 148.519 8.63594 151.554 7.62562C153.286 7.04711 154.874 7.29863 156.098 8.74077C156.749 9.5079 157.125 10.556 156.791 11.4699C156.43 12.4551 155.336 11.8933 154.568 11.9604C153.6 12.0484 152.606 12.0736 151.646 11.9604C149.856 11.755 149.856 12.7192 150.213 13.9726C151.089 17.0539 153.634 17.8043 157.101 15.7292L157.105 15.7334ZM151.915 11.4741C152.825 11.122 154.417 11.8639 154.443 10.1242C154.455 9.15994 153.847 8.17897 152.615 8.22928C151.118 8.28799 150.301 9.34443 150.175 10.6524C150.049 11.9897 151.307 11.1471 151.915 11.4741Z" fill="white"/>
<path d="M199.504 15.7545C198.569 19.4521 193.833 19.8797 191.967 18.1148C188.764 15.088 190 8.93798 194.18 7.59227C195.761 7.08505 197.216 7.29883 198.402 8.54809C199.152 9.33625 199.735 10.3508 199.417 11.3779C199.052 12.5433 197.861 11.8516 197.043 11.948C196.151 12.057 195.224 12.0444 194.327 11.9564C192.688 11.7929 192.223 12.2834 192.759 13.9519C193.773 17.1128 196.171 17.8716 199.508 15.7462L199.504 15.7545ZM194.36 11.4953C195.257 11.1054 196.842 11.948 196.943 10.1956C197.006 9.07635 196.385 8.14143 195.044 8.21271C193.526 8.29657 192.78 9.39076 192.658 10.6861C192.537 11.9815 193.769 11.1641 194.36 11.4953Z" fill="white"/>
<path d="M109.996 16.9827C108.037 19.586 104.881 19.846 102.969 17.863C99.9469 14.7272 101.41 8.77851 105.506 7.56698C107.187 7.06808 108.675 7.37829 109.832 8.76173C110.481 9.53731 110.943 10.5099 110.607 11.4573C110.242 12.4718 109.17 11.8388 108.424 11.9604C107.882 12.0484 107.283 11.864 106.763 12.0023C105.778 12.2706 104.21 11.1052 103.87 12.8827C103.54 14.6141 105.309 16.773 107.015 16.9617C107.899 17.0623 108.805 16.9785 109.996 16.9785V16.9827ZM105.878 11.5202C106.541 10.9794 108.197 11.9771 108.151 10.0487C108.121 8.921 107.53 8.16226 106.352 8.22509C104.893 8.30895 104.047 9.31089 103.976 10.6524C103.908 11.9227 105.112 11.1848 105.878 11.516V11.5202Z" fill="white"/>
<path d="M56.2953 15.6411C56.853 16.4418 56.9622 17.3221 57.6244 17.8127C58.5888 18.5211 59.6664 18.6427 60.4457 17.7372C61.2844 16.7604 60.8943 15.792 59.8214 15.1296C59.2304 14.7649 58.6268 14.4211 58.0184 14.0816C56.3585 13.1551 55.5785 11.8052 56.1322 9.91449C56.69 8.01125 58.1782 7.39919 59.9932 7.37823C62.7393 7.34888 63.0408 7.74715 62.4664 10.5643C61.8042 10.2666 61.9679 9.49944 61.5652 9.0635C60.9995 8.45138 60.3619 8.0993 59.5359 8.26696C58.8863 8.39694 58.3878 8.77418 58.2447 9.47429C58.069 10.3421 58.4797 10.9709 59.1759 11.4028C60.0018 11.9142 60.8903 12.3292 61.7116 12.8532C63.0201 13.6917 63.5945 14.9242 63.2338 16.4376C62.8817 17.9258 61.8547 18.823 60.3326 19.0787C59.8547 19.1584 59.3602 19.15 58.8737 19.1416C56.2161 19.0997 55.9013 18.7056 56.3 15.6411H56.2953Z" fill="white"/>
<path d="M181.496 12.6518C182.665 12.5721 182.829 11.9437 182.652 11.0256C182.46 10.0236 182.053 9.14743 180.841 9.05518C179.966 8.98816 179.144 9.03841 178.787 10.0487C178.67 10.3757 178.62 10.7405 178.431 11.0172C178.041 11.6041 177.341 11.8891 176.805 11.5244C176.113 11.0549 176.537 10.3506 177.002 9.93139C178.352 8.71142 179.902 7.71367 181.697 7.42022C183.898 7.05969 185.218 8.35927 185.269 10.665C185.302 12.1952 185.281 13.7296 185.273 15.2597C185.265 16.4377 185.084 17.7122 187.029 17.5948C185.289 19.5693 184.326 19.6573 182.825 18.0895C182.523 17.775 181.733 18.3077 181.392 18.3412C181.254 18.2196 181.634 17.5822 181.496 17.4606C183.244 15.5825 182.841 14.2341 181.093 12.9513L181.496 12.6518Z" fill="white"/>
<path d="M220.906 7.76399C221.308 9.15581 220.348 9.08873 219.497 9.01332C218.373 8.90849 218.012 9.40314 218.076 10.4638C218.134 11.5035 218.163 12.5599 218.067 13.5954C217.879 15.6747 218.05 17.4774 220.649 17.8296C219.631 19.1962 218.197 19.4394 216.73 18.9698C215.196 18.4793 215.43 17.0288 215.422 15.7879C215.409 14.1907 215.422 12.5934 215.422 10.992C215.422 10.7154 215.443 10.4344 215.418 10.1578C215.258 8.36632 216.066 6.77184 217.841 5.37442C218.386 5.94461 218.017 6.72431 218.293 7.34901C218.311 7.67181 218.508 7.73464 218.78 7.69277C219.489 7.71367 220.193 7.73883 220.901 7.7598L220.906 7.76399Z" fill="white"/>
<path d="M73.9507 17.1336C72.8605 18.9698 71.3929 19.4603 69.725 19.0159C68.0225 18.5631 68.312 17.0162 68.2994 15.7125C68.2867 14.0398 68.2408 12.3671 68.316 10.6985C68.3666 9.60021 68.2362 8.7827 66.3207 9.01325C68.0312 7.59633 69.4189 6.67819 70.7014 5.08936C70.7227 7.03453 71.2798 8.20838 73.2505 7.79753C73.6612 7.71367 73.8375 8.06582 73.8122 8.47248C73.783 8.92526 73.4475 9.08453 73.0994 9.01744C70.5796 8.53957 70.8818 10.25 70.915 11.7801C70.9363 12.7527 70.9151 13.7295 70.9197 14.7021C70.9324 17.2007 71.2591 17.4941 73.9507 17.1336Z" fill="white"/>
<path d="M41.2779 18.6763H35.3794C37.5509 17.1251 37.5342 10.6775 35.3123 8.93771C36.4568 8.50176 37.5425 8.09091 38.6241 7.67168C38.926 7.55434 39.3326 7.24825 39.3997 7.8352C39.5381 9.03415 40.0076 8.58137 40.561 8.14123C41.1689 7.6591 41.8396 7.28598 42.6697 7.39919C43.2859 7.48305 43.6842 7.86455 43.9148 8.39694C44.1663 8.98802 43.9064 9.49112 43.4746 9.89778C43.0093 10.3337 42.5188 10.2918 41.9402 10.0361C40.0244 9.18091 39.5171 9.49532 39.4626 11.5747C39.4249 12.9707 39.4626 14.3666 39.4542 15.7627C39.45 17.1 39.1189 18.6553 41.2737 18.6763H41.2779Z" fill="white"/>
<path d="M202.386 8.98823C203.682 8.50609 204.712 8.11201 205.753 7.74729C206.076 7.63414 206.532 7.18974 206.671 7.93597C206.876 9.0259 207.354 8.44739 207.794 8.14136C208.427 7.69697 209.081 7.30295 209.903 7.39513C210.502 7.46222 210.972 7.75986 211.152 8.33837C211.324 8.89179 211.274 9.44094 210.808 9.87695C210.347 10.3046 209.857 10.3339 209.278 10.0949C207.094 9.19362 206.733 9.44513 206.7 11.8724C206.683 13.1217 206.742 14.3794 206.687 15.6245C206.625 17.0666 206.532 18.471 208.561 18.6429H202.587C204.767 17.2259 204.738 10.4345 202.394 8.99242L202.386 8.98823Z" fill="white"/>
<path d="M76.7241 8.94197C78.179 8.40958 79.403 7.96099 80.9378 7.39926C80.9378 9.5037 80.7654 11.4909 80.9877 13.4277C81.1887 15.1423 79.797 17.3516 82.5265 18.605H77.0935C79.0429 17.0413 78.9337 10.5937 76.7201 8.94197H76.7241Z" fill="white"/>
<path d="M50.8077 7.40778C50.8077 9.67994 50.6447 11.6503 50.8583 13.5745C51.0427 15.2305 49.6929 17.3852 52.4557 18.5842H47.2197C48.7997 16.9241 48.6739 10.5687 46.8922 8.91275C48.1501 8.43068 49.3488 7.96952 50.8077 7.40778Z" fill="white"/>
<path d="M181.498 17.4648C181.636 17.5864 181.779 17.708 181.917 17.8296C181.829 17.9386 181.762 18.0685 181.657 18.1482C180.282 19.1753 178.769 19.628 177.205 18.7183C176.236 18.1524 175.796 17.1336 176.236 16.0143C176.937 14.2285 179.661 12.568 181.498 12.6519C180.827 13.6245 178.341 15.4819 179.096 16.9031C179.641 17.9302 180.617 17.6116 181.498 17.4648Z" fill="white"/>
<path d="M119.777 10.0571C120.791 10.1283 121.491 10.5769 121.504 11.5369C121.516 12.5514 120.904 13.218 119.827 13.1845C118.863 13.1551 118.288 12.5137 118.284 11.5998C118.284 10.6692 118.883 10.1199 119.772 10.0571H119.777Z" fill="white"/>
<path d="M50.9954 2.30145C50.9615 3.18605 50.5675 3.78133 49.6244 3.7981C48.7438 3.81068 48.1362 3.36628 48.1022 2.44401C48.0729 1.55529 48.5555 0.97252 49.4733 0.934849C50.3745 0.897112 50.8943 1.38757 50.9908 2.30145H50.9954Z" fill="white"/>
<path d="M79.6779 0.934983C80.5877 1.03136 80.9937 1.54284 80.977 2.45253C80.9604 3.42512 80.386 3.81501 79.5268 3.79404C78.617 3.76888 78.1517 3.19457 78.2063 2.30584C78.2609 1.42963 78.7514 0.926597 79.6779 0.939176V0.934983Z" fill="white"/>
<path d="M129.954 1.58491C129.954 1.81126 129.954 2.03762 129.954 2.25985C129.544 2.21373 128.827 2.57426 128.836 1.90351C128.844 1.23276 129.536 1.57652 129.954 1.58491Z" fill="white"/>
</svg>
