<svg width="393" height="90" viewBox="0 0 393 90" fill="none" xmlns="http://www.w3.org/2000/svg">
<path d="M30.7043 41.678C33.1293 35.9335 37.2362 32.4692 43.6168 31.8267C47.0875 31.474 50.4321 32.2109 53.3611 33.6534C55.6601 34.7808 54.4067 37.5334 54.4382 39.6372C53.2099 39.6246 53.3422 38.7616 53.128 38.2703C51.8431 35.2973 49.6826 33.6597 46.3946 33.4518C42.7728 33.225 39.7935 34.2328 37.7464 37.4074C34.7544 42.0622 35.3969 50.0805 39.0502 54.2188C43.0184 58.7098 51.2951 58.7413 53.6382 51.9323C54.9547 56.373 54.3122 57.5194 49.9849 58.4705C41.4374 60.3538 36.178 57.8343 30.698 49.2302C29.7381 46.4026 29.797 44.7493 30.698 41.678H30.7043Z" fill="#5A3E36"/>
<path d="M225.257 32.3809L234.961 32.5732C234.444 34.4881 231.707 32.8281 231.65 34.5729C231.568 37.3947 231.575 40.2292 231.682 43.051C231.713 43.8069 232.595 43.7502 233.225 43.7376C235.789 43.6809 238.163 43.1266 238.799 40.2229C239.379 37.5837 238.919 35.2028 236.015 34.006C235.549 33.8171 231.274 33.4853 230.795 33.1767C233.384 31.7658 241.558 32.8974 243.108 35.3351C244.979 38.2766 243.763 40.9976 239.051 44.1344C239.461 44.3738 239.776 44.6194 240.135 44.7517C244.034 46.1689 245.665 48.2664 245.394 51.5481C245.13 54.7163 242.346 57.5949 238.718 58.0484C233.735 58.672 228.715 57.683 223.349 58.0736C227.783 57.3996 226.756 54.2439 226.775 51.6362C226.813 46.7106 226.775 41.785 226.788 36.8594C226.788 35.4673 226.851 34.0816 225.257 33.4076C225.257 33.0675 225.257 32.7274 225.257 32.3935V32.3809ZM231.568 50.5718C231.568 51.3024 231.512 52.0457 231.581 52.77C231.713 54.1494 230.976 55.8627 232.69 56.713C234.548 57.639 236.419 57.1854 238.063 56.121C241.225 54.0739 241.382 48.5121 238.352 46.2949C236.582 45.0036 234.371 44.3612 232.406 45.1044C230.624 45.7784 231.896 47.8885 231.581 49.3183C231.493 49.7151 231.568 50.156 231.568 50.5718Z" fill="#5A3E36"/>
<path d="M68.0076 58.061H59.6428C61.4883 57.0028 61.8978 55.7178 61.8663 54.0486C61.7655 48.1845 61.7907 42.3204 61.86 36.4562C61.8789 34.7429 61.6143 33.3446 59.7625 32.8218C59.8947 32.4817 59.9136 32.1856 60.0396 32.129C63.9953 30.3569 65.9752 31.6188 65.9794 35.9145C65.9794 36.4373 65.9731 36.9601 65.9794 37.4829C66.0046 39.1584 65.381 41.3692 66.2124 42.377C67.5919 44.0462 68.902 41.4889 70.4263 41.1929C73.4875 40.6008 76.0196 42.018 76.2653 45.1359C76.5047 48.153 76.3976 51.2016 76.3724 54.2376C76.3598 55.806 76.3598 57.2925 78.1738 58.0295H69.9224C72.0325 57.1224 72.3726 55.9257 72.2782 54.3699C72.1333 51.9701 72.19 49.5513 72.253 47.1452C72.3097 45.1422 71.4782 43.6998 69.4626 43.7628C67.5856 43.8195 65.7274 44.336 65.9416 47.0759C66.1368 49.5765 66.0487 52.1023 65.9605 54.6155C65.9038 56.2406 66.0361 57.5885 68.0139 58.0673L68.0076 58.061Z" fill="#5A3E36"/>
<path d="M276.862 50.4773C277.297 53.2109 275.521 55.9131 278.784 57.9539H270.211C272.327 57.1287 272.56 55.8816 272.535 54.3069C272.441 48.4491 272.491 42.5912 272.497 36.7271C272.497 35.0579 272.907 33.2376 269.808 32.8029C272.46 31.3353 274.437 30.611 276.913 30V49.9923C279.212 47.7814 280.925 46.1689 282.594 44.5186C284.232 42.9062 281.656 43.0258 281.505 41.8984H288.635C286.128 43.0888 284.182 44.8336 282.292 46.7169C281.24 47.7688 281.133 48.5561 282.122 49.6017C284.597 52.222 286.267 55.5415 289.832 57.9098C286.002 58.3318 282.979 58.7538 281.089 55.0187C280.245 53.3558 279.035 51.6992 276.856 50.471L276.862 50.4773Z" fill="#5A3E36"/>
<path d="M167.384 57.935C165.922 58.0484 165.412 58.1177 164.908 58.124C162.924 58.1366 160.946 58.124 158.83 58.124C161.318 55.6108 161.091 45.6272 158.641 43.8258C162.502 41.0039 164.304 40.8654 165.078 43.3345C166.187 42.755 167.258 42.0936 168.404 41.6212C172.177 40.0591 174.892 41.7913 174.961 45.8036C175.012 48.6254 175.049 51.4536 174.949 54.2691C174.886 55.9887 175.15 57.3492 177.052 57.9728H168.555C170.987 57.0973 171.182 55.7934 171.113 54.2502C171.006 51.8504 171.087 49.4443 171.075 47.0382C171.062 45.0855 170.155 43.6431 168.14 43.7565C166.263 43.8636 164.442 44.3927 164.719 47.1452C164.965 49.6332 164.852 52.1653 164.738 54.6659C164.669 56.1525 164.99 57.2736 167.377 57.9287L167.384 57.935Z" fill="#5A3E36"/>
<path d="M266.048 53.6392C264.196 57.5759 261.91 58.9868 258.307 58.7538C255.359 58.5648 253.217 56.6311 252.241 53.2802C250.761 48.1908 253.148 42.9754 257.708 41.4574C260.31 40.5882 262.697 40.9661 264.536 43.1329C265.513 44.2855 266.079 45.8602 265.576 47.2334C265.034 48.7136 263.39 47.8695 262.237 47.9703C260.782 48.1026 259.289 48.1404 257.847 47.9703C255.157 47.6617 255.157 49.1104 255.693 50.9937C257.009 55.6233 260.833 56.7508 266.042 53.6329L266.048 53.6392ZM258.25 47.2397C259.617 46.7106 262.01 47.8254 262.048 45.2115C262.067 43.7627 261.154 42.2888 259.302 42.3644C257.053 42.4526 255.825 44.0399 255.636 46.0051C255.447 48.0144 257.337 46.7484 258.25 47.2397Z" fill="#5A3E36"/>
<path d="M329.753 53.671C328.348 59.2265 321.231 59.869 318.428 57.2172C313.615 52.6695 315.473 43.4292 321.753 41.4073C324.128 40.6452 326.314 40.9664 328.096 42.8434C329.224 44.0276 330.099 45.5519 329.621 47.0951C329.073 48.8461 327.284 47.8069 326.055 47.9517C324.714 48.1155 323.322 48.0966 321.974 47.9643C319.511 47.7187 318.812 48.4556 319.618 50.9625C321.142 55.7118 324.745 56.8519 329.759 53.6584L329.753 53.671ZM322.024 47.2715C323.372 46.6857 325.753 47.9517 325.904 45.3188C325.999 43.6371 325.066 42.2324 323.051 42.3395C320.771 42.4655 319.65 44.1095 319.467 46.0558C319.284 48.0021 321.136 46.7739 322.024 47.2715Z" fill="#5A3E36"/>
<path d="M195.267 55.5163C192.325 59.4278 187.582 59.8183 184.71 56.839C180.169 52.1275 182.367 43.1896 188.521 41.3693C191.047 40.6197 193.283 41.0858 195.021 43.1644C195.997 44.3297 196.69 45.791 196.186 47.2145C195.638 48.7388 194.026 47.7877 192.905 47.9703C192.092 48.1026 191.191 47.8255 190.41 48.0333C188.93 48.4364 186.574 46.6854 186.064 49.3561C185.567 51.9575 188.225 55.2013 190.788 55.4848C192.117 55.6359 193.478 55.51 195.267 55.51V55.5163ZM189.081 47.309C190.077 46.4964 192.565 47.9955 192.495 45.0981C192.451 43.4037 191.563 42.2637 189.793 42.3581C187.601 42.4841 186.329 43.9895 186.222 46.0051C186.121 47.9137 187.929 46.8051 189.081 47.3027V47.309Z" fill="#5A3E36"/>
<path d="M114.583 53.5005C115.421 54.7036 115.585 56.0263 116.58 56.7633C118.029 57.8278 119.648 58.0104 120.819 56.6499C122.079 55.1823 121.493 53.7273 119.881 52.7321C118.993 52.1841 118.086 51.6676 117.172 51.1574C114.678 49.7654 113.506 47.7372 114.338 44.8964C115.176 42.0368 117.412 41.1172 120.139 41.0857C124.265 41.0416 124.718 41.64 123.855 45.8727C122.86 45.4255 123.106 44.2728 122.501 43.6178C121.651 42.6981 120.693 42.1691 119.452 42.421C118.476 42.6163 117.727 43.1831 117.512 44.235C117.248 45.5389 117.865 46.4837 118.911 47.1325C120.152 47.9009 121.487 48.5245 122.721 49.3118C124.687 50.5716 125.55 52.4234 125.008 54.6973C124.479 56.9333 122.936 58.2813 120.649 58.6655C119.931 58.7852 119.188 58.7726 118.457 58.76C114.464 58.697 113.991 58.1049 114.59 53.5005H114.583Z" fill="#5A3E36"/>
<path d="M302.695 49.0092C304.452 48.8895 304.698 47.9452 304.433 46.5658C304.144 45.0604 303.533 43.7439 301.712 43.6053C300.396 43.5046 299.161 43.5801 298.626 45.0981C298.45 45.5894 298.374 46.1374 298.091 46.5532C297.505 47.435 296.453 47.8633 295.647 47.3153C294.607 46.6098 295.244 45.5517 295.943 44.9218C297.971 43.0888 300.301 41.5897 302.997 41.1488C306.304 40.6071 308.288 42.5597 308.364 46.0241C308.414 48.3231 308.383 50.6285 308.37 52.9275C308.358 54.6974 308.087 56.6123 311.009 56.4359C308.395 59.4026 306.947 59.5349 304.692 57.1792C304.238 56.7068 303.051 57.5071 302.54 57.5575C302.332 57.3748 302.903 56.417 302.695 56.2343C305.322 53.4125 304.717 51.3865 302.09 49.4591L302.695 49.0092Z" fill="#5A3E36"/>
<path d="M361.908 41.6653C362.512 43.7565 361.07 43.6557 359.791 43.5424C358.103 43.3849 357.561 44.1281 357.656 45.7217C357.744 47.2838 357.788 48.8711 357.643 50.4269C357.36 53.5511 357.618 56.2596 361.523 56.7887C359.993 58.8421 357.839 59.2074 355.634 58.5019C353.329 57.765 353.681 55.5856 353.669 53.7212C353.65 51.3213 353.669 48.9215 353.669 46.5154C353.669 46.0997 353.7 45.6776 353.663 45.2619C353.423 42.5703 354.637 40.1746 357.303 38.075C358.122 38.9317 357.568 40.1032 357.983 41.0418C358.009 41.5268 358.305 41.6212 358.714 41.5583C359.779 41.5897 360.837 41.6275 361.901 41.659L361.908 41.6653Z" fill="#5A3E36"/>
<path d="M141.11 55.743C139.472 58.5019 137.267 59.2389 134.761 58.5712C132.203 57.8909 132.638 55.5667 132.619 53.6078C132.6 51.0946 132.531 48.5814 132.644 46.0744C132.72 44.4242 132.524 43.1959 129.646 43.5423C132.216 41.4134 134.301 40.0339 136.228 37.6467C136.26 40.5693 137.097 42.333 140.058 41.7157C140.675 41.5897 140.94 42.1188 140.902 42.7298C140.858 43.4101 140.354 43.6494 139.831 43.5486C136.045 42.8306 136.499 45.4005 136.549 47.6995C136.581 49.1608 136.549 50.6284 136.556 52.0898C136.575 55.8438 137.066 56.2847 141.11 55.743Z" fill="#5A3E36"/>
<path d="M92.0195 58.0609H83.1571C86.4198 55.7303 86.3946 46.0428 83.0563 43.4288C84.7759 42.7738 86.4072 42.1565 88.0323 41.5266C88.4858 41.3503 89.0968 40.8904 89.1976 41.7723C89.4055 43.5737 90.1109 42.8934 90.9424 42.2321C91.8557 41.5077 92.8635 40.9471 94.1107 41.1172C95.0366 41.2432 95.635 41.8164 95.9814 42.6163C96.3593 43.5044 95.9688 44.2603 95.32 44.8713C94.6209 45.5263 93.8839 45.4633 93.0147 45.0791C90.1361 43.7942 89.374 44.2666 89.2921 47.3908C89.2354 49.4883 89.2921 51.5857 89.2795 53.6832C89.2732 55.6925 88.7756 58.0294 92.0132 58.0609H92.0195Z" fill="#5A3E36"/>
<path d="M334.083 43.5047C336.029 42.7803 337.578 42.1882 339.141 41.6402C339.626 41.4702 340.312 40.8025 340.52 41.9237C340.829 43.5613 341.547 42.6921 342.208 42.2323C343.159 41.5646 344.142 40.9726 345.376 41.1111C346.277 41.2119 346.983 41.6591 347.253 42.5283C347.512 43.3598 347.436 44.1849 346.737 44.84C346.044 45.4825 345.307 45.5266 344.438 45.1675C341.156 43.8133 340.614 44.1912 340.564 47.8382C340.539 49.7152 340.627 51.6049 340.545 53.4756C340.451 55.6424 340.312 57.7525 343.361 58.0107H334.385C337.66 55.8817 337.616 45.6777 334.095 43.511L334.083 43.5047Z" fill="#5A3E36"/>
<path d="M145.277 43.4352C147.463 42.6353 149.302 41.9613 151.608 41.1173C151.608 44.2792 151.349 47.2649 151.683 50.1749C151.985 52.7511 149.894 56.0705 153.995 57.9538H145.832C148.761 55.6044 148.597 45.9169 145.271 43.4352H145.277Z" fill="#5A3E36"/>
<path d="M106.338 41.1301C106.338 44.544 106.093 47.5044 106.414 50.3955C106.691 52.8836 104.663 56.1211 108.814 57.9226H100.947C103.321 55.4283 103.132 45.8793 100.455 43.3913C102.345 42.667 104.146 41.9741 106.338 41.1301Z" fill="#5A3E36"/>
<path d="M302.698 56.2407C302.906 56.4234 303.12 56.606 303.328 56.7887C303.196 56.9525 303.095 57.1477 302.937 57.2674C300.871 58.8106 298.598 59.4909 296.248 58.124C294.793 57.2737 294.132 55.7431 294.793 54.0613C295.845 51.3781 299.939 48.8833 302.698 49.0093C301.69 50.4706 297.955 53.2614 299.089 55.3967C299.908 56.9399 301.375 56.4612 302.698 56.2407Z" fill="#5A3E36"/>
<path d="M209.963 45.1106C211.487 45.2177 212.539 45.8917 212.558 47.3341C212.577 48.8584 211.657 49.8599 210.038 49.8095C208.59 49.7654 207.727 48.8017 207.72 47.4286C207.72 46.0303 208.621 45.2051 209.956 45.1106H209.963Z" fill="#5A3E36"/>
<path d="M106.62 33.4579C106.569 34.787 105.977 35.6814 104.56 35.7066C103.237 35.7255 102.324 35.0578 102.273 33.6721C102.229 32.3368 102.954 31.4612 104.333 31.4046C105.687 31.3479 106.468 32.0848 106.613 33.4579H106.62Z" fill="#5A3E36"/>
<path d="M149.715 31.4048C151.082 31.5496 151.692 32.3181 151.667 33.6849C151.642 35.1462 150.779 35.732 149.488 35.7005C148.121 35.6627 147.422 34.7998 147.504 33.4645C147.586 32.148 148.323 31.3922 149.715 31.4111V31.4048Z" fill="#5A3E36"/>
<path d="M225.255 32.3813C225.255 32.7214 225.255 33.0615 225.255 33.3954C224.638 33.3261 223.561 33.8678 223.574 32.86C223.586 31.8522 224.626 32.3687 225.255 32.3813Z" fill="#5A3E36"/>
</svg>
