<svg width="275" height="77" viewBox="0 0 275 77" fill="none" xmlns="http://www.w3.org/2000/svg">
<path d="M120.534 38.2234C120.534 35.8634 120.534 33.5035 120.534 31.1435C120.534 30.5682 120.593 30.5241 121.17 30.5661C121.588 30.5955 122.014 30.6354 122.426 30.585C123.003 30.5136 123.373 30.7971 123.652 31.2149C124.487 32.46 125.287 33.7281 126.121 34.9753C126.816 36.0167 127.517 37.056 128.174 38.1226C128.491 38.6349 128.672 38.6097 128.991 38.1289C129.858 36.8229 130.74 35.5275 131.611 34.2236C132.29 33.2095 132.966 32.1975 133.629 31.175C133.896 30.7635 134.194 30.5074 134.74 30.5829C135.204 30.648 135.683 30.5997 136.155 30.5955C136.476 30.5934 136.611 30.7152 136.611 31.0658C136.602 35.855 136.604 40.6463 136.617 45.4355C136.617 45.8302 136.457 45.9625 136.086 45.9562C135.403 45.9436 134.721 45.9436 134.041 45.9562C133.692 45.9625 133.537 45.8344 133.537 45.4649C133.549 42.7375 133.549 40.0101 133.551 37.2828C133.551 37.1211 133.663 36.8943 133.436 36.8271C133.239 36.7684 133.142 36.9762 133.05 37.1169C131.895 38.8595 130.74 40.6001 129.596 42.347C129.356 42.7123 129.058 43.0294 128.855 43.422C128.664 43.7915 128.447 43.571 128.302 43.3632C127.855 42.7228 127.423 42.0719 126.988 41.4211C126.119 40.1193 125.302 38.7819 124.37 37.52C124.246 37.352 124.154 37.1631 124.059 36.9762C124.009 36.8754 123.952 36.783 123.832 36.7977C123.673 36.8166 123.658 36.9489 123.662 37.0749C123.669 37.3898 123.69 37.7027 123.692 38.0176C123.692 40.4657 123.681 42.9118 123.7 45.3599C123.704 45.8281 123.587 46.0339 123.083 46.0045C122.438 45.9688 121.789 45.9835 121.143 46.0003C120.71 46.0129 120.525 45.8827 120.53 45.4019C120.553 43.0063 120.54 40.6127 120.54 38.2171L120.534 38.2234Z" fill="#5A3E36"/>
<path d="M30.0043 38.9611C30.0043 36.6012 30.0043 34.2412 30.0043 31.8813C30.0043 31.306 30.0631 31.2619 30.6404 31.3039C31.0583 31.3333 31.4845 31.3732 31.896 31.3228C32.4734 31.2514 32.8429 31.5348 33.1222 31.9527C33.9578 33.1977 34.7578 34.4659 35.5913 35.713C36.2863 36.7544 36.9876 37.7937 37.6447 38.8603C37.9618 39.3726 38.1423 39.3474 38.4615 38.8666C39.3286 37.5607 40.2104 36.2652 41.0818 34.9614C41.7599 33.9473 42.436 32.9353 43.0995 31.9128C43.3661 31.5012 43.6643 31.2451 44.2102 31.3207C44.6742 31.3858 45.1529 31.3375 45.6253 31.3333C45.9466 31.3312 46.0809 31.453 46.0809 31.8036C46.0725 36.5928 46.0746 41.3841 46.0872 46.1732C46.0872 46.568 45.9277 46.7002 45.556 46.6939C44.8737 46.6813 44.1913 46.6813 43.511 46.6939C43.1625 46.7002 43.0071 46.5722 43.0071 46.2026C43.0197 43.4753 43.0197 40.7479 43.0218 38.0205C43.0218 37.8588 43.1331 37.6321 42.9063 37.5649C42.709 37.5061 42.6124 37.714 42.52 37.8546C41.3652 39.5973 40.2104 41.3379 39.0662 43.0847C38.8268 43.4501 38.5287 43.7671 38.325 44.1597C38.1339 44.5293 37.9177 44.3088 37.7728 44.1009C37.3256 43.4606 36.8931 42.8097 36.4584 42.1588C35.5892 40.8571 34.7725 39.5196 33.8402 38.2578C33.7164 38.0898 33.624 37.9008 33.5295 37.714C33.4791 37.6132 33.4224 37.5208 33.3027 37.5355C33.1432 37.5544 33.1285 37.6867 33.1327 37.8126C33.139 38.1276 33.16 38.4404 33.1621 38.7554C33.1621 41.2035 33.1516 43.6495 33.1705 46.0977C33.1747 46.5659 33.0571 46.7716 32.5532 46.7422C31.9086 46.7065 31.2598 46.7212 30.6132 46.738C30.1806 46.7506 29.9959 46.6205 30.0001 46.1396C30.0232 43.744 30.0106 41.3505 30.0106 38.9548L30.0043 38.9611Z" fill="#5A3E36"/>
<path d="M160.057 38.2424C160.057 35.8824 160.07 33.5204 160.047 31.1604C160.043 30.6712 160.188 30.5389 160.677 30.5452C163.476 30.5704 166.274 30.541 169.071 30.5683C170.28 30.5809 171.414 30.8707 172.348 31.7273C173.495 32.7792 174.335 35.0468 173.512 36.8104C172.991 37.9274 172.348 38.8638 171.187 39.3635C170.856 39.5063 170.797 39.6953 170.998 40.0165C171.958 41.5492 172.749 43.1785 173.728 44.7007C173.925 45.0052 174.066 45.3495 174.213 45.6833C174.322 45.929 174.219 46.0319 173.948 46.0256C173.232 46.013 172.514 46.0088 171.798 46.0214C171.523 46.0256 171.385 45.8744 171.263 45.6749C170.154 43.863 168.911 42.1329 167.855 40.2895C167.647 39.9262 167.383 39.7478 166.927 39.7604C165.808 39.7961 164.689 39.7877 163.57 39.7625C163.148 39.7541 163.035 39.8947 163.041 40.3105C163.068 42.0237 163.047 43.737 163.07 45.4503C163.077 45.8597 162.911 45.9626 162.541 45.9521C161.911 45.9332 161.279 45.9164 160.654 45.9563C160.194 45.9857 160.045 45.8492 160.049 45.3768C160.07 42.9979 160.059 40.6212 160.057 38.2424ZM166.262 33.5057C165.355 33.5057 164.446 33.5204 163.539 33.4994C163.171 33.491 163.039 33.6211 163.045 33.9823C163.06 34.7843 163.051 35.5885 163.047 36.3905C163.047 36.6824 163.137 36.8377 163.469 36.8377C165.319 36.8335 167.171 36.8629 169.021 36.8419C170.01 36.8314 170.77 36.0336 170.751 35.1119C170.732 34.1985 169.923 33.4784 168.932 33.4826C168.042 33.4889 167.152 33.4826 166.262 33.4826V33.5057Z" fill="#5A3E36"/>
<path d="M69.2263 38.7679C69.2263 36.3891 69.2368 34.0103 69.2179 31.6314C69.2137 31.1758 69.3543 31.0162 69.8163 31.0183C72.6675 31.033 75.5209 30.9721 78.37 31.0435C80.6838 31.1023 82.5692 32.381 82.9724 34.8816C83.2873 36.8279 82.3698 38.8876 80.4864 39.7968C80.0686 39.9983 80.0035 40.181 80.2492 40.5925C81.2633 42.2995 82.2438 44.0253 83.2369 45.7449C83.2621 45.7911 83.2852 45.8373 83.3083 45.8835C83.6065 46.5008 83.6065 46.4945 82.9346 46.4861C82.2522 46.4777 81.5698 46.4777 80.8875 46.4861C80.5473 46.4903 80.2597 46.4 80.0812 46.0976C79.4513 45.0352 78.8068 43.9771 78.2063 42.8979C77.8158 42.1987 77.3601 41.5373 77.02 40.8067C76.8289 40.3993 76.4804 40.2251 75.9933 40.2398C74.9456 40.2734 73.8937 40.2671 72.8439 40.2398C72.3778 40.2293 72.2413 40.3993 72.2476 40.8528C72.2728 42.5325 72.2476 44.2122 72.2728 45.8898C72.2791 46.3538 72.1237 46.5113 71.666 46.4882C71.055 46.4567 70.4398 46.4546 69.831 46.4924C69.3669 46.5218 69.2179 46.3643 69.2221 45.9003C69.2389 43.5214 69.2305 41.1426 69.2305 38.7637H69.2284L69.2263 38.7679ZM75.46 37.3927C75.46 37.3927 75.46 37.3738 75.46 37.3654C76.5245 37.3654 77.589 37.399 78.6514 37.3528C79.2918 37.3255 79.8985 36.6704 79.9657 36.0742C80.1211 34.6884 79.4219 33.8927 77.9837 33.878C76.2368 33.8612 74.49 33.8906 72.7431 33.8843C72.3043 33.8843 72.1615 34.0753 72.172 34.4911C72.1909 35.2763 72.193 36.0637 72.172 36.8489C72.1615 37.2688 72.3421 37.4032 72.7347 37.3969C73.6438 37.3843 74.5509 37.3927 75.46 37.3927Z" fill="#5A3E36"/>
<path d="M240.806 42.0112C241.512 41.5135 241.449 40.1803 240.731 39.815C238.608 38.1248 235.419 39.6764 232.962 38.7064C224.581 34.2363 235.769 25.9828 243.141 32.2879C244.012 32.6218 242.117 34.713 241.646 34.7339C239.952 33.1509 237.63 32.584 235.331 32.985C234.398 33.0795 233.426 33.6401 233.004 34.5429C232.618 37.4634 237.63 35.7711 239.398 36.3653C247.513 37.6944 244.199 46.4245 237.178 46.1285C234.398 46.666 224.98 42.4836 231.192 40.8039C233.317 43.4641 238.186 44.4173 240.806 42.0112Z" fill="#5A3E36"/>
<path d="M97.5802 38.7469C97.5802 36.3702 97.5907 33.9913 97.5718 31.6146C97.5676 31.1464 97.7293 31.0162 98.1807 31.0183C101.87 31.033 105.559 31.0267 109.248 31.0288C109.936 31.0288 109.945 31.0414 109.945 31.7427C109.945 32.2676 109.945 32.7925 109.945 33.3153C109.945 33.9703 109.909 34.0081 109.273 34.0081C106.615 34.0081 103.957 34.0081 101.301 34.0081C100.612 34.0081 100.599 34.0207 100.602 34.7136C100.604 35.2028 100.627 35.6941 100.595 36.1812C100.566 36.641 100.738 36.8006 101.198 36.7943C102.649 36.7733 104.099 36.8048 105.55 36.7733C106.069 36.7628 106.228 36.9455 106.199 37.441C106.165 38.0163 106.165 38.5958 106.199 39.171C106.224 39.5994 106.052 39.7232 105.653 39.719C104.186 39.7064 102.716 39.7295 101.248 39.7022C100.736 39.6917 100.574 39.8723 100.593 40.372C100.627 41.2265 100.627 42.0853 100.593 42.9419C100.574 43.429 100.749 43.5844 101.225 43.5823C104.11 43.5676 106.995 43.5739 109.88 43.5739C110.361 43.5739 110.602 43.8161 110.602 44.3004C110.602 44.7896 110.602 45.2788 110.602 45.768C110.602 46.444 110.602 46.4461 109.894 46.4461C106.501 46.4461 103.111 46.4461 99.7176 46.4461C99.1927 46.4461 98.6678 46.4252 98.145 46.4545C97.702 46.4818 97.5697 46.3097 97.5718 45.8793C97.5865 43.5025 97.5802 41.1237 97.5802 38.7469Z" fill="#5A3E36"/>
<path d="M64.2593 46.6498C62.9051 47.0445 62.2773 46.2152 61.8343 45.1591C61.5571 44.4977 61.1897 43.8867 60.8937 43.238C60.7572 42.9356 60.5472 42.8285 60.2365 42.8285C58.1726 42.8306 56.1108 42.8327 54.0468 42.8222C53.6143 42.8201 53.5093 43.1414 53.3477 43.4248C52.8501 44.3024 52.533 45.2704 51.9997 46.1354C51.7835 46.486 51.5147 46.6603 51.1053 46.654C50.4061 46.6435 49.707 46.6309 49.0078 46.6498C48.5585 46.6624 48.5627 46.5154 48.7306 46.1648C49.4319 44.7119 50.1143 43.2485 50.7925 41.785C51.5084 40.2397 52.279 38.7217 52.9635 37.1596C53.4653 36.0153 54.0972 34.9256 54.5969 33.7814C54.9602 32.9499 55.3801 32.15 55.7622 31.3311C55.9092 31.0162 56.1066 30.9322 56.4173 30.9406C56.8708 30.9532 57.3306 30.9805 57.7799 30.9343C58.2754 30.8839 58.5337 31.1422 58.7164 31.5285C59.4092 32.9919 60.0874 34.4616 60.7782 35.9251C61.6705 37.8126 62.5733 39.6959 63.4657 41.5856C64.2005 43.1393 64.9249 44.6951 65.6556 46.2509C65.7773 46.507 65.7269 46.654 65.412 46.6498C65.0278 46.6456 64.6435 46.6498 64.2572 46.6498H64.2593ZM57.1732 39.8303C57.1732 39.8303 57.1732 39.8282 57.1732 39.8261C57.7149 39.8261 58.2565 39.8261 58.7982 39.8261C59.1468 39.8261 59.2413 39.6833 59.0754 39.3684C58.5043 38.2787 57.929 37.1911 57.4608 36.051C57.4041 35.9146 57.3348 35.7907 57.1648 35.8033C57.0052 35.8159 56.9443 35.9398 56.8813 36.0741C56.369 37.1575 55.8546 38.2409 55.3318 39.3201C55.1302 39.7358 55.1827 39.8282 55.653 39.8303C56.159 39.8324 56.6651 39.8303 57.1732 39.8303Z" fill="#5A3E36"/>
<path d="M155.352 46.0066C155.142 46.0066 154.928 45.9793 154.725 46.0108C153.851 46.1473 153.41 45.6665 153.097 44.94C152.759 44.1589 152.274 43.4514 151.962 42.6535C151.831 42.3239 151.548 42.1475 151.128 42.1538C149.152 42.1769 147.177 42.1727 145.201 42.1601C144.779 42.158 144.556 42.2945 144.374 42.7039C143.96 43.6424 143.471 44.5474 142.996 45.4565C142.816 45.805 142.513 46.0045 142.106 46.0066C141.39 46.0087 140.672 46.0066 139.956 46.0087C139.557 46.0087 139.519 45.8407 139.681 45.5111C140.584 43.6739 141.489 41.8368 142.371 39.9891C143.185 38.2822 143.956 36.5542 144.777 34.8493C145.396 33.5665 146.097 32.3256 146.608 30.9882C146.723 30.6837 146.956 30.4276 147.378 30.5032C147.599 30.5431 147.832 30.5095 148.058 30.5095C149.541 30.5095 149.511 30.5221 150.122 31.8721C150.817 33.4069 151.579 34.9123 152.304 36.4366C153.055 38.0197 153.794 39.607 154.546 41.1901C155.247 42.6661 155.947 44.1421 156.675 45.6035C156.835 45.9226 156.791 46.0129 156.457 46.0108C156.089 46.0108 155.722 46.0108 155.354 46.0108C155.354 46.0087 155.354 46.0066 155.354 46.0045L155.352 46.0066ZM148.224 39.2333C148.747 39.2333 149.27 39.2333 149.793 39.2333C150.15 39.2333 150.234 39.0611 150.076 38.7672C149.497 37.6817 148.911 36.6004 148.426 35.4687C148.304 35.1874 148.13 35.2021 147.958 35.4246C147.733 35.7165 147.624 36.0692 147.466 36.3988C147.109 37.1526 146.719 37.8895 146.364 38.6433C146.152 39.0947 146.261 39.2354 146.757 39.2333C147.246 39.2312 147.733 39.2333 148.222 39.2333H148.224Z" fill="#5A3E36"/>
<path d="M183.69 30.5516C185.945 30.5516 188.2 30.5621 190.455 30.5432C190.902 30.539 191.091 30.6503 191.062 31.129C191.024 31.7211 191.026 32.3195 191.062 32.9115C191.091 33.407 190.898 33.533 190.423 33.5246C188.868 33.4973 187.312 33.5288 185.756 33.5057C185.273 33.4994 185.13 33.6527 185.134 34.1419C185.155 37.917 185.145 41.6921 185.158 45.4671C185.158 45.8871 184.992 46.0256 184.597 46.0151C183.933 46.0004 183.268 45.9941 182.604 46.0151C182.166 46.0298 182.033 45.8535 182.035 45.4251C182.048 41.5976 182.038 37.77 182.05 33.9445C182.05 33.491 181.783 33.4784 181.471 33.4784C179.932 33.4784 178.395 33.4595 176.856 33.491C176.352 33.5015 176.157 33.3567 176.186 32.8423C176.219 32.267 176.219 31.6875 176.186 31.1122C176.159 30.6608 176.341 30.5432 176.765 30.5453C179.073 30.56 181.38 30.5516 183.688 30.5516H183.69Z" fill="#5A3E36"/>
<path d="M91.4145 38.7112C91.4145 41.1047 91.404 43.4983 91.4229 45.8918C91.4271 46.3243 91.32 46.486 90.8623 46.4566C90.2366 46.4146 89.6046 46.4293 88.9769 46.4545C88.6031 46.4692 88.4394 46.3642 88.4394 45.959C88.4478 41.1194 88.4457 36.2799 88.4394 31.4382C88.4394 31.0057 88.5653 30.8041 89.0566 30.8461C89.6466 30.8965 90.2471 30.8944 90.8371 30.8461C91.3578 30.8041 91.4166 31.0876 91.4166 31.4781C91.4145 32.9814 91.4166 34.4826 91.4166 35.9859C91.4166 36.8951 91.4166 37.8021 91.4166 38.7112H91.4145Z" fill="#5A3E36"/>
<path d="M194.612 38.2528C194.612 35.8908 194.621 33.5308 194.604 31.1688C194.602 30.7615 194.715 30.6124 195.135 30.6145C198.879 30.625 202.622 30.625 206.366 30.6145C206.782 30.6145 206.925 30.7636 206.904 31.173C206.876 31.6958 206.897 32.2228 206.897 32.7477C206.897 33.4154 206.878 33.4364 206.232 33.4343C203.574 33.4343 200.913 33.4343 198.255 33.4322C197.531 33.4322 197.522 33.4406 197.525 34.1607C197.525 34.7213 197.541 35.2798 197.518 35.8404C197.501 36.275 197.68 36.4241 198.108 36.4178C199.595 36.3989 201.081 36.4241 202.568 36.3989C203.028 36.3905 203.194 36.527 203.162 36.9952C203.124 37.5516 203.135 38.1143 203.162 38.6728C203.181 39.0486 203.03 39.1557 202.675 39.1536C201.172 39.141 199.666 39.1662 198.163 39.1368C197.642 39.1263 197.497 39.3131 197.514 39.8065C197.546 40.7157 197.541 41.6248 197.514 42.5339C197.501 43.0105 197.667 43.1743 198.152 43.1722C201.004 43.1533 203.855 43.1638 206.706 43.1638C207.426 43.1638 207.435 43.1722 207.435 43.8987C207.435 44.3543 207.401 44.812 207.443 45.2613C207.487 45.761 207.326 45.9248 206.809 45.9206C204.063 45.8975 201.316 45.9101 198.57 45.9101C197.485 45.9101 196.401 45.9101 195.316 45.9101C194.845 45.9101 194.611 45.684 194.612 45.2319C194.612 42.9055 194.612 40.5792 194.612 38.2528Z" fill="#5A3E36"/>
<path d="M225.004 38.2864C225.004 40.6485 224.995 43.0084 225.012 45.3684C225.014 45.782 224.867 45.8576 224.479 45.9269C223.347 46.1284 222.805 45.3495 222.201 44.665C221.403 43.7643 220.622 42.851 219.837 41.9397C218.936 40.8983 218.041 39.8506 217.139 38.8113C216.555 38.1395 215.961 37.4781 215.367 36.8167C215.278 36.718 215.175 36.5732 215.018 36.6508C214.854 36.7285 214.858 36.8986 214.861 37.0624C214.873 39.8254 214.875 42.5885 214.898 45.3495C214.903 45.7652 214.764 45.908 214.352 45.887C213.777 45.8576 213.198 45.8513 212.622 45.887C212.154 45.9164 212.03 45.7463 212.032 45.2886C212.049 41.039 212.041 36.7894 212.041 32.5398C212.041 32.0506 212.045 31.5593 212.034 31.0701C212.03 30.856 212.051 30.6691 212.314 30.6586C213.099 30.6229 213.79 30.5998 214.401 31.3704C215.711 33.0227 217.174 34.5513 218.562 36.1427C219.467 37.1799 220.351 38.2381 221.245 39.2858C221.325 39.3782 221.397 39.4853 221.493 39.5525C221.659 39.6659 221.796 39.922 222.024 39.817C222.272 39.7037 222.123 39.4433 222.123 39.2481C222.123 36.5543 222.125 33.8626 222.113 31.1688C222.113 30.7678 222.234 30.5935 222.654 30.6124C223.248 30.6376 223.845 30.6376 224.439 30.6124C224.88 30.5935 225.012 30.772 225.008 31.2003C224.993 33.5602 224.999 35.9223 224.999 38.2822C225.004 38.2822 225.006 38.2822 225.01 38.2822L225.004 38.2864Z" fill="#5A3E36"/>
</svg>
