<svg width="562" height="1056" viewBox="0 0 562 1056" fill="none" xmlns="http://www.w3.org/2000/svg">
<path d="M249.283 3.92145C228.283 10.5215 207.283 31.5214 198.483 54.7214L195.283 62.7214L150.683 64.9214C51.4831 70.1214 29.4831 74.1214 11.0831 90.7214C1.28311 99.7214 -1.91689 109.321 1.08311 120.721C3.68311 130.121 27.8831 154.721 59.6831 180.121C82.2831 198.121 173.283 264.121 201.483 282.721C211.083 289.121 218.283 295.121 217.483 295.921C214.883 298.521 182.683 307.321 160.483 311.521C139.483 315.521 100.083 320.321 68.2831 322.921C34.8831 325.521 24.8831 335.721 24.8831 368.321C24.8831 412.121 38.4831 444.921 81.2831 503.921C121.083 558.921 137.483 587.321 144.083 613.721C146.683 623.921 147.083 632.521 146.283 652.721C145.083 679.721 145.283 678.721 127.083 744.721C110.483 805.521 105.283 862.121 111.683 915.521C114.683 940.921 122.083 977.721 124.083 977.721C124.683 977.721 128.883 976.721 133.683 975.521L142.283 973.321L138.683 957.721C129.483 918.321 126.483 865.321 131.083 824.121C134.083 797.321 138.883 774.721 150.883 732.721C163.283 688.721 166.883 668.921 166.883 643.721C166.883 603.521 151.683 567.921 109.683 509.721C66.8831 450.321 58.2831 435.521 49.8831 406.321C46.4831 394.921 44.6831 383.321 44.4831 372.721C44.0831 354.721 45.4831 348.521 50.8831 345.721C52.8831 344.721 69.6831 342.521 88.0831 340.721C156.483 334.521 198.283 325.921 233.083 311.321L242.483 307.521L256.083 314.321C273.283 322.921 297.083 333.121 346.083 353.321C367.083 361.921 388.483 371.521 393.683 374.521C403.083 379.921 410.883 389.721 410.883 395.921C410.883 404.721 396.083 427.921 378.283 446.921C326.283 502.321 302.483 538.521 292.683 577.721C280.083 627.321 302.283 672.321 360.883 715.921C369.083 721.921 384.483 733.321 395.083 741.321C452.483 784.121 471.083 824.921 459.083 882.721C449.683 928.121 422.083 969.521 365.883 1021.92C354.883 1032.12 345.483 1041.32 345.083 1042.32C344.283 1044.32 354.683 1055.72 357.283 1055.72C360.083 1055.72 397.483 1020.12 415.483 1000.12C460.683 950.521 481.283 904.721 481.483 853.721C481.683 826.721 478.283 811.721 467.483 789.721C457.083 769.121 427.283 739.121 389.883 712.321C354.683 686.921 339.283 672.921 326.683 655.121C290.483 603.321 308.683 549.521 392.483 460.921C418.683 433.121 429.083 414.721 429.083 396.321C429.083 377.721 419.883 365.321 397.283 353.921C391.083 350.721 368.283 340.921 346.883 332.121C311.283 317.521 266.883 298.321 265.483 297.121C265.283 296.721 273.483 287.921 283.883 277.321C302.683 258.321 303.083 258.121 316.083 255.921C335.083 252.521 359.283 243.321 394.683 225.521C467.083 189.321 547.483 140.921 556.883 127.521C563.483 118.521 563.083 107.121 555.683 99.5214C543.083 86.3214 520.883 82.9214 370.283 70.5214C358.083 69.5214 354.283 68.5214 353.683 65.9214C353.083 64.1214 349.883 56.9214 346.483 49.9214C334.883 26.7214 310.083 7.12145 285.283 1.92145C270.883 -1.07855 263.883 -0.678549 249.283 3.92145ZM296.083 26.3214C308.283 32.5214 323.483 47.1214 329.083 58.1214C331.283 62.5214 332.883 66.5214 332.283 66.9214C331.483 67.7214 218.483 63.5214 217.283 62.5214C216.883 62.3214 218.483 58.3214 220.883 53.5214C226.883 41.9214 242.883 26.7214 253.283 22.9214C265.483 18.5215 283.483 19.9214 296.083 26.3214ZM189.483 96.1214C188.283 114.121 187.283 117.721 183.883 116.521C178.283 114.321 166.883 117.921 160.083 123.921C143.083 138.721 149.883 178.921 169.483 179.921C179.083 180.321 186.083 179.321 190.283 176.521C194.483 173.921 194.883 174.521 204.883 195.121C221.683 230.521 235.683 245.321 259.683 252.721C265.283 254.521 271.083 256.521 272.683 256.921C276.083 258.121 264.083 271.121 251.683 279.721L243.483 285.521L232.483 278.721C204.283 261.921 125.483 205.921 78.6831 169.721C52.8831 149.721 18.8831 117.921 18.8831 113.721C18.8831 108.321 32.6831 98.3214 44.2831 95.1214C60.4831 90.5214 124.683 84.7214 168.083 84.1214L190.083 83.7214L189.483 96.1214ZM323.483 87.1214L338.883 88.3214V106.721C338.883 138.521 324.483 183.121 301.883 221.521L292.483 237.721H283.683C270.683 237.721 254.283 230.721 244.083 220.721C237.883 214.721 231.883 205.321 224.283 189.321C208.683 156.921 206.083 145.121 207.483 113.521C208.083 99.3214 209.283 86.7214 210.083 85.5214C211.083 83.7214 223.683 83.5214 259.683 84.5214C286.283 85.1214 314.883 86.3214 323.483 87.1214ZM447.083 96.7214C500.883 101.521 535.483 107.521 540.483 112.521C542.883 114.921 541.683 116.521 532.683 123.321C505.483 143.521 404.883 200.321 361.883 219.521C341.083 228.721 318.883 236.521 318.883 234.521C318.883 234.121 323.683 223.521 329.683 211.121C349.683 169.521 358.883 136.321 358.883 105.321V89.3214L376.483 90.5214C386.083 91.3214 417.883 94.1214 447.083 96.7214ZM183.683 140.121C188.283 146.721 187.483 152.921 181.483 157.721C174.683 163.121 172.283 162.121 170.083 153.121C168.683 147.521 168.883 144.921 171.683 140.921C175.683 134.521 179.683 134.321 183.683 140.121Z" fill="black"/>
</svg>
