<svg width="120" height="120" viewBox="0 0 120 120" fill="none" xmlns="http://www.w3.org/2000/svg">
<path d="M106.16 56.28C108.72 56.28 110.8 56.84 112.4 57.96C114 59 115.16 60.36 115.88 62.04C116.68 63.72 117.08 65.48 117.08 67.32C117.08 70.28 116.2 72.72 114.44 74.64C112.76 76.48 110.52 77.4 107.72 77.4C104.92 77.4 102.72 76.72 101.12 75.36C99.6 73.92 98.84 72.04 98.84 69.72C98.84 67.48 99.32 65.64 100.28 64.2C101.32 62.68 102.6 61.4 104.12 60.36C103 60.04 101.88 60.08 100.76 60.48C99.24 60.72 97.8 61.36 96.44 62.4C95.08 63.36 93.92 64.6 92.96 66.12C92 67.56 91.24 69.16 90.68 70.92C90.12 72.6 89.84 74.24 89.84 75.84V107.64C89.84 111.48 90.76 114.08 92.6 115.44C94.52 116.8 97.36 117.48 101.12 117.48V120C99.28 119.92 96.6 119.84 93.08 119.76C89.56 119.6 85.88 119.52 82.04 119.52C78.84 119.52 75.6 119.6 72.32 119.76C69.04 119.84 66.56 119.92 64.88 120V117.48C67.68 117.48 69.64 116.88 70.76 115.68C71.96 114.48 72.56 112.2 72.56 108.84V71.04C72.56 67.44 72 64.8 70.88 63.12C69.84 61.36 67.84 60.48 64.88 60.48V57.96C67.44 58.2 69.92 58.32 72.32 58.32C75.68 58.32 78.8 58.2 81.68 57.96C84.64 57.64 87.36 57.2 89.84 56.64V67.8C90.8 65.64 92.08 63.68 93.68 61.92C95.28 60.16 97.12 58.8 99.2 57.84C101.28 56.8 103.6 56.28 106.16 56.28Z" fill="#5A3E36"/>
<path d="M42.4805 4C50.9602 4.00006 58.3598 5.72028 64.6797 9.16016C71.0796 12.6001 76.0396 17.5601 79.5596 24.04C83.0796 30.44 84.8398 38.2404 84.8398 47.4404C84.8398 48.8229 84.7957 50.1787 84.71 51.5078C83.5638 51.6882 82.3608 51.849 81.0996 51.9863C78.4315 52.206 75.5072 52.3203 72.3203 52.3203C70.12 52.3203 67.8263 52.2101 65.4395 51.9863L64.8418 51.9297C64.892 50.6182 64.9199 49.2816 64.9199 47.9199C64.9199 39.36 63.8798 31.9597 61.7998 25.7197C59.7998 19.4799 57.0395 14.6803 53.5195 11.3203C50.0796 7.88036 46.24 6.16016 42 6.16016C37.5201 6.16016 33.6002 7.9598 30.2402 11.5596C26.9602 15.1596 24.3996 20.1204 22.5596 26.4404C20.7997 32.7603 19.9199 40.0806 19.9199 48.4004C19.92 56.8801 20.92 64.2798 22.9199 70.5996C24.9999 76.8396 27.7602 81.6801 31.2002 85.1201C34.7201 88.48 38.6 90.1601 42.8398 90.1602C47.3198 90.1602 51.2005 88.3598 54.4805 84.7598C57.8403 81.1598 60.4002 76.1997 62.1602 69.8799C62.478 68.7744 62.7654 67.6408 63.0283 66.4805H64.8809C65.4116 66.4805 65.7545 66.5324 65.9551 66.5742C66.1449 66.9771 66.5605 68.2347 66.5605 71.0391V85.2803C65.8337 85.767 65.0876 86.2345 64.3203 86.6797C57.9204 90.4396 50.6002 92.3203 42.3604 92.3203C33.8804 92.3203 26.44 90.6001 20.04 87.1602C13.7201 83.7202 8.80026 78.7601 5.28027 72.2803C1.76027 65.8003 0 57.9999 0 48.8799C1.63486e-05 39.92 1.80044 32.0803 5.40039 25.3604C9.08039 18.6404 14.0804 13.3996 20.4004 9.63965C26.8003 5.87982 34.1607 4 42.4805 4ZM83.9707 57.6816C83.1059 62.5093 81.5963 66.9356 79.4404 70.96C77.5462 74.4959 75.2522 77.6215 72.5605 80.3379V71.0391C72.5604 67.4395 72.0008 64.799 70.8809 63.1191C69.8409 61.3595 67.8402 60.4806 64.8809 60.4805V57.9609C67.4405 58.2009 69.9206 58.3203 72.3203 58.3203C74.8401 58.3203 77.2248 58.2522 79.4746 58.1172L81.6797 57.9609C82.4601 57.8766 83.2236 57.7827 83.9707 57.6816Z" fill="#5A3E36"/>
</svg>
