<svg width="375" height="81" viewBox="0 0 375 81" fill="none" xmlns="http://www.w3.org/2000/svg">
<path d="M45.1415 39.7773C46.3166 39.9342 48.1997 39.1934 48.5391 40.0984C49.1667 41.7662 48.8711 43.7551 48.1705 45.5323C46.9114 48.7255 44.1051 50.1378 40.4484 50.2181C37.5837 50.2801 34.77 49.5794 32.6023 47.1855C28.4639 42.6019 28.9347 33.2376 36.3903 30.8217C39.6967 29.7525 43.2073 29.9897 46.1743 32.3289C46.7363 32.7705 47.4224 33.3617 46.51 34.0733C45.875 34.5696 45.4553 35.7192 44.2292 34.6828C40.4594 31.4932 35.0948 33.1354 33.5876 37.8394C32.6972 40.613 33.2847 43.2259 35.1787 45.1929C37.0399 47.1271 39.5434 48.0066 42.3716 47.0468C43.3278 46.722 44.0102 46.1089 44.7036 45.463C45.4334 44.7842 46.1195 43.8974 45.7436 42.9741C45.4225 42.1858 44.3313 42.8683 43.6489 42.6238C42.8825 42.3501 41.4739 43.5361 41.4082 41.5691C41.3644 40.2334 41.6126 39.5036 43.1416 39.7554C43.7912 39.8612 44.4737 39.7736 45.1415 39.7736V39.7773Z" fill="#5A3E36"/>
<path d="M312.914 30.2049C317.472 34.4309 321.993 38.6897 326.322 43.12C327 42.6967 326.738 42.1566 326.741 41.7223C326.767 38.4415 326.796 35.1571 326.73 31.8763C326.708 30.8363 327.008 30.4786 328.04 30.5881C328.851 30.6757 329.675 30.3618 329.657 31.7887C329.577 37.5 329.624 43.2149 329.624 48.9298C329.624 49.3531 329.73 49.8932 329.263 50.0538C328.792 50.2144 328.57 49.6633 328.285 49.3823C325.176 46.3059 322.125 43.1675 318.953 40.1531C317.851 39.1057 316.633 38.1861 315.454 36.9927C315.454 40.6567 315.446 44.3207 315.461 47.9846C315.461 48.8313 315.461 49.5283 314.293 49.6086C313.06 49.6925 312.615 49.3641 312.629 48.0321C312.695 42.1383 312.647 36.241 312.644 30.3436L312.812 30.3472L312.906 30.2049H312.914Z" fill="#5A3E36"/>
<path d="M132.227 37.1716C132.201 40.7552 132.121 44.3426 132.176 47.9262C132.194 49.2291 131.712 49.5502 130.486 49.6232C129.03 49.7071 129.3 48.8167 129.3 48.0029C129.3 42.5909 129.289 37.1825 129.315 31.7705C129.315 31.2852 128.972 30.5772 129.61 30.3363C130.125 30.1393 130.391 30.8034 130.716 31.1209C133.019 33.3726 135.358 35.595 137.57 37.9343C139.146 39.5984 141.186 40.7735 142.489 42.704C142.631 42.9157 142.766 43.1164 143.047 43.0288C143.544 42.8755 143.357 42.434 143.361 42.1165C143.376 38.832 143.445 35.5476 143.336 32.2668C143.288 30.8874 143.668 30.4385 145.043 30.5735C145.828 30.6502 146.222 30.6903 146.211 31.6537C146.164 37.4307 146.189 43.204 146.178 48.9809C146.178 49.3057 146.368 49.7436 145.905 49.9224C145.543 50.0611 145.361 49.7144 145.171 49.5174C141.073 45.3206 136.519 41.5873 132.588 37.219C132.574 36.9161 132.504 36.5621 132.132 36.6716C131.913 36.7336 131.928 37.0511 132.227 37.1752V37.1716Z" fill="#5A3E36"/>
<path d="M103.204 36.8651C103.204 40.4925 103.178 44.12 103.204 47.7438C103.211 48.8423 103.101 49.5466 101.689 49.6232C100.127 49.7072 100.412 48.762 100.408 47.8861C100.405 42.4814 100.401 37.0767 100.415 31.672C100.415 31.2159 100.262 30.7232 100.58 30.278C105.353 34.2667 109.575 38.8138 114.407 43.5069C114.407 39.3357 114.44 35.7265 114.385 32.1209C114.371 31.0443 114.491 30.5115 115.805 30.548C116.998 30.5809 117.316 30.8874 117.305 32.0771C117.243 37.9927 117.276 43.9083 117.276 50.1962C112.28 45.7987 107.707 41.4742 103.452 36.814C103.371 36.7373 103.288 36.6607 103.207 36.5877C103.207 36.679 103.204 36.7702 103.2 36.8614L103.204 36.8651Z" fill="#5A3E36"/>
<path d="M206.948 39.9743C206.948 37.4234 207.002 34.8689 206.922 32.318C206.886 31.0918 207.013 30.4933 208.531 30.5371C209.9 30.5772 210.061 31.048 210.05 32.2231C210.035 33.9565 209.254 36.2775 210.367 37.2665C211.327 38.1204 213.597 37.5256 215.29 37.5329C218.017 37.5426 219.379 36.1753 219.374 33.431C219.374 33.0697 219.374 32.7048 219.374 32.3435C219.374 30.7597 220.567 30.0079 222.045 30.6101C222.625 30.8473 222.428 31.2998 222.428 31.6757C222.443 37.2665 222.395 42.8573 222.468 48.4445C222.487 49.9152 221.589 49.5393 220.808 49.5794C219.987 49.6232 219.301 49.7181 219.37 48.4262C219.494 46.1344 219.355 43.8317 219.41 41.5326C219.432 40.5874 219.158 40.2334 218.184 40.259C215.834 40.3137 213.48 40.3137 211.13 40.259C210.247 40.2371 209.977 40.5181 209.995 41.3939C210.046 43.6419 209.958 45.8899 210.035 48.1379C210.079 49.4627 209.382 49.5539 208.334 49.6159C207.174 49.6853 206.893 49.2765 206.922 48.1817C206.991 45.4484 206.944 42.715 206.944 39.978L206.948 39.9743Z" fill="#5A3E36"/>
<path d="M277.849 40.8209C277.849 43.5251 277.849 45.6417 277.849 47.7583C277.849 48.8933 277.623 49.6085 276.163 49.6341C274.602 49.6596 274.952 48.7254 274.948 47.8897C274.941 42.6127 274.985 37.3357 274.915 32.0588C274.901 30.8545 275.24 30.4494 276.415 30.599C278.196 30.8216 279.992 30.3618 281.794 30.9238C284.199 31.6756 285.4 32.7667 285.528 34.8213C285.758 38.4378 285.236 39.4743 282.59 40.6056C282.265 40.7442 281.922 40.8391 281.433 41.0033C282.944 42.9849 284.422 44.9228 285.904 46.8642C286.338 47.4335 286.827 47.97 287.188 48.5831C287.528 49.156 287.447 49.5173 286.593 49.6122C285.013 49.7874 283.94 49.2801 283.035 47.9298C281.506 45.6453 279.798 43.4776 277.846 40.8245L277.849 40.8209ZM277.948 38.5838C277.948 38.6824 277.911 38.8502 277.955 38.8721C278.152 38.9816 278.222 38.832 278.265 38.6714C279.448 38.6422 280.681 38.6933 281.652 37.905C282.645 37.0985 282.834 36.022 282.291 34.8432C281.63 33.409 280.309 33.3397 278.992 33.2266C278.233 33.1609 277.89 33.3981 277.919 34.2228C277.974 35.6753 277.941 37.1314 277.944 38.5875L277.948 38.5838Z" fill="#5A3E36"/>
<path d="M195.197 34.92C190.194 31.9348 186.497 32.953 184.329 35.2813C182.056 37.7264 181.822 41.467 183.829 44.2295C187.11 48.7438 191.249 47.2111 195.252 45.1565C196.113 48.481 194.599 49.408 191.125 49.8933C187.552 50.3933 184.286 49.5649 181.735 46.6965C179.472 44.1529 178.625 39.5182 179.99 36.3798C181.669 32.5114 184.512 30.3218 188.814 30.2488C190.063 30.2269 191.292 30.2561 192.54 30.5773C195.329 31.2926 195.756 31.8947 195.197 34.92Z" fill="#5A3E36"/>
<path d="M248.543 49.5576C248.08 49.4079 246.653 50.1378 247.525 48.3058C249.915 43.2952 252.178 38.2263 254.521 33.1938C254.951 32.2705 255.262 30.767 256.163 30.7378C257.243 30.7013 257.32 32.2888 257.747 33.1829C260.064 38.0183 262.308 42.8865 264.546 47.7621C264.786 48.2876 265.589 49.1488 264.867 49.4116C263.973 49.74 262.641 50.094 261.878 49.0211C261.239 48.127 260.626 47.0833 260.447 46.0286C260.214 44.6601 259.473 44.5579 258.422 44.6455C258.119 44.6711 257.809 44.693 257.513 44.6492C254.145 44.1492 251.397 44.7076 250.579 48.6379C250.357 49.7072 249.528 49.6086 248.543 49.5539V49.5576ZM256.163 36.2556C255.772 37.2519 255.499 37.9599 255.221 38.6679C254.784 39.7846 253.408 41.0837 254.086 41.9085C254.605 42.5398 256.444 42.0837 257.696 42.1092C257.816 42.1092 257.937 42.0764 258.053 42.091C258.863 42.1931 258.82 41.8063 258.553 41.2553C257.794 39.6897 257.05 38.1168 256.163 36.2593V36.2556Z" fill="#5A3E36"/>
<path d="M81.7995 30.0043C84.1169 34.9309 86.3065 39.5802 88.4888 44.2295C89.1128 45.5579 89.6383 46.941 90.3536 48.2182C91.0506 49.4627 90.5324 49.5247 89.4303 49.6159C87.8648 49.74 87.1495 49.043 86.7225 47.6489C85.8065 44.6747 85.7481 44.6711 82.7739 44.6674C82.6535 44.6674 82.533 44.6528 82.4126 44.6309C79.245 44.0726 77.0517 44.9776 76.289 48.4153C76.0627 49.4371 74.0884 50.021 73.1469 49.5649C72.5922 49.2985 72.7965 48.8861 72.9754 48.5102C74.5592 45.1272 76.1868 41.7625 77.7305 38.3577C78.9603 35.6389 80.1756 32.9128 81.8068 30.0043H81.7995ZM79.0953 42.0289C80.774 42.0946 82.4674 42.2187 84.303 41.9632C83.4052 39.9488 82.5732 38.0876 81.7338 36.2118C80.8762 38.1022 80.0223 39.9853 79.0917 42.0326L79.0953 42.0289Z" fill="#5A3E36"/>
<path d="M237.643 31.037C237.643 36.6242 237.592 42.2113 237.668 47.7985C237.686 49.1707 237.285 49.532 235.938 49.5758C234.424 49.6269 234.482 48.8459 234.49 47.7912C234.519 42.7588 234.595 37.719 234.453 32.6902C234.402 30.8874 234.924 30.2816 236.635 30.5991C236.869 30.6429 237.121 30.6137 237.362 30.6173C237.457 30.756 237.551 30.8983 237.646 31.037H237.643Z" fill="#5A3E36"/>
<path d="M297.533 40.091C297.533 37.3576 297.613 34.6206 297.496 31.8908C297.441 30.6099 298.014 30.515 298.989 30.5917C299.792 30.6537 300.62 30.3253 300.594 31.7814C300.503 37.1861 300.521 42.5944 300.58 48.0028C300.594 49.3749 299.952 49.5392 298.803 49.6194C297.492 49.7107 297.5 49.0501 297.514 48.1086C297.551 45.4373 297.529 42.7623 297.529 40.091H297.533Z" fill="#5A3E36"/>
<path d="M341.704 40.0619C341.704 37.2738 341.777 34.4857 341.675 31.7049C341.62 30.1904 342.602 30.6721 343.343 30.6137C344.153 30.548 344.821 30.4677 344.806 31.7377C344.733 37.1899 344.748 42.642 344.795 48.0942C344.806 49.5357 343.97 49.5101 342.923 49.6159C341.529 49.7546 341.7 48.9116 341.704 48.0613C341.715 45.3973 341.708 42.7296 341.708 40.0656L341.704 40.0619Z" fill="#5A3E36"/>
<path d="M158.421 39.8976C158.421 37.1715 158.494 34.4418 158.392 31.7194C158.333 30.2231 159.297 30.661 160.052 30.6063C160.859 30.5516 161.526 30.4567 161.508 31.7303C161.435 37.1825 161.439 42.6383 161.501 48.0904C161.519 49.5501 160.742 49.5209 159.669 49.6122C158.322 49.7253 158.399 48.9845 158.406 48.0795C158.432 45.3534 158.417 42.6237 158.417 39.8976H158.421Z" fill="#5A3E36"/>
<path d="M60.0314 39.8976C60.0314 37.1716 60.1044 34.4418 59.9985 31.7194C59.9474 30.4129 60.6883 30.5699 61.4692 30.61C62.2247 30.6501 63.1516 30.2268 63.1297 31.7194C63.0531 37.1716 63.0713 42.6237 63.1187 48.0758C63.1297 49.5064 62.3159 49.5064 61.2576 49.6122C59.8854 49.7472 60.0168 48.948 60.0241 48.0758C60.0423 45.3498 60.0314 42.6237 60.0314 39.8976Z" fill="#5A3E36"/>
<path d="M132.225 37.1716C131.93 37.0439 131.911 36.73 132.13 36.668C132.503 36.5621 132.568 36.9125 132.587 37.2154C132.466 37.2008 132.346 37.1862 132.225 37.1716Z" fill="#5A3E36"/>
<path d="M312.914 30.2049L312.818 30.3473L312.651 30.3436C312.559 30.2049 312.501 30.059 312.72 30.0006C312.764 29.9896 312.848 30.1356 312.913 30.2086L312.914 30.2049Z" fill="#5A3E36"/>
<path d="M237.643 31.037C237.548 30.8983 237.453 30.7561 237.358 30.6174C237.686 30.5992 237.811 30.7195 237.643 31.037Z" fill="#5A3E36"/>
<path d="M103.204 36.8651C103.204 36.7738 103.208 36.6825 103.211 36.5913C103.291 36.6679 103.375 36.7446 103.456 36.8176L103.346 36.9197L103.204 36.8651Z" fill="#5A3E36"/>
<path d="M277.948 38.5838C278.072 38.5473 278.178 38.5765 278.265 38.6714C278.222 38.832 278.152 38.9852 277.955 38.8721C277.911 38.8466 277.948 38.6824 277.948 38.5838Z" fill="#5A3E36"/>
</svg>
