<svg width="252" height="87" viewBox="0 0 252 87" fill="none" xmlns="http://www.w3.org/2000/svg">
<path d="M117.536 30.2266C117.918 30.2266 118.287 30.3123 118.661 30.3695C119.032 30.4266 119.402 30.5022 119.767 30.594C120.327 30.7349 120.872 30.9186 121.421 31.1002C122.835 31.5677 124.066 32.3413 125.218 33.264C125.648 33.609 125.989 34.0417 126.371 34.4357C126.897 34.9828 127.336 35.6033 127.692 36.2647C128.1 37.024 128.49 37.7977 128.731 38.6366C128.82 38.9469 128.922 39.2572 129.045 39.5613C129.141 39.7961 129.141 40.0635 129.182 40.3105C129.229 40.5881 129.327 40.8494 129.363 41.129C129.57 42.6478 129.6 44.1665 129.406 45.6872C129.382 45.8771 129.349 46.0669 129.318 46.2567C129.288 46.2629 129.245 46.2629 129.253 46.3098C129.255 46.3221 129.29 46.3282 129.31 46.3384C129.163 46.7956 129.145 47.2794 129.004 47.7407C128.882 48.147 128.743 48.545 128.608 48.9471C128.398 49.5799 128.075 50.1658 127.769 50.7577C127.5 51.2742 127.177 51.7498 126.806 52.2009C125.973 53.2175 124.981 54.0442 123.844 54.6974C123.397 54.9546 122.933 55.1832 122.441 55.3465C122.419 55.3649 122.396 55.3833 122.372 55.4037C122.27 55.3955 122.207 55.5078 122.1 55.4874C122.076 55.4996 122.054 55.5139 122.029 55.5262C121.905 55.5282 121.798 55.5894 121.684 55.6241C121.662 55.6384 121.637 55.6548 121.615 55.6691C121.504 55.6936 121.394 55.7058 121.284 55.7425C120.233 56.1059 119.135 56.2182 118.034 56.31C116.301 56.4529 114.566 56.4386 112.831 56.4366C110.9 56.4366 108.969 56.4366 107.036 56.4366C106.689 56.4366 106.697 56.4672 106.697 56.1038C106.699 47.4978 106.701 38.8918 106.703 30.2858C106.703 30.1939 106.707 30.1021 106.709 30.0102C109.583 30.0102 112.458 30.0102 115.332 30.0102C115.338 30.0939 115.366 30.1858 115.45 30.1919C115.711 30.2082 115.979 30.2858 116.23 30.1449C116.413 30.1286 116.597 30.1388 116.781 30.1694C116.793 30.2694 116.744 30.4123 116.918 30.4144C117.091 30.4144 117.046 30.2735 117.057 30.1715C117.177 30.149 117.289 30.1776 117.401 30.2184C117.442 30.2899 117.485 30.3001 117.536 30.2286V30.2266ZM121.741 53.6217C121.854 53.6155 121.984 53.6625 122.076 53.5849C122.309 53.3849 122.543 53.1807 122.717 52.9235C122.772 52.8398 122.792 52.7521 122.664 52.7072C122.776 52.5439 122.89 52.3785 123.031 52.2377C123.195 52.2499 123.199 52.1417 123.191 52.0254C123.252 51.8743 123.342 51.7416 123.452 51.6212C123.536 51.611 123.656 51.6253 123.533 51.4885C123.558 51.364 123.644 51.2701 123.697 51.1619C123.836 50.8823 124.021 50.6271 124.105 50.3209C124.123 50.2964 124.142 50.274 124.16 50.2495C124.211 50.1352 124.26 50.0229 124.311 49.9086C124.407 49.8902 124.47 49.8575 124.36 49.7677C124.63 49.0267 124.866 48.2756 125.011 47.4999C125.167 47.4488 125.132 47.3468 125.083 47.2406C125.142 46.5568 125.25 45.8811 125.291 45.1953C125.411 43.2091 125.264 41.2474 124.824 39.3103C124.626 38.4427 124.321 37.6058 123.981 36.7852C123.399 35.3849 122.515 34.1948 121.372 33.2007C120.4 32.3577 119.296 31.7453 118.036 31.4371C117.681 31.3493 117.316 31.3064 116.959 31.2329C116.246 31.086 115.528 31.039 114.809 30.9921C113.88 30.9308 112.949 30.9614 112.021 30.9737C112.017 30.9329 112.01 30.8798 111.968 30.8716C111.894 30.8594 111.894 30.9247 111.884 30.9737C111.519 30.9982 111.151 31.0227 110.786 31.0472C110.512 31.0655 110.51 31.0655 110.51 31.3432C110.512 39.4001 110.516 47.457 110.52 55.5139C110.52 55.565 110.494 55.6303 110.555 55.6527C110.633 55.6813 110.629 55.6078 110.643 55.5609C110.757 55.5364 110.873 55.5364 110.988 55.5609C110.998 55.6099 110.998 55.6752 111.071 55.6629C111.116 55.6548 111.12 55.6037 111.127 55.5629C112.437 55.5425 113.748 55.5425 115.058 55.5629C115.187 55.7528 115.289 55.7487 115.403 55.5527C115.499 55.5058 115.605 55.5098 115.707 55.5078C116.397 55.4813 117.083 55.4098 117.761 55.2833C118.447 55.1547 119.12 54.9914 119.773 54.7321C120.482 54.4504 121.117 54.0462 121.743 53.6278L121.741 53.6217Z" fill="#5A3E36"/>
<path d="M53.5278 36.5668L53.6156 36.3443C53.8238 36.3606 53.7993 36.2075 53.8054 36.0789L53.8095 36.0708C53.9402 36.0585 53.9402 35.9626 53.9402 35.8646C53.9361 35.7605 53.9953 35.6992 54.081 35.6543C54.2076 35.6482 54.2157 35.5584 54.2198 35.4625C54.3055 35.34 54.3464 35.1828 54.4893 35.1012C54.6703 35.0875 54.7628 34.9732 54.7669 34.7582C54.922 34.7541 54.973 34.6562 54.9832 34.5194C55.2282 34.154 55.5507 33.8641 55.8937 33.5926C56.0304 33.5906 56.1366 33.5457 56.1509 33.3885C56.2223 33.2456 56.3285 33.1436 56.4795 33.0905C56.4877 33.1476 56.502 33.2068 56.5693 33.2109C56.6306 33.215 56.6734 33.166 56.6857 33.1109C56.6979 33.0578 56.6918 33.0007 56.6938 32.9456C56.7163 32.7353 56.9368 32.7394 57.0429 32.619C57.194 32.6271 57.345 32.6312 57.3185 32.4087C57.6308 32.1658 57.9145 31.8821 58.286 31.7249C58.3085 31.7024 58.3309 31.6779 58.3534 31.6555C58.3718 31.5677 58.4575 31.6289 58.4963 31.5881C58.5167 31.5718 58.5371 31.5555 58.5575 31.5371C58.6494 31.484 58.7392 31.4309 58.8311 31.3779C58.8535 31.3636 58.878 31.3513 58.9005 31.337C58.927 31.3289 58.9535 31.3207 58.9801 31.3105C59.0005 31.2962 59.0189 31.2819 59.0393 31.2656C59.0658 31.2574 59.0923 31.2493 59.1168 31.2411C59.1373 31.2268 59.1577 31.2125 59.176 31.1982C59.2209 31.188 59.2679 31.1799 59.3128 31.1697C59.3373 31.1533 59.3618 31.137 59.3842 31.1207C59.8844 30.9125 60.3722 30.6797 60.9009 30.5511C60.9234 30.5328 60.9479 30.5144 60.9703 30.496C61.3459 30.4164 61.7215 30.3266 62.1012 30.2572C62.4604 30.1919 62.8197 30.1102 63.1871 30.1306C63.4219 30.1429 63.6281 30.0388 63.8526 30.0082C63.8485 30.149 63.9281 30.2041 64.0608 30.2041C64.2037 30.2041 64.2139 30.1061 64.2139 30H65.8694C65.9898 30.2409 66.1694 30.2776 66.494 30.1286C67.2983 30.1184 68.0801 30.2878 68.8456 30.5022C70.5745 30.9859 72.0749 31.8943 73.4466 33.0354C74.4672 33.8846 75.394 34.8154 76.1043 35.9462C76.4942 36.5668 76.8188 37.2159 77.0821 37.9038C77.3924 38.7183 77.6496 39.5409 77.7843 40.4023C77.7231 40.4534 77.7394 40.4942 77.7986 40.533C77.8374 40.6473 77.8741 40.7616 77.8558 40.8841C77.7945 40.9331 77.8047 40.9759 77.868 41.0127C77.9048 41.1515 77.9476 41.2883 77.9252 41.4352C77.8558 41.5067 77.8578 41.572 77.9374 41.6332C78.0109 41.9251 78.015 42.2252 78.0089 42.5212C77.9986 43.2724 78.0089 44.0215 77.9252 44.7768C77.8496 45.4647 77.7557 46.1424 77.5945 46.812C77.3577 47.7999 77.0209 48.7553 76.5412 49.6534C76.186 50.3168 75.7696 50.9394 75.3082 51.5375C74.6387 52.4071 73.8283 53.1256 72.9934 53.8197C72.4647 54.2606 71.8871 54.6464 71.2808 54.9852C70.7195 55.2996 70.1438 55.5772 69.5314 55.7772C68.2536 56.1957 66.9349 56.3815 65.5959 56.4162C64.5609 56.4427 63.5301 56.41 62.5054 56.2467C61.9195 56.1528 61.3296 56.0834 60.7682 55.8854C60.5376 55.8038 60.3232 55.6731 60.0885 55.618C59.5822 55.4976 59.1658 55.1853 58.7065 54.9709C58.2432 54.7546 57.841 54.4035 57.4226 54.0952C57.1245 53.8748 56.8449 53.6298 56.5571 53.3951C56.5469 53.244 56.4468 53.2012 56.3162 53.193C55.8243 52.7521 55.3405 52.301 54.9179 51.7947C54.1729 50.9047 53.5503 49.929 53.0747 48.8655C52.6909 48.0041 52.4031 47.1018 52.2296 46.1792C52.1132 45.5545 52.0214 44.9156 52.003 44.2726C51.9744 43.2316 51.9377 42.1885 52.0703 41.1515C52.1377 41.1127 52.1459 41.0678 52.0806 41.0168C52.0989 40.9004 52.1193 40.7841 52.1377 40.6698C52.2071 40.6187 52.2051 40.5493 52.1847 40.4779C52.1969 40.3125 52.2071 40.1472 52.2194 39.9818C52.3541 39.9614 52.3725 39.892 52.3031 39.7859C52.3031 39.7369 52.3031 39.6879 52.3031 39.6389C52.3806 39.6226 52.4439 39.5981 52.3643 39.5083L52.3704 39.3633C52.4459 39.349 52.5113 39.3286 52.4398 39.2347C52.4398 39.1837 52.4419 39.1347 52.4439 39.0837C52.4582 39.0653 52.4725 39.0449 52.4847 39.0265C52.4909 38.9775 52.499 38.9306 52.5051 38.8816C52.7276 38.702 52.7338 38.4427 52.7562 38.1896C52.7399 38.0753 52.7868 37.9875 52.8746 37.9181C53.0093 37.8671 52.9501 37.7487 52.9685 37.6568C53.0053 37.5833 53.04 37.5099 53.0767 37.4364C53.3482 37.2057 53.4421 36.8852 53.5217 36.5586L53.5278 36.5668ZM72.7485 36.0667C72.2116 34.7051 71.338 33.5947 70.2193 32.6639C69.4416 32.0168 68.5659 31.5677 67.5881 31.3125C66.3185 30.9798 65.0284 30.9084 63.726 31.0492C62.3951 31.1941 61.1928 31.6473 60.1783 32.5414C58.8147 33.7437 57.788 35.1787 57.2144 36.9138C56.9653 37.6691 56.749 38.4325 56.6142 39.2204C56.5714 39.4776 56.5897 39.7451 56.4856 39.9921C56.4162 40.0492 56.4203 40.1166 56.4632 40.188C56.4346 40.6065 56.4121 41.0249 56.3448 41.4393C56.2631 41.5046 56.2611 41.57 56.3387 41.6414C56.3427 41.6986 56.3489 41.7557 56.3468 41.8129C56.3407 43.303 56.2713 44.7931 56.4877 46.2771C56.5571 46.7528 56.5816 47.2325 56.6857 47.706C56.7612 48.0469 56.8571 48.3797 56.9286 48.7206C57.0511 49.3166 57.2736 49.8841 57.5348 50.4291C57.7757 50.9313 58.0248 51.4314 58.3371 51.8988C58.8923 52.7296 59.5782 53.4379 60.3314 54.0789C60.8825 54.5464 61.55 54.8321 62.2298 55.075C62.5768 55.1975 62.9361 55.2649 63.2953 55.3241C63.3566 55.3343 63.3954 55.3751 63.4301 55.4221H63.475C63.6423 55.318 63.7852 55.3608 63.9159 55.4894C63.973 55.4853 64.0343 55.4955 64.071 55.4343C64.5732 55.4159 65.0712 55.52 65.5734 55.4731C65.8347 55.4486 66.0939 55.4078 66.3572 55.4302C66.4083 55.5017 66.4511 55.4874 66.4899 55.418C66.6736 55.3363 66.8798 55.3812 67.0615 55.3302C67.5494 55.1934 68.0413 55.071 68.5026 54.8485C69.3477 54.4443 70.1316 53.9564 70.7929 53.2828C70.9848 53.0868 71.1828 52.897 71.3767 52.7051C71.4135 52.7766 71.4645 52.797 71.536 52.748C71.6748 52.6521 71.6748 52.5112 71.6584 52.3663C71.8687 52.0519 72.0789 51.7376 72.2892 51.4212C72.5627 51.3109 72.5852 51.2701 72.479 51.0701C72.5178 50.868 72.6301 50.6945 72.6975 50.5046C72.9628 49.7616 73.1853 49.0063 73.3282 48.2266C73.5364 47.0834 73.6262 45.9301 73.6528 44.7727C73.6752 43.7296 73.6589 42.6865 73.6569 41.6414C73.6569 41.423 73.6385 41.2066 73.6303 40.9882C73.5936 40.0941 73.4833 39.2082 73.3711 38.3223C73.3894 38.2141 73.4303 38.0977 73.267 38.061C73.2425 37.5915 73.1118 37.1465 72.9567 36.7056C72.9016 36.5484 72.8281 36.3994 72.8322 36.2279C72.8403 36.1565 72.8342 36.0912 72.7526 36.0646L72.7485 36.0667Z" fill="#5A3E36"/>
<path d="M174.514 44.3298C174.518 44.5808 174.524 44.8319 174.524 45.083C174.524 48.5838 174.524 52.0866 174.524 55.5874C174.524 55.6895 174.516 55.7936 174.512 55.8956C174.351 55.912 174.298 56.01 174.322 56.1569C174.336 56.2447 174.392 56.3243 174.381 56.4202C173.244 56.4243 172.107 56.4264 170.97 56.4325C170.842 56.4325 170.774 56.3917 170.783 56.2569C170.787 56.1875 170.783 56.1202 170.783 56.0508C170.783 47.4835 170.783 38.9183 170.783 30.3511C170.783 30.2368 170.789 30.1225 170.793 30.0082H178.243C178.25 30.0919 178.278 30.1837 178.364 30.1898C178.603 30.2082 178.852 30.2858 179.078 30.1306C179.26 30.1409 179.442 30.1531 179.623 30.1633C179.621 30.3042 179.662 30.4123 179.827 30.4123C179.989 30.4123 180.036 30.3062 180.048 30.1694C181.281 30.2633 182.469 30.5491 183.622 30.9961C184.42 31.3064 185.172 31.6881 185.833 32.2311C186.627 32.8823 187.18 33.6927 187.515 34.6704C187.872 35.7135 187.927 36.7648 187.707 37.8365C187.682 37.9589 187.642 38.0773 187.607 38.1978C187.517 38.2161 187.456 38.2447 187.554 38.3345C187.437 38.9326 187.129 39.443 186.796 39.941C186.703 40.0798 186.629 40.239 186.488 40.3432C186.337 40.3227 186.311 40.4146 186.313 40.535C185.715 41.2434 184.972 41.7761 184.184 42.2497C183.518 42.6498 182.806 42.9621 182.071 43.1969C181.485 43.3847 180.883 43.5398 180.268 43.6419C179.411 43.7827 178.552 43.8868 177.682 43.8889C177.645 43.8562 177.598 43.8439 177.584 43.897C177.564 43.9664 177.629 43.9746 177.678 43.9868C178.148 44.4257 178.617 44.8605 179.082 45.3035C180.215 46.3772 181.344 47.4529 182.477 48.5266C183.8 49.782 185.127 51.0333 186.451 52.2867C187.335 53.1215 188.219 53.9564 189.101 54.7934C189.626 55.2894 190.146 55.7875 190.669 56.2855C190.593 56.2978 190.54 56.3345 190.522 56.4121C189.775 56.4488 189.03 56.4264 188.282 56.4284C188.207 56.4284 188.125 56.4447 188.066 56.3611C187.866 56.0732 187.546 55.9161 187.313 55.6629C186.896 55.2077 186.396 54.8342 185.976 54.3892C185.541 53.9299 185.031 53.5584 184.604 53.0991C184.253 52.7194 183.828 52.4193 183.483 52.0438C183.024 51.5457 182.471 51.1476 182.016 50.6536C181.665 50.2719 181.258 49.9596 180.889 49.6044C180.726 49.4472 180.585 49.2656 180.419 49.1104C180.177 48.8839 179.899 48.692 179.678 48.447C179.248 47.9694 178.715 47.5999 178.28 47.1324C177.888 46.7119 177.419 46.3772 177.037 45.9567C176.643 45.5219 176.184 45.1667 175.761 44.7646C175.5 44.5155 175.253 44.2502 175 43.9909C174.975 43.9317 174.926 43.9174 174.869 43.9154C174.662 43.9031 174.544 43.9725 174.514 44.1236C174.445 44.1338 174.381 44.1522 174.392 44.242C174.4 44.3114 174.457 44.3216 174.512 44.3298H174.514ZM176.453 31.1145C176.18 30.8757 175.847 30.8349 175.506 30.8369C175.294 30.8369 175.124 30.9288 175.004 31.1064C174.912 31.1105 174.82 31.1247 174.73 31.1207C174.59 31.1125 174.51 31.1554 174.522 31.3105C174.526 31.3554 174.522 31.4024 174.522 31.4473C174.522 35.0236 174.522 38.6019 174.528 42.1783C174.528 42.4518 174.508 42.7294 174.559 43.0009C174.516 43.0213 174.473 43.0478 174.483 43.1009C174.49 43.1356 174.53 43.1499 174.565 43.1458C174.641 43.1397 174.649 43.0785 174.659 43.0233C174.751 42.9989 174.843 42.9989 174.935 43.0233C174.945 43.0928 174.963 43.156 175.053 43.1458C175.122 43.1377 175.133 43.0805 175.141 43.0254C175.945 43.0029 176.751 43.007 177.556 43.0254C177.727 43.2254 177.864 43.2132 178.039 42.9886C179.148 42.8151 180.209 42.4947 181.201 41.9578C181.234 42.0252 181.263 42.1129 181.358 42.0844C181.438 42.0619 181.414 41.9782 181.416 41.917C181.416 41.8843 181.412 41.8517 181.409 41.819C181.418 41.7843 181.442 41.772 181.475 41.7741C181.879 41.8659 181.977 41.7863 181.899 41.4271C181.93 41.3638 181.979 41.3209 182.044 41.2985C182.34 41.2393 182.4 41.178 182.455 40.8841C182.569 40.7228 182.683 40.5636 182.8 40.4023C183.118 40.3411 183.2 40.1901 183.061 39.9145C183.094 39.8022 183.126 39.6879 183.159 39.5756C183.177 39.5511 183.194 39.5266 183.212 39.5042C183.398 39.0388 183.469 38.5468 183.565 38.061C183.628 38.0222 183.637 37.9794 183.575 37.9304C183.561 37.7201 183.583 37.5119 183.622 37.3057C183.728 37.2874 183.92 37.3547 183.875 37.1526C183.83 36.9506 183.835 36.7525 183.835 36.5525C183.835 36.3872 183.761 36.33 183.61 36.3423C183.571 36.0483 183.543 35.7523 183.494 35.4604C183.322 34.4296 182.961 33.4783 182.291 32.6618C181.948 32.2454 181.526 31.9433 181.003 31.7882C180.979 31.7698 180.956 31.7514 180.932 31.733C180.801 31.6881 180.675 31.6371 180.542 31.5983C180.06 31.4554 179.562 31.384 179.074 31.2778C179.074 31.1452 179.005 31.09 178.882 31.1247C178.809 31.1452 178.744 31.1942 178.676 31.2289C178.403 31.2146 178.129 31.1982 177.856 31.1839C177.388 31.1615 176.921 31.139 176.453 31.1166V31.1145Z" fill="#5A3E36"/>
<path d="M153.011 49.4942C152.928 49.4207 152.942 49.3166 152.926 49.2207C152.907 49.1962 152.889 49.1737 152.873 49.1493C152.754 48.8471 152.636 48.5471 152.515 48.245C152.499 48.1429 152.56 48.0061 152.389 47.9776C152.27 47.6754 152.15 47.3713 152.032 47.0692C152.015 47.0508 151.999 47.0345 151.983 47.0161C151.954 46.814 151.848 46.7426 151.634 46.7426C148.576 46.7508 145.518 46.7487 142.462 46.7487C142.189 46.7487 142.121 46.7855 142.042 47.0406C141.797 47.8224 141.452 48.5654 141.172 49.335C140.974 49.8821 140.774 50.4291 140.566 50.9721C140.368 51.4865 140.153 51.9928 139.957 52.5072C139.741 53.0726 139.541 53.6441 139.323 54.2075C139.114 54.7505 138.892 55.2874 138.676 55.8263C138.671 55.8365 138.661 55.8446 138.659 55.8569C138.625 56.0569 138.59 56.2896 138.422 56.3958C138.265 56.4958 138.041 56.4244 137.847 56.4284C137.606 56.4346 137.365 56.4284 137.108 56.4284C137.12 56.1447 137.255 55.9222 137.347 55.6875C137.365 55.663 137.383 55.6405 137.4 55.616C137.406 55.5711 137.414 55.5242 137.42 55.4792C137.436 55.4588 137.455 55.4405 137.471 55.4201C137.545 55.2343 137.616 55.0465 137.69 54.8607C137.861 54.8322 137.8 54.6934 137.816 54.5913C137.847 54.4954 137.875 54.4015 137.906 54.3055C137.922 54.2871 137.939 54.2688 137.955 54.2504C137.981 54.179 138.008 54.1055 138.035 54.034C138.118 54.0177 138.194 53.9993 138.1 53.8993C138.075 53.8115 138.143 53.7564 138.175 53.6891C138.312 53.6748 138.298 53.5727 138.298 53.4788C138.333 53.2604 138.424 53.0603 138.518 52.8623C138.602 52.846 138.678 52.8276 138.582 52.7276C138.557 52.6398 138.624 52.5847 138.657 52.5174C138.792 52.5031 138.78 52.403 138.78 52.3091C138.827 52.0928 138.9 51.8866 139.002 51.6886C139.021 51.6661 139.039 51.6417 139.055 51.6192C139.061 51.5743 139.069 51.5273 139.076 51.4824C139.092 51.462 139.11 51.4436 139.127 51.4232C139.165 51.2232 139.28 51.0538 139.345 50.8639C139.517 50.8353 139.455 50.6965 139.472 50.5945C139.502 50.4985 139.531 50.4046 139.561 50.3087C139.578 50.2903 139.594 50.272 139.61 50.2536C139.637 50.1821 139.664 50.1087 139.69 50.0372C139.774 50.0209 139.849 50.0025 139.755 49.9025C139.731 49.8147 139.798 49.7596 139.831 49.6922C139.968 49.6779 139.953 49.5759 139.953 49.482C139.988 49.2636 140.08 49.0635 140.174 48.8655C140.258 48.8492 140.333 48.8308 140.237 48.7308C140.213 48.643 140.28 48.5879 140.313 48.5205C140.447 48.5062 140.435 48.4062 140.435 48.3123C140.482 48.096 140.556 47.8898 140.658 47.6918C140.676 47.6693 140.694 47.6448 140.711 47.6224C140.717 47.5775 140.725 47.5305 140.731 47.4856C140.747 47.4652 140.766 47.4468 140.782 47.4264C140.821 47.2264 140.929 47.0549 141.001 46.8671C141.172 46.8385 141.111 46.7018 141.127 46.5997C141.141 46.5752 141.156 46.5487 141.17 46.5242C141.309 46.4752 141.248 46.3527 141.266 46.2588C141.292 46.1853 141.319 46.1139 141.346 46.0404C141.364 46.0159 141.382 45.9914 141.401 45.9669C141.407 45.922 141.415 45.8771 141.421 45.8322C141.437 45.8118 141.456 45.7914 141.472 45.773C141.527 45.5566 141.668 45.3688 141.701 45.1443C141.717 45.1259 141.733 45.1075 141.75 45.0912C141.776 45.0177 141.803 44.9463 141.829 44.8728C142.001 44.8442 141.94 44.7074 141.956 44.6054C141.97 44.5809 141.984 44.5543 142.001 44.5298C142.113 44.4972 142.089 44.4033 142.093 44.3216C142.138 44.1583 142.144 43.9828 142.25 43.8399C142.266 43.8195 142.285 43.7991 142.301 43.7807C142.315 43.7562 142.327 43.7297 142.342 43.7052C142.429 43.6807 142.438 43.6174 142.427 43.5419C142.446 43.301 142.611 43.1091 142.656 42.8764C142.674 42.8519 142.693 42.8295 142.709 42.805C142.944 42.1415 143.244 41.5047 143.499 40.8515C143.671 40.4126 143.848 39.9696 144.056 39.543C144.158 39.3307 144.228 39.1041 144.311 38.8837C144.33 38.8592 144.348 38.8367 144.365 38.8122C144.599 38.1488 144.899 37.5119 145.155 36.8587C145.326 36.4198 145.504 35.9769 145.712 35.5503C145.814 35.338 145.883 35.1114 145.967 34.8909C145.985 34.8664 146.004 34.844 146.02 34.8195C146.114 34.5664 146.245 34.3275 146.31 34.0642C146.328 34.0397 146.347 34.0152 146.365 33.9907C146.502 33.6233 146.686 33.2722 146.794 32.8925C146.812 32.868 146.83 32.8435 146.849 32.8211C147.106 32.1801 147.365 31.5371 147.622 30.8962C147.641 30.8717 147.659 30.8492 147.676 30.8247C147.765 30.5491 147.941 30.3042 147.953 30.0021H148.849C148.821 30.0837 148.847 30.1572 148.878 30.2327C149.139 30.8492 149.396 31.4677 149.656 32.0842C149.939 32.7558 150.223 33.4294 150.511 34.0989C150.817 34.8113 151.131 35.5196 151.436 36.2341C151.772 37.0261 152.101 37.8222 152.436 38.6142C152.711 39.2674 152.997 39.9166 153.271 40.5698C153.73 41.6618 154.197 42.7498 154.653 43.844C155.104 44.932 155.583 46.0077 156.039 47.0957C156.418 48.0082 156.822 48.9104 157.202 49.8229C157.617 50.817 158.076 51.7927 158.484 52.7888C158.766 53.4768 159.086 54.1504 159.343 54.8505C159.533 55.3649 159.782 55.8569 160.001 56.3509C159.972 56.3897 159.954 56.4162 159.913 56.4162C158.57 56.4264 157.225 56.4427 155.881 56.4101C155.873 56.3917 155.861 56.3795 155.841 56.3754C155.832 56.3529 155.822 56.3305 155.814 56.306C155.796 56.2835 155.779 56.259 155.761 56.2366C155.71 56.0957 155.661 55.9549 155.61 55.814C155.594 55.7936 155.577 55.7752 155.561 55.7548C155.553 55.7099 155.547 55.663 155.539 55.6181C155.52 55.5956 155.504 55.5711 155.485 55.5487C155.404 55.4752 155.414 55.3711 155.4 55.2751C155.381 55.2506 155.363 55.2282 155.347 55.2037C155.228 54.9016 155.11 54.6015 154.991 54.2994C154.975 54.1973 155.034 54.0606 154.865 54.032C154.832 53.9646 154.765 53.9095 154.793 53.8217C154.885 53.7197 154.808 53.7033 154.726 53.6891C154.608 53.389 154.489 53.0869 154.369 52.7868C154.353 52.7664 154.336 52.748 154.318 52.7276C154.31 52.6827 154.304 52.6358 154.295 52.5908L154.242 52.5214C154.159 52.448 154.173 52.3438 154.157 52.2479C154.138 52.2234 154.12 52.201 154.103 52.1765C153.985 51.8744 153.867 51.5743 153.746 51.2722C153.73 51.1701 153.791 51.0333 153.62 51.0048C153.614 50.9599 153.61 50.917 153.603 50.8721C153.603 50.7782 153.618 50.6761 153.481 50.6598C153.363 50.3597 153.244 50.0576 153.124 49.7576C153.107 49.7371 153.091 49.7188 153.073 49.6984C153.064 49.6534 153.058 49.6065 153.05 49.5616C153.032 49.5391 153.015 49.5146 152.997 49.4922L153.011 49.4942ZM151.546 45.7811C151.527 45.7566 151.509 45.7322 151.493 45.7077C151.472 45.5607 151.391 45.4341 151.34 45.2974C151.321 45.2729 151.303 45.2504 151.285 45.2259C151.189 44.9748 151.091 44.7217 150.995 44.4706C150.976 44.4482 150.958 44.4237 150.942 44.4012C150.839 44.1379 150.752 43.8705 150.633 43.6153C150.374 43.056 150.154 42.4804 149.905 41.917C149.664 41.3761 149.445 40.8249 149.215 40.2779C148.866 39.4511 148.517 38.6224 148.182 37.7916C147.829 36.9159 147.433 36.0585 147.108 35.1706C147.071 35.0706 147.057 34.946 146.894 34.8807C146.743 35.3849 146.487 35.8401 146.363 36.3464C146.345 36.3709 146.326 36.3933 146.308 36.4178C145.985 37.2057 145.663 37.9937 145.34 38.7816C145.02 39.5634 144.703 40.3432 144.381 41.125C144.058 41.9068 143.715 42.6804 143.417 43.4704C143.119 44.2604 142.734 45.0177 142.48 45.8587C142.646 45.8587 142.76 45.8587 142.874 45.8587C144.138 45.8587 145.399 45.8587 146.663 45.8587C148.178 45.8587 149.694 45.8608 151.209 45.8546C151.319 45.8546 151.462 45.9322 151.548 45.7852L151.546 45.7811Z" fill="#5A3E36"/>
<path d="M221.221 30.0082C221.221 30.2491 221.221 30.4899 221.229 30.7308C221.233 30.8594 221.186 30.9247 221.051 30.9145C220.972 30.9084 220.89 30.9145 220.81 30.9145C217.408 30.9145 214.007 30.9145 210.604 30.9145C210.557 30.9145 210.51 30.9206 210.467 30.9145C210.271 30.8819 210.228 30.986 210.243 31.1513C210.249 31.2309 210.243 31.3126 210.243 31.3922C210.243 39.5838 210.243 47.7734 210.243 55.9651C210.243 56.5101 210.277 56.4264 209.788 56.4284C208.742 56.4346 207.695 56.4325 206.65 56.4325C206.387 56.4325 206.387 56.4284 206.381 56.1712C206.381 56.1141 206.381 56.0569 206.381 55.9998C206.381 47.7979 206.381 39.5961 206.381 31.3922C206.381 31.3697 206.381 31.3473 206.381 31.3228C206.377 30.8492 206.419 30.9166 205.979 30.9166C202.772 30.9166 199.565 30.9166 196.358 30.9166C196.117 30.9166 195.874 30.9166 195.633 30.9268C195.513 30.9309 195.474 30.8819 195.478 30.7655C195.486 30.5144 195.488 30.2613 195.49 30.0082C204.068 30.0082 212.643 30.0082 221.221 30.0082Z" fill="#5A3E36"/>
<path d="M94.2226 30.0082C94.2226 38.555 94.2247 47.1018 94.2267 55.6507C94.2267 55.8467 94.2308 56.0406 94.2329 56.2366C94.2329 56.3713 94.1818 56.4407 94.0287 56.4386C92.8672 56.4325 91.7058 56.4346 90.5463 56.4346C90.4749 56.4346 90.4095 56.4223 90.3667 56.357V56.3223C90.3687 56.1855 90.3748 56.0467 90.3748 55.91C90.3748 47.7101 90.3748 39.5103 90.3728 31.3126C90.3728 30.8778 90.4218 30.443 90.3646 30.0082H94.2267H94.2226Z" fill="#5A3E36"/>
<path d="M37.2624 51.4946C37.244 51.3497 37.2909 51.2129 37.3195 51.0741C37.3828 51.0353 37.391 50.9925 37.3297 50.9455C37.3746 50.2719 37.4114 49.5962 37.4645 48.9247C37.5032 48.4327 37.5053 47.9387 37.5053 47.4468C37.5073 41.772 37.5053 36.0973 37.5073 30.4225C37.5073 30.2858 37.5134 30.147 37.5175 30.0102H40.5529C40.5488 30.1592 40.5427 30.3082 40.5427 30.4572C40.5427 36.0524 40.5468 41.6475 40.5386 47.2426C40.5386 48.3654 40.4631 49.486 40.3365 50.6046C40.2018 51.7886 39.718 52.8153 39.0056 53.7604C38.4667 54.4769 37.8013 55.0322 37.0378 55.4853C37.0154 55.5037 36.9929 55.52 36.9705 55.5384C36.8092 55.6119 36.6479 55.6874 36.4867 55.7609C36.4642 55.7793 36.4418 55.7997 36.4173 55.8181C36.2581 55.8691 36.0968 55.9181 35.9376 55.9691C35.9131 55.9834 35.8906 55.9977 35.8661 56.012C35.8192 56.0201 35.7743 56.0283 35.7273 56.0365C35.7049 56.0508 35.6824 56.0651 35.66 56.0793C35.2823 56.1467 34.9129 56.2569 34.5332 56.3141C33.5513 56.4611 32.5715 56.4713 31.5876 56.3549C31.5692 56.2712 31.5427 56.21 31.4529 56.2998C31.4059 56.2957 31.359 56.2916 31.312 56.2875C31.2181 56.1283 31.0814 56.0957 30.914 56.1569C30.8385 56.1794 30.8242 56.0793 30.7589 56.0793C30.7384 56.0651 30.718 56.0487 30.6956 56.0344C30.6711 56.0283 30.6466 56.0201 30.6241 56.014C30.6139 55.9038 30.52 55.8773 30.4425 55.8426C30.3098 55.7854 30.2669 55.6854 30.2771 55.5527C30.3833 55.5547 30.4833 55.5527 30.4812 55.4057C30.5221 55.3669 30.567 55.3322 30.6058 55.2914C30.7568 55.1342 30.9099 55.1485 31.0957 55.2445C31.8162 55.616 32.5817 55.7874 33.3942 55.6833C33.6207 55.6548 33.8432 55.5915 34.0678 55.5445C34.2311 55.6792 34.2923 55.5629 34.3474 55.4323C34.6699 55.2587 34.9966 55.0995 35.2987 54.8893C35.8743 54.4892 36.3479 53.9952 36.6826 53.3808C36.8929 52.9929 37.0582 52.5847 37.1174 52.1397C37.1195 52.1233 37.1481 52.1091 37.1664 52.0948C37.1991 52.0376 37.2869 51.9907 37.1971 51.9111C37.1828 51.811 37.2195 51.7192 37.2501 51.6273C37.3134 51.5906 37.3236 51.5477 37.2644 51.4967L37.2624 51.4946Z" fill="#5A3E36"/>
<path d="M116.23 30.1429C115.979 30.2838 115.711 30.2062 115.45 30.1899C115.366 30.1837 115.338 30.0919 115.332 30.0082H116.228C116.299 30.0531 116.238 30.098 116.228 30.1429H116.23Z" fill="#5A3E36"/>
<path d="M179.079 30.1327C178.853 30.2858 178.606 30.2082 178.365 30.1919C178.279 30.1857 178.25 30.0939 178.244 30.0102H179.073C179.151 30.0469 179.122 30.0898 179.079 30.1347V30.1327Z" fill="#5A3E36"/>
<path d="M66.4961 30.1368C66.1715 30.2858 65.9919 30.249 65.8715 30.0082H66.492C66.5696 30.049 66.5349 30.0919 66.4961 30.1368Z" fill="#5A3E36"/>
<path d="M30.2756 55.5507C30.2654 55.6833 30.3082 55.7834 30.4409 55.8405C30.5185 55.8732 30.6124 55.9018 30.6226 56.012C30.4593 56.0324 30.3511 55.9058 30.2123 55.8589C30.1408 55.8344 30.0817 55.7813 30 55.8262V55.6201C30.1184 55.6997 30.1796 55.5568 30.2756 55.5507Z" fill="#5A3E36"/>
<path d="M64.2167 30.0082C64.2167 30.1143 64.2065 30.2123 64.0636 30.2123C63.9309 30.2123 63.8534 30.1572 63.8554 30.0164L63.8717 30.0082H64.2167Z" fill="#5A3E36"/>
<path d="M53.5278 36.5668C53.4482 36.8954 53.3543 37.2138 53.0828 37.4445C53.1461 37.1097 53.2951 36.8158 53.5278 36.5668Z" fill="#5A3E36"/>
<path d="M180.048 30.1735C180.036 30.3102 179.989 30.4184 179.828 30.4164C179.665 30.4164 179.622 30.3082 179.624 30.1674C179.765 30.1429 179.908 30.1367 180.048 30.1735Z" fill="#5A3E36"/>
<path d="M174.381 56.4202C174.392 56.3264 174.336 56.2447 174.322 56.1569C174.298 56.01 174.351 55.912 174.512 55.8956C174.545 56.0406 174.533 56.1875 174.524 56.3345C174.518 56.4243 174.459 56.4407 174.381 56.4202Z" fill="#5A3E36"/>
<path d="M117.057 30.1694C117.045 30.2715 117.092 30.4144 116.918 30.4123C116.745 30.4123 116.794 30.2674 116.782 30.1674C116.873 30.147 116.965 30.1449 117.059 30.1714L117.057 30.1694Z" fill="#5A3E36"/>
<path d="M52.7644 38.1978C52.7419 38.4509 52.7338 38.7081 52.5133 38.8898C52.5909 38.6571 52.6154 38.404 52.7644 38.1978Z" fill="#5A3E36"/>
<path d="M54.765 34.7582C54.7609 34.9732 54.6683 35.0875 54.4874 35.1012C54.5343 34.9501 54.6445 34.8501 54.765 34.7582Z" fill="#5A3E36"/>
<path d="M30.9124 56.1549C31.0798 56.0936 31.2166 56.1263 31.3105 56.2855C31.1737 56.2549 31.037 56.2222 30.9124 56.1549Z" fill="#5A3E36"/>
<path d="M53.8035 36.0769C53.7974 36.2055 53.8239 36.3566 53.6137 36.3423C53.6627 36.2443 53.6892 36.13 53.8035 36.0769Z" fill="#5A3E36"/>
<path d="M57.3157 32.4128C57.3402 32.6373 57.1912 32.6312 57.0401 32.623C57.0891 32.4965 57.2402 32.5026 57.3157 32.4128Z" fill="#5A3E36"/>
<path d="M56.6895 32.9496C56.6875 33.0048 56.6936 33.0619 56.6814 33.115C56.6691 33.1701 56.6263 33.2191 56.565 33.215C56.4997 33.2109 56.4854 33.1497 56.4752 33.0946C56.5466 33.0476 56.6181 32.9986 56.6895 32.9517V32.9496Z" fill="#5A3E36"/>
<path d="M56.3179 53.2032C56.4486 53.2114 56.5506 53.2543 56.5588 53.4053C56.4486 53.3727 56.3526 53.3216 56.3179 53.2032Z" fill="#5A3E36"/>
<path d="M56.1468 33.3906C56.1325 33.5477 56.0284 33.5926 55.8896 33.5947C55.9284 33.4681 56.0366 33.4273 56.1468 33.3906Z" fill="#5A3E36"/>
<path d="M54.9817 34.5214C54.9715 34.6561 54.9201 34.7562 54.765 34.7582C54.8099 34.6541 54.8653 34.5602 54.9817 34.5214Z" fill="#5A3E36"/>
<path d="M190.524 56.4141C190.542 56.3366 190.595 56.2998 190.671 56.2876C190.726 56.3039 190.787 56.3284 190.773 56.3958C190.761 56.4468 190.697 56.4305 190.657 56.4305C190.612 56.4305 190.569 56.4203 190.524 56.4141Z" fill="#5A3E36"/>
<path d="M77.9384 41.6414C77.8588 41.5802 77.8547 41.5148 77.9262 41.4434C77.9568 41.5087 77.9609 41.574 77.9384 41.6414Z" fill="#5A3E36"/>
<path d="M139.478 50.6006C139.462 50.7027 139.523 50.8394 139.351 50.87C139.345 50.7578 139.386 50.6679 139.478 50.6006Z" fill="#5A3E36"/>
<path d="M141.133 46.6079C141.117 46.7099 141.178 46.8467 141.006 46.8753C141 46.763 141.041 46.6732 141.133 46.6079Z" fill="#5A3E36"/>
<path d="M152.391 47.9775C152.56 48.0081 152.501 48.1449 152.517 48.2449C152.425 48.1776 152.385 48.0898 152.391 47.9775Z" fill="#5A3E36"/>
<path d="M137.822 54.5954C137.805 54.6974 137.867 54.8342 137.695 54.8648C137.689 54.7525 137.73 54.6627 137.822 54.5954Z" fill="#5A3E36"/>
<path d="M154.875 54.036C155.044 54.0646 154.985 54.2014 155.001 54.3034C154.91 54.2381 154.869 54.1483 154.875 54.036Z" fill="#5A3E36"/>
<path d="M141.272 46.2669C141.253 46.3608 141.314 46.4833 141.176 46.5323C141.133 46.4159 141.188 46.3363 141.272 46.2669Z" fill="#5A3E36"/>
<path d="M52.9742 37.665C52.9558 37.7569 53.015 37.8773 52.8803 37.9263C52.8333 37.8099 52.8885 37.7324 52.9742 37.665Z" fill="#5A3E36"/>
<path d="M174.514 44.3298C174.459 44.3196 174.402 44.3114 174.394 44.242C174.384 44.1521 174.447 44.1338 174.517 44.1236C174.537 44.193 174.537 44.2624 174.517 44.3297L174.514 44.3298Z" fill="#5A3E36"/>
<path d="M153.632 51.0068C153.802 51.0374 153.743 51.1742 153.759 51.2742C153.667 51.2069 153.626 51.1191 153.632 51.0068Z" fill="#5A3E36"/>
<path d="M52.3092 39.7961C52.3786 39.9022 52.3602 39.9717 52.2255 39.9921C52.2255 39.9145 52.1744 39.8165 52.3092 39.7961Z" fill="#5A3E36"/>
<path d="M141.962 44.6115C141.946 44.7135 142.007 44.8503 141.836 44.8789C141.83 44.7666 141.87 44.6768 141.962 44.6115Z" fill="#5A3E36"/>
<path d="M186.315 40.5371C186.313 40.4166 186.339 40.3248 186.49 40.3452C186.452 40.4268 186.399 40.4942 186.315 40.5371Z" fill="#5A3E36"/>
<path d="M138.786 52.3132C138.786 52.4071 138.798 52.5071 138.663 52.5214C138.63 52.4091 138.712 52.3642 138.786 52.3132Z" fill="#5A3E36"/>
<path d="M142.097 44.3277C142.095 44.4094 142.12 44.5033 142.005 44.536C141.936 44.4237 142.022 44.3767 142.097 44.3277Z" fill="#5A3E36"/>
<path d="M153.493 50.6638C153.63 50.6781 153.617 50.7802 153.615 50.8761C153.542 50.823 153.458 50.7781 153.493 50.6638Z" fill="#5A3E36"/>
<path d="M138.302 53.4829C138.302 53.5767 138.317 53.6788 138.18 53.6931C138.145 53.5808 138.229 53.5339 138.302 53.4829Z" fill="#5A3E36"/>
<path d="M53.9384 35.8645C53.9384 35.9605 53.9384 36.0564 53.8077 36.0707C53.7955 35.9666 53.8567 35.9095 53.9384 35.8645Z" fill="#5A3E36"/>
<path d="M54.2184 35.4645C54.2164 35.5604 54.2082 35.6503 54.0796 35.6564C54.0776 35.5584 54.1347 35.5013 54.2184 35.4645Z" fill="#5A3E36"/>
<path d="M139.957 49.4901C139.957 49.584 139.972 49.6861 139.835 49.7004C139.8 49.5881 139.884 49.5411 139.957 49.4901Z" fill="#5A3E36"/>
<path d="M140.442 48.3205C140.442 48.4144 140.454 48.5144 140.32 48.5287C140.287 48.4164 140.369 48.3715 140.442 48.3205Z" fill="#5A3E36"/>
<path d="M139.762 49.9086C139.858 50.0086 139.78 50.027 139.696 50.0433C139.682 49.9821 139.676 49.9229 139.762 49.9086Z" fill="#5A3E36"/>
<path d="M177.68 43.9888C177.631 43.9766 177.566 43.9684 177.586 43.899C177.601 43.848 177.648 43.8582 177.684 43.8909L177.68 43.9888Z" fill="#5A3E36"/>
<path d="M52.0851 41.027C52.1504 41.078 52.1402 41.1209 52.0748 41.1617C51.9809 41.1086 51.983 41.0637 52.0851 41.027Z" fill="#5A3E36"/>
<path d="M77.8683 41.0229C77.805 40.9862 77.7948 40.9433 77.8561 40.8943C77.8846 40.9352 77.8887 40.978 77.8683 41.0229Z" fill="#5A3E36"/>
<path d="M187.556 38.3386C187.456 38.2488 187.519 38.2202 187.609 38.2018C187.622 38.259 187.605 38.306 187.556 38.3386Z" fill="#5A3E36"/>
<path d="M117.536 30.2266C117.487 30.3001 117.442 30.2878 117.401 30.2164C117.448 30.198 117.491 30.2021 117.536 30.2266Z" fill="#5A3E36"/>
<path d="M52.4459 39.2429C52.5194 39.3368 52.452 39.3572 52.3765 39.3715C52.3458 39.3001 52.3499 39.247 52.4459 39.2429Z" fill="#5A3E36"/>
<path d="M52.37 39.5165C52.4516 39.6063 52.3883 39.6308 52.3087 39.6471C52.2761 39.5797 52.2761 39.5267 52.37 39.5165Z" fill="#5A3E36"/>
<path d="M31.4524 56.2978C31.5401 56.208 31.5687 56.2692 31.5871 56.3529C31.5218 56.3835 31.4687 56.3896 31.4524 56.2978Z" fill="#5A3E36"/>
<path d="M77.7987 40.5411C77.7395 40.5044 77.7231 40.4615 77.7844 40.4105C77.8109 40.4513 77.817 40.4942 77.7987 40.5411Z" fill="#5A3E36"/>
<path d="M52.1912 40.488C52.2116 40.5615 52.2137 40.6289 52.1443 40.6799C51.9993 40.5758 52.1504 40.5452 52.1912 40.488Z" fill="#5A3E36"/>
<path d="M142.434 43.5459C142.444 43.6214 142.434 43.6868 142.348 43.7092C142.285 43.6051 142.356 43.5745 142.434 43.5459Z" fill="#5A3E36"/>
<path d="M138.105 53.9013C138.201 54.0013 138.124 54.0197 138.04 54.036C138.026 53.9748 138.02 53.9156 138.105 53.9013Z" fill="#5A3E36"/>
<path d="M154.734 53.6931C154.816 53.7074 154.893 53.7258 154.801 53.8258C154.718 53.8115 154.72 53.7564 154.734 53.6931Z" fill="#5A3E36"/>
<path d="M138.588 52.7317C138.684 52.8317 138.608 52.8501 138.524 52.8664C138.51 52.8052 138.504 52.748 138.588 52.7317Z" fill="#5A3E36"/>
<path d="M140.244 48.7389C140.34 48.839 140.264 48.8573 140.181 48.8737C140.166 48.8124 140.16 48.7553 140.244 48.7389Z" fill="#5A3E36"/>
<path d="M174.871 43.9133C174.927 43.9174 174.978 43.9317 175.002 43.9889C174.937 44.0031 174.888 43.9848 174.871 43.9133Z" fill="#5A3E36"/>
<path d="M129.308 46.3384C129.288 46.3282 129.253 46.3221 129.251 46.3098C129.243 46.2629 129.284 46.2629 129.317 46.2568C129.331 46.2853 129.331 46.3119 129.308 46.3384Z" fill="#5A3E36"/>
<path d="M154.329 52.7296C154.345 52.7501 154.361 52.7684 154.38 52.7888C154.339 52.7888 154.31 52.7786 154.329 52.7296Z" fill="#5A3E36"/>
<path d="M140.788 47.4345C140.772 47.4549 140.753 47.4733 140.737 47.4937C140.719 47.4447 140.747 47.4345 140.788 47.4345Z" fill="#5A3E36"/>
<path d="M137.961 54.2544C137.945 54.2728 137.929 54.2912 137.912 54.3096C137.894 54.2606 137.92 54.2504 137.961 54.2544Z" fill="#5A3E36"/>
<path d="M59.3863 31.1268C59.3618 31.1431 59.3373 31.1595 59.3149 31.1758C59.3231 31.137 59.3373 31.1044 59.3863 31.1268Z" fill="#5A3E36"/>
<path d="M155.356 55.2077C155.375 55.2322 155.393 55.2547 155.409 55.2791C155.369 55.273 155.34 55.2567 155.356 55.2077Z" fill="#5A3E36"/>
<path d="M141.756 45.0993C141.739 45.1177 141.723 45.1361 141.707 45.1524C141.688 45.1034 141.715 45.0953 141.756 45.0993Z" fill="#5A3E36"/>
<path d="M142.717 42.809C142.698 42.8335 142.68 42.856 142.664 42.8805C142.649 42.8315 142.676 42.8152 142.717 42.809Z" fill="#5A3E36"/>
<path d="M154.114 52.1785C154.132 52.203 154.15 52.2254 154.167 52.2499C154.124 52.2438 154.097 52.2275 154.114 52.1785Z" fill="#5A3E36"/>
<path d="M122.369 55.4016C122.391 55.3832 122.414 55.3649 122.438 55.3445C122.434 55.3853 122.418 55.4139 122.369 55.4016Z" fill="#5A3E36"/>
<path d="M58.9 31.3432C58.8776 31.3575 58.8531 31.3697 58.8306 31.384C58.8429 31.3513 58.8511 31.3105 58.9 31.3432Z" fill="#5A3E36"/>
<path d="M59.0392 31.2738C59.0188 31.2881 59.0004 31.3024 58.98 31.3187C58.98 31.2779 58.9861 31.2472 59.0392 31.2738Z" fill="#5A3E36"/>
<path d="M137.478 55.4221C137.461 55.4425 137.443 55.4608 137.427 55.4813C137.408 55.4323 137.437 55.4221 137.478 55.4221Z" fill="#5A3E36"/>
<path d="M154.253 52.5235L154.306 52.5929C154.265 52.5867 154.236 52.5704 154.253 52.5235Z" fill="#5A3E36"/>
<path d="M151.985 47.0161C152.001 47.0345 152.017 47.0508 152.034 47.0692C151.993 47.0733 151.966 47.0651 151.985 47.0161Z" fill="#5A3E36"/>
<path d="M139.061 51.6232C139.043 51.6457 139.025 51.6702 139.008 51.6926C138.994 51.6436 139.021 51.6273 139.061 51.6232Z" fill="#5A3E36"/>
<path d="M139.133 51.4294C139.117 51.4498 139.098 51.4681 139.082 51.4886C139.064 51.4396 139.092 51.4294 139.133 51.4294Z" fill="#5A3E36"/>
<path d="M60.9722 30.5022C60.9498 30.5205 60.9253 30.5389 60.9028 30.5573C60.9089 30.5164 60.9253 30.4899 60.9722 30.5022Z" fill="#5A3E36"/>
<path d="M141.478 45.7811C141.461 45.8015 141.443 45.8219 141.427 45.8403C141.41 45.7913 141.437 45.7791 141.478 45.7811Z" fill="#5A3E36"/>
<path d="M155.495 55.5527C155.514 55.5751 155.53 55.5996 155.548 55.6221C155.508 55.616 155.479 55.6017 155.495 55.5527Z" fill="#5A3E36"/>
<path d="M121.613 55.665L121.682 55.6201C121.674 55.6568 121.664 55.6936 121.613 55.665Z" fill="#5A3E36"/>
<path d="M137.406 55.6181C137.388 55.6426 137.37 55.665 137.353 55.6895C137.339 55.6405 137.365 55.6242 137.406 55.6181Z" fill="#5A3E36"/>
<path d="M36.4155 55.814C36.4379 55.7956 36.4604 55.7752 36.4849 55.7568C36.4808 55.7976 36.4644 55.8262 36.4155 55.814Z" fill="#5A3E36"/>
<path d="M155.569 55.7609C155.586 55.7813 155.602 55.7997 155.618 55.8201C155.577 55.8201 155.549 55.8099 155.569 55.7609Z" fill="#5A3E36"/>
<path d="M141.407 45.9771C141.388 46.0016 141.37 46.0261 141.352 46.0506C141.337 46.0016 141.364 45.9852 141.407 45.9771Z" fill="#5A3E36"/>
<path d="M35.8663 56.0099C35.8908 55.9956 35.9132 55.9814 35.9377 55.9671C35.9275 56.0038 35.9194 56.0426 35.8663 56.0099Z" fill="#5A3E36"/>
<path d="M30.6937 56.0324C30.7141 56.0467 30.7345 56.063 30.757 56.0773C30.706 56.1038 30.6978 56.0712 30.6937 56.0324Z" fill="#5A3E36"/>
<path d="M35.658 56.0773C35.6804 56.0631 35.7029 56.0488 35.7253 56.0345C35.7172 56.0712 35.709 56.11 35.658 56.0773Z" fill="#5A3E36"/>
<path d="M142.307 43.7847C142.29 43.8052 142.272 43.8256 142.256 43.8439C142.239 43.795 142.266 43.7827 142.307 43.7847Z" fill="#5A3E36"/>
<path d="M155.771 56.2407C155.789 56.2631 155.806 56.2876 155.824 56.3101C155.783 56.3039 155.755 56.2896 155.771 56.2407Z" fill="#5A3E36"/>
<path d="M90.3637 56.3222V56.3569C90.3412 56.3712 90.3208 56.3672 90.3065 56.3447C90.3249 56.3386 90.3433 56.3304 90.3617 56.3243L90.3637 56.3222Z" fill="#5A3E36"/>
<path d="M147.684 30.8308C147.666 30.8553 147.648 30.8778 147.631 30.9023C147.617 30.8533 147.644 30.837 147.684 30.8308Z" fill="#5A3E36"/>
<path d="M155.851 56.3794C155.87 56.3855 155.884 56.3978 155.892 56.4141C155.845 56.4386 155.837 56.4223 155.851 56.3794Z" fill="#5A3E36"/>
<path d="M139.616 50.2617L139.567 50.3168C139.549 50.2678 139.576 50.2576 139.616 50.2617Z" fill="#5A3E36"/>
<path d="M52.4907 39.0347C52.4764 39.0531 52.4621 39.0735 52.4499 39.0919C52.4192 39.0408 52.4539 39.0367 52.4907 39.0347Z" fill="#5A3E36"/>
<path d="M144.373 38.8163C144.355 38.8408 144.336 38.8632 144.32 38.8877C144.306 38.8387 144.332 38.8224 144.373 38.8163Z" fill="#5A3E36"/>
<path d="M153.087 49.7003C153.104 49.7208 153.12 49.7391 153.138 49.7595C153.097 49.7595 153.069 49.7493 153.087 49.7003Z" fill="#5A3E36"/>
<path d="M152.873 49.1493C152.891 49.1737 152.909 49.1962 152.926 49.2207C152.883 49.2146 152.856 49.1982 152.873 49.1493Z" fill="#5A3E36"/>
<path d="M153.011 49.4942C153.03 49.5167 153.046 49.5412 153.064 49.5636C153.023 49.5575 152.995 49.5412 153.011 49.4942Z" fill="#5A3E36"/>
<path d="M146.028 34.8235C146.01 34.848 145.991 34.8705 145.975 34.895C145.961 34.846 145.987 34.8297 146.028 34.8235Z" fill="#5A3E36"/>
<path d="M146.373 33.9968C146.355 34.0213 146.336 34.0458 146.318 34.0703C146.304 34.0213 146.33 34.005 146.373 33.9968Z" fill="#5A3E36"/>
<path d="M146.855 32.8272C146.837 32.8517 146.818 32.8762 146.8 32.8986C146.786 32.8496 146.812 32.8333 146.855 32.8272Z" fill="#5A3E36"/>
<path d="M58.3514 31.6595C58.3289 31.682 58.3065 31.7065 58.284 31.7289C58.284 31.684 58.3085 31.6616 58.3514 31.6595Z" fill="#5A3E36"/>
<path d="M58.5583 31.5433C58.5378 31.5596 58.5174 31.5759 58.497 31.5943C58.497 31.5514 58.5072 31.5228 58.5583 31.5433Z" fill="#5A3E36"/>
<path d="M140.717 47.6305C140.698 47.653 140.68 47.6775 140.663 47.6999C140.649 47.6509 140.676 47.6346 140.717 47.6305Z" fill="#5A3E36"/>
<path d="M36.969 55.5343C36.9915 55.516 37.014 55.4996 37.0364 55.4813C37.0323 55.5221 37.018 55.5527 36.969 55.5343Z" fill="#5A3E36"/>
<path d="M122.026 55.5241C122.051 55.5119 122.073 55.4976 122.098 55.4854C122.083 55.516 122.077 55.5588 122.026 55.5241Z" fill="#5A3E36"/>
<path d="M59.1759 31.2044C59.1555 31.2187 59.1351 31.233 59.1167 31.2472C59.1167 31.2085 59.1228 31.1738 59.1759 31.2044Z" fill="#5A3E36"/>
<path d="M121.741 53.6217C122.047 53.3175 122.355 53.0113 122.662 52.7071C122.79 52.7521 122.77 52.8419 122.715 52.9235C122.541 53.1807 122.306 53.3849 122.074 53.5849C121.984 53.6625 121.853 53.6155 121.739 53.6216L121.741 53.6217Z" fill="#5A3E36"/>
<path d="M115.056 55.5568C115.17 55.5343 115.284 55.5262 115.401 55.5466C115.287 55.7425 115.184 55.7466 115.056 55.5568Z" fill="#5A3E36"/>
<path d="M123.031 52.2377C123.064 52.1519 123.111 52.0764 123.191 52.0254C123.199 52.1417 123.195 52.2499 123.031 52.2377Z" fill="#5A3E36"/>
<path d="M125.014 47.4958C124.963 47.3876 125.047 47.3182 125.085 47.2365C125.137 47.3427 125.169 47.4447 125.014 47.4958Z" fill="#5A3E36"/>
<path d="M124.314 49.9065C124.305 49.8514 124.279 49.7902 124.363 49.7657C124.475 49.8555 124.412 49.8882 124.314 49.9065Z" fill="#5A3E36"/>
<path d="M110.986 55.5547C111.033 55.5547 111.078 55.5547 111.125 55.5547C111.121 55.5956 111.114 55.6486 111.07 55.6548C110.996 55.667 110.996 55.6017 110.986 55.5527V55.5547Z" fill="#5A3E36"/>
<path d="M123.452 51.6192C123.462 51.564 123.479 51.513 123.534 51.4865C123.654 51.6232 123.534 51.609 123.452 51.6192Z" fill="#5A3E36"/>
<path d="M110.519 55.5078C110.56 55.5241 110.6 55.5384 110.643 55.5547C110.629 55.5996 110.633 55.6752 110.556 55.6466C110.494 55.6241 110.519 55.5588 110.521 55.5078H110.519Z" fill="#5A3E36"/>
<path d="M112.021 30.9676C111.974 30.9676 111.929 30.9676 111.882 30.9676C111.893 30.9186 111.893 30.8533 111.966 30.8655C112.011 30.8737 112.015 30.9267 112.019 30.9676H112.021Z" fill="#5A3E36"/>
<path d="M124.107 50.3189C124.092 50.2699 124.119 50.2536 124.162 50.2475C124.143 50.272 124.125 50.2944 124.107 50.3189Z" fill="#5A3E36"/>
<path d="M71.3789 52.7031C71.4606 52.5806 71.5279 52.4459 71.6586 52.3642C71.6749 52.5091 71.6749 52.65 71.5361 52.7459C71.4667 52.7949 71.4157 52.7745 71.3769 52.7031H71.3789Z" fill="#5A3E36"/>
<path d="M72.2892 51.4212C72.33 51.2926 72.3933 51.1762 72.479 51.0701C72.5852 51.2701 72.5648 51.3089 72.2892 51.4212Z" fill="#5A3E36"/>
<path d="M56.3469 41.4393C56.3714 41.5067 56.3694 41.5741 56.3408 41.6414C56.2652 41.572 56.2652 41.5047 56.3469 41.4393Z" fill="#5A3E36"/>
<path d="M63.918 55.4874C63.9527 55.4221 64.0017 55.3976 64.0732 55.4323C64.0364 55.4935 63.9752 55.4833 63.918 55.4874Z" fill="#5A3E36"/>
<path d="M73.367 38.3243C73.267 38.2631 73.2343 38.1753 73.2629 38.063C73.4262 38.0998 73.3854 38.2161 73.367 38.3243Z" fill="#5A3E36"/>
<path d="M72.8299 36.23C72.7503 36.2014 72.6788 36.1687 72.7503 36.0667C72.8319 36.0932 72.8401 36.1585 72.8299 36.23Z" fill="#5A3E36"/>
<path d="M56.4877 39.992C56.5061 40.0594 56.502 40.1247 56.4653 40.188C56.4224 40.1165 56.4183 40.0512 56.4877 39.992Z" fill="#5A3E36"/>
<path d="M66.3591 55.4282C66.402 55.4037 66.4469 55.3996 66.4918 55.4159C66.453 55.4833 66.4102 55.4996 66.3591 55.4282Z" fill="#5A3E36"/>
<path d="M63.4325 55.4201C63.4407 55.4078 63.4468 55.3935 63.455 55.3813C63.4611 55.3956 63.4688 55.4078 63.475 55.4221L63.4529 55.418H63.4305L63.4325 55.4201Z" fill="#5A3E36"/>
<path d="M176.453 31.1145C175.969 31.1227 175.486 31.135 175.004 31.1064C175.124 30.9288 175.294 30.8369 175.506 30.8369C175.847 30.8369 176.182 30.8757 176.453 31.1145Z" fill="#5A3E36"/>
<path d="M183.622 37.3057C183.594 36.9853 183.6 36.6627 183.61 36.3423C183.763 36.33 183.837 36.3892 183.835 36.5525C183.835 36.7525 183.83 36.9506 183.875 37.1526C183.92 37.3547 183.728 37.2874 183.622 37.3057Z" fill="#5A3E36"/>
<path d="M181.473 41.7762C181.593 41.6353 181.734 41.519 181.897 41.4292C181.975 41.7884 181.877 41.868 181.473 41.7762Z" fill="#5A3E36"/>
<path d="M182.796 40.4044C182.868 40.233 182.949 40.0676 183.057 39.9166C183.196 40.1901 183.115 40.3432 182.796 40.4044Z" fill="#5A3E36"/>
<path d="M177.556 43.0254C177.717 43.0131 177.878 43.0009 178.039 42.9886C177.864 43.2132 177.727 43.2234 177.556 43.0254Z" fill="#5A3E36"/>
<path d="M182.042 41.3005C182.163 41.1454 182.307 41.0148 182.452 40.8862C182.397 41.1821 182.338 41.2413 182.042 41.3005Z" fill="#5A3E36"/>
<path d="M179.075 31.2758C178.941 31.2718 178.806 31.2697 178.677 31.2269C178.747 31.1922 178.81 31.1432 178.883 31.1227C179.006 31.0901 179.075 31.1452 179.075 31.2758Z" fill="#5A3E36"/>
<path d="M181.199 41.9599C181.254 41.8946 181.324 41.8476 181.407 41.8211C181.409 41.8537 181.416 41.8864 181.414 41.9191C181.411 41.9803 181.436 42.064 181.356 42.0864C181.26 42.115 181.232 42.0252 181.199 41.9599Z" fill="#5A3E36"/>
<path d="M174.559 43.0009C174.592 43.007 174.624 43.0152 174.659 43.0213C174.649 43.0784 174.64 43.1376 174.565 43.1438C174.528 43.1478 174.489 43.1336 174.483 43.0989C174.473 43.0458 174.516 43.0192 174.559 42.9988L174.559 43.0009Z" fill="#5A3E36"/>
<path d="M174.932 43.0233C175.001 43.0029 175.071 43.005 175.138 43.0254C175.128 43.0805 175.12 43.1377 175.05 43.1458C174.96 43.156 174.942 43.0927 174.932 43.0233Z" fill="#5A3E36"/>
<path d="M183.564 38.061C183.541 38.0161 183.545 37.9733 183.574 37.9304C183.633 37.9794 183.627 38.0222 183.564 38.061Z" fill="#5A3E36"/>
<path d="M183.157 39.5777C183.141 39.5287 183.17 39.5124 183.21 39.5063C183.192 39.5308 183.176 39.5553 183.157 39.5777Z" fill="#5A3E36"/>
<path d="M181.003 31.7861C180.956 31.7984 180.938 31.7718 180.932 31.731C180.956 31.7494 180.978 31.7678 181.003 31.7861Z" fill="#5A3E36"/>
<path d="M34.3463 55.4282C34.2891 55.5588 34.2279 55.6752 34.0666 55.5405C34.1381 55.4466 34.2483 55.4527 34.3463 55.4282Z" fill="#5A3E36"/>
<path d="M37.1979 51.9091C37.2877 51.9866 37.1999 52.0356 37.1673 52.0928C37.1775 52.0315 37.1877 51.9703 37.1979 51.9091Z" fill="#5A3E36"/>
<path d="M30.4798 55.4037C30.4818 55.5507 30.3797 55.5527 30.2756 55.5507C30.3246 55.4731 30.3941 55.4262 30.4798 55.4037Z" fill="#5A3E36"/>
<path d="M37.3297 50.9435C37.3889 50.9925 37.3828 51.0354 37.3195 51.0721C37.2971 51.0272 37.3011 50.9844 37.3297 50.9435Z" fill="#5A3E36"/>
<path d="M37.2634 51.4946C37.3226 51.5436 37.3144 51.5865 37.2491 51.6253C37.2267 51.5783 37.2328 51.5355 37.2634 51.4946Z" fill="#5A3E36"/>
<path d="M150.994 44.4686C150.953 44.4624 150.925 44.4481 150.941 44.3992C150.96 44.4216 150.978 44.4461 150.994 44.4686Z" fill="#5A3E36"/>
<path d="M151.339 45.2953C151.299 45.2892 151.27 45.2728 151.284 45.2239C151.303 45.2483 151.321 45.2708 151.339 45.2953Z" fill="#5A3E36"/>
<path d="M151.546 45.7811C151.505 45.775 151.476 45.7566 151.493 45.7077C151.511 45.7322 151.529 45.7566 151.546 45.7811Z" fill="#5A3E36"/>
<path d="M146.363 36.3423C146.376 36.3892 146.349 36.4076 146.308 36.4137C146.327 36.3892 146.345 36.3668 146.363 36.3423Z" fill="#5A3E36"/>
</svg>
