<svg width="245" height="105" viewBox="0 0 245 105" fill="none" xmlns="http://www.w3.org/2000/svg">
<path d="M22.4736 80.8055C23.1797 79.9459 23.983 79.2603 24.8836 78.7486C25.7943 78.237 26.8125 77.9811 27.9382 77.9811C28.7773 77.9811 29.5141 78.1142 30.1486 78.3802C30.7933 78.6463 31.3254 79.0301 31.745 79.5315C32.1646 80.0329 32.4818 80.6367 32.6967 81.3428C32.9116 82.0489 33.0191 82.8471 33.0191 83.7374V93.5H31.5455V83.7374C31.5455 82.3047 31.218 81.1842 30.5631 80.3758C29.9081 79.5571 28.9104 79.1478 27.5698 79.1478C26.5772 79.1478 25.6459 79.4036 24.7761 79.9153C23.9165 80.4167 23.149 81.1177 22.4736 82.0182V93.5H21V71.1658H22.4736V80.8055Z" fill="#C94F4F"/>
<path d="M43.9269 77.9811C45.0219 77.9811 45.9992 78.1705 46.8588 78.5491C47.7286 78.9175 48.4603 79.4445 49.0538 80.1301C49.6473 80.8158 50.0976 81.6447 50.4046 82.6169C50.7218 83.5788 50.8805 84.6584 50.8805 85.8557C50.8805 87.053 50.7218 88.1326 50.4046 89.0946C50.0976 90.0565 49.6473 90.8803 49.0538 91.5659C48.4603 92.2515 47.7286 92.7785 46.8588 93.1469C45.9992 93.5153 45.0219 93.6996 43.9269 93.6996C42.8319 93.6996 41.8495 93.5153 40.9797 93.1469C40.1201 92.7785 39.3884 92.2515 38.7847 91.5659C38.1911 90.8803 37.7357 90.0565 37.4185 89.0946C37.1115 88.1326 36.958 87.053 36.958 85.8557C36.958 84.6584 37.1115 83.5788 37.4185 82.6169C37.7357 81.6447 38.1911 80.8158 38.7847 80.1301C39.3884 79.4445 40.1201 78.9175 40.9797 78.5491C41.8495 78.1705 42.8319 77.9811 43.9269 77.9811ZM43.9269 92.5483C44.8377 92.5483 45.6308 92.3948 46.3062 92.0878C46.9918 91.7706 47.5597 91.3203 48.01 90.737C48.4705 90.1537 48.8133 89.4527 49.0385 88.634C49.2636 87.8051 49.3762 86.879 49.3762 85.8557C49.3762 84.8426 49.2636 83.9216 49.0385 83.0927C48.8133 82.2638 48.4705 81.5577 48.01 80.9744C47.5597 80.3809 46.9918 79.9255 46.3062 79.6083C45.6308 79.291 44.8377 79.1324 43.9269 79.1324C43.0161 79.1324 42.2179 79.291 41.5323 79.6083C40.8569 79.9255 40.289 80.3809 39.8285 80.9744C39.3782 81.5577 39.0354 82.2638 38.8 83.0927C38.5749 83.9216 38.4623 84.8426 38.4623 85.8557C38.4623 86.879 38.5749 87.8051 38.8 88.634C39.0354 89.4527 39.3782 90.1537 39.8285 90.737C40.289 91.3203 40.8569 91.7706 41.5323 92.0878C42.2179 92.3948 43.0161 92.5483 43.9269 92.5483Z" fill="#C94F4F"/>
<path d="M54.9979 93.5V78.2268H55.8114C56.0672 78.2268 56.2156 78.3547 56.2566 78.6105L56.3947 80.8209C56.9882 79.9715 57.6688 79.2859 58.4363 78.764C59.2038 78.2421 60.0685 77.9811 61.0304 77.9811C62.1458 77.9811 63.0361 78.3035 63.7013 78.9482C64.3767 79.5929 64.8321 80.4883 65.0675 81.6345C65.2517 81.0102 65.5075 80.4678 65.835 80.0073C66.1727 79.5468 66.5564 79.1682 66.9862 78.8715C67.416 78.5645 67.8816 78.3393 68.3831 78.1961C68.8947 78.0528 69.4166 77.9811 69.9488 77.9811C70.706 77.9811 71.3865 78.1091 71.9903 78.3649C72.5941 78.6105 73.1057 78.9789 73.5253 79.4701C73.9449 79.9613 74.2672 80.5651 74.4924 81.2814C74.7175 81.9977 74.8301 82.8164 74.8301 83.7374V93.5H73.3718V83.7374C73.3718 82.2433 73.0495 81.1074 72.4048 80.3297C71.7601 79.5417 70.8391 79.1478 69.6418 79.1478C69.1096 79.1478 68.598 79.245 68.1068 79.4394C67.6258 79.6338 67.196 79.9255 66.8174 80.3144C66.449 80.693 66.1522 81.1688 65.9271 81.7419C65.7122 82.315 65.6047 82.9801 65.6047 83.7374V93.5H64.1311V83.7374C64.1311 82.2536 63.8343 81.1177 63.2408 80.3297C62.6575 79.5417 61.7979 79.1478 60.662 79.1478C59.8331 79.1478 59.0656 79.3934 58.3595 79.8846C57.6534 80.3758 57.0241 81.0563 56.4715 81.9261V93.5H54.9979Z" fill="#C94F4F"/>
<path d="M90.4161 84.3207C90.4161 83.502 90.2984 82.7703 90.063 82.1256C89.8379 81.4707 89.5155 80.9181 89.096 80.4678C88.6764 80.0176 88.175 79.6748 87.5917 79.4394C87.0186 79.1938 86.3841 79.071 85.6883 79.071C84.9003 79.071 84.1942 79.1938 83.57 79.4394C82.9457 79.685 82.4034 80.0381 81.9429 80.4986C81.4926 80.9591 81.1293 81.5116 80.853 82.1563C80.5767 82.801 80.3925 83.5225 80.3004 84.3207H90.4161ZM80.2237 85.257V85.5487C80.2237 86.6948 80.3567 87.7028 80.6228 88.5727C80.8888 89.4425 81.2675 90.1742 81.7587 90.7677C82.2499 91.351 82.8434 91.791 83.5393 92.0878C84.2351 92.3846 85.0129 92.533 85.8725 92.533C86.64 92.533 87.3051 92.4511 87.868 92.2874C88.4308 92.1134 88.9015 91.9241 89.2802 91.7194C89.669 91.5045 89.976 91.3152 90.2012 91.1515C90.4263 90.9775 90.59 90.8905 90.6924 90.8905C90.8254 90.8905 90.9277 90.9417 90.9994 91.044L91.3985 91.5352C91.1529 91.8422 90.8254 92.1287 90.4161 92.3948C90.017 92.6609 89.5667 92.8911 89.0653 93.0855C88.5741 93.2697 88.0419 93.4181 87.4689 93.5307C86.906 93.6433 86.3381 93.6996 85.765 93.6996C84.7212 93.6996 83.7695 93.5205 82.9099 93.1623C82.0503 92.7939 81.3135 92.2618 80.6995 91.5659C80.0855 90.87 79.6097 90.0207 79.272 89.0178C78.9445 88.0047 78.7808 86.8483 78.7808 85.5487C78.7808 84.4537 78.9343 83.4458 79.2413 82.5247C79.5585 81.5935 80.0088 80.7953 80.5921 80.1301C81.1856 79.4548 81.907 78.9277 82.7564 78.5491C83.616 78.1705 84.5882 77.9811 85.6729 77.9811C86.5325 77.9811 87.3307 78.1295 88.0675 78.4263C88.8043 78.7231 89.4439 79.158 89.9863 79.731C90.5286 80.2939 90.9533 80.9897 91.2603 81.8186C91.5775 82.6475 91.7362 83.5993 91.7362 84.6738C91.7362 84.8989 91.7055 85.0524 91.6441 85.1343C91.5827 85.2161 91.4803 85.257 91.3371 85.257H80.2237Z" fill="#C94F4F"/>
<path d="M109.065 82.1717C108.39 82.448 107.776 82.7857 107.223 83.1848C106.681 83.5839 106.22 84.029 105.842 84.5202C105.463 85.0114 105.172 85.5385 104.967 86.1013C104.762 86.6641 104.66 87.2474 104.66 87.8512C104.66 88.6392 104.808 89.3248 105.105 89.9081C105.412 90.4914 105.806 90.9826 106.287 91.3817C106.768 91.7706 107.3 92.0622 107.883 92.2567C108.477 92.4511 109.06 92.5483 109.633 92.5483C110.36 92.5483 111.04 92.4664 111.675 92.3027C112.32 92.139 112.918 91.9138 113.471 91.6273C114.023 91.3305 114.535 90.9826 115.006 90.5835C115.477 90.1742 115.901 89.7341 116.28 89.2634L109.234 82.3406L109.065 82.1717ZM122.481 93.5H121.115C120.931 93.5 120.777 93.4795 120.655 93.4386C120.542 93.3977 120.409 93.3056 120.256 93.1623L117.109 90.077C116.658 90.6091 116.157 91.1003 115.604 91.5506C115.052 91.9906 114.453 92.3743 113.809 92.7018C113.164 93.0293 112.473 93.2851 111.736 93.4693C110.999 93.6535 110.227 93.7456 109.418 93.7456C108.651 93.7456 107.894 93.6177 107.147 93.3619C106.4 93.106 105.729 92.7325 105.136 92.2413C104.552 91.7399 104.077 91.131 103.708 90.4146C103.35 89.6881 103.171 88.8643 103.171 87.9433C103.171 87.2065 103.304 86.5055 103.57 85.8404C103.836 85.165 104.199 84.551 104.66 83.9984C105.12 83.4355 105.668 82.9341 106.302 82.494C106.937 82.054 107.622 81.6958 108.359 81.4195C107.622 80.5906 107.075 79.7924 106.717 79.0249C106.359 78.2574 106.18 77.4337 106.18 76.5536C106.18 75.8373 106.307 75.1772 106.563 74.5735C106.829 73.9595 107.203 73.4273 107.684 72.9771C108.165 72.5268 108.738 72.1737 109.403 71.9179C110.078 71.6621 110.831 71.5341 111.66 71.5341C112.345 71.5341 112.995 71.6518 113.609 71.8872C114.223 72.1226 114.755 72.4398 115.205 72.8389C115.666 73.238 116.029 73.7036 116.295 74.2357C116.571 74.7576 116.72 75.3051 116.74 75.8782L115.911 76.0471C115.809 76.0675 115.712 76.0522 115.62 76.001C115.538 75.9396 115.471 75.8373 115.42 75.694C115.369 75.4177 115.257 75.1056 115.083 74.7577C114.919 74.4097 114.683 74.0822 114.376 73.7752C114.069 73.4682 113.691 73.2124 113.241 73.0078C112.79 72.7929 112.263 72.6854 111.66 72.6854C111.046 72.6854 110.488 72.7826 109.986 72.9771C109.485 73.1613 109.055 73.4273 108.697 73.7752C108.339 74.1129 108.057 74.5172 107.853 74.9879C107.658 75.4586 107.561 75.9754 107.561 76.5383C107.561 77.3774 107.776 78.1807 108.206 78.9482C108.636 79.7157 109.301 80.5395 110.201 81.4195L117.063 88.1582C117.523 87.4214 117.886 86.659 118.153 85.8711C118.419 85.0729 118.593 84.3002 118.674 83.5532C118.695 83.4202 118.736 83.3178 118.797 83.2462C118.859 83.1643 118.951 83.1234 119.074 83.1234H119.918C119.897 84.0853 119.718 85.078 119.381 86.1013C119.043 87.1144 118.557 88.0866 117.922 89.0178L122.481 93.5Z" fill="#C94F4F"/>
<path d="M134.722 93.5V79.8232L132.573 79.685C132.287 79.6543 132.143 79.5264 132.143 79.3013V78.7026H134.722V76.7685C134.722 75.8987 134.835 75.1363 135.06 74.4813C135.285 73.8162 135.602 73.2636 136.012 72.8236C136.421 72.3835 136.912 72.0561 137.485 71.8412C138.058 71.616 138.693 71.5034 139.389 71.5034C139.706 71.5034 140.023 71.5342 140.34 71.5956C140.668 71.6467 140.959 71.7235 141.215 71.8258L141.169 72.5319C141.149 72.624 141.103 72.6854 141.031 72.7161C140.97 72.7366 140.878 72.7468 140.755 72.7468C140.632 72.7366 140.473 72.7212 140.279 72.7008C140.084 72.6701 139.859 72.6547 139.603 72.6547C139.102 72.6547 138.636 72.7315 138.207 72.885C137.787 73.0282 137.424 73.2636 137.117 73.591C136.81 73.9185 136.569 74.3483 136.395 74.8805C136.232 75.4024 136.15 76.0471 136.15 76.8146V78.7026H141.108V79.7924H136.196V93.5H134.722Z" fill="#C94F4F"/>
<path d="M152.68 86.1167C151.227 86.1678 149.973 86.2855 148.919 86.4697C147.875 86.6437 147.01 86.8842 146.325 87.1912C145.649 87.4982 145.148 87.8665 144.821 88.2963C144.493 88.7159 144.329 89.1969 144.329 89.7393C144.329 90.2509 144.411 90.6961 144.575 91.0747C144.749 91.4431 144.974 91.7501 145.25 91.9957C145.537 92.2311 145.864 92.405 146.233 92.5176C146.601 92.6302 146.985 92.6865 147.384 92.6865C147.978 92.6865 148.52 92.6251 149.011 92.5023C149.513 92.3692 149.973 92.1901 150.393 91.965C150.822 91.7296 151.221 91.4533 151.59 91.1361C151.958 90.8189 152.322 90.4761 152.68 90.1077V86.1167ZM143.7 80.3911C144.498 79.5929 145.337 78.9891 146.217 78.5798C147.097 78.1705 148.095 77.9658 149.211 77.9658C150.029 77.9658 150.746 78.0988 151.36 78.3649C151.974 78.6207 152.48 78.9943 152.879 79.4855C153.289 79.9664 153.596 80.5548 153.8 81.2507C154.005 81.9363 154.107 82.7038 154.107 83.5532V93.5H153.524C153.217 93.5 153.028 93.3567 152.956 93.0702L152.741 91.1054C152.322 91.5147 151.902 91.8831 151.482 92.2106C151.073 92.5381 150.643 92.8144 150.193 93.0395C149.743 93.2646 149.257 93.4386 148.735 93.5614C148.213 93.6842 147.64 93.7456 147.016 93.7456C146.494 93.7456 145.987 93.6689 145.496 93.5154C145.005 93.3619 144.565 93.1265 144.176 92.8092C143.797 92.492 143.49 92.0878 143.255 91.5966C143.03 91.0952 142.917 90.4965 142.917 89.8007C142.917 89.156 143.101 88.5573 143.47 88.0047C143.838 87.4521 144.416 86.9711 145.204 86.5618C145.992 86.1525 147 85.825 148.228 85.5794C149.466 85.3338 150.95 85.1905 152.68 85.1496V83.5532C152.68 82.141 152.373 81.0563 151.759 80.299C151.155 79.5315 150.254 79.1478 149.057 79.1478C148.32 79.1478 147.691 79.2501 147.169 79.4548C146.657 79.6594 146.223 79.8845 145.864 80.1301C145.506 80.3757 145.215 80.6009 144.989 80.8055C144.764 81.0102 144.575 81.1125 144.421 81.1125C144.309 81.1125 144.217 81.087 144.145 81.0358C144.074 80.9846 144.012 80.9181 143.961 80.8363L143.7 80.3911Z" fill="#C94F4F"/>
<path d="M167.397 80.1148C167.315 80.2581 167.197 80.3297 167.044 80.3297C166.931 80.3297 166.788 80.2683 166.614 80.1455C166.44 80.0125 166.204 79.8692 165.908 79.7157C165.621 79.552 165.263 79.4087 164.833 79.2859C164.403 79.1529 163.881 79.0863 163.267 79.0863C162.715 79.0863 162.208 79.1682 161.748 79.332C161.297 79.4855 160.909 79.6952 160.581 79.9613C160.264 80.2274 160.018 80.5395 159.844 80.8977C159.67 81.2456 159.583 81.614 159.583 82.0029C159.583 82.4838 159.706 82.8829 159.952 83.2001C160.197 83.5174 160.515 83.7886 160.904 84.0137C161.303 84.2388 161.758 84.4333 162.27 84.597C162.781 84.7607 163.298 84.9245 163.82 85.0882C164.352 85.2519 164.874 85.4361 165.386 85.6408C165.897 85.8352 166.348 86.0808 166.737 86.3776C167.136 86.6744 167.458 87.0377 167.704 87.4675C167.949 87.8973 168.072 88.4191 168.072 89.0331C168.072 89.6983 167.954 90.3174 167.719 90.8905C167.484 91.4636 167.136 91.9599 166.675 92.3795C166.225 92.799 165.667 93.1316 165.002 93.3772C164.337 93.6228 163.574 93.7456 162.715 93.7456C161.64 93.7456 160.714 93.5768 159.936 93.2391C159.159 92.8911 158.463 92.4409 157.849 91.8883L158.187 91.3663C158.238 91.2845 158.294 91.2231 158.355 91.1822C158.427 91.1412 158.519 91.1208 158.632 91.1208C158.765 91.1208 158.923 91.2026 159.108 91.3663C159.302 91.5301 159.558 91.7092 159.875 91.9036C160.192 92.0878 160.581 92.2618 161.042 92.4255C161.512 92.5892 162.091 92.6711 162.776 92.6711C163.421 92.6711 163.989 92.5841 164.48 92.4101C164.971 92.2259 165.381 91.9804 165.708 91.6734C166.036 91.3664 166.281 91.0082 166.445 90.5989C166.619 90.1793 166.706 89.7393 166.706 89.2788C166.706 88.7671 166.583 88.3424 166.337 88.0047C166.092 87.667 165.769 87.3805 165.37 87.1451C164.971 86.9097 164.516 86.7102 164.004 86.5465C163.503 86.3827 162.986 86.219 162.454 86.0553C161.922 85.8915 161.4 85.7124 160.888 85.518C160.387 85.3236 159.936 85.078 159.537 84.7812C159.138 84.4844 158.816 84.1263 158.57 83.7067C158.325 83.2769 158.202 82.7448 158.202 82.1103C158.202 81.5679 158.32 81.046 158.555 80.5446C158.79 80.0432 159.123 79.6031 159.553 79.2245C159.993 78.8459 160.525 78.544 161.149 78.3188C161.773 78.0937 162.474 77.9811 163.252 77.9811C164.183 77.9811 165.007 78.1142 165.723 78.3802C166.45 78.6463 167.11 79.0557 167.704 79.6083L167.397 80.1148Z" fill="#C94F4F"/>
<path d="M173.515 80.8055C174.221 79.9459 175.025 79.2603 175.925 78.7486C176.836 78.237 177.854 77.9811 178.98 77.9811C179.819 77.9811 180.556 78.1142 181.19 78.3802C181.835 78.6463 182.367 79.0301 182.787 79.5315C183.206 80.0329 183.523 80.6367 183.738 81.3428C183.953 82.0489 184.061 82.8471 184.061 83.7374V93.5H182.587V83.7374C182.587 82.3047 182.26 81.1842 181.605 80.3758C180.95 79.5571 179.952 79.1478 178.611 79.1478C177.619 79.1478 176.688 79.4036 175.818 79.9153C174.958 80.4167 174.191 81.1177 173.515 82.0182V93.5H172.042V71.1658H173.515V80.8055Z" fill="#C94F4F"/>
<path d="M190.548 78.2268V93.5H189.089V78.2268H190.548ZM191.177 72.9617C191.177 73.1459 191.136 73.3199 191.054 73.4836C190.983 73.6371 190.885 73.7753 190.763 73.8981C190.64 74.0209 190.497 74.1181 190.333 74.1897C190.169 74.2613 189.995 74.2971 189.811 74.2971C189.627 74.2971 189.453 74.2613 189.289 74.1897C189.125 74.1181 188.982 74.0209 188.859 73.8981C188.736 73.7753 188.639 73.6371 188.568 73.4836C188.496 73.3199 188.46 73.1459 188.46 72.9617C188.46 72.7775 188.496 72.6035 188.568 72.4398C188.639 72.2658 188.736 72.1175 188.859 71.9947C188.982 71.8719 189.125 71.7746 189.289 71.703C189.453 71.6314 189.627 71.5956 189.811 71.5956C189.995 71.5956 190.169 71.6314 190.333 71.703C190.497 71.7746 190.64 71.8719 190.763 71.9947C190.885 72.1175 190.983 72.2658 191.054 72.4398C191.136 72.6035 191.177 72.7775 191.177 72.9617Z" fill="#C94F4F"/>
<path d="M201.804 77.9811C202.899 77.9811 203.876 78.1705 204.736 78.5491C205.606 78.9175 206.337 79.4445 206.931 80.1301C207.524 80.8158 207.975 81.6447 208.282 82.6169C208.599 83.5788 208.758 84.6584 208.758 85.8557C208.758 87.053 208.599 88.1326 208.282 89.0946C207.975 90.0565 207.524 90.8803 206.931 91.5659C206.337 92.2515 205.606 92.7785 204.736 93.1469C203.876 93.5153 202.899 93.6996 201.804 93.6996C200.709 93.6996 199.727 93.5153 198.857 93.1469C197.997 92.7785 197.266 92.2515 196.662 91.5659C196.068 90.8803 195.613 90.0565 195.296 89.0946C194.989 88.1326 194.835 87.053 194.835 85.8557C194.835 84.6584 194.989 83.5788 195.296 82.6169C195.613 81.6447 196.068 80.8158 196.662 80.1301C197.266 79.4445 197.997 78.9175 198.857 78.5491C199.727 78.1705 200.709 77.9811 201.804 77.9811ZM201.804 92.5483C202.715 92.5483 203.508 92.3948 204.183 92.0878C204.869 91.7706 205.437 91.3203 205.887 90.737C206.348 90.1537 206.69 89.4527 206.916 88.634C207.141 87.8051 207.253 86.879 207.253 85.8557C207.253 84.8426 207.141 83.9216 206.916 83.0927C206.69 82.2638 206.348 81.5577 205.887 80.9744C205.437 80.3809 204.869 79.9255 204.183 79.6083C203.508 79.291 202.715 79.1324 201.804 79.1324C200.893 79.1324 200.095 79.291 199.409 79.6083C198.734 79.9255 198.166 80.3809 197.706 80.9744C197.255 81.5577 196.913 82.2638 196.677 83.0927C196.452 83.9216 196.339 84.8426 196.339 85.8557C196.339 86.879 196.452 87.8051 196.677 88.634C196.913 89.4527 197.255 90.1537 197.706 90.737C198.166 91.3203 198.734 91.7706 199.409 92.0878C200.095 92.3948 200.893 92.5483 201.804 92.5483Z" fill="#C94F4F"/>
<path d="M214.272 80.8977C214.978 80.0176 215.791 79.3115 216.712 78.7794C217.644 78.2472 218.677 77.9811 219.813 77.9811C220.652 77.9811 221.389 78.1142 222.024 78.3802C222.668 78.6463 223.2 79.0301 223.62 79.5315C224.04 80.0329 224.357 80.6367 224.572 81.3428C224.787 82.0489 224.894 82.8471 224.894 83.7374V93.5H223.42V83.7374C223.42 82.3047 223.093 81.1842 222.438 80.3758C221.783 79.5571 220.785 79.1478 219.445 79.1478C218.452 79.1478 217.521 79.4036 216.651 79.9153C215.792 80.4167 215.024 81.1177 214.349 82.0182V93.5H212.875V78.2268H213.689C213.944 78.2268 214.093 78.3547 214.134 78.6105L214.272 80.8977Z" fill="#C94F4F"/>
<path d="M42.3026 15.18C46.5426 15.18 50.2426 16.04 53.4026 17.76C56.6026 19.48 59.0826 21.96 60.8426 25.2C62.6026 28.4 63.4826 32.3 63.4826 36.9C63.4826 41.38 62.5826 45.3 60.7826 48.66C58.9826 52.02 56.4626 54.64 53.2226 56.52C50.0226 58.4 46.3626 59.34 42.2426 59.34C38.0026 59.34 34.2826 58.48 31.0826 56.76C27.9226 55.04 25.4626 52.56 23.7026 49.32C21.9426 46.08 21.0626 42.18 21.0626 37.62C21.0626 33.14 21.9626 29.22 23.7626 25.86C25.6026 22.5 28.1026 19.88 31.2626 18C34.4626 16.12 38.1426 15.18 42.3026 15.18ZM42.0626 16.26C39.8226 16.26 37.8626 17.16 36.1826 18.96C34.5426 20.76 33.2626 23.24 32.3426 26.4C31.4626 29.56 31.0226 33.22 31.0226 37.38C31.0226 41.62 31.5226 45.32 32.5226 48.48C33.5626 51.6 34.9426 54.02 36.6626 55.74C38.4226 57.42 40.3626 58.26 42.4826 58.26C44.7226 58.26 46.6626 57.36 48.3026 55.56C49.9826 53.76 51.2626 51.28 52.1426 48.12C53.0626 44.92 53.5226 41.26 53.5226 37.14C53.5226 32.86 53.0026 29.16 51.9626 26.04C50.9626 22.92 49.5826 20.52 47.8226 18.84C46.1026 17.12 44.1826 16.26 42.0626 16.26Z" fill="#C94F4F"/>
<path d="M86.9407 26.64C88.2207 26.64 89.2607 26.92 90.0607 27.48C90.8607 28 91.4407 28.68 91.8007 29.52C92.2007 30.36 92.4007 31.24 92.4007 32.16C92.4007 33.64 91.9607 34.86 91.0807 35.82C90.2407 36.74 89.1207 37.2 87.7207 37.2C86.3207 37.2 85.2207 36.86 84.4207 36.18C83.6607 35.46 83.2807 34.52 83.2807 33.36C83.2807 32.24 83.5207 31.32 84.0007 30.6C84.5207 29.84 85.1607 29.2 85.9207 28.68C85.3607 28.52 84.8007 28.54 84.2407 28.74C83.4807 28.86 82.7607 29.18 82.0807 29.7C81.4007 30.18 80.8207 30.8 80.3407 31.56C79.8607 32.28 79.4807 33.08 79.2007 33.96C78.9207 34.8 78.7807 35.62 78.7807 36.42V52.32C78.7807 54.24 79.2407 55.54 80.1607 56.22C81.1207 56.9 82.5407 57.24 84.4207 57.24V58.5C83.5007 58.46 82.1607 58.42 80.4007 58.38C78.6407 58.3 76.8007 58.26 74.8807 58.26C73.2807 58.26 71.6607 58.3 70.0207 58.38C68.3807 58.42 67.1407 58.46 66.3007 58.5V57.24C67.7007 57.24 68.6807 56.94 69.2407 56.34C69.8407 55.74 70.1407 54.6 70.1407 52.92V34.02C70.1407 32.22 69.8607 30.9 69.3007 30.06C68.7807 29.18 67.7807 28.74 66.3007 28.74V27.48C67.5807 27.6 68.8207 27.66 70.0207 27.66C71.7007 27.66 73.2607 27.6 74.7007 27.48C76.1807 27.32 77.5407 27.1 78.7807 26.82V32.4C79.2607 31.32 79.9007 30.34 80.7007 29.46C81.5007 28.58 82.4207 27.9 83.4607 27.42C84.5007 26.9 85.6607 26.64 86.9407 26.64Z" fill="#C94F4F"/>
<path d="M100.909 12C102.589 12 103.909 12.42 104.869 13.26C105.869 14.06 106.369 15.18 106.369 16.62C106.369 18.06 105.869 19.2 104.869 20.04C103.909 20.84 102.589 21.24 100.909 21.24C99.2285 21.24 97.8885 20.84 96.8885 20.04C95.9285 19.2 95.4485 18.06 95.4485 16.62C95.4485 15.18 95.9285 14.06 96.8885 13.26C97.8885 12.42 99.2285 12 100.909 12ZM105.589 26.82V52.92C105.589 54.6 105.869 55.74 106.429 56.34C107.029 56.94 108.029 57.24 109.429 57.24V58.5C108.709 58.46 107.589 58.42 106.069 58.38C104.549 58.3 103.009 58.26 101.449 58.26C99.8885 58.26 98.3085 58.3 96.7085 58.38C95.1085 58.42 93.9085 58.46 93.1085 58.5V57.24C94.5085 57.24 95.4885 56.94 96.0485 56.34C96.6485 55.74 96.9485 54.6 96.9485 52.92V34.02C96.9485 32.22 96.6685 30.9 96.1085 30.06C95.5885 29.18 94.5885 28.74 93.1085 28.74V27.48C94.3885 27.6 95.6285 27.66 96.8285 27.66C98.5085 27.66 100.069 27.6 101.509 27.48C102.989 27.32 104.349 27.1 105.589 26.82Z" fill="#C94F4F"/>
<path d="M126.314 26.64C129.834 26.64 132.594 27.68 134.594 29.76C136.594 31.84 137.594 35.24 137.594 39.96H117.854L117.734 38.82H130.034C130.074 36.86 129.954 35.06 129.674 33.42C129.394 31.74 128.954 30.4 128.354 29.4C127.754 28.4 126.954 27.9 125.954 27.9C124.554 27.9 123.354 28.78 122.354 30.54C121.394 32.3 120.814 35.22 120.614 39.3L120.794 39.66C120.754 40.14 120.714 40.64 120.674 41.16C120.674 41.68 120.674 42.22 120.674 42.78C120.674 45.54 121.054 47.78 121.814 49.5C122.614 51.22 123.614 52.48 124.814 53.28C126.014 54.04 127.234 54.42 128.474 54.42C129.314 54.42 130.174 54.3 131.054 54.06C131.974 53.78 132.894 53.3 133.814 52.62C134.734 51.9 135.594 50.9 136.394 49.62L137.474 49.98C136.994 51.5 136.234 52.98 135.194 54.42C134.154 55.86 132.834 57.04 131.234 57.96C129.634 58.88 127.714 59.34 125.474 59.34C122.754 59.34 120.354 58.76 118.274 57.6C116.194 56.44 114.554 54.68 113.354 52.32C112.194 49.96 111.614 46.96 111.614 43.32C111.614 39.6 112.234 36.5 113.474 34.02C114.754 31.54 116.494 29.7 118.694 28.5C120.934 27.26 123.474 26.64 126.314 26.64Z" fill="#C94F4F"/>
<path d="M161.837 26.64C163.517 26.64 164.877 26.86 165.917 27.3C166.997 27.7 167.837 28.26 168.437 28.98C169.077 29.74 169.537 30.72 169.817 31.92C170.137 33.12 170.297 34.74 170.297 36.78V52.92C170.297 54.6 170.577 55.74 171.137 56.34C171.737 56.94 172.737 57.24 174.137 57.24V58.5C173.377 58.46 172.237 58.42 170.717 58.38C169.197 58.3 167.697 58.26 166.217 58.26C164.697 58.26 163.197 58.3 161.717 58.38C160.277 58.42 159.177 58.46 158.417 58.5V57.24C159.617 57.24 160.457 56.94 160.937 56.34C161.417 55.74 161.657 54.6 161.657 52.92V34.26C161.657 33.26 161.557 32.4 161.357 31.68C161.157 30.92 160.797 30.34 160.277 29.94C159.757 29.5 158.977 29.28 157.937 29.28C156.857 29.28 155.857 29.58 154.937 30.18C154.057 30.78 153.337 31.62 152.777 32.7C152.257 33.74 151.997 34.92 151.997 36.24V52.92C151.997 54.6 152.237 55.74 152.717 56.34C153.237 56.94 154.077 57.24 155.237 57.24V58.5C154.517 58.46 153.457 58.42 152.057 58.38C150.697 58.3 149.277 58.26 147.797 58.26C146.277 58.26 144.717 58.3 143.117 58.38C141.517 58.42 140.317 58.46 139.517 58.5V57.24C140.917 57.24 141.897 56.94 142.457 56.34C143.057 55.74 143.357 54.6 143.357 52.92V34.02C143.357 32.22 143.077 30.9 142.517 30.06C141.997 29.18 140.997 28.74 139.517 28.74V27.48C140.797 27.6 142.037 27.66 143.237 27.66C144.917 27.66 146.477 27.6 147.917 27.48C149.397 27.32 150.757 27.1 151.997 26.82V32.22C152.997 30.18 154.357 28.74 156.077 27.9C157.797 27.06 159.717 26.64 161.837 26.64Z" fill="#C94F4F"/>
<path d="M187.353 17.64V27.48H194.433V28.68H187.353V52.92C187.353 54.12 187.573 54.98 188.013 55.5C188.453 55.98 189.113 56.22 189.993 56.22C190.713 56.22 191.433 55.96 192.153 55.44C192.873 54.88 193.513 53.94 194.073 52.62L195.093 53.16C194.453 54.96 193.473 56.44 192.153 57.6C190.873 58.76 189.113 59.34 186.873 59.34C185.553 59.34 184.393 59.16 183.393 58.8C182.393 58.48 181.553 57.98 180.873 57.3C179.993 56.42 179.413 55.34 179.133 54.06C178.853 52.74 178.713 51.04 178.713 48.96V28.68H173.673V27.48H178.713V19.56C180.393 19.56 181.933 19.42 183.333 19.14C184.773 18.82 186.113 18.32 187.353 17.64Z" fill="#C94F4F"/>
<path d="M210.312 26.64C213.232 26.64 215.792 27.18 217.992 28.26C220.192 29.34 221.912 31.08 223.152 33.48C224.392 35.88 225.012 39.06 225.012 43.02C225.012 46.98 224.392 50.16 223.152 52.56C221.912 54.92 220.192 56.64 217.992 57.72C215.792 58.8 213.232 59.34 210.312 59.34C207.472 59.34 204.932 58.8 202.692 57.72C200.492 56.64 198.752 54.92 197.472 52.56C196.232 50.16 195.612 46.98 195.612 43.02C195.612 39.06 196.232 35.88 197.472 33.48C198.752 31.08 200.492 29.34 202.692 28.26C204.932 27.18 207.472 26.64 210.312 26.64ZM210.312 27.84C208.712 27.84 207.372 29.04 206.292 31.44C205.212 33.8 204.672 37.66 204.672 43.02C204.672 48.38 205.212 52.24 206.292 54.6C207.372 56.96 208.712 58.14 210.312 58.14C211.952 58.14 213.292 56.96 214.332 54.6C215.412 52.24 215.952 48.38 215.952 43.02C215.952 37.66 215.412 33.8 214.332 31.44C213.292 29.04 211.952 27.84 210.312 27.84Z" fill="#C94F4F"/>
</svg>
