<svg width="205" height="83" viewBox="0 0 205 83" fill="none" xmlns="http://www.w3.org/2000/svg">
<path d="M1.49704 69.6784C2.20314 68.8188 3.00645 68.1331 3.90699 67.6215C4.81775 67.1098 5.83597 66.854 6.96164 66.854C7.80077 66.854 8.53757 66.987 9.17204 67.2531C9.81674 67.5191 10.3489 67.9029 10.7684 68.4043C11.188 68.9057 11.5052 69.5095 11.7201 70.2156C11.935 70.9217 12.0425 71.7199 12.0425 72.6102V82.3728H10.5689V72.6102C10.5689 71.1775 10.2414 70.057 9.58649 69.2486C8.93156 68.4299 7.9338 68.0206 6.59324 68.0206C5.6006 68.0206 4.66937 68.2764 3.79954 68.7881C2.93994 69.2895 2.17244 69.9905 1.49704 70.891V82.3728H0.0234375V60.0386H1.49704V69.6784Z" fill="#C94F4F"/>
<path d="M22.9503 66.854C24.0453 66.854 25.0226 67.0433 25.8822 67.4219C26.752 67.7903 27.4837 68.3173 28.0772 69.003C28.6708 69.6886 29.121 70.5175 29.428 71.4897C29.7453 72.4516 29.9039 73.5312 29.9039 74.7285C29.9039 75.9258 29.7453 77.0054 29.428 77.9674C29.121 78.9293 28.6708 79.7531 28.0772 80.4387C27.4837 81.1243 26.752 81.6514 25.8822 82.0198C25.0226 82.3882 24.0453 82.5724 22.9503 82.5724C21.8554 82.5724 20.873 82.3882 20.0031 82.0198C19.1435 81.6514 18.4119 81.1243 17.8081 80.4387C17.2146 79.7531 16.7592 78.9293 16.4419 77.9674C16.1349 77.0054 15.9814 75.9258 15.9814 74.7285C15.9814 73.5312 16.1349 72.4516 16.4419 71.4897C16.7592 70.5175 17.2146 69.6886 17.8081 69.003C18.4119 68.3173 19.1435 67.7903 20.0031 67.4219C20.873 67.0433 21.8554 66.854 22.9503 66.854ZM22.9503 81.4211C23.8611 81.4211 24.6542 81.2676 25.3296 80.9606C26.0152 80.6434 26.5832 80.1931 27.0334 79.6098C27.4939 79.0265 27.8368 78.3255 28.0619 77.5069C28.287 76.678 28.3996 75.7518 28.3996 74.7285C28.3996 73.7154 28.287 72.7944 28.0619 71.9655C27.8368 71.1366 27.4939 70.4305 27.0334 69.8472C26.5832 69.2537 26.0152 68.7983 25.3296 68.4811C24.6542 68.1638 23.8611 68.0052 22.9503 68.0052C22.0396 68.0052 21.2414 68.1638 20.5557 68.4811C19.8803 68.7983 19.3124 69.2537 18.8519 69.8472C18.4016 70.4305 18.0588 71.1366 17.8234 71.9655C17.5983 72.7944 17.4857 73.7154 17.4857 74.7285C17.4857 75.7518 17.5983 76.678 17.8234 77.5069C18.0588 78.3255 18.4016 79.0265 18.8519 79.6098C19.3124 80.1931 19.8803 80.6434 20.5557 80.9606C21.2414 81.2676 22.0396 81.4211 22.9503 81.4211Z" fill="#C94F4F"/>
<path d="M34.0213 82.3728V67.0996H34.8348C35.0907 67.0996 35.2391 67.2275 35.28 67.4833L35.4181 69.6937C36.0117 68.8443 36.6922 68.1587 37.4597 67.6368C38.2272 67.1149 39.0919 66.854 40.0538 66.854C41.1693 66.854 42.0596 67.1763 42.7247 67.821C43.4001 68.4657 43.8555 69.3611 44.0909 70.5073C44.2751 69.883 44.5309 69.3407 44.8584 68.8801C45.1961 68.4197 45.5798 68.041 46.0096 67.7443C46.4394 67.4373 46.9051 67.2121 47.4065 67.0689C47.9182 66.9256 48.4401 66.854 48.9722 66.854C49.7295 66.854 50.41 66.9819 51.0137 67.2377C51.6175 67.4833 52.1292 67.8517 52.5487 68.3429C52.9683 68.8341 53.2907 69.4379 53.5158 70.1542C53.7409 70.8705 53.8535 71.6892 53.8535 72.6102V82.3728H52.3952V72.6102C52.3952 71.1161 52.0729 69.9802 51.4282 69.2025C50.7835 68.4145 49.8625 68.0206 48.6652 68.0206C48.1331 68.0206 47.6214 68.1178 47.1302 68.3122C46.6492 68.5066 46.2194 68.7983 45.8408 69.1872C45.4724 69.5658 45.1756 70.0416 44.9505 70.6147C44.7356 71.1878 44.6281 71.8529 44.6281 72.6102V82.3728H43.1545V72.6102C43.1545 71.1264 42.8578 69.9905 42.2642 69.2025C41.6809 68.4145 40.8213 68.0206 39.6854 68.0206C38.8565 68.0206 38.089 68.2662 37.3829 68.7574C36.6768 69.2486 36.0475 69.9291 35.4949 70.7989V82.3728H34.0213Z" fill="#C94F4F"/>
<path d="M69.4395 73.1935C69.4395 72.3748 69.3218 71.6432 69.0864 70.9985C68.8613 70.3435 68.539 69.7909 68.1194 69.3407C67.6998 68.8904 67.1984 68.5476 66.6151 68.3122C66.042 68.0666 65.4076 67.9438 64.7117 67.9438C63.9237 67.9438 63.2176 68.0666 62.5934 68.3122C61.9692 68.5578 61.4268 68.9109 60.9663 69.3714C60.516 69.8319 60.1527 70.3845 59.8764 71.0292C59.6001 71.6739 59.4159 72.3953 59.3238 73.1935H69.4395ZM59.2471 74.1299V74.4215C59.2471 75.5676 59.3801 76.5756 59.6462 77.4455C59.9123 78.3153 60.2909 79.047 60.7821 79.6405C61.2733 80.2238 61.8668 80.6638 62.5627 80.9606C63.2586 81.2574 64.0363 81.4058 64.8959 81.4058C65.6634 81.4058 66.3286 81.3239 66.8914 81.1602C67.4542 80.9862 67.925 80.7969 68.3036 80.5922C68.6925 80.3773 68.9995 80.188 69.2246 80.0243C69.4497 79.8503 69.6135 79.7633 69.7158 79.7633C69.8488 79.7633 69.9512 79.8145 70.0228 79.9168L70.4219 80.408C70.1763 80.715 69.8488 81.0015 69.4395 81.2676C69.0404 81.5337 68.5901 81.7639 68.0887 81.9584C67.5975 82.1426 67.0654 82.2909 66.4923 82.4035C65.9295 82.5161 65.3615 82.5724 64.7884 82.5724C63.7446 82.5724 62.7929 82.3933 61.9333 82.0351C61.0737 81.6667 60.3369 81.1346 59.7229 80.4387C59.1089 79.7428 58.6331 78.8935 58.2954 77.8906C57.9679 76.8775 57.8042 75.7211 57.8042 74.4215C57.8042 73.3265 57.9577 72.3186 58.2647 71.3976C58.5819 70.4663 59.0322 69.6681 59.6155 69.003C60.209 68.3276 60.9305 67.8005 61.7798 67.4219C62.6394 67.0433 63.6116 66.854 64.6964 66.854C65.556 66.854 66.3541 67.0023 67.091 67.2991C67.8277 67.5959 68.4673 68.0308 69.0097 68.6039C69.5521 69.1667 69.9767 69.8626 70.2837 70.6915C70.601 71.5204 70.7596 72.4721 70.7596 73.5466C70.7596 73.7717 70.7289 73.9252 70.6675 74.0071C70.6061 74.0889 70.5038 74.1299 70.3605 74.1299H59.2471Z" fill="#C94F4F"/>
<path d="M88.0888 71.0445C87.4134 71.3208 86.7994 71.6585 86.2468 72.0576C85.7044 72.4567 85.2439 72.9019 84.8653 73.3931C84.4867 73.8843 84.195 74.4113 83.9903 74.9741C83.7857 75.5369 83.6833 76.1202 83.6833 76.724C83.6833 77.512 83.8317 78.1976 84.1285 78.7809C84.4355 79.3642 84.8295 79.8554 85.3104 80.2545C85.7914 80.6434 86.3235 80.935 86.9068 81.1295C87.5004 81.3239 88.0837 81.4211 88.6567 81.4211C89.3833 81.4211 90.0638 81.3392 90.6983 81.1755C91.343 81.0118 91.9416 80.7866 92.4942 80.5001C93.0468 80.2033 93.5585 79.8554 94.0292 79.4563C94.5 79.047 94.9247 78.6069 95.3033 78.1362L88.2576 71.2134L88.0888 71.0445ZM101.505 82.3728H100.139C99.9543 82.3728 99.8008 82.3523 99.678 82.3114C99.5655 82.2705 99.4324 82.1784 99.2789 82.0351L96.1322 78.9498C95.6819 79.4819 95.1805 79.9731 94.6279 80.4234C94.0753 80.8634 93.4766 81.2471 92.8319 81.5746C92.1872 81.9021 91.4965 82.1579 90.7597 82.3421C90.0229 82.5263 89.2503 82.6184 88.4418 82.6184C87.6743 82.6184 86.9171 82.4905 86.17 82.2347C85.423 81.9788 84.7527 81.6053 84.1592 81.1141C83.5759 80.6127 83.1 80.0038 82.7316 79.2875C82.3735 78.5609 82.1944 77.7371 82.1944 76.8161C82.1944 76.0793 82.3274 75.3783 82.5935 74.7132C82.8595 74.0378 83.2228 73.4238 83.6833 72.8712C84.1438 72.3083 84.6913 71.8069 85.3258 71.3669C85.9602 70.9268 86.6459 70.5687 87.3827 70.2924C86.6459 69.4635 86.0984 68.6653 85.7402 67.8978C85.3821 67.1303 85.203 66.3065 85.203 65.4264C85.203 64.7101 85.3309 64.05 85.5867 63.4463C85.8528 62.8323 86.2263 62.3001 86.7073 61.8499C87.1882 61.3996 87.7613 61.0465 88.4265 60.7907C89.1019 60.5349 89.854 60.407 90.6829 60.407C91.3686 60.407 92.0184 60.5246 92.6324 60.76C93.2464 60.9954 93.7785 61.3126 94.2288 61.7117C94.6893 62.1108 95.0526 62.5764 95.3186 63.1086C95.5949 63.6305 95.7433 64.1779 95.7638 64.751L94.9349 64.9199C94.8325 64.9403 94.7353 64.925 94.6432 64.8738C94.5614 64.8124 94.4949 64.7101 94.4437 64.5668C94.3925 64.2905 94.28 63.9784 94.106 63.6305C93.9423 63.2825 93.7069 62.9551 93.3999 62.6481C93.0929 62.3411 92.7143 62.0852 92.264 61.8806C91.8137 61.6657 91.2867 61.5582 90.6829 61.5582C90.0689 61.5582 89.5112 61.6554 89.0098 61.8499C88.5084 62.0341 88.0785 62.3001 87.7204 62.6481C87.3622 62.9858 87.0808 63.39 86.8761 63.8607C86.6817 64.3314 86.5845 64.8482 86.5845 65.4111C86.5845 66.2502 86.7994 67.0535 87.2292 67.821C87.659 68.5885 88.3242 69.4123 89.2247 70.2924L96.0861 77.031C96.5466 76.2942 96.9099 75.5318 97.176 74.7439C97.4421 73.9457 97.616 73.173 97.6979 72.426C97.7184 72.293 97.7593 72.1906 97.8207 72.119C97.8821 72.0371 97.9742 71.9962 98.097 71.9962H98.9412C98.9208 72.9581 98.7417 73.9508 98.404 74.9741C98.0663 75.9872 97.5802 76.9594 96.9457 77.8906L101.505 82.3728Z" fill="#C94F4F"/>
<path d="M113.746 82.3728V68.696L111.597 68.5578C111.31 68.5271 111.167 68.3992 111.167 68.1741V67.5754H113.746V65.6413C113.746 64.7715 113.858 64.0091 114.083 63.3542C114.308 62.689 114.626 62.1364 115.035 61.6964C115.444 61.2563 115.936 60.9289 116.509 60.714C117.082 60.4888 117.716 60.3763 118.412 60.3763C118.729 60.3763 119.046 60.407 119.364 60.4684C119.691 60.5195 119.983 60.5963 120.239 60.6986L120.193 61.4047C120.172 61.4968 120.126 61.5582 120.054 61.5889C119.993 61.6094 119.901 61.6196 119.778 61.6196C119.655 61.6094 119.497 61.594 119.302 61.5736C119.108 61.5429 118.883 61.5275 118.627 61.5275C118.125 61.5275 117.66 61.6043 117.23 61.7578C116.81 61.901 116.447 62.1364 116.14 62.4639C115.833 62.7913 115.593 63.2211 115.419 63.7533C115.255 64.2752 115.173 64.9199 115.173 65.6874V67.5754H120.131V68.6653H115.219V82.3728H113.746Z" fill="#C94F4F"/>
<path d="M131.703 74.9895C130.25 75.0406 128.996 75.1583 127.942 75.3425C126.899 75.5165 126.034 75.757 125.348 76.064C124.673 76.371 124.171 76.7394 123.844 77.1692C123.517 77.5887 123.353 78.0697 123.353 78.6121C123.353 79.1237 123.435 79.5689 123.598 79.9475C123.772 80.3159 123.997 80.6229 124.274 80.8685C124.56 81.1039 124.888 81.2778 125.256 81.3904C125.625 81.503 126.008 81.5593 126.407 81.5593C127.001 81.5593 127.543 81.4979 128.035 81.3751C128.536 81.242 128.996 81.0629 129.416 80.8378C129.846 80.6024 130.245 80.3261 130.613 80.0089C130.982 79.6917 131.345 79.3489 131.703 78.9805V74.9895ZM122.723 69.2639C123.522 68.4657 124.361 67.8619 125.241 67.4526C126.121 67.0433 127.119 66.8386 128.234 66.8386C129.053 66.8386 129.769 66.9716 130.383 67.2377C130.997 67.4935 131.504 67.8671 131.903 68.3583C132.312 68.8392 132.619 69.4276 132.824 70.1235C133.028 70.8091 133.131 71.5766 133.131 72.426V82.3728H132.547C132.24 82.3728 132.051 82.2295 131.979 81.943L131.765 79.9782C131.345 80.3875 130.925 80.7559 130.506 81.0834C130.097 81.4109 129.667 81.6872 129.216 81.9123C128.766 82.1374 128.28 82.3114 127.758 82.4342C127.236 82.557 126.663 82.6184 126.039 82.6184C125.517 82.6184 125.011 82.5417 124.519 82.3882C124.028 82.2347 123.588 81.9993 123.199 81.6821C122.821 81.3648 122.514 80.9606 122.278 80.4694C122.053 79.968 121.941 79.3693 121.941 78.6735C121.941 78.0288 122.125 77.4301 122.493 76.8775C122.862 76.3249 123.44 75.8439 124.228 75.4346C125.016 75.0253 126.024 74.6978 127.252 74.4522C128.49 74.2066 129.974 74.0633 131.703 74.0224V72.426C131.703 71.0138 131.396 69.9291 130.782 69.1718C130.178 68.4043 129.278 68.0206 128.081 68.0206C127.344 68.0206 126.714 68.1229 126.193 68.3276C125.681 68.5322 125.246 68.7574 124.888 69.003C124.53 69.2486 124.238 69.4737 124.013 69.6784C123.788 69.883 123.598 69.9854 123.445 69.9854C123.332 69.9854 123.24 69.9598 123.169 69.9086C123.097 69.8574 123.036 69.7909 122.984 69.7091L122.723 69.2639Z" fill="#C94F4F"/>
<path d="M146.42 68.9876C146.338 69.1309 146.22 69.2025 146.067 69.2025C145.954 69.2025 145.811 69.1411 145.637 69.0183C145.463 68.8853 145.228 68.742 144.931 68.5885C144.645 68.4248 144.286 68.2815 143.857 68.1587C143.427 68.0257 142.905 67.9592 142.291 67.9592C141.738 67.9592 141.232 68.041 140.771 68.2048C140.321 68.3583 139.932 68.568 139.605 68.8341C139.287 69.1002 139.042 69.4123 138.868 69.7705C138.694 70.1184 138.607 70.4868 138.607 70.8757C138.607 71.3566 138.73 71.7557 138.975 72.073C139.221 72.3902 139.538 72.6614 139.927 72.8865C140.326 73.1116 140.781 73.3061 141.293 73.4698C141.805 73.6335 142.322 73.7973 142.843 73.961C143.376 74.1247 143.897 74.3089 144.409 74.5136C144.921 74.708 145.371 74.9536 145.76 75.2504C146.159 75.5472 146.481 75.9105 146.727 76.3403C146.973 76.7701 147.095 77.292 147.095 77.906C147.095 78.5711 146.978 79.1902 146.742 79.7633C146.507 80.3364 146.159 80.8327 145.699 81.2523C145.248 81.6718 144.691 82.0044 144.025 82.25C143.36 82.4956 142.598 82.6184 141.738 82.6184C140.664 82.6184 139.738 82.4496 138.96 82.1119C138.182 81.7639 137.486 81.3137 136.872 80.7611L137.21 80.2392C137.261 80.1573 137.317 80.0959 137.379 80.055C137.45 80.014 137.543 79.9936 137.655 79.9936C137.788 79.9936 137.947 80.0754 138.131 80.2392C138.325 80.4029 138.581 80.582 138.898 80.7764C139.216 80.9606 139.605 81.1346 140.065 81.2983C140.536 81.462 141.114 81.5439 141.8 81.5439C142.444 81.5439 143.012 81.4569 143.503 81.283C143.995 81.0988 144.404 80.8532 144.731 80.5462C145.059 80.2392 145.305 79.881 145.468 79.4717C145.642 79.0521 145.729 78.6121 145.729 78.1516C145.729 77.6399 145.606 77.2152 145.361 76.8775C145.115 76.5398 144.793 76.2533 144.394 76.0179C143.995 75.7825 143.539 75.583 143.028 75.4193C142.526 75.2555 142.009 75.0918 141.477 74.9281C140.945 74.7643 140.423 74.5852 139.912 74.3908C139.41 74.1964 138.96 73.9508 138.561 73.654C138.162 73.3572 137.839 72.9991 137.594 72.5795C137.348 72.1497 137.225 71.6176 137.225 70.9831C137.225 70.4407 137.343 69.9188 137.578 69.4174C137.814 68.916 138.146 68.4759 138.576 68.0973C139.016 67.7187 139.548 67.4168 140.173 67.1917C140.797 66.9665 141.498 66.854 142.275 66.854C143.207 66.854 144.031 66.987 144.747 67.2531C145.473 67.5191 146.133 67.9285 146.727 68.4811L146.42 68.9876Z" fill="#C94F4F"/>
<path d="M152.539 69.6784C153.245 68.8188 154.048 68.1331 154.949 67.6215C155.859 67.1098 156.878 66.854 158.003 66.854C158.842 66.854 159.579 66.987 160.214 67.2531C160.858 67.5191 161.39 67.9029 161.81 68.4043C162.23 68.9057 162.547 69.5095 162.762 70.2156C162.977 70.9217 163.084 71.7199 163.084 72.6102V82.3728H161.611V72.6102C161.611 71.1775 161.283 70.057 160.628 69.2486C159.973 68.4299 158.975 68.0206 157.635 68.0206C156.642 68.0206 155.711 68.2764 154.841 68.7881C153.982 69.2895 153.214 69.9905 152.539 70.891V82.3728H151.065V60.0386H152.539V69.6784Z" fill="#C94F4F"/>
<path d="M169.571 67.0996V82.3728H168.113V67.0996H169.571ZM170.201 61.8345C170.201 62.0187 170.16 62.1927 170.078 62.3564C170.006 62.5099 169.909 62.6481 169.786 62.7709C169.663 62.8937 169.52 62.9909 169.356 63.0625C169.193 63.1341 169.019 63.17 168.834 63.17C168.65 63.17 168.476 63.1341 168.312 63.0625C168.149 62.9909 168.005 62.8937 167.883 62.7709C167.76 62.6481 167.663 62.5099 167.591 62.3564C167.519 62.1927 167.484 62.0187 167.484 61.8345C167.484 61.6503 167.519 61.4763 167.591 61.3126C167.663 61.1386 167.76 60.9903 167.883 60.8675C168.005 60.7447 168.149 60.6474 168.312 60.5758C168.476 60.5042 168.65 60.4684 168.834 60.4684C169.019 60.4684 169.193 60.5042 169.356 60.5758C169.52 60.6474 169.663 60.7447 169.786 60.8675C169.909 60.9903 170.006 61.1386 170.078 61.3126C170.16 61.4763 170.201 61.6503 170.201 61.8345Z" fill="#C94F4F"/>
<path d="M180.827 66.854C181.922 66.854 182.9 67.0433 183.759 67.4219C184.629 67.7903 185.361 68.3173 185.954 69.003C186.548 69.6886 186.998 70.5175 187.305 71.4897C187.622 72.4516 187.781 73.5312 187.781 74.7285C187.781 75.9258 187.622 77.0054 187.305 77.9674C186.998 78.9293 186.548 79.7531 185.954 80.4387C185.361 81.1243 184.629 81.6514 183.759 82.0198C182.9 82.3882 181.922 82.5724 180.827 82.5724C179.733 82.5724 178.75 82.3882 177.88 82.0198C177.021 81.6514 176.289 81.1243 175.685 80.4387C175.092 79.7531 174.636 78.9293 174.319 77.9674C174.012 77.0054 173.859 75.9258 173.859 74.7285C173.859 73.5312 174.012 72.4516 174.319 71.4897C174.636 70.5175 175.092 69.6886 175.685 69.003C176.289 68.3173 177.021 67.7903 177.88 67.4219C178.75 67.0433 179.733 66.854 180.827 66.854ZM180.827 81.4211C181.738 81.4211 182.531 81.2676 183.207 80.9606C183.892 80.6434 184.46 80.1931 184.911 79.6098C185.371 79.0265 185.714 78.3255 185.939 77.5069C186.164 76.678 186.277 75.7518 186.277 74.7285C186.277 73.7154 186.164 72.7944 185.939 71.9655C185.714 71.1366 185.371 70.4305 184.911 69.8472C184.46 69.2537 183.892 68.7983 183.207 68.4811C182.531 68.1638 181.738 68.0052 180.827 68.0052C179.917 68.0052 179.119 68.1638 178.433 68.4811C177.757 68.7983 177.19 69.2537 176.729 69.8472C176.279 70.4305 175.936 71.1366 175.701 71.9655C175.475 72.7944 175.363 73.7154 175.363 74.7285C175.363 75.7518 175.475 76.678 175.701 77.5069C175.936 78.3255 176.279 79.0265 176.729 79.6098C177.19 80.1931 177.757 80.6434 178.433 80.9606C179.119 81.2676 179.917 81.4211 180.827 81.4211Z" fill="#C94F4F"/>
<path d="M193.295 69.7705C194.001 68.8904 194.815 68.1843 195.736 67.6522C196.667 67.12 197.701 66.854 198.837 66.854C199.676 66.854 200.413 66.987 201.047 67.2531C201.692 67.5191 202.224 67.9029 202.643 68.4043C203.063 68.9057 203.38 69.5095 203.595 70.2156C203.81 70.9217 203.917 71.7199 203.917 72.6102V82.3728H202.444V72.6102C202.444 71.1775 202.116 70.057 201.461 69.2486C200.807 68.4299 199.809 68.0206 198.468 68.0206C197.476 68.0206 196.544 68.2764 195.675 68.7881C194.815 69.2895 194.047 69.9905 193.372 70.891V82.3728H191.898V67.0996H192.712C192.968 67.0996 193.116 67.2275 193.157 67.4833L193.295 69.7705Z" fill="#C94F4F"/>
<path d="M21.326 4.0528C25.566 4.0528 29.266 4.9128 32.426 6.6328C35.626 8.3528 38.106 10.8328 39.866 14.0728C41.626 17.2728 42.506 21.1728 42.506 25.7728C42.506 30.2528 41.606 34.1728 39.806 37.5328C38.006 40.8928 35.486 43.5128 32.246 45.3928C29.046 47.2728 25.386 48.2128 21.266 48.2128C17.026 48.2128 13.306 47.3528 10.106 45.6328C6.94604 43.9128 4.48604 41.4328 2.72604 38.1928C0.966038 34.9528 0.0860375 31.0528 0.0860375 26.4928C0.0860375 22.0128 0.986037 18.0928 2.78604 14.7328C4.62604 11.3728 7.12604 8.7528 10.286 6.8728C13.486 4.9928 17.166 4.0528 21.326 4.0528ZM21.086 5.1328C18.846 5.1328 16.886 6.0328 15.206 7.8328C13.566 9.6328 12.286 12.1128 11.366 15.2728C10.486 18.4328 10.046 22.0928 10.046 26.2528C10.046 30.4928 10.546 34.1928 11.546 37.3528C12.586 40.4728 13.966 42.8928 15.686 44.6128C17.446 46.2928 19.386 47.1328 21.506 47.1328C23.746 47.1328 25.686 46.2328 27.326 44.4328C29.006 42.6328 30.286 40.1528 31.166 36.9928C32.086 33.7928 32.546 30.1328 32.546 26.0128C32.546 21.7328 32.026 18.0328 30.986 14.9128C29.986 11.7928 28.606 9.3928 26.846 7.7128C25.126 5.9928 23.206 5.1328 21.086 5.1328Z" fill="#C94F4F"/>
<path d="M65.9642 15.5128C67.2442 15.5128 68.2842 15.7928 69.0842 16.3528C69.8842 16.8728 70.4642 17.5528 70.8242 18.3928C71.2242 19.2328 71.4242 20.1128 71.4242 21.0328C71.4242 22.5128 70.9842 23.7328 70.1042 24.6928C69.2642 25.6128 68.1442 26.0728 66.7442 26.0728C65.3442 26.0728 64.2442 25.7328 63.4442 25.0528C62.6842 24.3328 62.3042 23.3928 62.3042 22.2328C62.3042 21.1128 62.5442 20.1928 63.0242 19.4728C63.5442 18.7128 64.1842 18.0728 64.9442 17.5528C64.3842 17.3928 63.8242 17.4128 63.2642 17.6128C62.5042 17.7328 61.7842 18.0528 61.1042 18.5728C60.4242 19.0528 59.8442 19.6728 59.3642 20.4328C58.8842 21.1528 58.5042 21.9528 58.2242 22.8328C57.9442 23.6728 57.8042 24.4928 57.8042 25.2928V41.1928C57.8042 43.1128 58.2642 44.4128 59.1842 45.0928C60.1442 45.7728 61.5642 46.1128 63.4442 46.1128V47.3728C62.5242 47.3328 61.1842 47.2928 59.4242 47.2528C57.6642 47.1728 55.8242 47.1328 53.9042 47.1328C52.3042 47.1328 50.6842 47.1728 49.0442 47.2528C47.4042 47.2928 46.1642 47.3328 45.3242 47.3728V46.1128C46.7242 46.1128 47.7042 45.8128 48.2642 45.2128C48.8642 44.6128 49.1642 43.4728 49.1642 41.7928V22.8928C49.1642 21.0928 48.8842 19.7728 48.3242 18.9328C47.8042 18.0528 46.8042 17.6128 45.3242 17.6128V16.3528C46.6042 16.4728 47.8442 16.5328 49.0442 16.5328C50.7242 16.5328 52.2842 16.4728 53.7242 16.3528C55.2042 16.1928 56.5642 15.9728 57.8042 15.6928V21.2728C58.2842 20.1928 58.9242 19.2128 59.7242 18.3328C60.5242 17.4528 61.4442 16.7728 62.4842 16.2928C63.5242 15.7728 64.6842 15.5128 65.9642 15.5128Z" fill="#C94F4F"/>
<path d="M79.932 0.872803C81.612 0.872803 82.932 1.2928 83.892 2.1328C84.892 2.9328 85.392 4.0528 85.392 5.4928C85.392 6.9328 84.892 8.0728 83.892 8.9128C82.932 9.7128 81.612 10.1128 79.932 10.1128C78.252 10.1128 76.912 9.7128 75.912 8.9128C74.952 8.0728 74.472 6.9328 74.472 5.4928C74.472 4.0528 74.952 2.9328 75.912 2.1328C76.912 1.2928 78.252 0.872803 79.932 0.872803ZM84.612 15.6928V41.7928C84.612 43.4728 84.892 44.6128 85.452 45.2128C86.052 45.8128 87.052 46.1128 88.452 46.1128V47.3728C87.732 47.3328 86.612 47.2928 85.092 47.2528C83.572 47.1728 82.032 47.1328 80.472 47.1328C78.912 47.1328 77.332 47.1728 75.732 47.2528C74.132 47.2928 72.932 47.3328 72.132 47.3728V46.1128C73.532 46.1128 74.512 45.8128 75.072 45.2128C75.672 44.6128 75.972 43.4728 75.972 41.7928V22.8928C75.972 21.0928 75.692 19.7728 75.132 18.9328C74.612 18.0528 73.612 17.6128 72.132 17.6128V16.3528C73.412 16.4728 74.652 16.5328 75.852 16.5328C77.532 16.5328 79.092 16.4728 80.532 16.3528C82.012 16.1928 83.372 15.9728 84.612 15.6928Z" fill="#C94F4F"/>
<path d="M105.338 15.5128C108.858 15.5128 111.618 16.5528 113.618 18.6328C115.618 20.7128 116.618 24.1128 116.618 28.8328H96.8778L96.7578 27.6928H109.058C109.098 25.7328 108.978 23.9328 108.698 22.2928C108.418 20.6128 107.978 19.2728 107.378 18.2728C106.778 17.2728 105.978 16.7728 104.978 16.7728C103.578 16.7728 102.378 17.6528 101.378 19.4128C100.418 21.1728 99.8378 24.0928 99.6378 28.1728L99.8178 28.5328C99.7778 29.0128 99.7378 29.5128 99.6978 30.0328C99.6978 30.5528 99.6978 31.0928 99.6978 31.6528C99.6978 34.4128 100.078 36.6528 100.838 38.3728C101.638 40.0928 102.638 41.3528 103.838 42.1528C105.038 42.9128 106.258 43.2928 107.498 43.2928C108.338 43.2928 109.198 43.1728 110.078 42.9328C110.998 42.6528 111.918 42.1728 112.838 41.4928C113.758 40.7728 114.618 39.7728 115.418 38.4928L116.498 38.8528C116.018 40.3728 115.258 41.8528 114.218 43.2928C113.178 44.7328 111.858 45.9128 110.258 46.8328C108.658 47.7528 106.738 48.2128 104.498 48.2128C101.778 48.2128 99.3778 47.6328 97.2978 46.4728C95.2178 45.3128 93.5778 43.5528 92.3778 41.1928C91.2178 38.8328 90.6378 35.8328 90.6378 32.1928C90.6378 28.4728 91.2578 25.3728 92.4978 22.8928C93.7778 20.4128 95.5178 18.5728 97.7178 17.3728C99.9578 16.1328 102.498 15.5128 105.338 15.5128Z" fill="#C94F4F"/>
<path d="M140.861 15.5128C142.541 15.5128 143.901 15.7328 144.941 16.1728C146.021 16.5728 146.861 17.1328 147.461 17.8528C148.101 18.6128 148.561 19.5928 148.841 20.7928C149.161 21.9928 149.321 23.6128 149.321 25.6528V41.7928C149.321 43.4728 149.601 44.6128 150.161 45.2128C150.761 45.8128 151.761 46.1128 153.161 46.1128V47.3728C152.401 47.3328 151.261 47.2928 149.741 47.2528C148.221 47.1728 146.721 47.1328 145.241 47.1328C143.721 47.1328 142.221 47.1728 140.741 47.2528C139.301 47.2928 138.201 47.3328 137.441 47.3728V46.1128C138.641 46.1128 139.481 45.8128 139.961 45.2128C140.441 44.6128 140.681 43.4728 140.681 41.7928V23.1328C140.681 22.1328 140.581 21.2728 140.381 20.5528C140.181 19.7928 139.821 19.2128 139.301 18.8128C138.781 18.3728 138.001 18.1528 136.961 18.1528C135.881 18.1528 134.881 18.4528 133.961 19.0528C133.081 19.6528 132.361 20.4928 131.801 21.5728C131.281 22.6128 131.021 23.7928 131.021 25.1128V41.7928C131.021 43.4728 131.261 44.6128 131.741 45.2128C132.261 45.8128 133.101 46.1128 134.261 46.1128V47.3728C133.541 47.3328 132.481 47.2928 131.081 47.2528C129.721 47.1728 128.301 47.1328 126.821 47.1328C125.301 47.1328 123.741 47.1728 122.141 47.2528C120.541 47.2928 119.341 47.3328 118.541 47.3728V46.1128C119.941 46.1128 120.921 45.8128 121.481 45.2128C122.081 44.6128 122.381 43.4728 122.381 41.7928V22.8928C122.381 21.0928 122.101 19.7728 121.541 18.9328C121.021 18.0528 120.021 17.6128 118.541 17.6128V16.3528C119.821 16.4728 121.061 16.5328 122.261 16.5328C123.941 16.5328 125.501 16.4728 126.941 16.3528C128.421 16.1928 129.781 15.9728 131.021 15.6928V21.0928C132.021 19.0528 133.381 17.6128 135.101 16.7728C136.821 15.9328 138.741 15.5128 140.861 15.5128Z" fill="#C94F4F"/>
<path d="M166.376 6.5128V16.3528H173.456V17.5528H166.376V41.7928C166.376 42.9928 166.596 43.8528 167.036 44.3728C167.476 44.8528 168.136 45.0928 169.016 45.0928C169.736 45.0928 170.456 44.8328 171.176 44.3128C171.896 43.7528 172.536 42.8128 173.096 41.4928L174.116 42.0328C173.476 43.8328 172.496 45.3128 171.176 46.4728C169.896 47.6328 168.136 48.2128 165.896 48.2128C164.576 48.2128 163.416 48.0328 162.416 47.6728C161.416 47.3528 160.576 46.8528 159.896 46.1728C159.016 45.2928 158.436 44.2128 158.156 42.9328C157.876 41.6128 157.736 39.9128 157.736 37.8328V17.5528H152.696V16.3528H157.736V8.4328C159.416 8.4328 160.956 8.2928 162.356 8.0128C163.796 7.6928 165.136 7.1928 166.376 6.5128Z" fill="#C94F4F"/>
<path d="M189.335 15.5128C192.255 15.5128 194.815 16.0528 197.015 17.1328C199.215 18.2128 200.935 19.9528 202.175 22.3528C203.415 24.7528 204.035 27.9328 204.035 31.8928C204.035 35.8528 203.415 39.0328 202.175 41.4328C200.935 43.7928 199.215 45.5128 197.015 46.5928C194.815 47.6728 192.255 48.2128 189.335 48.2128C186.495 48.2128 183.955 47.6728 181.715 46.5928C179.515 45.5128 177.775 43.7928 176.495 41.4328C175.255 39.0328 174.635 35.8528 174.635 31.8928C174.635 27.9328 175.255 24.7528 176.495 22.3528C177.775 19.9528 179.515 18.2128 181.715 17.1328C183.955 16.0528 186.495 15.5128 189.335 15.5128ZM189.335 16.7128C187.735 16.7128 186.395 17.9128 185.315 20.3128C184.235 22.6728 183.695 26.5328 183.695 31.8928C183.695 37.2528 184.235 41.1128 185.315 43.4728C186.395 45.8328 187.735 47.0128 189.335 47.0128C190.975 47.0128 192.315 45.8328 193.355 43.4728C194.435 41.1128 194.975 37.2528 194.975 31.8928C194.975 26.5328 194.435 22.6728 193.355 20.3128C192.315 17.9128 190.975 16.7128 189.335 16.7128Z" fill="#C94F4F"/>
</svg>
