<svg width="198" height="74" viewBox="0 0 198 74" fill="none" xmlns="http://www.w3.org/2000/svg">
<path d="M45.5718 65.1568C45.8642 64.4702 46.3155 63.9108 46.9258 63.4786C47.5487 63.0463 48.2988 62.8302 49.1761 62.8302C49.8245 62.8302 50.4093 62.9446 50.9306 63.1734C51.4518 63.4023 51.8905 63.7201 52.2464 64.127C52.6151 64.5338 52.8948 65.0106 53.0855 65.5573C53.289 66.1039 53.3907 66.6951 53.3907 67.3308V72.6896C53.3907 72.982 53.2445 73.1283 52.952 73.1283C52.6723 73.1283 52.5325 72.982 52.5325 72.6896V67.3308C52.5325 66.8223 52.4562 66.3455 52.3036 65.9005C52.1511 65.4555 51.9222 65.0678 51.6171 64.7372C51.3247 64.4067 50.9687 64.1524 50.5492 63.9744C50.1296 63.7837 49.6528 63.6883 49.1189 63.6883C48.5976 63.6883 48.1208 63.7773 47.6886 63.9553C47.269 64.1333 46.9067 64.3812 46.6016 64.6991C46.2964 65.0169 46.0549 65.392 45.8769 65.8242C45.6989 66.2438 45.5972 66.7078 45.5718 67.2164V72.6896C45.5718 72.982 45.4255 73.1283 45.1331 73.1283C44.8534 73.1283 44.7136 72.982 44.7136 72.6896V59.1114C44.7136 58.8317 44.8534 58.6919 45.1331 58.6919C45.4255 58.6919 45.5718 58.8317 45.5718 59.1114V65.1568Z" fill="#C94D4D"/>
<path d="M62.0046 72.6324C62.6148 72.6324 63.187 72.518 63.7209 72.2891C64.2676 72.0476 64.738 71.7297 65.1322 71.3356C65.539 70.9288 65.8568 70.452 66.0857 69.9053C66.3272 69.3586 66.448 68.7802 66.448 68.1699C66.448 67.5596 66.3272 66.9812 66.0857 66.4345C65.8568 65.8878 65.539 65.4174 65.1322 65.0233C64.738 64.6164 64.2676 64.2986 63.7209 64.0697C63.187 63.8282 62.6148 63.7074 62.0046 63.7074C61.3943 63.7074 60.8159 63.8282 60.2692 64.0697C59.7225 64.2986 59.2457 64.6164 58.8389 65.0233C58.4448 65.4174 58.1269 65.8878 57.8854 66.4345C57.6565 66.9812 57.5421 67.5596 57.5421 68.1699C57.5421 68.7802 57.6565 69.3586 57.8854 69.9053C58.1269 70.452 58.4448 70.9288 58.8389 71.3356C59.2457 71.7297 59.7225 72.0476 60.2692 72.2891C60.8159 72.518 61.3943 72.6324 62.0046 72.6324ZM67.3253 68.1699C67.3253 68.9073 67.1854 69.6002 66.9057 70.2486C66.626 70.8843 66.2446 71.4437 65.7615 71.9268C65.2784 72.4099 64.7126 72.7913 64.0642 73.071C63.4285 73.3507 62.742 73.4906 62.0046 73.4906C61.2672 73.4906 60.5743 73.3507 59.9259 73.071C59.2902 72.7913 58.7308 72.4099 58.2477 71.9268C57.7646 71.4437 57.3832 70.8843 57.1035 70.2486C56.8238 69.6002 56.6839 68.9073 56.6839 68.1699C56.6839 67.4325 56.8238 66.746 57.1035 66.1103C57.3832 65.4619 57.7646 64.8961 58.2477 64.413C58.7308 63.9299 59.2902 63.5485 59.9259 63.2688C60.5743 62.9891 61.2672 62.8492 62.0046 62.8492C62.742 62.8492 63.4285 62.9891 64.0642 63.2688C64.7126 63.5485 65.2784 63.9299 65.7615 64.413C66.2446 64.8961 66.626 65.4619 66.9057 66.1103C67.1854 66.746 67.3253 67.4325 67.3253 68.1699Z" fill="#C94D4D"/>
<path d="M71.4858 64.947C71.7655 64.2605 72.185 63.7392 72.7444 63.3832C73.3038 63.0145 73.9459 62.8302 74.6705 62.8302C75.0392 62.8302 75.4079 62.8874 75.7766 63.0018C76.158 63.1162 76.5077 63.2815 76.8255 63.4976C77.1433 63.7011 77.4231 63.9617 77.6646 64.2795C77.9062 64.5974 78.0778 64.9533 78.1795 65.3475C78.2939 64.9533 78.4719 64.6037 78.7135 64.2986C78.9678 63.9808 79.2538 63.7138 79.5717 63.4976C79.9022 63.2815 80.2582 63.1162 80.6396 63.0018C81.021 62.8874 81.4024 62.8302 81.7838 62.8302C82.2797 62.8302 82.7564 62.9319 83.2141 63.1353C83.6845 63.3387 84.0977 63.6184 84.4537 63.9744C84.8224 64.3304 85.1148 64.7563 85.331 65.2521C85.5598 65.7352 85.6742 66.2692 85.6742 66.854V72.6896C85.6742 72.982 85.5344 73.1283 85.2547 73.1283C84.9623 73.1283 84.8161 72.982 84.8161 72.6896V66.854C84.8161 66.4091 84.7271 65.9959 84.5491 65.6145C84.3838 65.2203 84.1613 64.8834 83.8816 64.6037C83.6019 64.3113 83.2777 64.0888 82.909 63.9363C82.5403 63.771 82.1653 63.6883 81.7838 63.6883C81.4024 63.6883 81.021 63.771 80.6396 63.9363C80.2582 64.0888 79.9149 64.3113 79.6098 64.6037C79.3047 64.8834 79.0568 65.2203 78.8661 65.6145C78.6754 65.9959 78.58 66.4091 78.58 66.854V72.6896C78.58 72.982 78.4338 73.1283 78.1414 73.1283C77.8617 73.1283 77.7218 72.982 77.7218 72.6896V66.854C77.7218 66.4091 77.6328 65.9959 77.4548 65.6145C77.2896 65.2203 77.0607 64.8834 76.7683 64.6037C76.4886 64.3113 76.1644 64.0888 75.7957 63.9363C75.4397 63.771 75.0647 63.6883 74.6705 63.6883C74.2764 63.6883 73.8886 63.771 73.5072 63.9363C73.1258 64.0888 72.7826 64.3113 72.4774 64.6037C72.185 64.8834 71.9435 65.2203 71.7527 65.6145C71.5748 65.9959 71.4858 66.4091 71.4858 66.854V72.6896C71.4858 72.982 71.3396 73.1283 71.0471 73.1283C70.7674 73.1283 70.6276 72.982 70.6276 72.6896V63.6502C70.6276 63.3578 70.7674 63.2116 71.0471 63.2116C71.3396 63.2116 71.4858 63.3578 71.4858 63.6502V64.947Z" fill="#C94D4D"/>
<path d="M89.8635 68.5513C89.9016 69.1234 90.0415 69.6574 90.283 70.1532C90.5373 70.6491 90.8615 71.0813 91.2556 71.45C91.6625 71.8187 92.1265 72.1112 92.6478 72.3273C93.169 72.5307 93.7157 72.6324 94.2878 72.6324C94.9108 72.6324 95.4956 72.5116 96.0423 72.2701C96.589 72.0285 97.0658 71.698 97.4726 71.2784C97.5743 71.1767 97.6888 71.1258 97.8159 71.1258C97.9303 71.1258 98.0257 71.1703 98.1019 71.2593C98.1782 71.3356 98.2164 71.431 98.2164 71.5454C98.2164 71.6852 98.1719 71.7997 98.0829 71.8887C97.0912 72.9566 95.8262 73.4906 94.2878 73.4906C93.5505 73.4906 92.8576 73.3507 92.2092 73.071C91.5735 72.7913 91.0141 72.4099 90.531 71.9268C90.0478 71.4437 89.6664 70.8843 89.3867 70.2486C89.107 69.6002 88.9672 68.9073 88.9672 68.1699C88.9672 67.4325 89.107 66.746 89.3867 66.1103C89.6664 65.4619 90.0478 64.8961 90.531 64.413C91.0141 63.9299 91.5735 63.5485 92.2092 63.2688C92.8576 62.9891 93.5505 62.8492 94.2878 62.8492C95.0125 62.8492 95.6927 62.9891 96.3284 63.2688C96.9768 63.5358 97.5425 63.9108 98.0257 64.394C98.5215 64.8644 98.9093 65.4238 99.189 66.0722C99.4687 66.7078 99.6085 67.3944 99.6085 68.1318C99.6085 68.4115 99.4623 68.5513 99.1699 68.5513H89.8635ZM98.6931 67.7885C98.655 67.2164 98.5088 66.6824 98.2545 66.1866C98.0002 65.6907 97.6697 65.2585 97.2628 64.8898C96.8687 64.5211 96.411 64.235 95.8898 64.0316C95.3812 63.8155 94.8473 63.7074 94.2878 63.7074C93.7157 63.7074 93.169 63.8155 92.6478 64.0316C92.1265 64.2477 91.6625 64.5402 91.2556 64.9089C90.8615 65.2775 90.5373 65.7098 90.283 66.2057C90.0415 66.7015 89.9016 67.2291 89.8635 67.7885H98.6931Z" fill="#C94D4D"/>
<path d="M113.442 59.3975C113.773 59.3975 114.097 59.4547 114.415 59.5691C114.733 59.6708 115.012 59.8297 115.254 60.0459C115.496 60.2493 115.686 60.5036 115.826 60.8087C115.979 61.1011 116.055 61.4317 116.055 61.8004C116.055 62.2072 115.966 62.5823 115.788 62.9255C115.61 63.2561 115.375 63.5676 115.082 63.86C114.803 64.1397 114.491 64.4003 114.148 64.6419C113.805 64.8707 113.474 65.0741 113.156 65.2521C113.372 65.5572 113.639 65.8942 113.957 66.2629C114.275 66.6188 114.631 67.0066 115.025 67.4262C115.419 67.833 115.839 68.2589 116.284 68.7039C116.729 69.1489 117.18 69.6066 117.638 70.077C117.905 69.81 118.153 69.543 118.382 69.276C118.623 69.009 118.858 68.7293 119.087 68.4369C119.151 68.3479 119.214 68.297 119.278 68.2843C119.341 68.2589 119.405 68.2462 119.469 68.2462C119.57 68.2462 119.659 68.2843 119.736 68.3606C119.812 68.4369 119.85 68.5386 119.85 68.6657C119.85 68.7675 119.793 68.8946 119.678 69.0472C119.577 69.187 119.443 69.3459 119.278 69.5239C119.113 69.7019 118.935 69.8926 118.744 70.096C118.553 70.2867 118.375 70.4774 118.21 70.6682C119.202 71.698 119.748 72.2637 119.85 72.3654C119.914 72.429 119.952 72.4926 119.964 72.5561C119.99 72.6197 120.003 72.6642 120.003 72.6896C120.003 72.8168 119.958 72.9248 119.869 73.0138C119.793 73.0901 119.691 73.1283 119.564 73.1283C119.411 73.1283 119.291 73.071 119.202 72.9566C118.795 72.5116 118.458 72.1493 118.191 71.8696C117.937 71.5899 117.759 71.3928 117.657 71.2784C117.352 71.5835 117.053 71.8632 116.761 72.1175C116.468 72.3591 116.157 72.5752 115.826 72.7659C115.496 72.9439 115.14 73.0838 114.758 73.1855C114.389 73.2872 113.976 73.338 113.519 73.338C112.959 73.338 112.419 73.2427 111.898 73.052C111.389 72.8613 110.938 72.5943 110.544 72.251C110.162 71.9077 109.851 71.4882 109.609 70.9923C109.38 70.4965 109.266 69.9435 109.266 69.3332C109.266 68.8755 109.336 68.4369 109.476 68.0173C109.628 67.5978 109.825 67.2037 110.067 66.835C110.321 66.4663 110.613 66.1294 110.944 65.8242C111.275 65.5191 111.631 65.2458 112.012 65.0042C111.694 64.5592 111.421 64.0952 111.192 63.6121C110.963 63.1289 110.849 62.5822 110.849 61.972C110.849 61.616 110.912 61.2855 111.039 60.9803C111.167 60.6625 111.344 60.3891 111.573 60.1603C111.802 59.9187 112.076 59.7344 112.393 59.6073C112.711 59.4674 113.061 59.3975 113.442 59.3975ZM113.519 72.4799C114.294 72.4799 114.974 72.3019 115.559 71.9459C116.144 71.5899 116.659 71.1703 117.104 70.6872C116.633 70.2168 116.169 69.7528 115.712 69.2951C115.254 68.8374 114.822 68.3924 114.415 67.9601C114.021 67.5279 113.652 67.121 113.309 66.7396C112.978 66.3455 112.698 65.9832 112.47 65.6526C112.165 65.8433 111.872 66.0722 111.592 66.3391C111.313 66.5934 111.058 66.8795 110.83 67.1973C110.613 67.5024 110.442 67.8394 110.315 68.2081C110.188 68.564 110.124 68.9391 110.124 69.3332C110.124 69.7909 110.213 70.2168 110.391 70.6109C110.569 70.9923 110.811 71.3229 111.116 71.6026C111.421 71.8823 111.777 72.0984 112.184 72.251C112.603 72.4036 113.048 72.4799 113.519 72.4799ZM113.442 60.2556C112.946 60.2556 112.533 60.4209 112.203 60.7515C111.885 61.0693 111.726 61.4952 111.726 62.0292C111.726 62.4742 111.815 62.9192 111.993 63.3641C112.171 63.8091 112.4 64.2223 112.679 64.6037C112.921 64.4639 113.188 64.2986 113.48 64.1079C113.786 63.9045 114.059 63.682 114.3 63.4404C114.555 63.1989 114.764 62.9446 114.93 62.6776C115.108 62.3979 115.197 62.1055 115.197 61.8004C115.197 61.5715 115.146 61.3681 115.044 61.1901C114.942 60.9994 114.809 60.8341 114.644 60.6943C114.491 60.5544 114.307 60.4464 114.091 60.3701C113.887 60.2938 113.671 60.2556 113.442 60.2556Z" fill="#C94D4D"/>
<path d="M130.955 63.2116H132.519C132.811 63.2116 132.958 63.3578 132.958 63.6502C132.958 63.9299 132.811 64.0697 132.519 64.0697H130.955V72.6896C130.955 72.982 130.809 73.1283 130.516 73.1283C130.237 73.1283 130.097 72.982 130.097 72.6896V64.0697H129.525C129.232 64.0697 129.086 63.9299 129.086 63.6502C129.086 63.3578 129.232 63.2116 129.525 63.2116H130.097V61.5143C130.097 60.5989 130.358 59.8933 130.879 59.3975C131.413 58.8889 132.118 58.6347 132.996 58.6347C133.288 58.6347 133.434 58.7809 133.434 59.0733C133.434 59.3657 133.294 59.5119 133.015 59.5119C132.43 59.5119 131.94 59.6899 131.546 60.0459C131.152 60.3891 130.955 60.885 130.955 61.5334V63.2116Z" fill="#C94D4D"/>
<path d="M141.11 63.7074C140.5 63.7074 139.922 63.8282 139.375 64.0697C138.828 64.2986 138.352 64.6164 137.945 65.0233C137.551 65.4174 137.233 65.8878 136.991 66.4345C136.762 66.9812 136.648 67.5596 136.648 68.1699C136.648 68.7802 136.762 69.3586 136.991 69.9053C137.233 70.452 137.551 70.9288 137.945 71.3356C138.352 71.7297 138.828 72.0476 139.375 72.2891C139.922 72.518 140.5 72.6324 141.11 72.6324C141.721 72.6324 142.286 72.518 142.808 72.2891C143.329 72.0476 143.78 71.7297 144.162 71.3356C144.543 70.9288 144.842 70.452 145.058 69.9053C145.274 69.3586 145.382 68.7802 145.382 68.1699C145.382 67.5596 145.274 66.9812 145.058 66.4345C144.842 65.8878 144.543 65.4174 144.162 65.0233C143.78 64.6164 143.329 64.2986 142.808 64.0697C142.286 63.8282 141.721 63.7074 141.11 63.7074ZM146.259 72.6896C146.259 72.8295 146.215 72.9375 146.126 73.0138C146.05 73.0901 145.948 73.1283 145.821 73.1283C145.528 73.1283 145.382 72.982 145.382 72.6896V70.5537C145.242 70.9606 145.033 71.342 144.753 71.698C144.486 72.0539 144.168 72.3654 143.799 72.6324C143.431 72.8994 143.017 73.1092 142.56 73.2617C142.102 73.4143 141.619 73.4906 141.11 73.4906C140.398 73.4906 139.718 73.3507 139.07 73.071C138.422 72.7913 137.856 72.4099 137.373 71.9268C136.89 71.4437 136.502 70.8843 136.209 70.2486C135.93 69.6002 135.79 68.9073 135.79 68.1699C135.79 67.4325 135.93 66.746 136.209 66.1103C136.502 65.4619 136.89 64.8961 137.373 64.413C137.856 63.9299 138.422 63.5485 139.07 63.2688C139.718 62.9891 140.398 62.8492 141.11 62.8492C142.191 62.8492 143.1 63.1226 143.838 63.6693C144.575 64.2032 145.09 64.9089 145.382 65.7861V63.6502C145.382 63.3578 145.528 63.2116 145.821 63.2116C145.948 63.2116 146.05 63.2497 146.126 63.326C146.215 63.4023 146.259 63.5103 146.259 63.6502V72.6896Z" fill="#C94D4D"/>
<path d="M149.9 71.6217C149.964 71.6217 150.015 71.6344 150.053 71.6598C150.091 71.6852 150.135 71.717 150.186 71.7552C150.39 71.9332 150.618 72.0984 150.873 72.251C151.14 72.4036 151.458 72.4799 151.826 72.4799C152.093 72.4799 152.354 72.4226 152.608 72.3082C152.862 72.1938 153.085 72.0412 153.276 71.8505C153.479 71.6598 153.638 71.4373 153.752 71.1831C153.867 70.9288 153.924 70.6554 153.924 70.363C153.924 69.9053 153.816 69.543 153.6 69.276C153.396 68.9963 153.136 68.7675 152.818 68.5895C152.5 68.3988 152.157 68.2335 151.788 68.0936C151.432 67.9538 151.095 67.7885 150.777 67.5978C150.46 67.3944 150.193 67.1401 149.976 66.835C149.773 66.5298 149.671 66.123 149.671 65.6145C149.671 65.2712 149.735 64.947 149.862 64.6419C149.989 64.324 150.167 64.0507 150.396 63.8218C150.625 63.5803 150.892 63.3959 151.197 63.2688C151.502 63.1289 151.839 63.059 152.208 63.059C152.36 63.059 152.545 63.0844 152.761 63.1353C152.99 63.1734 153.206 63.237 153.409 63.326C153.625 63.415 153.81 63.5294 153.962 63.6693C154.115 63.8091 154.191 63.968 154.191 64.146C154.191 64.2604 154.153 64.3622 154.077 64.4512C154.013 64.5274 153.924 64.5656 153.81 64.5656C153.721 64.5656 153.625 64.5338 153.524 64.4702C153.422 64.3939 153.301 64.3113 153.161 64.2223C153.034 64.1333 152.882 64.057 152.704 63.9935C152.538 63.9172 152.354 63.879 152.15 63.879C151.731 63.879 151.35 64.0316 151.006 64.3367C150.676 64.6419 150.51 65.0423 150.51 65.5382C150.51 65.8179 150.549 66.0531 150.625 66.2438C150.714 66.4345 150.835 66.5998 150.987 66.7396C151.152 66.8795 151.343 67.0066 151.559 67.121C151.788 67.2227 152.042 67.3308 152.322 67.4452C152.665 67.5851 152.99 67.744 153.295 67.922C153.6 68.0873 153.86 68.2843 154.077 68.5132C154.293 68.742 154.464 69.0154 154.592 69.3332C154.719 69.6511 154.782 70.0261 154.782 70.4584C154.782 70.8144 154.706 71.164 154.553 71.5073C154.414 71.8505 154.21 72.1557 153.943 72.4226C153.676 72.6896 153.358 72.9058 152.99 73.071C152.634 73.2363 152.24 73.319 151.807 73.319C151.388 73.319 150.987 73.2427 150.606 73.0901C150.224 72.9375 149.881 72.696 149.576 72.3654C149.5 72.2764 149.462 72.1811 149.462 72.0794C149.462 71.9522 149.5 71.8442 149.576 71.7552C149.665 71.6662 149.773 71.6217 149.9 71.6217Z" fill="#C94D4D"/>
<path d="M158.846 65.1568C159.139 64.4702 159.59 63.9108 160.2 63.4786C160.823 63.0463 161.573 62.8302 162.451 62.8302C163.099 62.8302 163.684 62.9446 164.205 63.1734C164.726 63.4023 165.165 63.7201 165.521 64.127C165.89 64.5338 166.169 65.0106 166.36 65.5573C166.563 66.1039 166.665 66.6951 166.665 67.3308V72.6896C166.665 72.982 166.519 73.1283 166.226 73.1283C165.947 73.1283 165.807 72.982 165.807 72.6896V67.3308C165.807 66.8223 165.731 66.3455 165.578 65.9005C165.426 65.4555 165.197 65.0678 164.892 64.7372C164.599 64.4067 164.243 64.1524 163.824 63.9744C163.404 63.7837 162.927 63.6883 162.393 63.6883C161.872 63.6883 161.395 63.7773 160.963 63.9553C160.543 64.1333 160.181 64.3812 159.876 64.6991C159.571 65.0169 159.329 65.392 159.151 65.8242C158.973 66.2438 158.872 66.7078 158.846 67.2164V72.6896C158.846 72.982 158.7 73.1283 158.408 73.1283C158.128 73.1283 157.988 72.982 157.988 72.6896V59.1114C157.988 58.8317 158.128 58.6919 158.408 58.6919C158.7 58.6919 158.846 58.8317 158.846 59.1114V65.1568Z" fill="#C94D4D"/>
<path d="M171.198 61.1329C171.198 61.4253 171.052 61.5715 170.759 61.5715C170.48 61.5715 170.34 61.4253 170.34 61.1329V59.1114C170.34 58.8317 170.48 58.6919 170.759 58.6919C171.052 58.6919 171.198 58.8317 171.198 59.1114V61.1329ZM171.198 72.6896C171.198 72.982 171.052 73.1283 170.759 73.1283C170.48 73.1283 170.34 72.982 170.34 72.6896V63.6502C170.34 63.3578 170.48 63.2116 170.759 63.2116C171.052 63.2116 171.198 63.3578 171.198 63.6502V72.6896Z" fill="#C94D4D"/>
<path d="M179.809 72.6324C180.419 72.6324 180.991 72.518 181.525 72.2891C182.072 72.0476 182.542 71.7297 182.936 71.3356C183.343 70.9288 183.661 70.452 183.89 69.9053C184.132 69.3586 184.252 68.7802 184.252 68.1699C184.252 67.5596 184.132 66.9812 183.89 66.4345C183.661 65.8878 183.343 65.4174 182.936 65.0233C182.542 64.6164 182.072 64.2986 181.525 64.0697C180.991 63.8282 180.419 63.7074 179.809 63.7074C179.199 63.7074 178.62 63.8282 178.073 64.0697C177.527 64.2986 177.05 64.6164 176.643 65.0233C176.249 65.4174 175.931 65.8878 175.69 66.4345C175.461 66.9812 175.346 67.5596 175.346 68.1699C175.346 68.7802 175.461 69.3586 175.69 69.9053C175.931 70.452 176.249 70.9288 176.643 71.3356C177.05 71.7297 177.527 72.0476 178.073 72.2891C178.62 72.518 179.199 72.6324 179.809 72.6324ZM185.13 68.1699C185.13 68.9073 184.99 69.6002 184.71 70.2486C184.43 70.8843 184.049 71.4437 183.566 71.9268C183.083 72.4099 182.517 72.7913 181.868 73.071C181.233 73.3507 180.546 73.4906 179.809 73.4906C179.071 73.4906 178.379 73.3507 177.73 73.071C177.094 72.7913 176.535 72.4099 176.052 71.9268C175.569 71.4437 175.187 70.8843 174.908 70.2486C174.628 69.6002 174.488 68.9073 174.488 68.1699C174.488 67.4325 174.628 66.746 174.908 66.1103C175.187 65.4619 175.569 64.8961 176.052 64.413C176.535 63.9299 177.094 63.5485 177.73 63.2688C178.379 62.9891 179.071 62.8492 179.809 62.8492C180.546 62.8492 181.233 62.9891 181.868 63.2688C182.517 63.5485 183.083 63.9299 183.566 64.413C184.049 64.8961 184.43 65.4619 184.71 66.1103C184.99 66.746 185.13 67.4325 185.13 68.1699Z" fill="#C94D4D"/>
<path d="M189.29 65.1568C189.582 64.4702 190.034 63.9172 190.644 63.4976C191.267 63.0654 192.017 62.8492 192.894 62.8492C193.543 62.8492 194.128 62.9637 194.649 63.1925C195.17 63.4214 195.609 63.7392 195.965 64.146C196.333 64.5402 196.613 65.0106 196.804 65.5573C197.007 66.1039 197.109 66.6951 197.109 67.3308V72.6896C197.109 72.982 196.963 73.1283 196.67 73.1283C196.391 73.1283 196.251 72.982 196.251 72.6896V67.3308C196.251 66.8223 196.175 66.3455 196.022 65.9005C195.869 65.4555 195.641 65.0741 195.335 64.7563C195.043 64.4257 194.687 64.1715 194.267 63.9935C193.848 63.8028 193.371 63.7074 192.837 63.7074C192.316 63.7074 191.839 63.7964 191.407 63.9744C190.987 64.1524 190.625 64.4003 190.32 64.7181C190.015 65.0233 189.773 65.392 189.595 65.8242C189.417 66.2438 189.315 66.7078 189.29 67.2164V72.6896C189.29 72.982 189.144 73.1283 188.851 73.1283C188.572 73.1283 188.432 72.982 188.432 72.6896V63.6502C188.432 63.3578 188.572 63.2116 188.851 63.2116C189.144 63.2116 189.29 63.3578 189.29 63.6502V65.1568Z" fill="#C94D4D"/>
<path d="M197.78 31.9917C197.78 34.4904 197.317 36.8503 196.391 39.0714C195.466 41.2462 194.193 43.1434 192.574 44.763C190.954 46.3825 189.057 47.6782 186.882 48.6499C184.708 49.5753 182.371 50.0381 179.872 50.0381C177.373 50.0381 175.037 49.5753 172.862 48.6499C170.687 47.6782 168.767 46.3825 167.101 44.763C165.481 43.1434 164.209 41.2462 163.283 39.0714C162.358 36.8503 161.895 34.4904 161.895 31.9917C161.895 29.5392 162.358 27.2256 163.283 25.0507C164.209 22.8759 165.481 20.9787 167.101 19.3592C168.767 17.7396 170.687 16.4671 172.862 15.5417C175.037 14.57 177.373 14.0841 179.872 14.0841C182.371 14.0841 184.708 14.57 186.882 15.5417C189.057 16.4671 190.954 17.7396 192.574 19.3592C194.193 20.9787 195.466 22.8759 196.391 25.0507C197.317 27.2256 197.78 29.5392 197.78 31.9917ZM179.872 17.624C177.882 17.624 176.008 17.9941 174.25 18.7345C172.492 19.4749 170.965 20.4929 169.669 21.7885C168.373 23.0379 167.332 24.5417 166.546 26.3001C165.805 28.0585 165.435 29.9325 165.435 31.9223C165.435 33.912 165.805 35.786 166.546 37.5444C167.332 39.3028 168.373 40.8529 169.669 42.1948C170.965 43.4905 172.492 44.5316 174.25 45.3182C176.008 46.0586 177.882 46.4288 179.872 46.4288C181.862 46.4288 183.736 46.0586 185.494 45.3182C187.253 44.5316 188.78 43.4905 190.075 42.1948C191.371 40.8529 192.389 39.3028 193.129 37.5444C193.916 35.786 194.309 33.912 194.309 31.9223C194.309 29.9325 193.916 28.0585 193.129 26.3001C192.389 24.5417 191.371 23.0379 190.075 21.7885C188.78 20.4929 187.253 19.4749 185.494 18.7345C183.736 17.9941 181.862 17.624 179.872 17.624Z" fill="#C94D4D"/>
<path d="M158.803 17.6931H151.793V49.7601H148.322V17.6931H143.603V14.4308H148.322V1.24307H151.793V14.4308H158.803V17.6931Z" fill="#C94D4D"/>
<path d="M117.446 18.0403C119.621 15.449 122.559 14.1534 126.261 14.1534C127.88 14.1534 129.407 14.4541 130.842 15.0557C132.323 15.6572 133.595 16.4901 134.659 17.5544C135.77 18.6187 136.649 19.868 137.297 21.3025C137.945 22.737 138.292 24.264 138.338 25.8835V49.7603H135.076V25.8835C135.029 24.7267 134.752 23.6393 134.243 22.6213C133.78 21.6033 133.132 20.7241 132.299 19.9837C131.513 19.1971 130.587 18.5724 129.523 18.1097C128.505 17.647 127.418 17.4156 126.261 17.4156C125.058 17.4156 123.924 17.647 122.86 18.1097C121.842 18.5724 120.939 19.1971 120.153 19.9837C119.366 20.7241 118.718 21.6033 118.209 22.6213C117.747 23.6393 117.492 24.7267 117.446 25.8835V49.7603H113.906V14.431H117.446V18.0403Z" fill="#C94D4D"/>
<path d="M78.7157 39.8349C80.0113 41.8246 81.7234 43.421 83.852 44.6241C85.9805 45.8272 88.3173 46.4287 90.8623 46.4287C93.7312 46.4287 96.3224 45.6421 98.6361 44.0688C100.996 42.4955 102.777 40.5058 103.981 38.0996L107.173 39.5572C106.479 41.0842 105.577 42.4955 104.466 43.7912C103.356 45.0868 102.083 46.1974 100.649 47.1228C99.2608 48.0483 97.7338 48.7655 96.0679 49.2745C94.4021 49.7835 92.6669 50.038 90.8623 50.038C88.3635 50.038 86.0268 49.5753 83.852 48.6498C81.6771 47.6781 79.7568 46.3825 78.091 44.7629C76.4715 43.1434 75.199 41.2462 74.2735 39.0714C73.3481 36.8503 72.8853 34.4903 72.8853 31.9916C72.8853 29.5392 73.3481 27.2255 74.2735 25.0507C75.199 22.8759 76.4715 20.9787 78.091 19.3591C79.7568 17.7396 81.6771 16.4671 83.852 15.5416C86.0268 14.5699 88.3635 14.084 90.8623 14.084C94.3327 14.084 97.5024 14.9864 100.371 16.791C103.24 18.5494 105.508 21.0944 107.173 24.426L78.7157 39.8349ZM76.4252 31.9222C76.4252 33.6806 76.7028 35.277 77.2581 36.7114L102.245 23.1072C100.903 21.4414 99.2608 20.1226 97.3173 19.1509C95.3739 18.1329 93.2222 17.6239 90.8623 17.6239C88.8725 17.6239 86.9985 17.9941 85.2401 18.7344C83.4818 19.4748 81.9548 20.4928 80.6591 21.7885C79.3635 23.0378 78.3224 24.5417 77.5357 26.3001C76.7954 28.0584 76.4252 29.9325 76.4252 31.9222Z" fill="#C94D4D"/>
<path d="M66.4204 2.80699C66.4204 4.35724 65.1637 5.61398 63.6134 5.61398C62.0632 5.61398 60.8065 4.35724 60.8065 2.80699C60.8065 1.25674 62.0632 0 63.6134 0C65.1637 0 66.4204 1.25674 66.4204 2.80699ZM62.0983 49.7603V14.431H65.5688V49.7603H62.0983Z" fill="#C94D4D"/>
<path d="M54.446 17.1375C52.1324 17.4152 50.2121 18.3638 48.6851 19.9833C47.2044 21.5566 46.4177 23.4538 46.3252 25.6749V49.7599H43.1324V14.4306H46.3252V17.9704C47.3432 16.7674 48.5463 15.8188 49.9345 15.1247C51.3226 14.4306 52.8265 14.0373 54.446 13.9447V17.1375Z" fill="#C94D4D"/>
<path d="M36.1639 31.9916C36.1639 34.4903 35.7012 36.8502 34.7757 39.0713C33.8502 41.2461 32.5777 43.1433 30.9582 44.7628C29.3387 46.3824 27.4415 47.678 25.2667 48.6498C23.0918 49.5752 20.7551 50.0379 18.2564 50.0379C15.7576 50.0379 13.4209 49.5752 11.246 48.6498C9.07123 47.678 7.15091 46.3824 5.4851 44.7628C3.86555 43.1433 2.59305 41.2461 1.6676 39.0713C0.742146 36.8502 0.279419 34.4903 0.279419 31.9916C0.279419 29.5391 0.742146 27.2255 1.6676 25.0506C2.59305 22.8758 3.86555 20.9786 5.4851 19.3591C7.15091 17.7395 9.07123 16.467 11.246 15.5416C13.4209 14.5698 15.7576 14.084 18.2564 14.084C20.7551 14.084 23.0918 14.5698 25.2667 15.5416C27.4415 16.467 29.3387 17.7395 30.9582 19.3591C32.5777 20.9786 33.8502 22.8758 34.7757 25.0506C35.7012 27.2255 36.1639 29.5391 36.1639 31.9916ZM18.2564 17.6238C16.2666 17.6238 14.3926 17.994 12.6342 18.7344C10.8759 19.4748 9.34886 20.4928 8.05323 21.7884C6.75759 23.0378 5.71646 24.5416 4.92982 26.3C4.18946 28.0584 3.81928 29.9324 3.81928 31.9221C3.81928 33.9119 4.18946 35.7859 4.92982 37.5443C5.71646 39.3027 6.75759 40.8528 8.05323 42.1947C9.34886 43.4903 10.8759 44.5315 12.6342 45.3181C14.3926 46.0585 16.2666 46.4287 18.2564 46.4287C20.2461 46.4287 22.1201 46.0585 23.8785 45.3181C25.6368 44.5315 27.1638 43.4903 28.4595 42.1947C29.7551 40.8528 30.7731 39.3027 31.5135 37.5443C32.3001 35.7859 32.6934 33.9119 32.6934 31.9221C32.6934 29.9324 32.3001 28.0584 31.5135 26.3C30.7731 24.5416 29.7551 23.0378 28.4595 21.7884C27.1638 20.4928 25.6368 19.4748 23.8785 18.7344C22.1201 17.994 20.2461 17.6238 18.2564 17.6238Z" fill="#C94D4D"/>
</svg>
