<svg width="202" height="90" viewBox="0 0 202 90" fill="none" xmlns="http://www.w3.org/2000/svg">
<path d="M50.5705 43.8992C51.2499 48.606 50.8127 53.34 50.9304 58.0637C50.9506 58.8595 50.7151 59.1575 49.8978 59.127C48.4448 59.0694 46.9885 59.127 45.5321 59.1033C43.7327 59.0694 42.8683 58.2195 42.8515 56.4045C42.8246 53.2519 42.8717 50.0994 42.8347 46.9468C42.8246 46.1714 42.7136 45.3654 42.4782 44.6272C42.0678 43.3439 41.1025 42.6971 39.7639 42.8969C38.4219 43.1001 37.83 43.8755 37.8636 45.3553C37.9578 49.2934 37.7963 53.2418 37.941 57.1765C38.0015 58.8798 37.4499 59.3099 35.8927 59.1338C34.7323 59.0017 33.5416 59.1473 32.3712 59.0931C30.9148 59.0254 30.0505 58.1924 30.037 56.7465C29.9865 51.2879 30.0235 45.826 30 40.364C30 39.6495 30.1917 39.3515 30.9451 39.3854C32.0618 39.4396 33.1818 39.3955 34.3018 39.3989C37.0732 39.4091 37.6483 39.8967 38.0284 42.8901C39.9455 39.5852 42.7405 38.5693 46.1039 39.2736C48.2296 39.7206 49.5884 41.1835 50.2173 43.2931C50.3351 43.4929 50.4528 43.696 50.5705 43.8958V43.8992Z" fill="#5A3E36"/>
<path d="M86.4393 52.3886C86.3989 55.7579 83.308 58.9477 79.5208 59.3845C74.4925 59.9635 68.7479 57.9047 67.564 52.0601C66.7399 48.0068 67.1267 44.0416 70.702 41.3563C74.3345 38.627 78.4311 38.2071 82.5613 40.2625C85.1511 41.5527 86.5604 43.7876 86.779 46.7167C86.9102 48.4639 86.3485 49.1243 84.6063 49.1649C82.4806 49.2123 80.3549 49.1378 78.2293 49.1886C76.0901 49.2394 75.2998 50.6244 76.5442 52.436C78.8246 55.7545 82.114 56.1066 85.4875 53.4214C85.8204 53.1539 86.076 52.7881 86.4393 52.3953V52.3886ZM78.199 47.6479C79.0062 47.5835 80.3516 47.8612 80.3112 46.9334C80.3516 45.4028 80.3583 43.8079 79.8639 42.2943C79.578 41.424 78.9961 40.9093 78.0846 40.9398C77.227 40.9703 76.6888 41.4816 76.3693 42.2977C75.9758 43.3067 75.8614 44.3497 75.811 45.413C75.7415 46.9006 76.5375 47.6445 78.199 47.6445V47.6479Z" fill="#5A3E36"/>
<path d="M90.0911 43.7299C90.0911 39.7883 90.1786 35.8434 90.0508 31.9086C89.9969 30.2934 90.5384 29.8769 92.0116 30.0292C93.1182 30.1444 94.2483 30.0089 95.3649 30.0665C97.087 30.1579 98.0085 31.1298 98.0119 32.8737C98.0287 41.2071 98.0119 49.5406 98.0422 57.8707C98.0422 58.7782 97.8639 59.1981 96.8515 59.1304C95.5701 59.0423 94.2785 59.1236 92.9937 59.1033C90.9219 59.066 90.1214 58.2737 90.0978 56.0625C90.0575 51.9516 90.0844 47.8407 90.0878 43.7333L90.0911 43.7299Z" fill="#5A3E36"/>
<path d="M50.5722 43.8992C50.4545 43.6995 50.3368 43.4963 50.219 43.2965C51.1137 42.9003 51.4534 41.9386 52.0622 41.2817C54.0701 39.1111 56.4649 38.7522 59.0748 39.3346C61.6882 39.9137 62.8486 41.9386 63.4035 44.4004C64.0089 47.0755 63.6289 49.7879 63.6961 52.4799C63.7096 53.0996 63.6861 53.7193 63.6961 54.3389C63.7096 55.6257 63.9282 56.6822 65.6637 55.8492C65.0045 58.4769 63.2017 59.679 60.474 59.4521C57.9044 59.2388 55.7485 57.1292 55.6778 54.6505C55.624 52.7948 55.7014 50.9324 55.7047 49.0734C55.7047 48.2302 55.6576 47.3837 55.6509 46.5405C55.6307 43.5403 53.6632 41.5797 50.5722 43.8992Z" fill="#5A3E36"/>
<path d="M131.914 42.616C133.142 41.9963 133.646 40.6384 134.914 39.9477C139.152 37.6416 143.615 39.5548 144.671 44.282C145.274 46.9639 144.93 49.6695 144.998 52.3683C145.021 53.269 144.988 54.1731 144.998 55.0739C145.004 55.6123 145.092 56.1134 145.795 56.1202C147.678 56.1338 146.585 57.1564 146.232 57.6779C145.22 59.1813 142.849 59.8383 140.931 59.2694C138.553 58.5651 137.01 56.8279 136.953 54.61C136.902 52.5274 136.996 50.4381 137.003 48.3556C137.003 47.5125 137.013 46.6557 136.889 45.8261C136.475 43.0833 135.106 42.3248 132.523 43.3406C132.2 43.2052 131.971 42.9851 131.914 42.6194V42.616Z" fill="#5A3E36"/>
<path d="M131.914 42.616C131.971 42.9817 132.201 43.1984 132.523 43.3372C132.325 43.6081 132.123 43.879 131.925 44.1465L131.908 44.1398C131.908 44.4005 131.901 44.6579 131.898 44.9186C131.477 45.3961 131.598 45.9819 131.595 46.5338C131.585 49.7406 131.585 52.9507 131.595 56.1574C131.595 56.7094 131.474 57.2952 131.908 57.7659C132.157 58.7411 131.908 59.2017 130.781 59.1305C129.338 59.0391 127.885 59.1272 126.436 59.1001C125.07 59.0764 124.138 58.4059 124.135 56.9837C124.115 51.2678 124.165 45.5552 124.192 39.8393C124.307 39.7072 124.421 39.5752 124.535 39.4431C126.345 39.2128 128.158 39.2975 129.967 39.3923C130.657 39.4295 131.44 39.4871 131.625 40.4285C131.706 40.6791 131.79 40.933 131.871 41.1836L131.911 42.6126L131.914 42.616Z" fill="#5A3E36"/>
<path d="M131.911 57.766C131.477 57.2953 131.598 56.7095 131.598 56.1575C131.591 52.9508 131.588 49.7406 131.598 46.5339C131.598 45.9819 131.477 45.3961 131.901 44.9187C131.904 49.2022 131.908 53.4824 131.914 57.766H131.911Z" fill="#5A3E36"/>
<path d="M170.642 46.2154C170.642 46.2154 170.642 46.2154 170.646 46.2154C169.331 36.9304 150.825 36.3073 148.945 45.4061C147.563 50.9764 148.676 58.162 157.465 59.2997C165.954 60.7592 172.983 55.1652 170.642 46.212V46.2154ZM162.19 56.1336C161.659 57.5931 160.687 58.0909 159.224 58.0367C155.756 57.9656 156.708 45.4027 157.327 42.9172C157.576 39.7579 161.837 39.7037 162.341 42.7987C163.317 47.1432 163.347 51.8027 162.194 56.137L162.19 56.1336ZM170.565 48.1591C170.562 48.3758 170.565 48.5891 170.585 48.8025C170.565 48.5891 170.558 48.3758 170.565 48.1591Z" fill="#5A3E36"/>
<path d="M131.906 44.1397L131.923 44.1464L131.927 44.1024L131.906 44.1397Z" fill="#5A3E36"/>
<path d="M124.538 39.4464C124.423 39.5784 124.309 39.7105 124.195 39.8426C124.158 39.5784 124.218 39.3956 124.538 39.4464Z" fill="#5A3E36"/>
<path d="M119.51 56.0525C118.353 51.3761 121.212 45.5924 117.264 41.7423C113.914 37.6619 103.46 37.9599 103.316 44.4073C104.288 49.0633 110.577 44.6138 106.407 41.9556C111.653 38.2477 113.604 49.7541 110.55 48.1693C108.384 47.3702 106.144 47.5327 104.049 48.6265C95.5933 53.892 106.037 65.053 111.62 56.2861C113.012 60.3733 120.361 60.6882 121.125 56.0525C120.486 56.0525 119.998 56.0525 119.514 56.0525H119.51ZM111.815 51.6775C111.795 52.91 111.842 54.1426 111.717 55.3684C110.459 56.9803 108.246 55.8357 108.354 53.9225C107.308 50.0724 112.316 46.1241 111.815 51.6775Z" fill="#5A3E36"/>
</svg>
