<svg width="414" height="83" viewBox="0 0 414 83" fill="none" xmlns="http://www.w3.org/2000/svg">
<path d="M311.599 40.8215C311.549 39.5117 311.839 37.7654 312.579 36.1324C313.429 34.2627 314.592 32.5797 316.428 31.5466C318.028 30.6467 319.711 29.9869 321.634 30.0002C323.41 30.0135 325.136 30.1535 326.743 30.9467C329.369 32.2431 331.118 34.2927 332.012 37.0922C333.035 40.3016 332.988 43.4776 331.608 46.5437C330.289 49.4798 328.012 51.4828 324.856 52.206C321.924 52.8792 319.047 52.6392 316.431 50.8962C314.428 49.5598 313.095 47.7568 312.262 45.5239C311.749 44.1508 311.629 42.7444 311.599 40.8215ZM314.548 41.3214C314.602 41.8146 314.548 42.3712 314.642 42.9377C314.968 44.9673 315.811 46.687 317.361 48.0667C319.274 49.7698 321.55 50.223 323.923 49.6298C327.529 48.7266 329.372 45.8505 329.739 42.4578C329.885 41.1114 329.849 39.7217 329.435 38.3886C328.892 36.6356 328.019 35.1159 326.463 34.0428C325.443 33.3396 324.343 32.953 323.11 32.7797C321.877 32.6064 320.7 32.753 319.561 33.1229C318.254 33.5462 317.198 34.3994 316.365 35.4825C315.062 37.1788 314.478 39.1185 314.548 41.3214Z" fill="#5A3E36"/>
<path d="M279.758 51.926C278.481 49.4231 277.208 46.9203 275.932 44.4174C275.855 44.2641 275.759 44.1242 275.682 43.9708C275.479 43.5743 275.379 42.9877 275.062 42.8244C274.665 42.6211 274.089 42.7611 273.589 42.7611C271.839 42.7611 270.093 42.7744 268.343 42.7511C267.94 42.7444 267.84 42.8477 267.843 43.2477C267.863 45.9905 267.843 48.7299 267.863 51.4727C267.867 51.9093 267.73 52.0126 267.324 51.9926C266.684 51.9627 266.04 51.9726 265.397 51.9926C265.141 51.9993 265.054 51.926 265.064 51.6627C265.081 51.0395 265.071 50.4163 265.071 49.7931C265.071 43.5276 265.077 37.2588 265.061 30.9933C265.061 30.5534 265.157 30.4401 265.607 30.4434C268.55 30.4668 271.493 30.4201 274.436 30.4668C276.215 30.4967 277.958 30.7567 279.411 31.9531C280.738 33.0463 281.477 34.406 281.587 36.1423C281.694 37.8354 281.281 39.3217 280.168 40.6182C279.641 41.2314 278.988 41.6913 278.295 42.0579C277.895 42.2678 277.912 42.4111 278.081 42.7411C279.581 45.6539 281.074 48.57 282.567 51.4861C282.821 51.9827 282.821 51.9827 282.244 51.986C281.461 51.9927 280.678 52.0026 279.891 52.0126C279.848 51.9827 279.801 51.9527 279.758 51.926ZM271.616 40.0816C272.526 40.0816 273.436 40.0649 274.346 40.0849C275.199 40.1049 276.015 39.9683 276.798 39.6417C278.721 38.8418 279.351 36.7422 278.508 35.0425C277.768 33.5528 276.335 33.2096 274.865 33.1596C272.676 33.0829 270.48 33.1496 268.283 33.1329C267.927 33.1329 267.84 33.2329 267.843 33.5795C267.86 35.6091 267.863 37.6387 267.843 39.6683C267.84 40.0483 267.98 40.0949 268.3 40.0883C269.406 40.0716 270.513 40.0816 271.616 40.0816Z" fill="#5A3E36"/>
<path d="M288.729 41.2281C288.729 37.792 288.736 34.356 288.719 30.92C288.719 30.5601 288.786 30.4434 289.172 30.4434C292.132 30.4601 295.095 30.4135 298.054 30.4701C299.694 30.5001 301.31 30.7134 302.723 31.7199C304.359 32.883 305.166 34.4294 305.243 36.4256C305.316 38.3519 304.639 39.9183 303.206 41.1847C302.756 41.5813 302.253 41.8879 301.713 42.1479C301.607 42.1979 301.413 42.1879 301.557 42.4645C303.083 45.4039 304.583 48.3534 306.086 51.3028C306.432 51.986 306.429 51.9893 305.629 51.9893C305.076 51.9893 304.523 51.9593 303.97 51.9993C303.526 52.0327 303.276 51.836 303.11 51.4661C302.343 49.7864 301.507 48.1367 300.624 46.517C299.994 45.3639 299.477 44.1575 298.857 43.0044C298.751 42.8044 298.654 42.7611 298.464 42.7611C296.251 42.7644 294.041 42.7711 291.828 42.7544C291.419 42.7544 291.472 42.9844 291.472 43.2343C291.472 45.9572 291.462 48.68 291.482 51.4061C291.485 51.8627 291.395 52.0427 290.902 51.9993C290.352 51.9493 289.796 51.9627 289.246 51.9993C288.839 52.0227 288.709 51.9193 288.712 51.4861C288.732 48.0668 288.722 44.6507 288.722 41.2314L288.729 41.2281ZM295.521 40.0849C296.601 39.9883 297.927 40.1749 299.257 39.985C301.043 39.7283 302.706 38.3853 302.47 36.2823C302.37 35.3858 302.087 34.666 301.383 34.0961C300.527 33.3996 299.504 33.1796 298.457 33.1596C296.264 33.1129 294.071 33.1529 291.882 33.1363C291.539 33.1363 291.469 33.2496 291.472 33.5662C291.485 35.6125 291.485 37.6587 291.472 39.7017C291.472 40.0016 291.545 40.0949 291.855 40.0916C292.995 40.0749 294.138 40.0849 295.521 40.0849Z" fill="#5A3E36"/>
<path d="M243.254 41.2247C243.254 37.8054 243.261 34.386 243.244 30.97C243.244 30.5501 243.351 30.4468 243.771 30.4468C248.447 30.4634 253.119 30.4634 257.795 30.4468C258.252 30.4468 258.372 30.5701 258.338 31.0067C258.298 31.5566 258.298 32.1131 258.338 32.6597C258.368 33.0763 258.218 33.1563 257.828 33.1563C254.562 33.1396 251.3 33.1463 248.034 33.1463C247.48 33.1463 246.927 33.1596 246.374 33.1396C246.087 33.1296 245.964 33.1962 245.967 33.5162C245.981 35.4225 245.987 37.3255 245.967 39.2318C245.964 39.6417 246.191 39.5917 246.441 39.5917C249.847 39.5917 253.256 39.5917 256.662 39.5917C257.14 39.5917 257.378 39.8383 257.378 40.3316C257.378 40.8115 257.348 41.2947 257.388 41.7746C257.418 42.1745 257.302 42.2779 256.895 42.2745C253.489 42.2579 250.08 42.2645 246.674 42.2645C246.209 42.2645 245.977 42.5023 245.977 42.9777C245.977 44.9007 245.991 46.8237 245.967 48.7466C245.964 49.1532 246.054 49.2732 246.481 49.2732C250.333 49.2532 254.189 49.2732 258.042 49.2499C258.495 49.2499 258.618 49.3665 258.585 49.8031C258.542 50.333 258.535 50.8762 258.585 51.4028C258.638 51.926 258.422 51.9993 257.962 51.996C254.359 51.9793 250.753 51.986 247.15 51.986C246.027 51.986 244.901 51.9693 243.778 51.996C243.371 52.006 243.244 51.9127 243.244 51.4794C243.264 48.0601 243.254 44.6407 243.254 41.2247Z" fill="#5A3E36"/>
<path d="M221.493 41.2147C221.493 37.7987 221.5 34.3793 221.483 30.9633C221.483 30.5467 221.586 30.4401 222.003 30.4434C224.732 30.4634 227.462 30.4201 230.188 30.4668C231.944 30.4968 233.684 30.7367 235.13 31.8665C236.513 32.9463 237.283 34.3527 237.367 36.1423C237.447 37.7887 237.113 39.2884 236.02 40.5448C235.06 41.648 233.827 42.3512 232.394 42.6211C229.861 43.0977 227.299 42.7378 224.749 42.8211C224.329 42.8344 224.226 42.9344 224.229 43.3476C224.249 46.0538 224.229 48.7599 224.249 51.4628C224.249 51.886 224.143 52.0193 223.719 51.9927C223.133 51.956 222.543 51.9593 221.956 51.9927C221.576 52.0126 221.483 51.8893 221.486 51.5194C221.5 48.0834 221.493 44.6507 221.493 41.2147ZM224.242 36.6389C224.242 37.6187 224.266 38.5985 224.232 39.575C224.219 40.0216 224.306 40.1849 224.806 40.1749C226.679 40.1382 228.552 40.1616 230.425 40.1616C231.164 40.1616 231.874 40.0183 232.568 39.755C234.847 38.8852 235.04 36.0457 234.011 34.6293C233.157 33.4529 231.901 33.2096 230.615 33.1662C228.638 33.0963 226.655 33.1596 224.676 33.1396C224.302 33.1363 224.232 33.2629 224.239 33.5995C224.259 34.6126 224.246 35.6291 224.246 36.6456L224.242 36.6389Z" fill="#5A3E36"/>
<path d="M364.335 42.5845C364.335 39.6117 364.328 36.6389 364.345 33.6628C364.345 33.2596 364.265 33.1263 363.828 33.1329C361.706 33.1596 359.583 33.1329 357.46 33.1529C357.066 33.1563 356.93 33.0696 356.956 32.6597C356.996 32.0565 356.98 31.4499 356.96 30.8434C356.95 30.5534 357.02 30.4468 357.336 30.4468C362.902 30.4568 368.468 30.4568 374.037 30.4468C374.32 30.4468 374.406 30.5268 374.396 30.8067C374.376 31.4299 374.366 32.0531 374.396 32.6763C374.416 33.0496 374.307 33.1529 373.927 33.1496C371.82 33.1296 369.717 33.1529 367.611 33.1296C367.158 33.1229 367.015 33.2096 367.015 33.7028C367.035 39.595 367.021 45.4906 367.038 51.3828C367.038 51.866 366.928 52.036 366.428 51.9927C365.898 51.946 365.358 51.956 364.825 51.9927C364.435 52.016 364.318 51.9193 364.322 51.5028C364.342 48.53 364.332 45.5572 364.332 42.5811L364.335 42.5845Z" fill="#5A3E36"/>
<path d="M343.03 42.5411C343.03 39.585 343.02 36.6289 343.043 33.6728C343.046 33.2129 342.913 33.1263 342.48 33.1329C340.393 33.1563 338.304 33.1229 336.218 33.1596C335.718 33.1663 335.621 33.013 335.651 32.563C335.691 31.9965 335.671 31.4233 335.654 30.8534C335.648 30.5768 335.688 30.4468 336.021 30.4468C341.587 30.4568 347.152 30.4568 352.721 30.4468C353.048 30.4468 353.098 30.5734 353.091 30.8534C353.074 31.4766 353.061 32.0998 353.094 32.723C353.114 33.0996 352.964 33.1529 352.635 33.1529C350.512 33.1396 348.389 33.1596 346.266 33.1363C345.812 33.1296 345.716 33.2662 345.716 33.6995C345.729 39.6117 345.722 45.5206 345.736 51.4328C345.736 51.8594 345.656 52.0327 345.193 51.9993C344.626 51.956 344.049 51.9627 343.48 51.9993C343.086 52.0227 343.02 51.876 343.023 51.5194C343.036 48.5267 343.03 45.5372 343.03 42.5445V42.5411Z" fill="#5A3E36"/>
<path d="M380.502 41.1947C380.502 37.7787 380.508 34.3593 380.492 30.9433C380.492 30.5567 380.562 30.4168 380.978 30.4434C381.598 30.4834 382.228 30.4734 382.851 30.4434C383.188 30.4301 383.305 30.5101 383.298 30.8733C383.271 32.0465 383.288 33.2229 383.288 34.396C383.288 40.0749 383.285 45.7538 383.298 51.4294C383.298 51.856 383.228 52.0293 382.758 51.9926C382.171 51.946 381.582 51.956 380.995 51.9926C380.598 52.016 380.492 51.906 380.495 51.4994C380.515 48.0634 380.505 44.6274 380.505 41.1947H380.502Z" fill="#5A3E36"/>
<path d="M279.758 51.926C279.801 51.956 279.848 51.986 279.891 52.0126C279.798 52.056 279.751 52.0293 279.758 51.926Z" fill="#5A3E36"/>
<path d="M197.668 51.9538C192.745 51.9538 187.823 51.9471 182.9 51.9638C182.467 51.9638 182.347 51.8771 182.347 51.4239C182.364 44.6052 182.364 37.7865 182.347 30.9711C182.347 30.5645 182.437 30.4445 182.864 30.4479C187.536 30.4645 192.209 30.4645 196.884 30.4479C197.314 30.4479 197.488 30.5245 197.448 30.9911C197.401 31.5377 197.411 32.0942 197.448 32.6441C197.474 33.0507 197.341 33.1474 196.944 33.144C193.912 33.1274 190.879 33.134 187.846 33.134C187.043 33.134 186.24 33.1474 185.44 33.1274C185.14 33.1207 185.047 33.204 185.05 33.5106C185.063 35.3969 185.073 37.2832 185.043 39.1729C185.037 39.6161 185.27 39.5595 185.537 39.5595C188.996 39.5595 192.459 39.5695 195.918 39.5461C196.398 39.5428 196.531 39.6661 196.491 40.1294C196.448 40.6226 196.451 41.1292 196.491 41.6224C196.528 42.0857 196.415 42.2456 195.901 42.2423C192.475 42.2156 189.053 42.239 185.627 42.2156C185.163 42.2156 185.037 42.3156 185.043 42.7922C185.073 44.7851 185.06 46.7781 185.053 48.7744C185.053 49.0477 185.043 49.2376 185.43 49.2343C189.443 49.221 193.455 49.2243 197.471 49.2243C197.538 49.2243 197.608 49.191 197.674 49.1743V51.9538H197.668Z" fill="#5A3E36"/>
<path d="M32.7661 36.2468C32.7561 36.4401 32.7328 36.6367 32.7328 36.83C32.7328 41.6924 32.7262 46.5548 32.7428 51.4172C32.7428 51.8672 32.6328 51.9971 32.1862 51.9671C31.6197 51.9238 31.0431 51.9338 30.4732 51.9671C30.0967 51.9871 30 51.8772 30 51.5006C30.0133 47.7613 30.01 44.022 30.01 40.2794C30.01 37.1633 30.0167 34.0472 30 30.9311C30 30.5646 30.08 30.4412 30.4666 30.4546C31.3231 30.4846 32.1796 30.4779 33.0361 30.4546C33.3094 30.4479 33.4327 30.5446 33.5327 30.7878C34.3125 32.7041 35.0957 34.6171 35.8889 36.5267C36.7354 38.5597 37.6019 40.5826 38.4417 42.6189C39.1449 44.3186 39.8181 46.0283 40.5113 47.7346C40.5347 47.7946 40.6013 47.8413 40.6813 47.9246C41.1612 46.7481 41.6311 45.5984 42.1044 44.4519C42.9342 42.4223 43.7707 40.3927 44.5972 38.3597C45.4137 36.3568 46.2202 34.3505 47.0334 32.3475C47.25 31.811 47.4833 31.2844 47.69 30.7445C47.7799 30.5079 47.9299 30.4546 48.1665 30.4579C49.0597 30.4712 49.9495 30.4746 50.8427 30.4579C51.146 30.4512 51.226 30.5412 51.226 30.8412C51.2193 37.7498 51.216 44.6619 51.226 51.5705C51.226 51.9271 51.106 51.9771 50.7994 51.9671C50.1762 51.9471 49.5496 51.9405 48.9264 51.9671C48.5965 51.9805 48.5098 51.8938 48.5131 51.5605C48.5331 49.9409 48.5231 48.3178 48.5231 46.6981V36.1535C48.4798 36.1468 48.4365 36.1402 48.3932 36.1368C48.0799 36.9067 47.7666 37.6765 47.45 38.4464C46.3436 41.1425 45.2371 43.842 44.1306 46.5382C43.4274 48.2512 42.7109 49.9609 42.0277 51.6839C41.9344 51.9205 41.8311 51.9638 41.6178 51.9605C40.9579 51.9505 40.298 51.9505 39.6382 51.9605C39.4315 51.9638 39.3782 51.8938 39.2949 51.6939C38.4984 49.7309 37.6685 47.7813 36.852 45.825C36.0022 43.7887 35.1557 41.7491 34.3092 39.7128C33.8293 38.5597 33.3527 37.4099 32.8761 36.2568C32.8761 36.1502 32.8495 35.9968 32.7528 36.0035C32.6828 36.0068 32.6728 36.1701 32.7695 36.2535L32.7661 36.2468Z" fill="#5A3E36"/>
<path d="M101.912 51.9537C100.925 51.9537 100.019 51.9404 99.1121 51.9604C98.7988 51.9671 98.7288 51.7504 98.6388 51.5571C97.829 49.8208 96.9725 48.1045 96.056 46.4248C95.4594 45.3316 94.9695 44.1885 94.3763 43.0987C94.243 42.8521 94.1297 42.7421 93.8331 42.7455C91.6735 42.7588 89.5172 42.7655 87.3577 42.7455C86.9744 42.7421 86.9377 42.8854 86.9377 43.2021C86.9477 45.9449 86.9311 48.6843 86.9544 51.4272C86.9577 51.8904 86.8211 51.9937 86.3912 51.9671C85.7679 51.9304 85.1414 51.9437 84.5182 51.9671C84.2349 51.977 84.1249 51.8871 84.1716 51.6105C84.1783 51.5771 84.1716 51.5405 84.1716 51.5038C84.1716 44.6484 84.1749 37.7964 84.1616 30.9411C84.1616 30.5278 84.2749 30.4545 84.6615 30.4545C87.8376 30.4712 91.0136 30.4078 94.1864 30.4811C96.8092 30.5411 98.9954 31.5443 100.165 34.0305C101.345 36.5367 100.768 39.6227 98.3589 41.4024C98.0356 41.6424 97.7057 41.869 97.3557 42.0456C97.0325 42.2089 96.9858 42.3422 97.1558 42.6722C98.5288 45.335 99.8853 48.0111 101.245 50.6806C101.448 51.0806 101.655 51.4771 101.908 51.9637L101.912 51.9537ZM90.7903 33.134C89.6672 33.134 88.5441 33.1473 87.4176 33.1273C87.0644 33.1206 86.9311 33.1806 86.9344 33.5772C86.9577 35.5902 86.9544 37.5998 86.9344 39.6127C86.9311 39.9827 87.0244 40.0893 87.4043 40.086C89.4006 40.066 91.4002 40.0527 93.3965 40.086C94.2563 40.0993 95.0695 39.9393 95.8527 39.6461C97.9856 38.8462 98.6188 36.0834 97.2358 34.4637C96.3893 33.4739 95.2461 33.2173 94.0497 33.1506C92.9666 33.0907 91.8735 33.1373 90.787 33.1373L90.7903 33.134Z" fill="#5A3E36"/>
<path d="M119.132 41.2025C119.132 37.7832 119.139 34.3671 119.122 30.9478C119.122 30.5545 119.209 30.4446 119.619 30.4479C124.328 30.4645 129.037 30.4645 133.746 30.4479C134.136 30.4479 134.219 30.5645 134.202 30.9245C134.172 31.511 134.179 32.1009 134.202 32.6875C134.216 33.0374 134.079 33.1507 133.733 33.1507C129.97 33.1374 126.204 33.1474 122.441 33.124C122.001 33.124 121.841 33.1874 121.851 33.6839C121.888 35.5003 121.878 37.3166 121.858 39.1329C121.855 39.4862 121.955 39.5695 122.298 39.5661C125.777 39.5528 129.257 39.5661 132.733 39.5462C133.189 39.5462 133.313 39.6628 133.279 40.1027C133.239 40.6159 133.239 41.1358 133.279 41.6491C133.313 42.0957 133.213 42.2456 132.713 42.2423C129.287 42.2156 125.864 42.2356 122.438 42.219C121.991 42.219 121.845 42.2923 121.851 42.7822C121.885 44.7585 121.878 46.7348 121.855 48.7111C121.851 49.121 121.948 49.241 122.375 49.241C126.191 49.2243 130.01 49.241 133.826 49.2176C134.362 49.2143 134.496 49.3709 134.456 49.8708C134.412 50.4007 134.416 50.9406 134.456 51.4705C134.486 51.8771 134.352 51.9671 133.956 51.9638C130.566 51.9471 127.177 51.9538 123.788 51.9538C122.395 51.9538 121.005 51.9338 119.615 51.9671C119.189 51.9771 119.125 51.8405 119.129 51.4605C119.142 48.0412 119.135 44.6252 119.135 41.2058L119.132 41.2025Z" fill="#5A3E36"/>
<path d="M62.2261 37.8365C62.2261 40.0627 62.1661 42.2889 62.2427 44.5119C62.3294 47.0947 63.6525 48.9144 66.172 49.4576C67.8983 49.8308 69.6713 49.7842 71.3077 48.8644C72.6308 48.1212 73.3806 47.0147 73.6972 45.5483C73.9172 44.5385 73.9105 43.5254 73.9105 42.5056C73.9105 38.6596 73.9172 34.8137 73.9005 30.9678C73.9005 30.5412 74.0138 30.4212 74.4304 30.4479C75.0336 30.4845 75.6435 30.4845 76.2501 30.4479C76.66 30.4212 76.75 30.5545 76.7466 30.9511C76.73 33.9772 76.7466 37.0033 76.7333 40.0327C76.7266 41.6857 76.8266 43.3454 76.6766 44.9951C76.33 48.7744 74.1138 51.4939 70.2945 52.2737C69.1114 52.5137 67.8983 52.597 66.7152 52.4703C64.1624 52.1937 61.9694 51.2206 60.603 48.881C59.9565 47.7779 59.6066 46.6015 59.4333 45.335C59.3533 44.7485 59.3666 44.1753 59.3633 43.5987C59.3533 39.3962 59.3633 35.1936 59.3466 30.9911C59.3466 30.5312 59.4766 30.4212 59.9098 30.4479C60.5331 30.4845 61.1596 30.4779 61.7828 30.4479C62.1361 30.4312 62.2294 30.5412 62.2261 30.8911C62.2094 33.2073 62.2194 35.5202 62.2194 37.8365C62.2194 37.8365 62.2261 37.8365 62.2327 37.8365H62.2261Z" fill="#5A3E36"/>
<path d="M161.782 41.1991C161.782 37.7798 161.788 34.3638 161.772 30.9444C161.772 30.5512 161.855 30.4178 162.265 30.4478C162.815 30.4878 163.371 30.4878 163.921 30.4478C164.391 30.4145 164.545 30.5345 164.541 31.0444C164.521 36.5633 164.525 42.0823 164.535 47.6012C164.535 48.1278 164.301 48.8077 164.641 49.1376C164.951 49.4442 165.624 49.2209 166.138 49.2209C169.474 49.2276 172.81 49.2209 176.146 49.2276C176.946 49.2276 176.836 49.1276 176.842 49.9475C176.846 50.5007 176.829 51.0506 176.849 51.6038C176.859 51.8937 176.756 51.9571 176.482 51.9571C171.7 51.9504 166.921 51.9471 162.138 51.9637C161.732 51.9637 161.778 51.7604 161.778 51.5072C161.778 48.0711 161.778 44.6351 161.778 41.1991H161.782Z" fill="#5A3E36"/>
<path d="M141.24 41.1658C141.24 37.7664 141.247 34.3671 141.23 30.9644C141.23 30.5445 141.334 30.4178 141.754 30.4478C142.324 30.4845 142.897 30.4912 143.463 30.4478C143.907 30.4145 143.98 30.5845 143.98 30.9844C143.967 35.5402 143.973 40.0993 143.973 44.6551C143.973 46.0082 143.993 47.3613 143.963 48.7144C143.953 49.1509 144.093 49.2409 144.503 49.2376C148.249 49.2243 151.995 49.2376 155.741 49.2176C156.194 49.2176 156.378 49.3009 156.334 49.7941C156.284 50.3774 156.301 50.9706 156.334 51.5538C156.354 51.9004 156.224 51.9571 155.911 51.9571C151.165 51.9471 146.423 51.9437 141.677 51.9604C141.257 51.9604 141.24 51.8004 141.24 51.4672C141.25 48.0311 141.247 44.5951 141.247 41.1591L141.24 41.1658Z" fill="#5A3E36"/>
<path d="M111.21 41.2691C111.21 44.6685 111.204 48.0712 111.22 51.4705C111.22 51.8738 111.12 51.9904 110.721 51.9638C110.117 51.9271 109.504 51.9204 108.904 51.9638C108.468 51.9971 108.414 51.8271 108.421 51.4539C108.441 49.7975 108.428 48.1412 108.428 46.4881C108.428 41.3258 108.434 36.1634 108.418 31.0011C108.418 30.5578 108.521 30.4112 108.971 30.4479C109.504 30.4912 110.047 30.5045 110.574 30.4479C111.15 30.3812 111.227 30.6178 111.224 31.1244C111.2 34.5071 111.214 37.8898 111.214 41.2725L111.21 41.2691Z" fill="#5A3E36"/>
</svg>
