<svg width="412" height="82" viewBox="0 0 412 82" fill="none" xmlns="http://www.w3.org/2000/svg">
<path d="M30.9023 43.7812C32.6116 42.7995 33.3501 43.2467 33.635 45.3409C34.0359 48.2421 36.4204 49.8782 38.6993 48.7657C39.8916 48.1876 41.1682 46.8788 41.4847 45.6463C41.6957 44.8391 40.4613 43.2903 39.5117 42.5814C37.8236 41.3053 35.6818 40.6509 34.0781 39.2984C32.9914 38.3822 31.7675 36.6043 31.9258 35.3937C32.1157 34.0194 33.54 32.3942 34.8378 31.6853C37.7814 30.082 42.1283 31.5544 43.0462 34.2048C43.2783 34.8701 42.8563 35.7754 42.7403 36.5607C42.1705 36.0699 41.337 35.6991 41.0838 35.0774C40.0709 32.5033 38.5094 31.3908 36.2832 32.3397C35.2809 32.7651 34.1309 33.8449 33.8988 34.8374C33.7194 35.6009 34.6901 36.997 35.5025 37.5642C37.2961 38.8403 39.3851 39.6692 41.2315 40.8799C42.8563 41.927 44.3862 43.563 43.5738 45.5699C42.9407 47.1296 41.4636 48.722 39.976 49.4201C36.336 51.1216 33.0336 49.4746 30.9023 45.4172V43.7812Z" fill="#5A3E36"/>
<path d="M334.272 36.724C332.542 41.1196 330.822 45.526 329.092 49.9215C328.828 49.9324 328.564 49.9433 328.3 49.9652C326.549 45.5369 324.797 41.0978 323.035 36.6695C322.793 36.6913 322.55 36.7022 322.307 36.724V49.8343C322.012 49.8234 321.717 49.8125 321.421 49.8015V31.4996C322.898 30.7143 323.584 31.5868 324.133 33.0593C325.715 37.2803 327.361 41.4795 329.176 46.1586C331.001 41.4359 332.594 37.1712 334.346 32.972C334.683 32.1649 335.644 31.6305 336.308 30.9761C336.561 31.1397 336.825 31.3142 337.078 31.4778C337.078 37.1821 337.11 42.8865 337.026 48.58C337.026 49.0381 336.287 49.4962 335.886 49.9543C335.538 49.4525 334.884 48.9508 334.873 48.4382C334.789 44.5553 334.831 40.6833 334.831 36.8004C334.641 36.7786 334.462 36.7677 334.272 36.7459V36.724Z" fill="#5A3E36"/>
<path d="M353.79 46.1041C355.668 41.2942 357.209 37.1822 358.908 33.1357C359.277 32.2632 360.237 31.6524 360.923 30.9107C361.186 31.0852 361.45 31.2706 361.714 31.4451C361.714 37.1495 361.746 42.8648 361.661 48.5691C361.661 49.0272 360.923 49.4744 360.532 49.9325C360.205 49.409 359.604 48.8963 359.593 48.3619C359.509 44.3699 359.551 40.378 359.108 36.2115L353.685 49.9216C353.421 49.9216 353.147 49.9325 352.883 49.9434C351.111 45.417 349.338 40.8906 347.566 36.3642C347.354 36.3969 347.154 36.4296 346.943 36.4624V49.7362H345.782C345.782 43.661 345.772 37.5858 345.793 31.4997C346.036 31.3033 346.278 31.0961 346.521 30.8998C347.238 31.5869 348.262 32.1214 348.621 32.9721C350.34 37.0295 351.881 41.1742 353.79 46.0823V46.1041Z" fill="#5A3E36"/>
<path d="M297.902 40.716C297.871 34.3791 301.015 30.7688 306.143 31.2379C306.406 31.2597 306.67 31.2706 306.923 31.3251C311.017 32.2304 313.412 37.4985 312.325 43.1592C311.355 48.1873 308.242 50.6196 303.769 49.8234C300.139 49.1799 297.924 45.7442 297.902 40.7051V40.716ZM310.606 40.607C309.751 38.2511 309.255 35.8188 308.052 33.8446C306.638 31.4996 304.054 31.6632 302.302 33.7683C299.738 36.855 299.707 44.1408 302.228 47.3039C304.053 49.5944 306.554 49.7579 308.094 47.2821C309.266 45.3951 309.73 43.0283 310.595 40.6179L310.606 40.607Z" fill="#5A3E36"/>
<path d="M168.646 31.2596C171.073 31.2596 173.267 30.8669 175.219 31.3905C176.707 31.794 178.374 33.092 179.123 34.4772C180.399 36.8222 179.323 39.0254 177.192 40.6614C180.399 42.8428 179.387 46.0604 179.45 48.9617C179.45 49.2889 178.732 49.9433 178.479 49.8779C178.015 49.7579 177.393 49.278 177.308 48.8417C177.129 47.8819 177.234 46.8566 177.224 45.8532C177.203 41.9048 176.738 41.4249 172.972 41.4686C172.36 41.4686 171.758 41.5449 170.788 41.6104C170.788 43.7154 170.872 45.7768 170.746 47.8274C170.703 48.5472 170.123 49.2234 169.785 49.9215C169.406 49.2671 168.699 48.6236 168.688 47.9582C168.593 42.5156 168.635 37.073 168.635 31.2487L168.646 31.2596ZM170.925 40.3888C173.309 40.3997 175.757 40.9777 176.717 38.4691C177.245 37.0948 177.224 34.619 176.38 33.7791C175.187 32.5794 173.014 32.4267 170.925 31.7068V40.3888Z" fill="#5A3E36"/>
<path d="M223.69 31.3687C228.163 30.9979 232.468 30.747 235.391 35.0771C237.564 38.2838 237.606 42.8865 235.486 46.1259C232.595 50.5433 228.216 50.1397 223.69 49.9107V31.3687ZM225.863 48.9399C229.06 49.1144 231.814 48.5691 233.354 45.5042C235.148 41.9267 235 38.2947 232.806 34.9681C231.16 32.4813 228.712 31.8705 225.874 32.4922V48.9508L225.863 48.9399Z" fill="#5A3E36"/>
<path d="M66.9821 40.5962C66.9715 47.2058 63.4898 50.827 58.1406 49.8126C54.1524 49.06 52 44.8936 52.5065 38.9492C52.9074 34.2483 55.5556 31.3034 59.4699 31.2162C64.2072 31.1071 67.0032 34.5973 66.9821 40.5962ZM65.1568 40.6835C64.2811 38.2403 63.8169 35.8844 62.6668 33.9538C61.1686 31.4561 58.552 31.587 56.7479 33.8557C54.184 37.0841 54.2262 44.2828 56.8112 47.3913C58.6259 49.5727 60.9787 49.769 62.498 47.3913C63.743 45.4389 64.2705 43.0066 65.1568 40.6835Z" fill="#5A3E36"/>
<path d="M194.972 31.1397C196.913 31.2379 199.171 31.685 200.194 34.2373C200.448 34.859 199.962 35.797 199.825 36.5823C199.277 36.0806 198.707 35.5898 198.19 35.0553C197.251 34.1064 196.502 32.6994 195.394 32.2631C193.6 31.5651 191.87 32.3613 191.1 34.3027C190.34 36.2114 191.754 37.0731 193.094 37.8584C195.004 38.9709 197.061 39.8653 198.791 41.2069C201.999 43.6937 201.503 47.3802 197.894 49.1799C194.117 51.0559 189.359 49.4089 188.473 45.7987C188.293 45.0679 188.874 44.1408 189.095 43.301C189.633 43.9336 190.488 44.479 190.667 45.1988C191.458 48.3728 193.674 49.9652 196.196 48.6563C197.24 48.111 198.485 46.8785 198.601 45.8314C198.717 44.8389 197.694 43.4101 196.787 42.6575C195.436 41.545 193.748 40.8796 192.218 39.9853C190.245 38.8291 188.357 37.5639 188.99 34.739C189.507 32.4703 191.691 31.1179 194.972 31.1179V31.1397Z" fill="#5A3E36"/>
<path d="M148.178 44.6101V31.369C148.411 31.369 148.632 31.3908 148.864 31.3908V49.6928C148.674 49.8237 148.484 49.9545 148.295 50.0854C145.098 45.8644 142.766 40.9781 139.105 36.6916V49.7582C138.82 49.7582 138.546 49.7473 138.261 49.7364V31.4562C138.43 31.3145 138.598 31.1836 138.767 31.0418C141.964 35.3828 144.422 40.28 147.44 44.7628C147.693 44.7083 147.936 44.6537 148.189 44.6101H148.178Z" fill="#5A3E36"/>
<path d="M370.49 31.3795H380.165C380.165 31.5977 380.186 31.8158 380.197 32.034H372.769V39.9633H378.203C378.203 40.1706 378.203 40.3887 378.213 40.596C376.451 40.705 374.7 40.825 372.779 40.945V49.0925H380.123C380.123 49.3107 380.123 49.5179 380.123 49.736H370.5V31.3686L370.49 31.3795Z" fill="#5A3E36"/>
<path d="M119.354 31.3906H129.008C129.008 31.6087 129.029 31.8269 129.029 32.045H121.591V39.9635H126.982L127.003 40.607C125.241 40.727 123.479 40.8361 121.58 40.967V49.0381H128.955C128.955 49.2781 128.955 49.5181 128.955 49.758H119.354V31.3797V31.3906Z" fill="#5A3E36"/>
<path d="M280.548 41.7411C280.548 44.0097 280.622 46.093 280.495 48.1544C280.453 48.7652 279.841 49.3433 279.493 49.9431C279.103 49.3869 278.375 48.8415 278.375 48.2853C278.29 42.7554 278.322 37.2147 278.322 31.3685C280.844 31.3685 283.281 31.1176 285.644 31.4449C287.913 31.7612 289.432 34.1171 289.316 36.4294C289.189 38.9271 287.86 40.4758 285.539 40.9994C284.009 41.3484 282.437 41.4684 280.559 41.7302L280.548 41.7411ZM280.696 32.3719V40.2141C282.827 40.5413 285.074 40.9339 286.182 38.8616C286.868 37.5855 286.931 35.4586 286.404 34.0843C285.412 31.543 282.985 32.2411 280.696 32.3719Z" fill="#5A3E36"/>
<path d="M87.1126 31.2923C87.2603 31.7395 87.5346 32.1866 87.5346 32.6229C87.5452 36.7021 87.619 40.7814 87.4608 44.8497C87.3236 48.3072 85.3717 50.1287 82.0799 50.2486C78.7037 50.3795 76.0238 48.3617 75.8128 45.0242C75.5596 40.8686 75.6651 36.6912 75.7284 32.5248C75.7284 32.0776 76.4775 31.6413 76.8784 31.205C77.2055 31.7285 77.8069 32.2412 77.8174 32.7647C77.9018 36.4731 77.8174 40.1924 77.8913 43.9117C77.9335 46.0276 78.5665 47.8927 80.7716 48.5908C83.8313 49.5724 86.1103 47.8491 86.2369 44.3261C86.3635 40.7923 86.258 37.2584 86.2896 33.7245C86.2896 32.9065 86.4268 32.0994 86.5007 31.2814C86.7011 31.2814 86.9121 31.2814 87.1126 31.2704V31.2923Z" fill="#5A3E36"/>
<path d="M110.555 31.5977C108.561 37.3675 106.577 43.1373 104.541 48.8853C104.393 49.3106 103.771 49.9105 103.486 49.856C103.001 49.7469 102.368 49.2779 102.199 48.798C100.173 43.1045 98.2211 37.3893 96.2375 31.6304C97.8623 30.7796 98.5481 31.4013 99.0335 32.8847C100.511 37.3238 102.083 41.7412 103.834 46.7802C105.86 41.1631 107.675 36.1131 109.489 31.0632C109.837 31.2377 110.196 31.4231 110.544 31.5977H110.555Z" fill="#5A3E36"/>
<path d="M255.456 32.0234H248.007V39.9091H253.451C253.462 40.1382 253.472 40.3781 253.493 40.6072C251.753 40.7163 250.001 40.8253 248.049 40.9453V49.1256H255.372C255.372 49.3546 255.361 49.5727 255.35 49.8018H245.76V31.4235H255.424C255.424 31.6307 255.445 31.827 255.456 32.0343V32.0234Z" fill="#5A3E36"/>
<path d="M157.778 40.2361C157.778 37.793 157.705 35.3498 157.831 32.9285C157.863 32.3504 158.549 31.805 158.928 31.2488C159.308 31.8159 159.994 32.3722 160.005 32.9503C160.089 38.0984 160.079 43.2465 160.005 48.3946C160.005 48.9181 159.382 49.4308 159.045 49.9543C158.623 49.4308 157.863 48.9181 157.842 48.3728C157.715 45.6678 157.789 42.952 157.778 40.2471V40.2361Z" fill="#5A3E36"/>
<path d="M76.9629 30.308C77.2421 30.3343 77.494 30.492 77.6426 30.7299C77.6966 30.8161 77.7669 30.9158 77.8652 31.0404C77.9536 31.1524 78.0809 31.3072 78.1875 31.4506C78.3829 31.7135 78.7029 32.1739 78.7148 32.7455L78.7559 38.3353C78.7545 40.1956 78.7543 42.0474 78.791 43.8959C78.8109 44.8824 78.9687 45.716 79.3125 46.3568C79.6398 46.9664 80.1613 47.4549 81.041 47.7338C82.36 48.1568 83.373 47.9604 84.0527 47.4349C84.747 46.8982 85.2789 45.8785 85.3359 44.2943C85.4622 40.7699 85.3566 37.3052 85.3887 33.7181C85.3894 32.8516 85.5406 31.9175 85.6055 31.1986L85.6992 30.8764C85.8483 30.5815 86.1532 30.3842 86.502 30.3842C86.7066 30.3842 86.893 30.3818 87.0645 30.3724C87.311 30.3592 87.5531 30.4487 87.7324 30.6185C87.8454 30.726 87.9101 30.8649 87.9551 31.0111H87.9668C88.0334 31.2126 88.0978 31.3235 88.2188 31.6322C88.3144 31.8765 88.4354 32.2287 88.4355 32.6224L88.459 38.7396C88.4589 40.7867 88.439 42.8394 88.3594 44.8861C88.2842 46.7763 87.7055 48.3404 86.584 49.4447C85.604 50.4087 84.2942 50.9412 82.7754 51.1029L82.1133 51.1498C80.2398 51.2221 78.5023 50.6992 77.1914 49.6381C76.0363 48.7029 75.2535 47.3786 74.9941 45.7826L74.9121 45.0795C74.6563 40.8814 74.767 36.6623 74.8301 32.5111C74.8338 32.1518 74.9819 31.8662 75.1113 31.6791C75.2439 31.4874 75.41 31.3234 75.5449 31.1986C75.6782 31.0755 75.8336 30.9476 75.9434 30.8529C76.0672 30.7461 76.1508 30.6625 76.2129 30.5951L76.3711 30.4603C76.5423 30.3437 76.7525 30.2885 76.9629 30.308ZM34.4062 30.8939C36.1369 29.9513 38.2226 29.9338 39.9727 30.4896C41.7045 31.0403 43.3141 32.2232 43.8984 33.9056L43.998 34.351C44.0511 34.7927 43.975 35.2177 43.9043 35.5346C43.855 35.7553 43.7875 35.9931 43.7402 36.1791C43.6896 36.3787 43.6507 36.5471 43.6289 36.6947C43.5802 37.018 43.3611 37.2894 43.0547 37.4037C42.7477 37.518 42.4008 37.4588 42.1523 37.2455C42.046 37.1539 41.9176 37.0571 41.7598 36.9467C41.6143 36.8449 41.4254 36.7155 41.2559 36.5892C40.928 36.3451 40.4744 35.9732 40.248 35.4174V35.4056C39.7731 34.1989 39.2229 33.4891 38.6719 33.1556C38.177 32.8567 37.5448 32.7817 36.6387 33.1674C36.2611 33.3279 35.8147 33.6353 35.4434 34.0111C35.0624 34.3969 34.8388 34.7713 34.7754 35.0424C34.7821 35.0134 34.7631 35.0679 34.8164 35.2357C34.8662 35.3919 34.9593 35.586 35.0918 35.7982C35.3637 36.2336 35.7317 36.6237 36.0176 36.8236L36.0234 36.8295C36.8666 37.4293 37.7926 37.9336 38.7715 38.4525C39.7305 38.9609 40.7507 39.4926 41.7129 40.1224C42.5804 40.6815 43.5022 41.4422 44.0859 42.3959C44.6905 43.3844 44.9387 44.5936 44.4082 45.9056C43.6941 47.665 42.0616 49.4368 40.3594 50.2357C38.3262 51.1861 36.3108 51.226 34.5 50.3998C32.7168 49.5857 31.2313 47.9787 30.1055 45.8353C30.0381 45.707 30.0003 45.5643 30 45.4193V43.7787C30.0009 43.4574 30.1783 43.1595 30.457 42.9994C30.9222 42.7325 31.3856 42.5274 31.834 42.4369C32.2978 42.3435 32.7951 42.3662 33.252 42.6303C33.6965 42.8873 33.9734 43.2989 34.1543 43.726C34.3344 44.1513 34.4531 44.6597 34.5293 45.2201C34.701 46.4574 35.2824 47.3481 35.9707 47.8158C36.6403 48.2697 37.4613 48.3667 38.3027 47.9564C38.7831 47.7233 39.3149 47.3237 39.7559 46.8431C40.2016 46.3572 40.5014 45.8503 40.6113 45.4252C40.5968 45.4818 40.6301 45.4358 40.5586 45.2435C40.4925 45.0669 40.3685 44.8425 40.1953 44.5931C39.8454 44.0898 39.3622 43.5964 38.9707 43.3041C38.2001 42.7215 37.3149 42.2727 36.3457 41.7689C35.4056 41.2803 34.3858 40.7362 33.498 39.9877C32.8753 39.4627 32.2353 38.7073 31.7637 37.9135C31.3122 37.1533 30.9121 36.1883 31.0312 35.2767L31.0371 35.2709C31.1635 34.3561 31.6725 33.454 32.2676 32.7221C32.8715 31.9792 33.6396 31.3127 34.4062 30.8939ZM138.873 30.1498C139.12 30.1792 139.347 30.307 139.494 30.5072C141.12 32.7149 142.55 35.0581 143.941 37.3861C145.051 39.2417 146.137 41.0822 147.281 42.8705V31.3685C147.282 30.8719 147.681 30.4666 148.178 30.4662C148.319 30.4662 148.454 30.4785 148.564 30.4838C148.681 30.4894 148.773 30.4896 148.863 30.4896C149.36 30.4896 149.766 30.8949 149.766 31.392V49.6908C149.766 49.9868 149.617 50.267 149.373 50.4349C149.279 50.4995 149.185 50.5637 149.092 50.6283C148.997 50.6937 148.9 50.7621 148.805 50.8275C148.408 51.1 147.865 51.0118 147.574 50.6283C145.947 48.4791 144.543 46.1551 143.115 43.89C142.126 42.3213 141.115 40.7748 140.004 39.2787V49.7611C140.002 50.256 139.602 50.6562 139.107 50.6576C138.803 50.6576 138.509 50.6449 138.229 50.6342C137.746 50.6157 137.362 50.2208 137.361 49.7377V31.4564C137.361 31.1906 137.48 30.936 137.684 30.765C137.775 30.6884 137.865 30.615 137.947 30.5482C138.032 30.4797 138.111 30.4188 138.188 30.3549C138.378 30.195 138.626 30.1205 138.873 30.1498ZM223.617 30.4721C225.833 30.2884 228.163 30.1127 230.314 30.5775C232.522 31.0549 234.537 32.2013 236.139 34.5736C238.515 38.0799 238.558 43.0764 236.238 46.6205C234.648 49.0493 232.613 50.1741 230.385 50.64C228.224 51.0918 225.862 50.9221 223.646 50.8099C223.169 50.7858 222.792 50.3916 222.791 49.9135V31.3685C222.791 30.9004 223.151 30.5107 223.617 30.4721ZM66.082 40.5912C66.0918 37.7188 65.4234 35.576 64.3066 34.181C63.9836 33.7778 63.6113 33.4346 63.1992 33.1439C63.2783 33.2572 63.366 33.3672 63.4395 33.4896C64.066 34.5418 64.4943 35.6943 64.8691 36.8471C65.256 38.0368 65.5716 39.1688 66.0059 40.3803C66.0776 40.5811 66.0752 40.8018 66 41.0014C65.5595 42.156 65.2304 43.2655 64.8105 44.4701C64.4055 45.6321 63.9368 46.8093 63.2578 47.8744C63.1972 47.9693 63.1224 48.0548 63.0586 48.1439C63.3639 47.9367 63.6553 47.7104 63.9141 47.4408C65.2394 46.0602 66.0766 43.7553 66.082 40.5912ZM306.223 30.3431L306.217 30.349L307.113 30.4428L307.119 30.4486C309.509 30.978 311.328 32.7616 312.387 35.0834C313.447 37.408 313.782 40.3336 313.207 43.3275C312.695 45.9817 311.596 48.0753 309.914 49.3861C308.216 50.7093 306.046 51.144 303.609 50.7103C299.372 49.9579 297.022 45.9672 297 40.7084C296.987 37.4141 297.797 34.6854 299.408 32.8334C301.047 30.9489 303.415 30.0867 306.223 30.3431ZM335.93 30.1615C336.204 30.0342 336.531 30.0486 336.797 30.2201C336.925 30.3029 337.056 30.3883 337.184 30.4721C337.313 30.5567 337.441 30.6439 337.564 30.724C337.821 30.8898 337.98 31.1744 337.98 31.4799C337.98 37.1768 338.012 42.8935 337.928 48.5951L337.922 48.5892C337.919 48.9429 337.784 49.23 337.658 49.4213C337.53 49.616 337.37 49.7835 337.236 49.9135C337.104 50.0421 336.948 50.1765 336.838 50.2767C336.715 50.3884 336.626 50.4731 336.562 50.5463C336.38 50.7548 336.113 50.8665 335.836 50.851C335.56 50.8354 335.303 50.6974 335.145 50.4701C335.089 50.3897 335.012 50.2932 334.904 50.1713C334.809 50.0629 334.674 49.9124 334.559 49.7728C334.354 49.5256 333.986 49.057 333.973 48.4603L333.92 42.6185C333.92 41.7663 333.918 40.9147 333.92 40.0639C333.451 41.2581 332.988 42.4548 332.52 43.6498C331.657 45.8502 330.795 48.0548 329.93 50.2533C329.799 50.584 329.482 50.807 329.127 50.8217C328.862 50.8326 328.618 50.8428 328.377 50.8627C327.982 50.8954 327.609 50.6631 327.463 50.2943C326.046 46.7125 324.631 43.1252 323.209 39.5424V49.8314C323.209 50.0754 323.109 50.3123 322.934 50.4818C322.758 50.6515 322.516 50.7428 322.271 50.7338C322.125 50.7284 321.979 50.7216 321.832 50.7162C321.684 50.7107 321.534 50.7041 321.387 50.6986C320.904 50.6801 320.52 50.2856 320.52 49.8021V31.4974C320.52 31.1655 320.707 30.8623 321 30.7064C321.449 30.4676 321.907 30.3176 322.371 30.308C322.853 30.2983 323.285 30.4406 323.648 30.7006C324.315 31.1776 324.702 32.0041 324.979 32.7455C326.309 36.2952 327.688 39.8253 329.174 43.6498C330.659 39.7833 332.034 36.1814 333.516 32.6283C333.769 32.0236 334.232 31.5671 334.617 31.2338C335.069 30.8429 335.364 30.6461 335.678 30.3373L335.93 30.1615ZM158.93 30.349C159.228 30.3504 159.507 30.5001 159.674 30.7474C159.74 30.8462 159.829 30.9566 159.943 31.0931C160.048 31.2186 160.19 31.3872 160.312 31.5443C160.536 31.8308 160.893 32.3206 160.904 32.933C160.989 38.0921 160.978 43.2522 160.904 48.4076C160.899 48.993 160.563 49.4611 160.365 49.7201C160.256 49.8636 160.129 50.0179 160.037 50.1303C159.935 50.2552 159.858 50.3548 159.803 50.4408C159.646 50.6831 159.382 50.8352 159.094 50.851C158.805 50.8662 158.525 50.7419 158.344 50.517C158.272 50.4277 158.173 50.3277 158.045 50.2006C157.929 50.0848 157.771 49.9303 157.635 49.7846C157.399 49.533 156.971 49.0508 156.943 48.4135L156.879 46.3627C156.845 44.3078 156.887 42.2513 156.879 40.2514V40.2338C156.879 37.828 156.803 35.332 156.932 32.8803L157.008 32.4525C157.132 32.0513 157.377 31.7271 157.547 31.515C157.669 31.3623 157.812 31.2032 157.916 31.0814C158.031 30.9467 158.12 30.8381 158.186 30.7416L158.332 30.5775C158.495 30.4325 158.706 30.3487 158.93 30.349ZM195.129 30.2553C196.111 30.3112 197.255 30.4532 198.311 30.9525C199.438 31.487 200.429 32.4031 201.029 33.8998L201.146 34.3627C201.206 34.8243 201.109 35.2697 201.029 35.5756C200.971 35.7979 200.896 36.0395 200.842 36.226C200.783 36.428 200.738 36.5924 200.713 36.7357C200.656 37.0595 200.426 37.3269 200.115 37.433C199.804 37.539 199.461 37.4673 199.219 37.2455C198.697 36.7681 198.086 36.2419 197.543 35.681C197.049 35.179 196.537 34.4854 196.166 34.0463C195.735 33.536 195.394 33.2329 195.064 33.1029C194.377 32.8364 193.755 32.8703 193.248 33.1088C192.735 33.3504 192.251 33.8392 191.936 34.6322C191.791 34.9961 191.772 35.2606 191.795 35.4408C191.818 35.6171 191.892 35.7795 192.023 35.9506C192.323 36.3388 192.843 36.669 193.547 37.0814L196.441 38.6576C197.424 39.1952 198.42 39.7826 199.342 40.4974C201.135 41.8882 202.011 43.7204 201.791 45.5599C201.572 47.3873 200.301 48.9843 198.299 49.9838C196.185 51.0335 193.794 51.1003 191.801 50.3939C189.807 49.6868 188.13 48.1707 187.6 46.0111C187.442 45.3674 187.634 44.7315 187.787 44.2943C187.868 44.065 187.964 43.8158 188.039 43.6205C188.119 43.4101 188.184 43.2304 188.227 43.0697L188.32 42.8412C188.444 42.6323 188.651 42.481 188.895 42.4252C189.221 42.351 189.562 42.4632 189.779 42.7181C190.026 43.0077 190.263 43.1935 190.652 43.5853C190.968 43.9035 191.39 44.3655 191.543 44.9799C191.904 46.4285 192.555 47.3893 193.271 47.8568C193.94 48.293 194.777 48.3766 195.779 47.8568L196.441 47.4232C196.664 47.248 196.886 47.0476 197.08 46.8314C197.488 46.3782 197.68 45.977 197.707 45.7299C197.728 45.5415 197.636 45.1503 197.314 44.6283C197.162 44.3812 196.978 44.1384 196.787 43.9193L196.213 43.351C195.608 42.853 194.911 42.4413 194.145 42.0326C193.407 41.6392 192.547 41.2181 191.766 40.7611C190.793 40.191 189.677 39.512 188.918 38.5463C188.109 37.5163 187.736 36.2146 188.109 34.5443C188.759 31.6928 191.479 30.2204 194.971 30.2201C195.026 30.2201 195.077 30.2458 195.129 30.2553ZM278.32 30.4662C280.714 30.4662 283.325 30.2159 285.768 30.5541L286.289 30.6537C288.824 31.3058 290.338 33.9879 290.215 36.4721C290.144 37.8711 289.73 39.0842 288.943 40.0287C288.154 40.9741 287.051 41.584 285.738 41.8803C284.385 42.189 282.964 42.3323 281.449 42.5248C281.461 44.4713 281.51 46.3581 281.396 48.2084L281.391 48.2142C281.352 48.7779 281.063 49.2518 280.852 49.5619C280.583 49.9558 280.429 50.1221 280.271 50.3939C280.118 50.6591 279.839 50.8315 279.533 50.8451C279.226 50.8583 278.93 50.7097 278.754 50.4584C278.688 50.3654 278.603 50.2573 278.484 50.1244C278.377 50.0041 278.225 49.8425 278.098 49.6908C277.875 49.4248 277.481 48.9278 277.477 48.2963L277.418 39.9467C277.415 37.1362 277.424 34.2882 277.424 31.3685C277.424 30.872 277.824 30.467 278.32 30.4662ZM346.242 30.0443C346.55 29.9442 346.899 30.0141 347.145 30.2494C347.482 30.5727 347.802 30.7811 348.281 31.181C348.693 31.5243 349.18 31.9888 349.447 32.6224C350.914 36.0839 352.258 39.6134 353.795 43.5971C355.303 39.7043 356.637 36.2193 358.078 32.7865L358.307 32.3471C358.56 31.9383 358.881 31.6004 359.174 31.3217C359.619 30.8978 359.94 30.6519 360.264 30.3021L360.516 30.1088C360.797 29.9659 361.141 29.9787 361.418 30.1615C361.556 30.2529 361.697 30.3475 361.828 30.4369C361.96 30.5266 362.085 30.6124 362.209 30.6947C362.461 30.8613 362.613 31.1428 362.613 31.4447C362.613 37.1423 362.645 42.8702 362.561 48.5834C362.557 48.9355 362.417 49.2194 362.291 49.4096C362.162 49.6036 362.001 49.7679 361.869 49.8959C361.741 50.0203 361.587 50.1573 361.482 50.2533C361.362 50.3632 361.278 50.4479 361.219 50.517C361.033 50.7347 360.754 50.8478 360.469 50.8275C360.184 50.8065 359.924 50.6533 359.771 50.4115C359.718 50.3251 359.642 50.2261 359.543 50.101C359.454 49.9881 359.328 49.8301 359.221 49.6849C359.022 49.4167 358.705 48.9528 358.693 48.3783C358.635 45.6398 358.625 42.9474 358.494 40.2103L354.521 50.2533C354.385 50.5963 354.053 50.8217 353.684 50.8217C353.442 50.8217 353.187 50.8342 352.922 50.8451C352.538 50.861 352.183 50.6285 352.043 50.2709C351.157 48.0081 350.275 45.7426 349.389 43.4799C348.873 42.1634 348.357 40.8471 347.842 39.5306V49.7377C347.841 50.2333 347.441 50.6329 346.945 50.6342H345.785C345.289 50.6342 344.884 50.2341 344.883 49.7377C344.883 43.6649 344.873 37.5853 344.895 31.4974C344.895 31.2269 345.018 30.9704 345.229 30.8002C345.344 30.7068 345.458 30.6083 345.58 30.5072C345.7 30.4073 345.829 30.3049 345.955 30.2025L346.242 30.0443ZM172.084 30.2318C173.204 30.1984 174.348 30.2224 175.453 30.5189C177.173 30.9856 179.043 32.442 179.912 34.0463C180.671 35.4396 180.744 36.8425 180.281 38.1361C179.946 39.0718 179.341 39.9111 178.582 40.6439C179.773 41.7773 180.247 43.0967 180.393 44.4467C180.478 45.2409 180.458 46.0425 180.422 46.7904C180.385 47.5603 180.337 48.2572 180.352 48.9408V48.9642C180.351 49.3226 180.177 49.6138 180.082 49.7553C179.964 49.9306 179.816 50.09 179.672 50.224C179.528 50.3575 179.356 50.4918 179.174 50.5931C179.083 50.6435 178.967 50.7025 178.834 50.7396C178.712 50.7735 178.498 50.8144 178.254 50.7514C177.862 50.6502 177.472 50.4211 177.17 50.1654C176.889 49.9279 176.526 49.5298 176.426 49.0111C176.321 48.4481 176.3 47.8799 176.303 47.3588C176.306 46.7859 176.331 46.3777 176.326 45.8646C176.321 44.8803 176.282 44.1678 176.191 43.6498C176.101 43.1381 175.975 42.9094 175.857 42.7885C175.745 42.6726 175.539 42.5491 175.066 42.4662C174.582 42.3814 173.919 42.3557 172.98 42.3666C172.587 42.3666 172.216 42.4055 171.691 42.4486C171.702 43.7226 171.728 45.0189 171.703 46.3099L171.645 47.8803C171.611 48.4518 171.37 48.9506 171.164 49.3217C170.915 49.7701 170.757 49.9796 170.596 50.3119C170.451 50.6108 170.154 50.8081 169.822 50.8217C169.49 50.8342 169.175 50.6585 169.008 50.3705C168.939 50.2522 168.848 50.1231 168.732 49.9662C168.626 49.8215 168.48 49.6337 168.357 49.4564C168.125 49.12 167.799 48.5978 167.789 47.974C167.694 42.5218 167.736 37.0654 167.736 31.2514C167.736 30.8848 167.959 30.5511 168.299 30.4135C168.428 30.3614 168.564 30.3514 168.697 30.3607C169.887 30.3581 170.924 30.2665 172.084 30.2318ZM109.893 30.2611C110.069 30.3497 110.25 30.4411 110.426 30.5306C110.599 30.6186 110.769 30.7047 110.936 30.7885C111.073 30.8533 111.196 30.9481 111.287 31.0756C111.456 31.3123 111.499 31.6152 111.404 31.89C109.412 37.6549 107.423 43.4259 105.387 49.1752C105.246 49.5794 104.943 49.9583 104.678 50.2064C104.537 50.3382 104.37 50.4741 104.186 50.5756C104.039 50.6559 103.708 50.8137 103.318 50.7396L103.289 50.7338C102.883 50.6426 102.482 50.4241 102.164 50.1713C101.93 49.9852 101.681 49.7306 101.502 49.4213L101.35 49.099C99.3221 43.4006 97.367 37.6803 95.3848 31.9252C95.2402 31.5053 95.4258 31.0423 95.8184 30.8353C96.7169 30.3649 97.6537 30.1385 98.4902 30.5892C99.2591 31.0036 99.6418 31.8442 99.8906 32.6049C101.127 36.3202 102.423 40.0169 103.846 44.0892C105.532 39.4082 107.09 35.0843 108.645 30.7592L108.844 30.4369C108.931 30.3471 109.036 30.2735 109.154 30.226C109.393 30.1304 109.662 30.1458 109.893 30.2611ZM255.422 30.5248C255.918 30.5248 256.323 30.9252 256.324 31.4213C256.324 31.6028 256.339 31.7127 256.354 31.9896H256.342L256.354 32.0248V32.0365C256.352 32.5231 255.967 32.9197 255.48 32.933C255.457 32.9336 255.433 32.9224 255.41 32.9213H248.906V39.0092H253.453L253.793 39.0736C254.108 39.2026 254.333 39.5104 254.35 39.8705C254.36 40.1042 254.372 40.3232 254.391 40.5267C254.412 40.7682 254.337 41.0105 254.18 41.1947C254.021 41.3795 253.79 41.49 253.547 41.5053C252.061 41.5984 250.567 41.6925 248.947 41.7924V48.226H255.369C255.866 48.226 256.271 48.6312 256.271 49.1283C256.271 49.381 256.258 49.6199 256.248 49.8431C256.226 50.3232 255.832 50.7039 255.352 50.7045H245.76C245.263 50.7045 244.858 50.299 244.857 49.8021V31.4213C244.859 30.9252 245.263 30.5248 245.76 30.5248H255.422ZM119.414 30.4896H129.006C129.503 30.4896 129.908 30.8949 129.908 31.392C129.908 31.475 129.915 31.5616 129.92 31.6732C129.925 31.778 129.932 31.9089 129.932 32.0424C129.932 32.5394 129.526 32.9446 129.029 32.9447H122.49V39.0619H126.984L127.324 39.1322C127.642 39.2631 127.869 39.5707 127.881 39.9349L127.904 40.5795C127.919 41.0625 127.548 41.4714 127.066 41.5053C125.549 41.6086 124.065 41.6974 122.479 41.8041V48.1381H128.953C129.45 48.1381 129.855 48.5434 129.855 49.0404V49.7553C129.855 50.2523 129.45 50.6576 128.953 50.6576H119.355C118.858 50.6576 118.453 50.2523 118.453 49.7553V31.3803L118.523 31.0287C118.66 30.7057 118.983 30.4779 119.355 30.4779C119.375 30.4779 119.395 30.4883 119.414 30.4896ZM370.6 30.4779H380.162C380.659 30.4779 381.064 30.8832 381.064 31.3803C381.064 31.5724 381.08 31.711 381.094 31.9896C381.106 32.2356 381.018 32.4793 380.848 32.6576C380.678 32.8346 380.442 32.9328 380.197 32.933H373.67V39.0619H378.205C378.701 39.0633 379.102 39.468 379.102 39.9642C379.102 40.1756 379.104 40.3701 379.113 40.5502C379.138 41.0424 378.761 41.4626 378.27 41.4935C376.754 41.5873 375.285 41.6841 373.682 41.7865V48.1908H380.121C380.618 48.1908 381.023 48.5961 381.023 49.0931V49.7377C381.023 50.234 380.618 50.6342 380.121 50.6342H370.5C370.004 50.6339 369.599 50.2338 369.598 49.7377V31.3685C369.6 31.1432 369.681 30.9217 369.844 30.7533L369.855 30.7416C370.052 30.5392 370.328 30.4477 370.6 30.4779ZM224.59 32.2006V49.0404C224.717 49.0469 224.844 49.0519 224.971 49.058C224.959 48.9727 224.963 48.8861 224.977 48.8002V32.4935C224.977 32.3797 224.99 32.2667 225.029 32.1654C224.884 32.1755 224.737 32.1894 224.59 32.2006ZM246.662 48.8998H247.148V40.9428C247.149 40.7596 247.212 40.593 247.307 40.4506C247.189 40.299 247.108 40.1179 247.107 39.9115V32.3236H246.662V48.8998ZM177.609 42.2142C177.78 42.56 177.896 42.938 177.967 43.3392C178.086 44.0186 178.12 44.8545 178.125 45.8412L178.102 47.3705C178.099 47.8425 178.119 48.2641 178.189 48.6537C178.179 48.6127 178.17 48.612 178.195 48.6478C178.221 48.6833 178.265 48.7332 178.33 48.7885C178.371 48.8229 178.42 48.853 178.465 48.8822C178.488 48.86 178.51 48.8394 178.529 48.8178C178.541 48.8048 178.55 48.7932 178.559 48.7826C178.554 48.0785 178.591 47.3578 178.623 46.7025C178.659 45.9649 178.675 45.2838 178.605 44.64C178.509 43.7512 178.248 42.9406 177.609 42.2142ZM97.3711 32.1596C99.2584 37.6427 101.121 43.0782 103.049 48.4955C103.049 48.4955 103.054 48.5137 103.061 48.5248C103.07 48.541 103.087 48.5638 103.107 48.5892C103.15 48.642 103.21 48.7006 103.283 48.7592C103.343 48.8068 103.416 48.8269 103.471 48.8588C103.525 48.805 103.582 48.7516 103.623 48.6947C103.673 48.626 103.693 48.5892 103.693 48.5892C103.803 48.2795 103.906 47.9616 104.016 47.6517C103.954 47.6645 103.892 47.6814 103.828 47.681C103.448 47.6785 103.11 47.4364 102.984 47.0775C102.11 44.5631 101.28 42.1969 100.482 39.9056L98.1797 33.1674C97.9434 32.4452 97.7363 32.232 97.6348 32.1771C97.6166 32.1673 97.5462 32.1319 97.3711 32.1596ZM120.252 48.8588H120.68V40.9662C120.68 40.7724 120.75 40.598 120.855 40.4506C120.761 40.3083 120.692 40.1477 120.691 39.9642V32.2885H120.252V48.8588ZM371.402 48.8353H371.877V40.9428C371.877 40.7617 371.942 40.598 372.035 40.4564C371.939 40.3132 371.871 40.1498 371.871 39.9642V32.2767H371.402V48.8353ZM76.623 32.6635C76.5594 36.8022 76.4629 40.8965 76.7109 44.9681L76.7695 45.4896C76.9593 46.6648 77.5271 47.5893 78.3281 48.2377C78.5344 48.4045 78.7611 48.5504 79.002 48.683C78.4607 48.2784 78.0336 47.7819 77.7246 47.2064C77.192 46.2128 77.0148 45.0576 76.9922 43.931C76.9551 42.061 76.9557 40.1908 76.957 38.3353C76.9584 36.4763 76.9579 34.6282 76.916 32.7865C76.917 32.8353 76.9352 32.7769 76.752 32.5287C76.6896 32.5868 76.6499 32.6324 76.623 32.6635ZM335.795 32.599C335.45 32.8979 335.258 33.1183 335.174 33.3197C334.827 34.1518 334.504 34.9932 334.166 35.8334C334.255 35.8227 334.349 35.8217 334.441 35.8392C334.462 35.8432 334.48 35.8574 334.5 35.8627C334.541 35.8666 334.583 35.8704 334.629 35.8744C334.719 35.8824 334.825 35.8913 334.934 35.9037C335.388 35.9559 335.73 36.343 335.73 36.8002C335.73 40.6924 335.688 44.5415 335.771 48.4076C335.768 48.3575 335.753 48.3496 335.777 48.3959C335.804 48.4463 335.859 48.5172 335.947 48.6244L335.959 48.6361L335.977 48.6244C336.05 48.5529 336.094 48.4966 336.123 48.4603C336.202 43.0722 336.178 37.6766 336.176 32.265C336.026 32.3871 335.898 32.5094 335.795 32.599ZM360.416 32.6283C360.241 32.7952 360.1 32.9454 359.988 33.0853L359.736 33.4838C359.481 34.0931 359.242 34.7094 358.992 35.3236C359.069 35.3136 359.147 35.3072 359.227 35.3178C359.636 35.3736 359.955 35.7037 360 36.1146C360.448 40.3312 360.409 44.3875 360.492 48.3431L360.639 48.5775C360.699 48.5182 360.737 48.474 360.762 48.4428C360.84 43.0515 360.817 37.6527 360.814 32.2474C360.663 32.3847 360.528 32.5217 360.416 32.6283ZM322.318 32.1185V35.8158C322.42 35.8076 322.519 35.8044 322.611 35.7982C322.734 35.7899 322.848 35.7846 322.957 35.7748L323.244 35.7924C323.524 35.8589 323.761 36.0595 323.871 36.3373C325.482 40.3847 327.081 44.4422 328.682 48.4896C328.871 48.0073 329.061 47.5249 329.25 47.0424C329.225 47.0444 329.199 47.0599 329.174 47.0599C328.804 47.0591 328.47 46.8308 328.336 46.4857C326.523 41.8108 324.876 37.5997 323.291 33.3724C323.019 32.6417 322.783 32.2965 322.6 32.1654C322.539 32.122 322.485 32.1053 322.406 32.1068C322.382 32.1074 322.353 32.1126 322.318 32.1185ZM346.688 35.6107C346.726 35.5991 346.764 35.582 346.805 35.5756C346.908 35.5595 347.012 35.5392 347.115 35.5228C347.216 35.5067 347.32 35.4924 347.426 35.476L347.736 35.4818C348.032 35.5392 348.289 35.7448 348.404 36.0385C349.29 38.3005 350.179 40.5615 351.064 42.8236C351.804 44.7115 352.54 46.6017 353.279 48.4896L353.877 46.9896C353.794 46.9977 353.71 47.0055 353.625 46.9896C353.292 46.9269 353.031 46.684 352.934 46.3744C351.024 41.4654 349.498 37.3564 347.789 33.3256C347.697 33.1097 347.495 32.8709 347.127 32.5639C347.008 32.465 346.858 32.3346 346.688 32.2006C346.684 33.3376 346.689 34.4743 346.688 35.6107ZM279.217 32.2474C279.214 37.7668 279.19 43.0092 279.27 48.2435C279.266 48.2277 279.267 48.2351 279.287 48.2728C279.311 48.3179 279.354 48.3758 279.416 48.4545C279.558 48.2334 279.595 48.1331 279.598 48.0912C279.721 46.0691 279.65 44.0481 279.65 41.7396C279.651 41.5065 279.74 41.2802 279.902 41.1127L279.914 41.1068L280.148 40.9252L280.154 40.9193C279.939 40.754 279.798 40.5034 279.797 40.2162V32.3705C279.797 32.322 279.813 32.2764 279.82 32.2299C279.621 32.2351 279.42 32.2438 279.217 32.2474ZM169.529 32.1244C169.526 37.6275 169.498 42.7853 169.588 47.9447C169.589 47.9744 169.611 48.0474 169.699 48.2025C169.789 48.0125 169.839 47.8827 169.846 47.7748C169.97 45.7608 169.887 43.7654 169.887 41.6107C169.887 41.3329 170.021 41.0908 170.221 40.9252C170.105 40.7738 170.027 40.5911 170.027 40.3861V32.1068C169.862 32.1139 169.696 32.1191 169.529 32.1244ZM59.8242 33.015C59.2844 33.0175 58.6627 33.2524 58.0547 33.7826L57.4512 34.4154C56.3476 35.8056 55.7339 38.177 55.7461 40.6615C55.7588 43.1494 56.3998 45.4855 57.5039 46.8139C58.311 47.784 59.1314 48.1865 59.7891 48.2025C60.4025 48.2169 61.1053 47.9011 61.7402 46.9076C62.3058 46.0206 62.72 45.0008 63.1113 43.8783C63.4541 42.8949 63.8111 41.7572 64.207 40.6791C63.8143 39.545 63.4808 38.3959 63.1582 37.4037C62.8858 36.5662 62.6056 35.7971 62.2617 35.0951L61.8926 34.4154C61.2725 33.3829 60.5116 33.0124 59.8242 33.015ZM305.314 33.0385C304.778 33.0441 304.164 33.2673 303.574 33.7592L302.994 34.3451C301.903 35.6596 301.273 38.0065 301.26 40.5092C301.247 43.0115 301.85 45.3891 302.93 46.7435C303.735 47.7543 304.592 48.1673 305.285 48.1791C305.941 48.1896 306.685 47.8442 307.33 46.808L307.699 46.1459C308.047 45.459 308.328 44.6985 308.602 43.8666C308.925 42.8821 309.266 41.7219 309.656 40.5971C309.275 39.5056 308.936 38.3598 308.607 37.3685C308.233 36.2395 307.83 35.2142 307.283 34.3158C306.718 33.3777 305.994 33.0318 305.314 33.0385ZM139.16 35.7982C139.399 35.8131 139.625 35.9194 139.787 36.1088C141.663 38.3051 143.19 40.646 144.633 42.9349C145.752 44.7112 146.82 46.4411 147.967 48.0912V45.5717C147.86 45.5941 147.747 45.6161 147.627 45.642C147.269 45.7182 146.901 45.5703 146.695 45.267C145.17 43.0006 143.784 40.6265 142.4 38.3119C141.348 36.5518 140.292 34.8184 139.16 33.1556V35.7982ZM308.824 33.3783C309.479 34.4535 309.925 35.6315 310.312 36.8002C310.714 38.0103 311.024 39.1269 311.449 40.2982C311.523 40.5017 311.51 40.7176 311.438 40.9135L311.443 40.9193C311.013 42.1194 310.704 43.238 310.312 44.4291C310.03 45.2894 309.716 46.1482 309.305 46.9603L308.859 47.7572C308.787 47.873 308.702 47.9778 308.625 48.0853C308.684 48.0436 308.75 48.0124 308.807 47.9681C310.042 47.0048 310.985 45.3616 311.443 42.9877C311.955 40.3221 311.635 37.7835 310.746 35.8334C310.212 34.6618 309.483 33.7283 308.619 33.0853C308.686 33.1818 308.762 33.2746 308.824 33.3783ZM229.506 33.4193C228.708 33.1568 227.796 33.1057 226.775 33.2494V48.056C227.963 48.0636 229.01 47.9465 229.904 47.599C230.973 47.1836 231.876 46.4368 232.547 45.1029L233.086 43.8607C233.989 41.3908 233.879 38.9447 232.723 36.6185L232.055 35.4642C231.333 34.3747 230.469 33.7364 229.506 33.4193ZM56.0332 33.3021C55.7867 33.4968 55.5564 33.7144 55.3418 33.9525C54.3013 35.1084 53.5904 36.822 53.4023 39.0267C53.159 41.8845 53.5672 44.2272 54.4395 45.9115C54.8814 46.7646 55.4435 47.4519 56.1152 47.9623C54.6374 46.1818 53.961 43.366 53.9473 40.6732C53.9336 37.9797 54.5784 35.1403 56.0332 33.3021ZM301.529 33.2963C301.256 33.5111 301 33.75 300.768 34.017C299.689 35.2569 298.983 37.1301 298.834 39.6127L298.805 40.7142C298.821 44.0931 299.853 46.5155 301.512 47.8451C300.08 46.0355 299.447 43.1966 299.461 40.5033C299.474 37.8534 300.115 35.0737 301.529 33.2963ZM189.463 44.9447C189.335 45.3231 189.326 45.5008 189.346 45.5834C189.562 46.4642 190.074 47.2166 190.787 47.7982C190.35 47.114 190.013 46.3073 189.791 45.4193C189.768 45.3258 189.686 45.1818 189.463 44.9447ZM233.086 33.8353C233.248 34.0355 233.406 34.2486 233.555 34.474C235.934 38.0804 236.089 42.0536 234.158 45.9056C233.87 46.4798 233.534 46.9781 233.168 47.4115C233.727 46.9488 234.251 46.3654 234.732 45.6303L235.072 45.0678C236.538 42.3698 236.502 38.8206 234.99 36.1439L234.645 35.5814C234.162 34.8659 233.639 34.2943 233.086 33.8353ZM190.072 34.3275L189.867 34.9369C189.609 36.0897 189.867 36.8358 190.336 37.433C190.856 38.094 191.675 38.623 192.674 39.2084L194.994 40.4447C195.791 40.87 196.616 41.3483 197.361 41.9623C197.891 42.4014 198.438 43.0265 198.844 43.6849C199.227 44.3065 199.577 45.1229 199.488 45.9232L199.494 45.9291C199.435 46.461 199.19 46.961 198.891 47.4056C199.562 46.7645 199.92 46.0437 200.004 45.3431C200.132 44.2681 199.653 43.0111 198.24 41.9154C197.432 41.2892 196.536 40.7566 195.58 40.2338C194.648 39.724 193.604 39.1965 192.639 38.6342C192.004 38.2621 191.152 37.7669 190.6 37.0521C190.307 36.6722 190.078 36.2145 190.008 35.6693C189.94 35.1433 190.023 34.593 190.242 34.0228C190.182 34.1234 190.12 34.2216 190.072 34.3275ZM32.1855 44.2006C32.0874 44.2207 31.9618 44.2604 31.8047 44.3295V45.1791C32.2552 46.0054 32.7453 46.7027 33.2695 47.2709C33.0142 46.7246 32.8324 46.1175 32.7422 45.4662C32.6763 44.9828 32.5932 44.6456 32.502 44.4291C32.4148 44.2233 32.3496 44.1889 32.3496 44.1889C32.3307 44.185 32.2805 44.1814 32.1855 44.2006ZM32.9824 34.9662C32.8993 35.1645 32.8416 35.3491 32.8184 35.517C32.7821 35.8168 32.9211 36.3438 33.3105 36.9994C33.6828 37.6252 34.1949 38.2201 34.6582 38.6107C35.3734 39.2139 36.2249 39.674 37.1777 40.1693C38.1023 40.6499 39.1372 41.1692 40.0547 41.8627C40.6124 42.2791 41.2201 42.9124 41.6719 43.5619C41.8987 43.8881 42.1047 44.2487 42.2402 44.6107C42.3688 44.9545 42.4783 45.414 42.3574 45.8764C42.3371 45.955 42.2952 46.0272 42.2695 46.1049C42.4524 45.8146 42.619 45.5256 42.7383 45.2318L42.8789 44.7279C42.9502 44.235 42.823 43.7781 42.5508 43.3334C42.1665 42.7058 41.5031 42.1221 40.7461 41.6342C39.8662 41.0572 38.9186 40.5657 37.9277 40.0404C36.9525 39.5234 35.9307 38.9761 34.9805 38.3002C34.457 37.9324 33.9318 37.3447 33.5625 36.7533C33.374 36.4515 33.2069 36.1178 33.0996 35.7806C33.0246 35.5443 32.9716 35.2609 32.9824 34.9662ZM176.279 40.5502C176.147 40.6485 176.008 40.7321 175.869 40.808C176.039 40.8569 176.204 40.9167 176.361 40.9896C176.323 40.8937 176.294 40.7908 176.291 40.6849C176.29 40.6293 176.3 40.5749 176.309 40.5209C176.298 40.5292 176.29 40.542 176.279 40.5502ZM282.486 33.1264C282.221 33.1471 281.911 33.1679 281.596 33.1967V39.4252C282.387 39.5382 283.088 39.6195 283.711 39.5424C284.448 39.4508 284.997 39.1632 285.387 38.4349C285.646 37.953 285.818 37.2471 285.85 36.4721C285.873 35.8928 285.821 35.3263 285.703 34.849L285.562 34.4096C285.367 33.9108 285.128 33.627 284.889 33.4545C284.644 33.2786 284.333 33.1713 283.928 33.1205C283.513 33.0688 283.036 33.0835 282.486 33.1264ZM171.826 39.5131C172.144 39.5256 172.455 39.5404 172.729 39.5482C173.295 39.5643 173.784 39.5533 174.211 39.4838C174.631 39.4153 174.954 39.2964 175.207 39.1088C175.453 38.9261 175.687 38.6373 175.875 38.1478C176.084 37.6042 176.202 36.7703 176.162 35.9681C176.142 35.5739 176.09 35.2158 176.004 34.931C175.915 34.6361 175.811 34.48 175.746 34.4154C175.321 33.9876 174.666 33.6964 173.736 33.4252C173.204 33.27 172.524 33.0944 171.826 32.9037V39.5131ZM286.752 32.8334C286.941 33.1052 287.109 33.413 287.244 33.7592L287.449 34.4096C287.617 35.086 287.678 35.8318 287.648 36.5482C287.609 37.4988 287.401 38.4966 286.975 39.2904C286.935 39.3638 286.882 39.4268 286.84 39.4955C287.117 39.3126 287.363 39.1163 287.561 38.8803C288.049 38.2955 288.36 37.4813 288.416 36.3842L288.393 35.6517C288.248 34.479 287.619 33.4313 286.752 32.8334ZM177.727 34.4096C177.865 34.868 177.936 35.379 177.961 35.8803C178.01 36.8692 177.875 37.9622 177.557 38.7924C177.469 39.0216 177.358 39.2283 177.246 39.4252C177.895 38.8176 178.355 38.1804 178.588 37.5326C178.876 36.7299 178.848 35.8586 178.33 34.9076C178.122 34.5237 177.82 34.1453 177.469 33.7943C177.572 33.9968 177.664 34.2028 177.727 34.4096ZM41.0156 33.0092C41.3651 33.5173 41.6664 34.1002 41.918 34.7377L42.0234 34.8842C42.0581 34.9206 42.1065 34.9584 42.1641 35.0072C42.2207 34.7106 42.2215 34.57 42.1992 34.5033L42.1934 34.4974C42.0035 33.9514 41.5911 33.437 41.0156 33.0092ZM197.543 32.8861L198.832 34.4213L198.838 34.4271C198.993 34.587 199.162 34.731 199.324 34.8842C199.338 34.8113 199.362 34.7505 199.365 34.6967C199.37 34.6259 199.359 34.5795 199.359 34.5795C198.937 33.5257 198.284 32.9329 197.543 32.5814C197.389 32.5083 197.227 32.4494 197.062 32.3939C197.23 32.564 197.402 32.7196 197.543 32.8861ZM67.8809 40.5971C67.8754 44.0414 66.97 46.8604 65.2148 48.6889C63.4292 50.549 60.8936 51.2525 57.9727 50.6986C55.6779 50.2654 53.9257 48.8385 52.8398 46.7435C51.7661 44.671 51.3468 41.9593 51.6094 38.8744C51.8222 36.379 52.6383 34.2649 54 32.7514C55.374 31.2249 57.2544 30.3629 59.4492 30.3139C62.0643 30.2537 64.2293 31.199 65.7129 33.0502C67.1721 34.8721 67.8915 37.4733 67.8809 40.5971ZM158.678 40.2455L158.666 44.3119C158.665 45.6439 158.675 46.9683 158.736 48.2963C158.73 48.2669 158.724 48.2684 158.748 48.308C158.781 48.3627 158.843 48.4421 158.947 48.5541L158.971 48.5775C159.127 48.3641 159.105 48.3326 159.105 48.3959V48.3842C159.179 43.2444 159.19 38.1042 159.105 32.9681L158.918 32.6928C158.766 32.8888 158.73 32.9799 158.73 32.9799C158.606 35.3678 158.678 37.7563 158.678 40.2338V40.2455Z" fill="#5A3E36"/>
</svg>
